<svg xmlns="http://www.w3.org/2000/svg" width="24" height="24" fill="none">
  <path fill="#fff"
    d="m5.969 13.095.6-4.519-5.213-3.619L6.119 6.57l1.125-1.725 4.106-2.55 9.056 4.987.469 7.613-4.032 5.606-3.187.488 1.65-3.02v-2.905l-1.2-2.27-1.219-.805-1.875 1.93v2.045L9.55 17.332l-1.857.225-.824.47-1.35-.432-.563-2.025 1.013-1.425v-1.05Z" />
  <path fill="#94A6C3"
    d="M14.293 4.919c-.993-.207-2.08-.15-2.08-.15s-.357 1.65-2.57 2.081c.02 0 2.925.994 4.65-1.931ZM15.194 19.881c1.2-.937 2.1-2.231 2.512-3.694.019-.056.188-.15.3-.225.188-.112.375-.206.413-.356a7.81 7.81 0 0 0 .112-1.331c0-.169-.169-.338-.337-.506-.132-.113-.263-.244-.263-.338A7.145 7.145 0 0 0 15.7 8.97l-.131.131a6.984 6.984 0 0 1 2.175 4.35c.018.15.168.3.318.45.131.112.281.281.281.356 0 .431-.037.863-.112 1.294-.019.075-.188.15-.319.225-.187.094-.356.188-.393.338a6.93 6.93 0 0 1-2.85 3.88c.243-.524 1.012-2.23 1.424-3.093l-.075-2.775-2.38-2.306-1.35.187-1.482 2.4s.694.881-.281 1.913c-.957 1.012-1.707 1.237-1.707 1.237l-.693-.375c.206-.262.618-.656.937-.919.544-.45 1.088-.487 1.088-.975.018-1.012-1.069-.73-1.069-.73l-.394.374-.168 1.388-.826 1.031-.093-.019-1.35-.3s.825-.431.956-.918c.131-.47-.263-2.025-.281-2.12.018.02.394.338.562.863.3-.825.694-1.612.806-1.687a91.35 91.35 0 0 1 1.632-.882l-.507 1.332.375-.207.9-2.212s.882-.431 1.538-.431c1.181-.019 2.925-1.463 2.137-4.05.226.094 4.126 2.044 4.8 5.869.507 2.943-1.162 5.7-3.974 7.293Z" />
  <path fill="#1B314F"
    d="M10.731 5.332c.431-.506.262-1.256.262-1.256L9.737 5.932c-.019 0 .45.02.994-.6ZM6.512 15.475l.15-.75s-.619 1.087-.675 1.237c-.056.169.038.469.282.45.243-.019.543-.375.543-.637 0-.338-.3-.3-.3-.3Z" />
  <path fill="#1B314F"
    d="M17.65 3.55s.937.038 1.912.15c-2.194-1.725-4.275-2.23-5.962-2.23-2.325 0-3.9.955-3.994 1.012l.731-1.163s-2.925-.281-3.956 2.813c-.262-.657-.506-1.613-.506-1.613S4.356 3.85 5.069 6.063C3.325 5.425.83 4.544.737 4.525c-.131-.018-.168.038-.168.038s-.038.056.075.15C.85 4.882 4.787 7.788 5.65 8.35c-.188.675-.188.994 0 1.313.262.431.281.656.243.975-.037.319-.374 3.075-.45 3.412-.074.338-.862 1.538-.824 1.894.037.356.525 1.875.956 2.044.318.112 1.106.356 1.631.356.187 0 .356-.037.431-.112.319-.282.413-.338.638-.338h.056c.094 0 .206.019.338.019.3 0 .693-.056.974-.319.413-.412 1.125-.975 1.35-1.237.282-.357.432-.844.357-1.332-.056-.45.187-.843.469-1.237.356-.469 1.012-1.313 1.012-1.313 1.294.975 2.1 2.457 2.1 4.107 0 2.925-2.55 5.287-5.7 5.287-.488 0-.956-.056-1.425-.169 1.444.507 2.663.675 3.656.675 2.119 0 3.244-.768 3.244-.768s-.394.506-1.031 1.087h.018c3.507-.487 5.213-3.375 5.213-3.375s-.131.938-.3 1.575c4.669-3.506 3.881-7.894 3.862-8.044.038.057.507.62.75.92.75-7.726-5.568-10.22-5.568-10.22Zm-7.181 12.338c-.075.094-.394.375-.62.581-.224.206-.468.413-.656.6-.074.075-.224.113-.45.113h-.562c.281-.375 1.106-1.238 1.388-1.425.337-.225.506-.45.3-.844-.207-.394-.75-.3-.75-.3s.318-.131.6-.131c-.357-.094-.807 0-1.013.206-.225.206-.187.937-.281 1.406-.094.488-.413.731-.9 1.181-.263.244-.45.32-.6.32a6.463 6.463 0 0 1-.956-.245c-.188-.243-.47-1.05-.544-1.387.056-.188.281-.581.394-.806.224-.432.356-.675.393-.9.075-.32.319-2.288.413-3.113.244.319.581.844.506 1.181.544-.768.15-1.518-.038-1.818-.168-.3-.393-.9-.206-1.538.188-.637.863-2.4.863-2.4s.225.394.543.319c.32-.075 2.888-3.938 2.888-3.938s.694 1.52-.037 2.625c-.75 1.107-1.482 1.313-1.482 1.313s1.031.187 1.988-.506c.393.918.768 1.875.787 2.006-.056.131-.806 1.931-.881 2.044-.037.037-.3.112-.487.15-.32.093-.507.15-.582.206-.131.112-.731 1.762-1.012 2.569a1.548 1.548 0 0 0-.919.656c.131-.094.544-.15.844-.188.262-.018 1.069.413 1.275 1.22v.037c.037.3-.057.58-.207.806Zm-1.763.225c.169-.244.15-.656.169-.788.018-.13.056-.375.206-.412.15-.038.506.019.506.281 0 .244-.262.3-.45.469-.131.131-.394.412-.431.45Zm7.481-3.581a8.902 8.902 0 0 0 .15-2.457 6.872 6.872 0 0 1 1.313 3.375c.019.15.169.3.319.45.13.113.28.263.28.357 0 .43-.037.862-.112 1.293-.018.057-.187.15-.319.225-.187.094-.356.188-.393.338a6.981 6.981 0 0 1-2.475 3.619c1.744-1.82 2.587-4.82 1.237-7.2ZM15.006 19.9c1.219-.937 2.156-2.25 2.569-3.73.018-.057.187-.15.3-.226.187-.094.375-.206.412-.356a7.82 7.82 0 0 0 .113-1.331c0-.17-.169-.338-.338-.507-.094-.112-.244-.243-.244-.337a7.326 7.326 0 0 0-1.537-3.731c-.375-2.25-1.875-2.944-1.912-2.963.037.056 1.012 1.463.337 3.113-.694 1.668-2.475 1.406-2.625 1.425-.15 0-.731.75-1.463 2.137-.093-.037-.487-.131-.937-.056.338-.938.844-2.269.938-2.381.037-.038.318-.113.506-.17.356-.093.525-.15.581-.224.037-.056.225-.488.412-.938.17 0 .6-.037.638-.056.037-.037.394-.956.394-1.069 0-.093-.732-1.912-1.013-2.606.131-.15.263-.337.394-.544a7.68 7.68 0 0 1 6.844 7.632 7.677 7.677 0 0 1-4.369 6.918Z" />
  <path fill="#1B314F"
    d="M10.018 9.775c.357-.412.17-1.181-.487-1.312.169-.394.412-1.182.412-1.182s-1.912 3-2.08 3.057c-.17.056-.338-.6-.338-.6-.356 1.368.6 1.556.712 1.125.525-.132 1.425-.694 1.781-1.088Z" />
  <path fill="#FFD923" d="m8.387 10.507.975-1.67s.563.282.281.732c-.356.525-1.256.938-1.256.938Z" />
  <path fill="#D82122"
    d="M20.444 18.232c-.282.375-.6.769-.976 1.144 2.42-4.65.113-8.907.02-9.075.168.168.337.356.487.525 1.856 2.062 2.081 5.156.468 7.406ZM22.694 12.251c-.844-2.268-2.044-4.2-4.688-5.943-2.55-1.688-5.287-1.557-5.438-1.538h-.037c.094-.037.188-.056.281-.075.582-.187 1.332-.337 2.082-.431 1.987-.281 3.993.394 5.362 1.837l.038.038c1.556 1.65 2.362 3.712 2.4 6.112ZM17.406 2.97c-2.794-.525-4.594-.263-5.887.225-.038-.15-.17-.45-.282-.694-.393.469-.806 1.031-1.069 1.388-.712.487-1.012.956-1.012.956.413-1.406 1.612-2.456 3.075-2.719a7.56 7.56 0 0 1 1.35-.112 8.807 8.807 0 0 1 3.825.956ZM7.075 6.57C4.88 6.495 5.612 3.945 5.65 3.795c0 .019.15 2.006 1.425 2.775ZM9.231 1.975c-1.688 1.012-1.35 3.43-1.35 3.43C6.269 2.95 9.1 2.032 9.231 1.976Z" />
  <path fill="#fff"
    d="M6.456 7.245c.113.093.225.262.094.506-.075.131-.188.112-.356.037-.225-.112-1.575-.9-2.794-1.706 1.387.488 2.794 1.013 3.019 1.125l.037.038Z" />
</svg>