<svg width="104" height="29" viewBox="0 0 104 29" fill="none" xmlns="http://www.w3.org/2000/svg">
<g clip-path="url(#clip0_424_6751)">
<path d="M34.1442 12.475C34.5464 12.475 34.9488 12.3945 35.351 12.2337C35.673 12.0726 35.8337 11.7508 35.7534 11.3486C35.7534 11.0267 35.5925 10.7049 35.351 10.544C35.1097 10.383 34.627 10.2221 34.0638 10.2221H31.4086V12.475H34.1442V12.475ZM33.581 8.37154C33.9832 8.37154 34.3856 8.29109 34.7878 8.1302C35.1097 7.96931 35.2706 7.64738 35.2706 7.3256C35.2706 7.00367 35.1097 6.68189 34.8684 6.521C34.5464 6.27966 34.1444 6.19922 33.7418 6.27966H31.4891V8.45198H33.581V8.37154V8.37154ZM29.236 4.18764H33.9832C35.19 4.18764 36.0751 4.50957 36.6385 5.07269C37.2016 5.55551 37.4431 6.19922 37.4431 6.84278C37.4431 7.08426 37.4431 7.40605 37.3626 7.64738C37.2016 8.04976 36.9602 8.45199 36.6385 8.77391C36.4774 8.93494 36.3165 9.01525 36.1556 9.09569C36.7189 9.25673 37.2016 9.57851 37.604 9.98074C37.9257 10.383 38.0866 10.8658 38.0866 11.5899C38.0866 11.9922 38.0062 12.475 37.8453 12.7968C37.6844 13.1187 37.3626 13.4405 37.0407 13.6818C36.6385 13.9232 36.2361 14.0841 35.8337 14.2449C35.351 14.4058 34.7878 14.4058 34.2247 14.4058H29.3166V4.1875H29.2362L29.236 4.18764Z" fill="white"/>
<path d="M40.9028 4.1875H43.1557V14.4864H40.9028V4.1875Z" fill="white"/>
<path d="M46.6153 4.1875H48.7073L53.5349 10.5437V4.1875H55.7877V14.4863H53.8568L48.7879 7.96917V14.4863H46.6153V4.1875Z" fill="white"/>
<path d="M65.0407 10.2223L63.6728 6.84301L62.3049 10.2223H65.0407ZM62.6267 4.10742H64.7189L69.144 14.4866H66.8109L65.8453 12.1533H61.5006L60.535 14.4866H58.2018L62.627 4.10742H62.6267Z" fill="white"/>
<path d="M71.5579 4.1875H73.6498L78.4774 10.5437V4.1875H80.7302V14.4863H78.7992L73.8106 7.96917V14.4863H71.5579V4.1875Z" fill="white"/>
<path d="M88.9371 14.6482C88.2131 14.6482 87.4889 14.4873 86.8452 14.2458C85.5578 13.6827 84.5925 12.7172 84.0292 11.4296C83.7877 10.7859 83.6268 10.0618 83.6268 9.33777C83.6268 7.9699 84.1901 6.60204 85.1556 5.5561C85.6383 5.07328 86.2015 4.67105 86.8452 4.42972C87.5694 4.10793 88.2935 4.02734 89.0176 4.02734C89.4199 4.02734 89.9026 4.02734 90.305 4.10793C90.7073 4.18838 91.0291 4.26882 91.3511 4.42972C91.6728 4.59061 91.9945 4.75164 92.2361 4.91239C92.4774 5.07328 92.7992 5.31476 93.0407 5.5561L91.673 7.24575C91.2706 6.92396 90.8684 6.60204 90.466 6.3607C90.0638 6.11936 89.581 6.03892 89.0981 6.03892C88.6959 6.03892 88.2937 6.11936 87.8913 6.28026C87.4891 6.44115 87.1672 6.68248 86.9258 7.00441C86.6845 7.32619 86.443 7.64812 86.2821 8.05035C86.1212 8.45258 86.0408 8.85495 86.0408 9.25718C86.0408 9.65941 86.1212 10.1422 86.2821 10.5446C86.443 10.947 86.604 11.2688 86.9258 11.5905C87.4891 12.2342 88.2937 12.556 89.0981 12.556C89.581 12.556 90.1442 12.4756 90.6269 12.2342C91.0293 11.9929 91.5121 11.671 91.8339 11.3492L93.282 12.7975C93.0407 13.0388 92.7189 13.3606 92.4774 13.6018C92.1557 13.8434 91.8339 14.0042 91.5121 14.1651C91.1902 14.3261 90.7879 14.487 90.3856 14.5675C89.8223 14.6479 89.3396 14.6479 88.9373 14.6479L88.9371 14.6482Z" fill="white"/>
<path d="M95.8566 4.1875H103.581V6.19893H98.029V8.29095H102.937V10.3024H98.029V12.4748H103.661V14.4863H95.8566V4.1875Z" fill="white"/>
<path d="M32.1326 24.6252C31.5694 24.6252 31.0061 24.5448 30.5234 24.3035C30.0406 24.1424 29.5579 23.8206 29.0753 23.4181L29.8797 22.5331C30.2016 22.8549 30.5234 23.0159 30.9257 23.2572C31.328 23.418 31.7303 23.4986 32.1326 23.4986C32.4544 23.4986 32.7762 23.4181 33.0981 23.2572C33.3395 23.0962 33.4199 22.8549 33.4199 22.6135C33.4199 22.5331 33.4199 22.3723 33.3395 22.2919C33.259 22.2114 33.1786 22.0505 33.0981 21.97C32.9372 21.8895 32.7762 21.8091 32.6154 21.7286C32.374 21.6482 32.0522 21.5677 31.8108 21.4871C31.4889 21.4067 31.0865 21.3262 30.7648 21.1654C30.5234 21.0849 30.2016 20.924 30.0406 20.763C29.8797 20.6021 29.7188 20.4412 29.5579 20.1999C29.397 19.8779 29.397 19.5562 29.397 19.3145C29.397 18.9929 29.4775 18.7514 29.5579 18.4296C29.6384 18.1883 29.8797 17.9468 30.0406 17.7859C30.2821 17.625 30.5234 17.4641 30.8452 17.3835C31.1671 17.3031 31.4889 17.2227 31.8108 17.2227C32.2935 17.2227 32.7762 17.3031 33.259 17.4641C33.6614 17.625 34.0636 17.8664 34.4658 18.1077L33.8223 19.0732C33.5005 18.832 33.1786 18.671 32.8568 18.5101C32.5349 18.3492 32.2131 18.3492 31.8913 18.3492C31.5694 18.3492 31.2476 18.4296 31.006 18.5905C30.8451 18.7514 30.6842 18.9928 30.6842 19.2341C30.6842 19.395 30.6842 19.4754 30.7646 19.6365C30.8451 19.7169 30.9255 19.8778 31.006 19.9582C31.167 20.0387 31.3279 20.1191 31.5692 20.1997C31.8107 20.2802 32.052 20.3606 32.4543 20.4411C32.7761 20.5215 33.098 20.602 33.5003 20.7628C33.7417 20.8433 33.983 21.0043 34.2244 21.1652C34.3854 21.3261 34.5463 21.5676 34.6267 21.7285C34.7072 21.9698 34.7876 22.2112 34.7876 22.5329C34.7876 22.8547 34.7072 23.1766 34.6267 23.418C34.4657 23.6595 34.3048 23.9008 34.0636 24.1421C33.8223 24.3032 33.5808 24.4641 33.259 24.5445C32.8568 24.5445 32.4544 24.625 32.1326 24.625V24.6252Z" fill="white"/>
<path d="M36.1555 17.3027H37.5235L39.6958 20.682L41.9488 17.3027H43.3165V24.5441H42.0292V19.3142L39.7763 22.6935H39.6958L37.4431 19.3142V24.5441H36.1555V17.3027Z" fill="white"/>
<path d="M49.5118 21.6479L48.2245 18.7514L47.0176 21.6479H49.5118V21.6479ZM47.6614 17.2227H48.8682L52.0062 24.4639H50.6385L49.9143 22.6938H46.535L45.811 24.4639H44.5236L47.6615 17.2227H47.6614Z" fill="white"/>
<path d="M56.4314 20.8429C56.8338 20.8429 57.236 20.7625 57.4775 20.5213C57.7188 20.2797 57.8797 19.9579 57.8797 19.6359C57.8797 19.3142 57.7187 18.9924 57.4775 18.751C57.1556 18.5097 56.7532 18.4291 56.351 18.4291H54.5004V20.8429H56.4314V20.8429ZM53.2935 17.3027H56.5119C56.9142 17.3027 57.3165 17.3832 57.7188 17.4636C58.0406 17.5441 58.3626 17.7856 58.6039 18.0269C58.7648 18.1878 58.9258 18.4291 59.0867 18.751C59.1672 18.9924 59.2476 19.3142 59.2476 19.6359C59.2476 19.8774 59.1672 20.1992 59.0867 20.4406C59.0063 20.6819 58.8454 20.8428 58.7648 21.0843C58.6039 21.2453 58.443 21.4062 58.2018 21.5671C57.9603 21.728 57.719 21.8084 57.4776 21.889L59.4085 24.6246H57.8799L56.1098 22.1303H54.5006V24.6246H53.2132L53.2936 17.3027H53.2935Z" fill="white"/>
<path d="M62.5463 18.4293H60.2131V17.3027H66.0865V18.4293H63.7533V24.5441H62.4658L62.5463 18.4293Z" fill="white"/>
<path d="M73.8912 24.6252C73.4083 24.6252 72.9255 24.5447 72.4428 24.3034C71.5579 23.901 70.8338 23.2573 70.5119 22.3724C70.3508 21.8896 70.1901 21.4068 70.2705 20.9241C70.2705 20.4413 70.351 19.9585 70.5119 19.4758C70.8338 18.5907 71.5579 17.8666 72.4428 17.4645C72.9257 17.3035 73.4083 17.1426 73.9716 17.1426C74.2935 17.1426 74.6153 17.1426 74.8566 17.223C75.0981 17.3035 75.3393 17.3839 75.5807 17.4645C75.8221 17.545 75.983 17.7058 76.2244 17.7863C76.3854 17.9472 76.6266 18.1081 76.7876 18.2691L75.983 19.2345C75.7417 18.9933 75.4198 18.7518 75.0981 18.5909C74.7762 18.43 74.374 18.3496 73.9716 18.3496C73.6498 18.3496 73.3279 18.43 73.0061 18.5104C72.6842 18.6713 72.4428 18.8324 72.2015 19.0736C71.9602 19.3148 71.7993 19.5564 71.719 19.878C71.6385 20.1999 71.5581 20.5217 71.5581 20.8437C71.5581 21.1656 71.6385 21.4874 71.719 21.8093C71.7994 22.1311 71.9603 22.3726 72.2015 22.6138C72.4428 22.8551 72.6843 23.0161 73.0061 23.177C73.3279 23.3379 73.6498 23.4184 73.9716 23.3379C74.374 23.3379 74.7762 23.2575 75.0981 23.0966C75.4198 22.9357 75.7417 22.6943 76.0635 22.3726L76.8681 23.177L76.305 23.7403C76.0636 23.9012 75.9027 24.0621 75.6612 24.1425C75.4198 24.223 75.1786 24.384 74.8566 24.384C74.5349 24.6253 74.2129 24.6253 73.8912 24.6253V24.6252Z" fill="white"/>
<path d="M78.1556 17.3027H79.3623V20.2797H82.8221V17.3027H84.1096V24.5441H82.8221V21.4865H79.3623V24.5441H78.1556V17.3027Z" fill="white"/>
<path d="M90.305 21.6479L89.098 18.7514L87.8912 21.6479H90.305ZM88.5349 17.2227H89.7417L92.8797 24.4639H91.5119L90.7878 22.6938H87.4085L86.6845 24.4639H85.3971L88.535 17.2227H88.5349Z" fill="white"/>
<path d="M94.1669 17.3027H95.4542V24.5441H94.1669V17.3027Z" fill="white"/>
<path d="M97.3853 17.3027H98.5118L102.374 22.2912V17.3027H103.661V24.5441H102.615L98.6726 19.3946V24.5441H97.3853V17.3027Z" fill="white"/>
<path d="M12.3397 0.808594L19.6614 5.07294L17.0062 6.68214L12.4201 3.94655L7.7534 6.68214L5.09826 5.07294L12.3397 0.808594V0.808594ZM12.3397 6.19932L15.0753 7.80852L12.3397 9.41773L9.68439 7.80852L12.3397 6.19932V6.19932ZM21.5925 6.19932L24.3281 7.80852V10.9465L21.5925 12.5557V9.41773L18.9374 7.80852L21.5925 6.19932ZM3.08683 6.19932L5.82242 7.80852L3.08683 9.41773V12.5557L0.431549 10.9465V7.80852L3.08683 6.19932V6.19932ZM19.6614 15.9348V19.0728L17.0062 20.682V17.544L19.6614 15.9348ZM5.01782 15.9348L7.67296 17.544V20.682L5.01782 19.0728V15.9348ZM16.9258 8.93491L19.6614 10.5441V13.6821L15.0753 16.4177V21.889L12.4201 23.498L9.76498 21.889V16.4177L5.01782 13.6821V10.5441L7.7534 8.93491L12.3398 11.6705L16.9259 8.93491H16.9258ZM24.2475 13.1993V21.8085L16.9258 26.0729V22.9349L21.5119 20.1993V14.8085L24.2475 13.1993V13.1993ZM0.431549 13.1993L3.08683 14.8085V20.1993L7.67296 22.9349V26.0729L0.431549 21.8085V13.1993ZM15.0753 24.0613V27.1993L12.3397 28.8085L9.68439 27.1993V24.0613L12.3397 25.6705L15.0753 24.0613Z" fill="white"/>
</g>
<defs>
<clipPath id="clip0_424_6751">
<rect width="103.23" height="28" fill="white" transform="translate(0.431488 0.808594)"/>
</clipPath>
</defs>
</svg>
