<svg width="14" height="15" viewBox="0 0 14 15" fill="none" xmlns="http://www.w3.org/2000/svg">
<path fill-rule="evenodd" clip-rule="evenodd" d="M11.4998 1.49999H12.1665C12.8998 1.49999 13.4998 2.09999 13.4998 2.83332V13.5C13.4998 14.2333 12.8998 14.8333 12.1665 14.8333H1.49984C0.766504 14.8333 0.166504 14.2333 0.166504 13.5V2.83332C0.166504 2.09999 0.766504 1.49999 1.49984 1.49999H2.1665V0.833323C2.1665 0.466656 2.4665 0.166656 2.83317 0.166656C3.19984 0.166656 3.49984 0.466656 3.49984 0.833323V1.49999H10.1665V0.833323C10.1665 0.466656 10.4665 0.166656 10.8332 0.166656C11.1998 0.166656 11.4998 0.466656 11.4998 0.833323V1.49999ZM2.16667 13.5H11.5C11.8667 13.5 12.1667 13.2 12.1667 12.8333V4.83334H1.5V12.8333C1.5 13.2 1.8 13.5 2.16667 13.5Z" fill="#C0BAF7"/>
</svg>
