<svg width="14" height="14" viewBox="0 0 14 14" fill="none" xmlns="http://www.w3.org/2000/svg">
<path fill-rule="evenodd" clip-rule="evenodd" d="M7.00016 1.66671C4.05464 1.66671 1.66683 4.05452 1.66683 7.00004C1.66683 9.94556 4.05464 12.3334 7.00016 12.3334C9.94568 12.3334 12.3335 9.94556 12.3335 7.00004C12.3335 4.05452 9.94568 1.66671 7.00016 1.66671ZM0.333496 7.00004C0.333496 3.31814 3.31826 0.333374 7.00016 0.333374C10.6821 0.333374 13.6668 3.31814 13.6668 7.00004C13.6668 10.6819 10.6821 13.6667 7.00016 13.6667C3.31826 13.6667 0.333496 10.6819 0.333496 7.00004Z" fill="#8780BF"/>
<path fill-rule="evenodd" clip-rule="evenodd" d="M7.19945 3.16671C6.90489 3.16671 6.66611 3.40549 6.66611 3.70004V3.90004H6.55939C5.6062 3.90004 4.8335 4.67275 4.8335 5.62593C4.8335 6.42804 5.38609 7.12442 6.16721 7.30668L6.66611 7.42309V9.03337H6.65016C6.23595 9.03337 5.90016 8.69759 5.90016 8.28337C5.90016 7.98882 5.66138 7.75004 5.36683 7.75004C5.07228 7.75004 4.8335 7.98882 4.8335 8.28337C4.8335 9.28669 5.64685 10.1 6.65016 10.1H6.66611V10.3C6.66611 10.5946 6.90489 10.8334 7.19945 10.8334C7.494 10.8334 7.73278 10.5946 7.73278 10.3V10.1H7.84094C8.79412 10.1 9.56683 9.32733 9.56683 8.37415C9.56683 7.57205 9.01423 6.87566 8.23311 6.6934L7.73278 6.57666V4.96671H7.75016C8.16438 4.96671 8.50016 5.30249 8.50016 5.71671C8.50016 6.01126 8.73894 6.25004 9.0335 6.25004C9.32805 6.25004 9.56683 6.01126 9.56683 5.71671C9.56683 4.71339 8.75348 3.90004 7.75016 3.90004H7.73278V3.70004C7.73278 3.40549 7.494 3.16671 7.19945 3.16671ZM5.90016 5.62593C5.90016 5.26185 6.19531 4.96671 6.55939 4.96671H6.66611V6.32777L6.40959 6.26791C6.11123 6.1983 5.90016 5.93231 5.90016 5.62593ZM7.73278 9.03337V7.67198L7.99073 7.73217C8.28909 7.80178 8.50016 8.06777 8.50016 8.37415C8.50016 8.73823 8.20502 9.03337 7.84094 9.03337H7.73278Z" fill="#8780BF"/>
</svg>
