<svg fill="none" height="59" viewBox="0 0 62 59" width="62" xmlns="http://www.w3.org/2000/svg" xmlns:xlink="http://www.w3.org/1999/xlink"><clipPath id="a"><path d="m0 0h62v59h-62z"/></clipPath><g clip-path="url(#a)" fill="#fff"><path d="m31.0004 34.1035c-11.6576 0-21.10742 5.4612-21.10742 12.1983s9.44982 12.1982 21.10742 12.1982c11.6577 0 21.1075-5.4612 21.1075-12.1982s-9.4503-12.1983-21.1075-12.1983zm-10.1344 13.7655c-2.1396 1.0479-4.1321 0-4.5142-2.3764-.419-2.5458 2.9994-8.5963 3.7862-4.021.7862 4.5749 4.2864-1.8227 4.3078 1.0406-.1169 2.3115-1.4929 4.3708-3.5798 5.3568zm26.0631-2.3764c-.3821 2.3764-2.3746 3.4243-4.5137 2.3764-2.0875-.986-3.4634-3.0453-3.5798-5.3568.0214-2.8633 3.5211 3.5343 4.3078-1.0406.7863-4.5753 4.2041 1.4752 3.7857 4.021z"/><path d="m61.4563 5.85919c-.6055-4.34385-15.2454-1.24584-17.1479-.91767-.0978.0167-.189-.06691-.169-.16408.1936-.97338.3337-3.60509-1.5237-4.174874-1.1877-.364478-1.9705.308071-2.4354.986704-.208.30446-.8307 1.62047-1.2175 2.53407-.2085.49329-.6939 1.21419-1.2277 1.20123-2.2385-.6993-4.4868-1.04906-6.7347-1.04906-2.2483 0-4.4966.34976-6.7351 1.04906-.5339.01296-1.0197-.70794-1.2282-1.20123-.3868-.9136-1.0095-2.22961-1.2175-2.53407-.4645-.678633-1.2473-1.351182-2.4349-.986704-1.8574.569784-1.7178 3.201494-1.5237 4.174874.0195.09717-.0717.18078-.169.16408-1.9025-.32817-16.54239-3.42618-17.148327.91767-.5747541 4.12021 4.617177 9.80231 10.049727 12.35601.5245.2465.9415.6631 1.4497.9403.8549.467 1.365 1.6326 1.2398 2.684v15.173l1.9835-1.142c3.0232-1.7381 6.179-2.5515 8.6084-3.034h.0861c1.9412-.4322 3.9228-.6544 5.9114-.6638h2.2558c1.9882.0094 3.9698.2316 5.9114.6638h.0856c2.4299.4826 5.5852 1.296 8.6094 3.034l1.9835 1.142v-15.173c-.1257-1.0514.3839-2.217 1.2388-2.684.5092-.2772.9252-.6938 1.4498-.9403 5.4325-2.5537 10.6249-8.2358 10.0497-12.35601zm-31.8688 15.55531c-.0838.4504-1.1551 1.2792-3.8111 1.9661-1.8597.4696-3.7948.6445-5.709.526-.45-.0284-.901-.1036-1.3185-.2745-.7618-.3108-1.4054-.8457-1.8844-1.5505-.6464-.9203-.9545-1.945-.7572-3.0528.1923-1.1091.8308-1.9667 1.7523-2.609.6901-.4985 1.4771-.7801 2.299-.8107.45-.0164.9001.0669 1.3319.1952 1.8393.5452 3.5985 1.3744 5.1859 2.4541 2.2618 1.5568 2.986 2.7037 2.9111 3.1561zm15.5483.6671c-.4784.7048-1.1225 1.2397-1.8844 1.5505-.417.1709-.8684.2461-1.318.2745-1.9141.1185-3.8497-.0564-5.7094-.526-2.6565-.6869-3.7269-1.5158-3.8107-1.9661-.0749-.4524.6488-1.5993 2.9111-3.1561 1.5874-1.0797 3.3462-1.909 5.1859-2.4541.4318-.1284.8814-.2116 1.3319-.1953.8214.0306 1.6094.3123 2.2991.8108.9214.6422 1.56 1.4994 1.7517 2.6085.1973 1.1078-.1108 2.1329-.7572 3.0533z"/></g></svg>