<svg width="67" height="59" viewBox="0 0 67 59" fill="none" xmlns="http://www.w3.org/2000/svg">
<path d="M64.125 19.865L53.728 18.169L61.668 14.855L63.459 7.69797L61.364 3.98297L51.13 0.995972L56.34 8.45297L56.371 8.49697L52.311 9.51097L42.273 2.62697L33.756 3.63797L25.239 2.62697L15.2 9.51097L11.14 8.49697L11.17 8.45297L16.382 0.995972L6.14701 3.98297L4.03501 7.69797L5.82401 14.855L13.763 18.169L3.36601 19.865L0.997009 26.246L8.12401 29.686L14.859 27.316L15.828 34.492L20.258 44.793L22.413 50.383L32.843 57.697L33.73 58.318V58.331H33.738L33.746 58.325L33.756 58.331H33.762V58.318L34.649 57.697L45.079 50.382L47.234 44.793L51.661 34.493L52.629 27.315L59.363 29.686L66.49 26.246L64.125 19.865ZM6.83801 4.86997L13.805 2.83697L10.025 8.24697L5.41501 7.39497L6.83801 4.86997ZM5.30401 8.43997L9.36401 9.18997L6.50701 13.239L5.30401 8.43997ZM14.777 26.242L8.20001 28.555L2.32001 25.718L4.14801 20.8L14.777 19.065V26.242ZM14.777 17.453L7.08401 14.242L10.488 9.41797L14.77 10.488L14.777 17.453ZM44.077 20.255L43.084 23.575H24.416L23.424 20.255L33.746 5.37997L44.076 20.256L44.077 20.255ZM34.157 33.829H27.436L24.743 24.622H42.75L40.057 33.829H34.157ZM39.745 34.873L36.407 43.698L33.753 45.876L31.098 43.698L27.76 34.873H39.745ZM15.819 16.247V10.354L25.498 3.71697L32.981 4.60497L33.031 4.60997L33.008 4.63197L22.488 19.707L15.818 16.247H15.819ZM21.232 44.399L16.854 34.211L15.877 27L23.746 24.944L26.483 34.308L24.267 38.928L21.282 44.533L21.232 44.4V44.399ZM21.782 45.825L24.898 39.977L32.928 46.565L32.657 46.785L23.16 49.417L21.782 45.825ZM33.748 57.051L24.056 50.254L33.748 47.568L43.439 50.254L33.748 57.051ZM44.33 49.415L34.834 46.784L34.563 46.564L42.593 39.974L45.708 45.824L44.33 49.415ZM50.645 34.208L46.267 44.396L46.215 44.529L43.23 38.923L41.008 34.307L43.746 24.942L51.616 26.998L50.645 34.208ZM51.675 16.247L45.005 19.707L34.485 4.63197L34.464 4.60997L34.514 4.60497L41.996 3.71697L51.676 10.354L51.675 16.247ZM60.991 13.237L58.135 9.18697L62.195 8.43797L60.991 13.237ZM53.691 2.83897L60.659 4.87297L62.083 7.39797L57.473 8.24897L53.691 2.83897ZM52.724 10.488L57.014 9.41797L60.417 14.243L52.724 17.454V10.488ZM59.302 28.556L52.724 26.243V19.065L63.353 20.8L65.18 25.718L59.302 28.556Z" fill="white"/>
</svg>
