<svg width="14" height="14" viewBox="0 0 16 16" fill="none" xmlns="http://www.w3.org/2000/svg">
<path fill-rule="evenodd" clip-rule="evenodd" d="M8.00016 2.66671C5.05464 2.66671 2.66683 5.05452 2.66683 8.00004C2.66683 10.9456 5.05464 13.3334 8.00016 13.3334C10.9457 13.3334 13.3335 10.9456 13.3335 8.00004C13.3335 5.05452 10.9457 2.66671 8.00016 2.66671ZM1.3335 8.00004C1.3335 4.31814 4.31826 1.33337 8.00016 1.33337C11.6821 1.33337 14.6668 4.31814 14.6668 8.00004C14.6668 11.6819 11.6821 14.6667 8.00016 14.6667C4.31826 14.6667 1.3335 11.6819 1.3335 8.00004Z" fill="#8780BF"/>
<path d="M9.52738 7.79639C9.66821 7.62838 9.76278 7.42827 9.8022 7.21491C9.84162 7.00154 9.82459 6.78193 9.75272 6.57672C9.68084 6.37152 9.55648 6.18748 9.39134 6.04192C9.2262 5.89636 9.0257 5.79405 8.80871 5.74464V4.85858C8.80871 4.77633 8.77512 4.69745 8.71534 4.63929C8.65555 4.58113 8.57446 4.54846 8.48991 4.54846C8.40536 4.54846 8.32427 4.58113 8.26448 4.63929C8.2047 4.69745 8.17111 4.77633 8.17111 4.85858V5.7092H7.53606V4.85858C7.53606 4.77633 7.50247 4.69745 7.44268 4.63929C7.38289 4.58113 7.30181 4.54846 7.21725 4.54846C7.1327 4.54846 7.05161 4.58113 6.99183 4.63929C6.93204 4.69745 6.89845 4.77633 6.89845 4.85858V5.7092H6.00435C5.9198 5.7092 5.83871 5.74187 5.77892 5.80003C5.71913 5.85819 5.68555 5.93707 5.68555 6.01932C5.68555 6.10157 5.71913 6.18045 5.77892 6.2386C5.83871 6.29676 5.9198 6.32944 6.00435 6.32944H6.21585V9.59013H6.00435C5.9198 9.59013 5.83871 9.6228 5.77892 9.68096C5.71913 9.73912 5.68555 9.818 5.68555 9.90025C5.68555 9.98249 5.71913 10.0614 5.77892 10.1195C5.83871 10.1777 5.9198 10.2104 6.00435 10.2104H6.89845V11.061C6.89845 11.1432 6.93204 11.2221 6.99183 11.2803C7.05161 11.3384 7.1327 11.3711 7.21725 11.3711C7.30181 11.3711 7.38289 11.3384 7.44268 11.2803C7.50247 11.2221 7.53606 11.1432 7.53606 11.061V10.2104H8.17111V11.061C8.17111 11.1432 8.2047 11.2221 8.26448 11.2803C8.32427 11.3384 8.40536 11.3711 8.48991 11.3711C8.57446 11.3711 8.65555 11.3384 8.71534 11.2803C8.77512 11.2221 8.80871 11.1432 8.80871 11.061V10.2104H8.91802C9.21241 10.2104 9.49832 10.1144 9.73001 9.93777C9.9617 9.76109 10.1258 9.51392 10.196 9.23581C10.2662 8.9577 10.2385 8.66472 10.1173 8.40373C9.99616 8.14274 9.78831 7.92901 9.52738 7.79639ZM9.18545 6.98937C9.18525 7.16439 9.1137 7.33218 8.98648 7.45593C8.85926 7.57969 8.68677 7.6493 8.50685 7.64948H6.85345V6.32944H8.50685C8.68674 6.32962 8.8592 6.39921 8.98641 6.52292C9.11363 6.64664 9.1852 6.81439 9.18545 6.98937ZM8.91783 9.59013H6.85345V8.2699H8.91783C9.09781 8.2699 9.27041 8.33945 9.39767 8.46324C9.52493 8.58704 9.59643 8.75494 9.59643 8.93001C9.59643 9.10509 9.52493 9.27299 9.39767 9.39678C9.27041 9.52058 9.09781 9.59013 8.91783 9.59013Z" fill="#8780BF"/>
<path fill-rule="evenodd" clip-rule="evenodd" d="M6.83313 4.47628C6.93602 4.3762 7.07426 4.32104 7.21714 4.32104C7.36001 4.32104 7.49825 4.3762 7.60114 4.47628C7.70424 4.57658 7.76336 4.71396 7.76336 4.85859V5.48178H7.94357V4.85859C7.94357 4.71396 8.00269 4.57658 8.10579 4.47628C8.20868 4.3762 8.34692 4.32104 8.48979 4.32104C8.63267 4.32104 8.77091 4.3762 8.8738 4.47628C8.9769 4.57658 9.03602 4.71396 9.03602 4.85859V5.57428C9.22179 5.64029 9.39362 5.74088 9.5416 5.87132C9.73561 6.04232 9.88231 6.25908 9.96724 6.50155C10.0522 6.74405 10.0724 7.00382 10.0257 7.25623C9.99484 7.42337 9.93539 7.58338 9.85061 7.72983C10.0535 7.88003 10.2167 8.07806 10.3235 8.30796C10.4666 8.61614 10.4994 8.96259 10.4164 9.29149C10.3334 9.62031 10.1397 9.91129 9.8678 10.1186C9.62729 10.302 9.33766 10.4108 9.03602 10.4334V11.061C9.03602 11.2056 8.9769 11.343 8.8738 11.4433C8.77091 11.5434 8.63267 11.5985 8.48979 11.5985C8.34692 11.5985 8.20868 11.5434 8.10579 11.4433C8.00269 11.343 7.94357 11.2056 7.94357 11.061V10.4378H7.76336V11.061C7.76336 11.2056 7.70424 11.343 7.60114 11.4433C7.49825 11.5434 7.36001 11.5985 7.21714 11.5985C7.07426 11.5985 6.93602 11.5434 6.83313 11.4433C6.73003 11.343 6.67091 11.2056 6.67091 11.061V10.4378H6.00423C5.86136 10.4378 5.72312 10.3826 5.62023 10.2826C5.51712 10.1823 5.45801 10.0449 5.45801 9.90025C5.45801 9.75563 5.51713 9.61824 5.62023 9.51795C5.71929 9.42158 5.85112 9.36687 5.98831 9.36294V6.55663C5.85113 6.5527 5.71929 6.49799 5.62023 6.40162C5.51713 6.30133 5.45801 6.16394 5.45801 6.01932C5.45801 5.8747 5.51713 5.73731 5.62023 5.63702C5.72312 5.53693 5.86136 5.48178 6.00423 5.48178H6.67091V4.85859C6.67091 4.71396 6.73003 4.57658 6.83313 4.47628ZM7.21714 4.77589C7.1909 4.77589 7.16697 4.78608 7.15028 4.80231C7.13381 4.81834 7.12576 4.83871 7.12576 4.85859V5.93662H6.00423C5.978 5.93662 5.95407 5.94682 5.93738 5.96305C5.92091 5.97907 5.91285 5.99945 5.91285 6.01932C5.91285 6.0392 5.92091 6.05957 5.93738 6.07559C5.95406 6.09182 5.978 6.10202 6.00423 6.10202H6.44315V9.81755H6.00423C5.978 9.81755 5.95407 9.82775 5.93738 9.84398C5.92091 9.86 5.91285 9.88037 5.91285 9.90025C5.91285 9.92013 5.92091 9.9405 5.93738 9.95652C5.95406 9.97275 5.978 9.98295 6.00423 9.98295H7.12576V11.061C7.12576 11.0809 7.13381 11.1012 7.15028 11.1173C7.16697 11.1335 7.19091 11.1437 7.21714 11.1437C7.24336 11.1437 7.2673 11.1335 7.28399 11.1173C7.30046 11.1012 7.30852 11.0809 7.30852 11.061V9.98295H8.39841V11.061C8.39841 11.0809 8.40647 11.1012 8.42294 11.1173C8.43963 11.1335 8.46356 11.1437 8.48979 11.1437C8.51602 11.1437 8.53996 11.1335 8.55664 11.1173C8.57312 11.1012 8.58117 11.0809 8.58117 11.061V9.98295H8.9179C9.163 9.983 9.40038 9.90305 9.59199 9.75693C9.78349 9.6109 9.91796 9.40755 9.97538 9.18014C10.0328 8.95283 10.0102 8.71331 9.91095 8.49951C9.81168 8.28571 9.64071 8.10916 9.42423 7.99914L9.16922 7.86953L9.35297 7.65031C9.46886 7.51205 9.54624 7.34795 9.57845 7.17359C9.61066 6.99927 9.59677 6.81981 9.53797 6.65191C9.47914 6.48398 9.37713 6.33266 9.24084 6.21253C9.10452 6.09237 8.93846 6.00746 8.7581 5.96639L8.58117 5.9261V4.85859C8.58117 4.83871 8.57312 4.81834 8.55664 4.80231C8.53996 4.78608 8.51602 4.77589 8.48979 4.77589C8.46356 4.77589 8.43963 4.78608 8.42294 4.80231C8.40647 4.81834 8.39841 4.83871 8.39841 4.85859V5.93662H7.30852V4.85859C7.30852 4.83871 7.30046 4.81834 7.28399 4.80231C7.2673 4.78608 7.24337 4.77589 7.21714 4.77589ZM6.62592 6.10202H8.50673C8.74485 6.10227 8.9746 6.19432 9.14485 6.35989C9.31531 6.52567 9.41242 6.7518 9.41275 6.98906C9.41249 7.22636 9.31541 7.45312 9.14494 7.61895C8.97468 7.78458 8.74513 7.87666 8.50697 7.87691L6.62592 7.87691V6.10202ZM7.08076 6.55686V7.42207L8.5065 7.42207C8.62808 7.42188 8.74366 7.37476 8.82778 7.29292C8.91167 7.21132 8.9577 7.10205 8.95791 6.98943C8.95768 6.87681 8.91164 6.76756 8.82774 6.68596C8.74359 6.60413 8.62822 6.55702 8.50661 6.55686C8.50658 6.55686 8.50665 6.55686 8.50661 6.55686H7.08076ZM6.62592 8.04248H8.91772C9.15601 8.04248 9.38577 8.13451 9.55613 8.30023C9.72671 8.46616 9.82373 8.69257 9.82373 8.93002C9.82373 9.16746 9.72671 9.39387 9.55613 9.5598C9.38577 9.72553 9.15601 9.81755 8.91772 9.81755H6.62592V8.04248ZM7.08076 8.49733V9.36271H8.91772C9.03937 9.36271 9.15482 9.31564 9.23898 9.23377C9.32292 9.15211 9.36889 9.04272 9.36889 8.93002C9.36889 8.81732 9.32292 8.70792 9.23898 8.62626C9.15482 8.5444 9.03937 8.49733 8.91772 8.49733H7.08076Z" fill="#8780BF"/>
</svg>
