<svg xmlns="http://www.w3.org/2000/svg" width="458" height="54" fill="none">
  <path fill="url(#a)" d="M0 0h458v50a4 4 0 0 1-4 4H4a4 4 0 0 1-4-4V0Z"/>
  <g fill="#fff" clip-path="url(#b)">
    <path fill-opacity=".08" fill-rule="evenodd" d="M26-94C-41.93-94-97-39.826-97 27s55.07 121 123 121S149 93.826 149 27 93.93-94 26-94ZM-36.618 88.6a86.115 86.115 0 0 1 0-123.206c26.48-26.048 65.555-32.152 97.938-18.312l-16.898 16.62c-22.605-6.338-47.935-.758-65.736 16.75-23.523 23.145-25.87 59.23-7.039 84.955L-3.22 40.69l15.304 15.058-40.588 39.924a88.061 88.061 0 0 1-8.114-7.073ZM26 42.059 10.696 27 26 11.942 41.309 27 26 42.058Zm29.225-1.367 15.309 15.058-15.31 15.058L39.917 55.75 55.225 40.69ZM-3.22 13.309-18.529-1.749l15.31-15.058L12.083-1.75-3.22 13.31ZM88.623 88.6c-26.48 26.049-65.555 32.153-97.938 18.318L7.583 90.292c22.605 6.344 47.935.76 65.73-16.75 23.53-23.144 25.876-59.23 7.04-84.954L55.225 13.31 39.916-1.749l40.588-39.929a88.894 88.894 0 0 1 8.119 7.072 86.124 86.124 0 0 1 0 123.206Z" clip-rule="evenodd"/>
    <g clip-path="url(#c)">
      <path d="M28.258 29.696h1.36l-2.504-5.6h-1.28l-2.496 5.6h1.328l.496-1.2h2.6l.496 1.2Zm-2.68-2.184.888-2.144.888 2.144h-1.776ZM36.465 29.696h2.544c1.832 0 3.088-1.104 3.088-2.8 0-1.696-1.256-2.8-3.088-2.8h-2.544v5.6Zm1.296-1.064V25.16h1.184c1.112 0 1.84.664 1.84 1.736s-.728 1.736-1.84 1.736H37.76ZM49.895 29.696 47.807 26.8l1.952-2.704h-1.4l-1.264 1.816-1.288-1.816h-1.472l1.968 2.752-2.072 2.848h1.488l1.328-1.944 1.352 1.944h1.496ZM52.402 29.696h2.544c1.832 0 3.088-1.104 3.088-2.8 0-1.696-1.256-2.8-3.088-2.8h-2.544v5.6Zm1.296-1.064V25.16h1.184c1.112 0 1.84.664 1.84 1.736s-.728 1.736-1.84 1.736h-1.184ZM65.118 29.696h1.36l-2.504-5.6h-1.28l-2.496 5.6h1.328l.496-1.2h2.6l.496 1.2Zm-2.68-2.184.888-2.144.888 2.144h-1.776ZM71.692 29.792c1.76 0 3.065-1.224 3.065-2.896S73.451 24 71.692 24c-1.767 0-3.063 1.232-3.063 2.896s1.295 2.896 3.063 2.896Zm0-1.104c-1 0-1.751-.728-1.751-1.792s.751-1.792 1.751-1.792c1 0 1.753.728 1.753 1.792s-.752 1.792-1.752 1.792ZM84.42 24.096h-2.424v5.6h1.296v-1.544h1.128c1.496 0 2.432-.776 2.432-2.024 0-1.256-.936-2.032-2.432-2.032Zm-.072 3h-1.056v-1.944h1.056c.792 0 1.192.36 1.192.976 0 .608-.4.968-1.192.968ZM94.737 29.696l-1.256-1.8c.728-.312 1.152-.928 1.152-1.768 0-1.256-.936-2.032-2.432-2.032h-2.424v5.6h1.296v-1.56h1.192l1.08 1.56h1.392Zm-1.416-3.568c0 .608-.4.976-1.192.976h-1.056v-1.952h1.056c.792 0 1.192.36 1.192.976ZM100.372 29.792c1.76 0 3.064-1.224 3.064-2.896S102.132 24 100.372 24c-1.768 0-3.064 1.232-3.064 2.896s1.296 2.896 3.064 2.896Zm0-1.104c-1 0-1.752-.728-1.752-1.792s.752-1.792 1.752-1.792 1.752.728 1.752 1.792-.752 1.792-1.752 1.792ZM106.41 29.696h2.544c1.832 0 3.088-1.104 3.088-2.8 0-1.696-1.256-2.8-3.088-2.8h-2.544v5.6Zm1.296-1.064V25.16h1.184c1.112 0 1.84.664 1.84 1.736s-.728 1.736-1.84 1.736h-1.184ZM117.508 29.792c1.592 0 2.536-.912 2.536-2.56v-3.136h-1.28v3.088c0 1.064-.456 1.504-1.248 1.504-.784 0-1.248-.44-1.248-1.504v-3.088h-1.296v3.136c0 1.648.944 2.56 2.536 2.56ZM126.004 29.792c.976 0 1.784-.352 2.312-1l-.832-.768c-.376.44-.848.664-1.408.664-1.048 0-1.792-.736-1.792-1.792s.744-1.792 1.792-1.792c.56 0 1.032.224 1.408.656l.832-.768c-.528-.64-1.336-.992-2.304-.992-1.744 0-3.04 1.208-3.04 2.896s1.296 2.896 3.032 2.896ZM132.297 29.696h1.296v-4.544h1.792v-1.056h-4.88v1.056h1.792v4.544ZM370.772 29.696h2.448c1.816 0 3.056-1.12 3.056-2.8 0-1.68-1.24-2.8-3.056-2.8h-2.448v5.6Zm1.04-.88v-3.84h1.36c1.248 0 2.056.76 2.056 1.92s-.808 1.92-2.056 1.92h-1.36ZM383.906 29.696l-2.104-2.896 1.96-2.704h-1.128l-1.416 1.992-1.432-1.992h-1.176l1.968 2.744-2.08 2.856h1.184l1.504-2.128 1.52 2.128h1.2ZM386.537 29.696h2.448c1.816 0 3.056-1.12 3.056-2.8 0-1.68-1.24-2.8-3.056-2.8h-2.448v5.6Zm1.04-.88v-3.84h1.36c1.248 0 2.056.76 2.056 1.92s-.808 1.92-2.056 1.92h-1.36ZM399.26 29.696h1.089l-2.529-5.6h-1.023l-2.52 5.6h1.072l.552-1.296h2.8l.559 1.296Zm-3.007-2.112 1.048-2.448 1.056 2.448h-2.104ZM405.599 29.776c1.736 0 3.016-1.216 3.016-2.88s-1.28-2.88-3.016-2.88-3.016 1.224-3.016 2.88 1.28 2.88 3.016 2.88Zm0-.912c-1.128 0-1.968-.824-1.968-1.968 0-1.144.84-1.968 1.968-1.968 1.128 0 1.968.824 1.968 1.968 0 1.144-.84 1.968-1.968 1.968ZM411.785 29.752a.65.65 0 0 0 .656-.664c0-.4-.296-.664-.656-.664a.641.641 0 0 0-.656.664.65.65 0 0 0 .656.664ZM416.554 28.824V27.28h2.704v-.856h-2.704v-1.456h3.048v-.872h-4.088v5.6h4.2v-.872h-3.16ZM424.009 29.696h1.04v-4.72h1.856v-.88h-4.752v.88h1.856v4.72ZM433.622 24.096v2.312h-2.896v-2.312h-1.04v5.6h1.04v-2.4h2.896v2.4h1.04v-5.6h-1.04Z"/>
    </g>
  </g>
  <defs>
    <clipPath id="b">
      <path fill="#fff" d="M0 0h458v54H0z"/>
    </clipPath>
    <clipPath id="c">
      <path fill="#fff" d="M0 0h412v5.792H0z" transform="translate(23 24)"/>
    </clipPath>
    <linearGradient id="a" x1="118.978" x2="184.29" y1="-33.75" y2="137.579" gradientUnits="userSpaceOnUse">
      <stop stop-color="#2E17F2"/>
      <stop offset="1" stop-color="#4F1970"/>
    </linearGradient>
  </defs>
</svg>
