<svg width="33" height="32" fill="none" xmlns="http://www.w3.org/2000/svg"><path d="M9.6 18.214a4.17 4.17 0 0 0 2.547-.87L6.31 11.507a4.159 4.159 0 0 0 .742 5.837A4.24 4.24 0 0 0 9.6 18.2v.013ZM26.944 14.054a4.17 4.17 0 0 0-.87-2.547l-5.838 5.837a4.159 4.159 0 0 0 6.707-3.29Z" fill="#fff"/><path d="m29.887 7.706-2.585 2.585c2.073 2.496 1.753 6.195-.742 8.282a5.862 5.862 0 0 1-7.54 0L16.192 21.4l-2.83-2.828c-2.495 2.073-6.194 1.753-8.28-.743a5.862 5.862 0 0 1 0-7.539l-1.32-1.318-1.254-1.267A15.903 15.903 0 0 0 .192 16c0 8.832 7.168 16 16 16 8.831 0 16-7.168 16-16 .012-2.918-.807-5.799-2.305-8.294Z" fill="#fff"/><path d="M27.763 4.954c-6.093-6.388-16.218-6.63-22.605-.538-.192.18-.371.358-.538.538a21.65 21.65 0 0 0-1.126 1.305l12.698 12.698L28.889 6.259c-.345-.46-.73-.896-1.126-1.305ZM16.19 2.086c3.738 0 7.22 1.447 9.844 4.07L16.192 16 6.348 6.157c2.612-2.637 6.106-4.07 9.844-4.07Z" fill="#fff"/></svg>