<svg xmlns="http://www.w3.org/2000/svg" width="321" height="128" fill="currentColor">
  <path fill="#ACACAC"
    d="M40.467 86.778 2.537 95.56c-1.384.347-2.422 1.734-2.422 3.12v26.112c0 2.195 1.73 3.582 3.92 3.12l52.919-12.248c2.19-.462 3.113-2.542 2.19-4.506L49.575 91.4c-1.498-3.12 0-6.355 3.344-7.048l34.587-8.319c2.421-.578 4.496-3.12 4.496-5.661V46.224c0-2.196-1.729-3.698-3.92-3.12l-49.92 11.9c-3.113.694-4.497 3.698-3.113 6.587l8.762 18.14c1.498 3.119 0 6.239-3.344 7.047Z" />
  <path fill="#ACACAC"
    d="m15.45 21.499 9.916 20.335c1.268 2.657 0 5.43-2.882 6.008L4.152 52.117c-2.305.578-4.15 2.889-4.15 5.2v21.836c0 3.698 2.998 6.008 6.572 5.2l17.063-3.929c2.305-.462 4.15-2.888 4.15-5.199l.115-22.415c0-3.12 2.537-6.239 5.534-6.932l55.916-13.403c1.384-.346 2.421-1.733 2.421-3.12V3.244c0-2.195-1.729-3.697-3.92-3.12l-70.211 16.87c-2.191.462-3.113 2.542-2.191 4.506ZM186.679 82.286h-31.936V32h-14.74v64h46.676V82.286ZM196.29 96h14.74V32h-14.74v64ZM222.039 96h14.011V81.92h-14.011V96ZM261.762 71.04h30.844V58.423h-30.844v-13.44h33.483V32h-48.223v64h14.74V71.04ZM305.264 96h14.739V32h-14.739v64Z" />
</svg>