<svg width="1917" height="925" viewBox="0 0 1917 925" fill="none" xmlns="http://www.w3.org/2000/svg">
<g clip-path="url(#clip0_1338_11586)">
<g opacity="0.58">
<path d="M1915.89 923.453C1915.89 923.453 1487.26 737.299 958.528 737.299C429.791 737.299 1.16455 923.453 1.16455 923.453" stroke="url(#paint0_linear_1338_11586)" stroke-width="1.10806"/>
<path d="M1915.89 825.944C1915.89 825.944 1487.26 666.383 958.528 666.383C429.791 666.383 1.16455 825.944 1.16455 825.944" stroke="url(#paint1_linear_1338_11586)" stroke-width="1.10806"/>
<path d="M1915.89 737.299C1915.89 737.299 1487.26 604.332 958.528 604.332C429.791 604.332 1.16455 737.299 1.16455 737.299" stroke="url(#paint2_linear_1338_11586)" stroke-width="1.10806"/>
<path d="M1915.89 657.519C1915.89 657.519 1487.26 560.009 958.528 560.009C429.791 560.009 1.16455 657.519 1.16455 657.519" stroke="url(#paint3_linear_1338_11586)" stroke-width="1.10806"/>
<path d="M1915.89 586.603C1915.89 586.603 1487.26 524.551 958.528 524.551C429.791 524.551 1.16455 586.603 1.16455 586.603" stroke="url(#paint4_linear_1338_11586)" stroke-width="1.10806"/>
<path d="M1915.89 524.551C1915.89 524.551 1487.26 489.094 958.528 489.094C429.791 489.094 1.16455 524.551 1.16455 524.551" stroke="url(#paint5_linear_1338_11586)" stroke-width="1.10806"/>
<path d="M1.16455 462.5H1915.89" stroke="url(#paint6_linear_1338_11586)" stroke-width="1.10806"/>
<path d="M1915.89 400.449C1915.89 400.449 1487.26 435.907 958.528 435.907C429.791 435.907 1.16455 400.449 1.16455 400.449" stroke="url(#paint7_linear_1338_11586)" stroke-width="1.10806"/>
<path d="M1915.89 338.397C1915.89 338.397 1487.26 400.449 958.528 400.449C429.791 400.449 1.16455 338.397 1.16455 338.397" stroke="url(#paint8_linear_1338_11586)" stroke-width="1.10806"/>
<path d="M1915.89 267.481C1915.89 267.481 1487.26 364.991 958.528 364.991C429.791 364.991 1.16455 267.481 1.16455 267.481" stroke="url(#paint9_linear_1338_11586)" stroke-width="1.10806"/>
<path d="M1915.89 187.701C1915.89 187.701 1487.26 320.668 958.528 320.668C429.791 320.668 1.16455 187.701 1.16455 187.701" stroke="url(#paint10_linear_1338_11586)" stroke-width="1.10806"/>
<path d="M1915.89 99.0563C1915.89 99.0563 1487.26 258.617 958.528 258.617C429.791 258.617 1.16455 99.0563 1.16455 99.0563" stroke="url(#paint11_linear_1338_11586)" stroke-width="1.10806"/>
<path d="M1915.89 1.547C1915.89 1.547 1487.26 187.701 958.528 187.701C429.791 187.701 1.16455 1.547 1.16455 1.547" stroke="url(#paint12_linear_1338_11586)" stroke-width="1.10806"/>
</g>
</g>
<defs>
<linearGradient id="paint0_linear_1338_11586" x1="1.16455" y1="731.64" x2="1915.89" y2="731.64" gradientUnits="userSpaceOnUse">
<stop stop-color="#43358C"/>
<stop offset="0.333333" stop-color="#C0B3FF" stop-opacity="0"/>
<stop offset="0.666667" stop-color="#C0B3FF" stop-opacity="0"/>
<stop offset="1" stop-color="#43358C"/>
</linearGradient>
<linearGradient id="paint1_linear_1338_11586" x1="1.16455" y1="661.533" x2="1915.89" y2="661.533" gradientUnits="userSpaceOnUse">
<stop stop-color="#43358C"/>
<stop offset="0.333333" stop-color="#C0B3FF" stop-opacity="0"/>
<stop offset="0.666667" stop-color="#C0B3FF" stop-opacity="0"/>
<stop offset="1" stop-color="#43358C"/>
</linearGradient>
<linearGradient id="paint2_linear_1338_11586" x1="1.16455" y1="600.289" x2="1915.89" y2="600.289" gradientUnits="userSpaceOnUse">
<stop stop-color="#43358C"/>
<stop offset="0.333333" stop-color="#C0B3FF" stop-opacity="0"/>
<stop offset="0.666667" stop-color="#C0B3FF" stop-opacity="0"/>
<stop offset="1" stop-color="#43358C"/>
</linearGradient>
<linearGradient id="paint3_linear_1338_11586" x1="1.16455" y1="557.045" x2="1915.89" y2="557.045" gradientUnits="userSpaceOnUse">
<stop stop-color="#43358C"/>
<stop offset="0.333333" stop-color="#C0B3FF" stop-opacity="0"/>
<stop offset="0.666667" stop-color="#C0B3FF" stop-opacity="0"/>
<stop offset="1" stop-color="#43358C"/>
</linearGradient>
<linearGradient id="paint4_linear_1338_11586" x1="1.16455" y1="522.665" x2="1915.89" y2="522.665" gradientUnits="userSpaceOnUse">
<stop stop-color="#43358C"/>
<stop offset="0.333333" stop-color="#C0B3FF" stop-opacity="0"/>
<stop offset="0.666667" stop-color="#C0B3FF" stop-opacity="0"/>
<stop offset="1" stop-color="#43358C"/>
</linearGradient>
<linearGradient id="paint5_linear_1338_11586" x1="1.16455" y1="488.015" x2="1915.89" y2="488.015" gradientUnits="userSpaceOnUse">
<stop stop-color="#43358C"/>
<stop offset="0.333333" stop-color="#C0B3FF" stop-opacity="0"/>
<stop offset="0.666667" stop-color="#C0B3FF" stop-opacity="0"/>
<stop offset="1" stop-color="#43358C"/>
</linearGradient>
<linearGradient id="paint6_linear_1338_11586" x1="nan" y1="nan" x2="nan" y2="nan" gradientUnits="userSpaceOnUse">
<stop stop-color="#43358C"/>
<stop offset="0.333333" stop-color="#C0B3FF" stop-opacity="0"/>
<stop offset="0.666667" stop-color="#C0B3FF" stop-opacity="0"/>
<stop offset="1" stop-color="#43358C"/>
</linearGradient>
<linearGradient id="paint7_linear_1338_11586" x1="1.16455" y1="436.985" x2="1915.89" y2="436.985" gradientUnits="userSpaceOnUse">
<stop stop-color="#43358C"/>
<stop offset="0.333333" stop-color="#C0B3FF" stop-opacity="0"/>
<stop offset="0.666667" stop-color="#C0B3FF" stop-opacity="0"/>
<stop offset="1" stop-color="#43358C"/>
</linearGradient>
<linearGradient id="paint8_linear_1338_11586" x1="1.16455" y1="402.335" x2="1915.89" y2="402.335" gradientUnits="userSpaceOnUse">
<stop stop-color="#43358C"/>
<stop offset="0.333333" stop-color="#C0B3FF" stop-opacity="0"/>
<stop offset="0.666667" stop-color="#C0B3FF" stop-opacity="0"/>
<stop offset="1" stop-color="#43358C"/>
</linearGradient>
<linearGradient id="paint9_linear_1338_11586" x1="1.16455" y1="367.955" x2="1915.89" y2="367.955" gradientUnits="userSpaceOnUse">
<stop stop-color="#43358C"/>
<stop offset="0.333333" stop-color="#C0B3FF" stop-opacity="0"/>
<stop offset="0.666667" stop-color="#C0B3FF" stop-opacity="0"/>
<stop offset="1" stop-color="#43358C"/>
</linearGradient>
<linearGradient id="paint10_linear_1338_11586" x1="1.16455" y1="324.71" x2="1915.89" y2="324.71" gradientUnits="userSpaceOnUse">
<stop stop-color="#43358C"/>
<stop offset="0.333333" stop-color="#C0B3FF" stop-opacity="0"/>
<stop offset="0.666667" stop-color="#C0B3FF" stop-opacity="0"/>
<stop offset="1" stop-color="#43358C"/>
</linearGradient>
<linearGradient id="paint11_linear_1338_11586" x1="1.16455" y1="263.467" x2="1915.89" y2="263.467" gradientUnits="userSpaceOnUse">
<stop stop-color="#43358C"/>
<stop offset="0.333333" stop-color="#C0B3FF" stop-opacity="0"/>
<stop offset="0.666667" stop-color="#C0B3FF" stop-opacity="0"/>
<stop offset="1" stop-color="#43358C"/>
</linearGradient>
<linearGradient id="paint12_linear_1338_11586" x1="1.16455" y1="193.36" x2="1915.89" y2="193.36" gradientUnits="userSpaceOnUse">
<stop stop-color="#43358C"/>
<stop offset="0.333333" stop-color="#C0B3FF" stop-opacity="0"/>
<stop offset="0.666667" stop-color="#C0B3FF" stop-opacity="0"/>
<stop offset="1" stop-color="#43358C"/>
</linearGradient>
<clipPath id="clip0_1338_11586">
<rect width="1916.94" height="924.122" fill="white" transform="translate(0.0561523 0.438965)"/>
</clipPath>
</defs>
</svg>
