<svg width="114" height="27" viewBox="0 0 114 27" fill="none" xmlns="http://www.w3.org/2000/svg">
<path fill-rule="evenodd" clip-rule="evenodd" d="M13.4315 26.4043C20.6112 26.4043 26.4315 20.584 26.4315 13.4043C26.4315 6.2246 20.6112 0.404297 13.4315 0.404297C6.25179 0.404297 0.431488 6.2246 0.431488 13.4043C0.431488 20.584 6.25179 26.4043 13.4315 26.4043ZM9.6424 16.8595C8.86833 16.8595 8.23414 16.6773 7.73978 16.3131C7.25191 15.9423 7.00798 15.4154 7.00798 14.7324C7.00798 14.5893 7.02426 14.4137 7.05676 14.2055C7.14136 13.7372 7.26169 13.1745 7.41779 12.5175C7.8601 10.7287 9.00171 9.83434 10.8426 9.83434C11.3434 9.83434 11.7922 9.91889 12.1891 10.088C12.5859 10.2506 12.8981 10.4978 13.1257 10.8296C13.3534 11.1548 13.4673 11.5451 13.4673 12.0004C13.4673 12.137 13.451 12.3094 13.4184 12.5175C13.3209 13.0965 13.2038 13.6591 13.0672 14.2055C12.8395 15.0967 12.446 15.7634 11.8866 16.2057C11.3272 16.6416 10.5791 16.8595 9.6424 16.8595ZM9.77901 15.4544C10.1433 15.4544 10.4523 15.3471 10.706 15.1325C10.9662 14.9178 11.1515 14.5893 11.2621 14.147C11.4117 13.5355 11.5256 13.0021 11.6036 12.5468C11.6296 12.4102 11.6426 12.2704 11.6426 12.1272C11.6426 11.5353 11.3337 11.2393 10.7157 11.2393C10.3514 11.2393 10.0392 11.3467 9.77901 11.5613C9.52535 11.776 9.3432 12.1045 9.23264 12.5468C9.11554 12.9826 8.99844 13.516 8.88138 14.147C8.85533 14.2771 8.84233 14.4137 8.84233 14.5568C8.84233 15.1552 9.15459 15.4544 9.77901 15.4544ZM13.7494 16.6936C13.7884 16.7392 13.8437 16.7619 13.9152 16.7619H15.2422C15.3072 16.7619 15.3691 16.7392 15.4276 16.6936C15.4861 16.6481 15.5219 16.5896 15.5349 16.518L15.9838 14.3812H17.301C18.1531 14.3812 18.8231 14.2023 19.311 13.8445C19.8053 13.4868 20.1338 12.9339 20.2964 12.1858C20.3355 12.0102 20.355 11.841 20.355 11.6784C20.355 11.1125 20.1338 10.68 19.6915 10.3807C19.2556 10.0815 18.6767 9.93189 17.9547 9.93189H15.3593C15.2942 9.93189 15.2325 9.95467 15.1739 10.0002C15.1154 10.0457 15.0796 10.1043 15.0666 10.1758L13.7201 16.518C13.7071 16.5831 13.7168 16.6416 13.7494 16.6936ZM18.0815 12.8102C17.8799 12.9599 17.6424 13.0347 17.3693 13.0347H16.2472L16.6179 11.2882H17.7888C18.0555 11.2882 18.2441 11.3402 18.3547 11.4443C18.4653 11.5418 18.5206 11.6849 18.5206 11.8736C18.5206 11.9581 18.5108 12.0557 18.4913 12.1663C18.4263 12.446 18.2897 12.6606 18.0815 12.8102Z" fill="white"/>
<path fill-rule="evenodd" clip-rule="evenodd" d="M35.5335 17.6611C36.278 18.2097 37.2331 18.4839 38.3989 18.4839C39.8095 18.4839 40.936 18.1558 41.7785 17.4994C42.6209 16.8334 43.2136 15.8293 43.5565 14.4872C43.7622 13.6643 43.9385 12.817 44.0855 11.9451C44.1344 11.6317 44.1589 11.3721 44.1589 11.1664C44.1589 10.4806 43.9874 9.89288 43.6446 9.40308C43.3017 8.90349 42.8316 8.53124 42.234 8.28634C41.6364 8.03164 40.9605 7.9043 40.2062 7.9043C37.434 7.9043 35.7148 9.25125 35.0486 11.9451C34.8135 12.9345 34.6323 13.7819 34.505 14.4872C34.456 14.8007 34.4315 15.0651 34.4315 15.2807C34.4315 16.3092 34.7988 17.1027 35.5335 17.6611ZM40.0005 15.8831C39.6185 16.2064 39.1532 16.368 38.6046 16.368C37.6642 16.368 37.194 15.9174 37.194 15.0162C37.194 14.8007 37.2135 14.595 37.2527 14.399C37.4291 13.4488 37.6054 12.6456 37.7817 11.9892C37.9482 11.3231 38.2225 10.8284 38.6046 10.5051C38.9964 10.1819 39.4666 10.0202 40.0152 10.0202C40.9458 10.0202 41.4111 10.4659 41.4111 11.3574C41.4111 11.5729 41.3916 11.7835 41.3524 11.9892C41.2348 12.6749 41.0634 13.4782 40.838 14.399C40.6715 15.0651 40.3923 15.5599 40.0005 15.8831ZM45.4001 18.2337C45.4589 18.3023 45.5421 18.3366 45.6499 18.3366H47.6483C47.7463 18.3366 47.8393 18.3023 47.9274 18.2337C48.0157 18.1651 48.0695 18.077 48.0891 17.9692L48.765 14.7512H50.7487C52.032 14.7512 53.041 14.4818 53.7757 13.9431C54.5202 13.4043 55.0148 12.5716 55.2598 11.4451C55.3186 11.1806 55.3479 10.9259 55.3479 10.681C55.3479 9.82875 55.0148 9.17732 54.3487 8.7267C53.6924 8.27609 52.8206 8.05078 51.7332 8.05078H47.8246C47.7267 8.05078 47.6336 8.08507 47.5454 8.15364C47.4573 8.22221 47.4034 8.31037 47.3838 8.41813L45.356 17.9692C45.3364 18.0672 45.3511 18.1553 45.4001 18.2337ZM51.9242 12.3855C51.6206 12.6108 51.263 12.7235 50.8516 12.7235H49.1617L49.7201 10.0932H51.4834C51.885 10.0932 52.1691 10.1716 52.3357 10.3283C52.5022 10.4753 52.5855 10.6908 52.5855 10.9749C52.5855 11.1022 52.5708 11.2492 52.5414 11.4157C52.4434 11.8369 52.2377 12.1602 51.9242 12.3855ZM58.6587 18.3366C58.5509 18.3366 58.4676 18.3023 58.4089 18.2337C58.3501 18.1553 58.3305 18.0672 58.3501 17.9692L59.9811 10.3577H57.3656C57.2578 10.3577 57.1746 10.3234 57.1158 10.2549C57.0668 10.1765 57.0522 10.0883 57.0717 9.99038L57.4097 8.41813C57.4293 8.31037 57.4831 8.22221 57.5713 8.15364C57.6595 8.08507 57.7525 8.05078 57.8505 8.05078H65.7559C65.8636 8.05078 65.9469 8.08507 66.0057 8.15364C66.0449 8.21242 66.0645 8.27119 66.0645 8.32997C66.0645 8.35935 66.0595 8.38874 66.0497 8.41813L65.7118 9.99038C65.6922 10.0981 65.6383 10.1863 65.5501 10.2549C65.4718 10.3234 65.3787 10.3577 65.271 10.3577H62.6701L61.0391 17.9692C61.0195 18.077 60.9656 18.1651 60.8775 18.2337C60.7893 18.3023 60.6962 18.3366 60.5983 18.3366H58.6587ZM66.1895 18.2337C66.2483 18.3023 66.3315 18.3366 66.4392 18.3366H68.423C68.5209 18.3366 68.614 18.3023 68.7021 18.2337C68.7903 18.1651 68.8441 18.077 68.8637 17.9692L70.8915 8.41813C70.9013 8.38874 70.9062 8.35935 70.9062 8.32997C70.9062 8.27119 70.8866 8.21242 70.8475 8.15364C70.7887 8.08507 70.7054 8.05078 70.5977 8.05078H68.614C68.516 8.05078 68.423 8.08507 68.3348 8.15364C68.2466 8.22221 68.1927 8.31037 68.1731 8.41813L66.1307 17.9692C66.1111 18.0672 66.1307 18.1553 66.1895 18.2337ZM72.0344 18.3366C71.9266 18.3366 71.8433 18.3023 71.7846 18.2337C71.7258 18.1651 71.7062 18.077 71.7258 17.9692L73.7535 8.41813C73.7731 8.31037 73.827 8.22221 73.9151 8.15364C74.0033 8.08507 74.1013 8.05078 74.2091 8.05078H75.796C76.0311 8.05078 76.1829 8.15854 76.2515 8.37405L77.8531 13.0027L81.4238 8.37405C81.4728 8.29568 81.5413 8.22221 81.6295 8.15364C81.7274 8.08507 81.845 8.05078 81.9822 8.05078H83.5838C83.6916 8.05078 83.7748 8.08507 83.8336 8.15364C83.8728 8.21242 83.8924 8.27119 83.8924 8.32997C83.8924 8.35935 83.8875 8.38874 83.8777 8.41813L81.8499 17.9692C81.8303 18.077 81.7764 18.1651 81.6883 18.2337C81.6001 18.3023 81.5071 18.3366 81.4091 18.3366H79.6311C79.5234 18.3366 79.4401 18.3023 79.3813 18.2337C79.3323 18.1553 79.3177 18.0672 79.3373 17.9692L80.4834 12.5471L78.2352 15.53C78.1373 15.6378 78.0442 15.721 77.956 15.7798C77.8679 15.8386 77.765 15.868 77.6474 15.868H76.8834C76.6777 15.868 76.5356 15.7553 76.4572 15.53L75.414 12.4149L74.2384 17.9692C74.2188 18.077 74.1649 18.1651 74.0768 18.2337C73.9886 18.3023 73.8956 18.3366 73.7976 18.3366H72.0344ZM84.7547 18.2337C84.8134 18.3023 84.8967 18.3366 85.0045 18.3366H86.9879C87.0859 18.3366 87.1791 18.3023 87.2671 18.2337C87.3556 18.1651 87.4096 18.077 87.429 17.9692L89.4566 8.41813C89.4666 8.38874 89.4713 8.35935 89.4713 8.32997C89.4713 8.27119 89.4519 8.21242 89.4126 8.15364C89.354 8.08507 89.2707 8.05078 89.1628 8.05078H87.1791C87.0812 8.05078 86.9879 8.08507 86.8999 8.15364C86.8118 8.22221 86.7579 8.31037 86.7383 8.41813L84.6959 17.9692C84.6763 18.0672 84.6959 18.1553 84.7547 18.2337ZM94.2291 18.4839C93.3669 18.4839 92.6273 18.3664 92.0102 18.1313C91.4026 17.8962 90.9422 17.5827 90.6289 17.1909C90.3251 16.7991 90.1732 16.3631 90.1732 15.8831C90.1732 15.8048 90.1832 15.6872 90.2025 15.5305C90.2224 15.4423 90.2617 15.3688 90.3204 15.3101C90.389 15.2513 90.4671 15.2219 90.5556 15.2219H92.4361C92.5539 15.2219 92.6419 15.2415 92.7006 15.2807C92.7692 15.3199 92.8378 15.3884 92.9064 15.4864C92.9751 15.7411 93.1317 15.9517 93.3768 16.1182C93.6314 16.2848 93.9792 16.368 94.4197 16.368C94.9781 16.368 95.4291 16.2799 95.7717 16.1035C96.1148 15.9272 96.3206 15.6872 96.3887 15.3835C96.3987 15.3443 96.4034 15.2856 96.4034 15.2072C96.4034 14.9623 96.252 14.7713 95.9482 14.6341C95.6444 14.4872 95.086 14.3158 94.2731 14.1199C93.3229 13.9141 92.6026 13.6055 92.1129 13.1941C91.6231 12.7729 91.3785 12.2243 91.3785 11.5484C91.3785 11.3133 91.4078 11.0733 91.4665 10.8284C91.6624 9.91737 92.1474 9.20227 92.9211 8.68308C93.7047 8.16389 94.7136 7.9043 95.9482 7.9043C96.6925 7.9043 97.3541 8.03654 97.9319 8.30103C98.5096 8.56553 98.9554 8.90349 99.2692 9.31492C99.5923 9.71655 99.7537 10.1182 99.7537 10.5198C99.7537 10.6374 99.749 10.7206 99.739 10.7696C99.7196 10.8578 99.6756 10.9313 99.607 10.99C99.5483 11.0488 99.4745 11.0782 99.3865 11.0782H97.4175C97.2022 11.0782 97.055 10.9949 96.977 10.8284C96.967 10.6031 96.8492 10.4121 96.6239 10.2553C96.3987 10.0986 96.1048 10.0202 95.7423 10.0202C95.3112 10.0202 94.954 10.0986 94.6696 10.2553C94.3956 10.4121 94.2238 10.6423 94.1557 10.9459C94.1458 10.9949 94.1405 11.0586 94.1405 11.137C94.1405 11.3721 94.2778 11.568 94.5523 11.7247C94.8362 11.8717 95.3312 12.0235 96.0362 12.1802C97.1336 12.3958 97.9319 12.7043 98.4316 13.106C98.9407 13.5076 99.1953 14.0415 99.1953 14.7076C99.1953 14.9329 99.166 15.1778 99.1073 15.4423C98.892 16.4415 98.3677 17.2007 97.5348 17.7199C96.7124 18.2293 95.6103 18.4839 94.2291 18.4839ZM100.895 18.2337C100.954 18.3023 101.037 18.3366 101.145 18.3366H102.908C103.006 18.3366 103.099 18.3023 103.187 18.2337C103.275 18.1651 103.329 18.077 103.349 17.9692L104.525 12.4149L105.568 15.53C105.646 15.7553 105.788 15.868 105.994 15.868H106.758C106.875 15.868 106.979 15.8386 107.067 15.7798C107.155 15.721 107.248 15.6378 107.346 15.53L109.594 12.5471L108.448 17.9692C108.428 18.0672 108.443 18.1553 108.492 18.2337C108.551 18.3023 108.634 18.3366 108.742 18.3366H110.52C110.617 18.3366 110.711 18.3023 110.799 18.2337C110.887 18.1651 110.941 18.077 110.961 17.9692L112.988 8.41813C112.998 8.38874 113.003 8.35935 113.003 8.32997C113.003 8.27119 112.984 8.21242 112.944 8.15364C112.886 8.08507 112.802 8.05078 112.694 8.05078H111.093C110.955 8.05078 110.838 8.08507 110.74 8.15364C110.652 8.22221 110.583 8.29568 110.534 8.37405L106.964 13.0027L105.362 8.37405C105.293 8.15854 105.142 8.05078 104.906 8.05078H103.32C103.212 8.05078 103.114 8.08507 103.026 8.15364C102.937 8.22221 102.883 8.31037 102.864 8.41813L100.836 17.9692C100.816 18.077 100.836 18.1651 100.895 18.2337Z" fill="#F8F8F8"/>
</svg>
