<svg width="13" height="14" viewBox="0 0 13 14" fill="none" xmlns="http://www.w3.org/2000/svg">
<path d="M7.00434 0.855347C8.84338 0.855347 10.531 1.77059 11.5422 3.24573V1.46981C11.5422 1.13045 11.8173 0.855347 12.1567 0.855347C12.4961 0.855347 12.7712 1.13045 12.7712 1.46981V4.54211C12.7712 4.88147 12.4961 5.15658 12.1567 5.15658H9.08439C8.74503 5.15658 8.46993 4.88147 8.46993 4.54211C8.46993 4.20276 8.74503 3.92765 9.08439 3.92765H10.5196C9.73326 2.78968 8.42716 2.08427 7.00434 2.08427H6.59236C3.89885 2.08427 1.71086 4.28435 1.71086 6.98282C1.71086 9.70015 3.91416 11.9157 6.62655 11.9157H7.24101C9.61651 11.9157 11.5422 9.98992 11.5422 7.61442C11.5422 7.27506 11.8173 6.99996 12.1567 6.99996C12.4961 6.99996 12.7712 7.27506 12.7712 7.61442C12.7712 10.6686 10.2952 13.1446 7.24101 13.1446H6.62655C3.2305 13.1446 0.481934 10.3739 0.481934 6.98282C0.481934 3.6106 3.21519 0.855347 6.59236 0.855347H7.00434Z" fill="#8780BF"/>
</svg>
