<svg xmlns="http://www.w3.org/2000/svg" width="59" height="18" fill="none">
  <g opacity=".6">
    <path fill="#fff" d="M26.61 13.782c-.579 0-1.085-.106-1.52-.319a2.423 2.423 0 0 1-.995-.945c-.23-.417-.345-.902-.345-1.455V6.926c0-.562.115-1.047.345-1.456.238-.408.57-.72.996-.932.434-.221.94-.332 1.52-.332.578 0 1.08.11 1.506.332.425.221.753.536.983.945.238.4.357.88.357 1.443h-1.379c0-.486-.127-.856-.383-1.111-.255-.256-.617-.383-1.085-.383-.468 0-.834.127-1.098.383-.255.255-.383.621-.383 1.098v4.15c0 .476.128.846.383 1.11.264.256.63.383 1.098.383.468 0 .83-.127 1.085-.383.256-.264.383-.634.383-1.11h1.38c0 .553-.12 1.034-.358 1.442a2.34 2.34 0 0 1-.983.945c-.426.222-.928.332-1.507.332ZM33.755 13.782c-.842 0-1.515-.242-2.017-.728-.502-.493-.753-1.162-.753-2.004V6.632h1.379v4.418c0 .485.123.864.37 1.136.247.264.587.396 1.021.396.443 0 .788-.132 1.034-.396.256-.272.384-.651.384-1.136V6.632h1.378v4.418c0 .842-.255 1.51-.766 2.004-.502.486-1.178.728-2.03.728ZM38.449 13.655V6.632h1.328v1.34h.332l-.422.83c0-.757.166-1.327.498-1.71.332-.392.826-.588 1.482-.588.749 0 1.34.234 1.774.703.443.46.664 1.093.664 1.902v.472h-1.417v-.357c0-.502-.128-.885-.383-1.15-.247-.272-.596-.408-1.047-.408-.451 0-.804.136-1.06.409-.247.272-.37.655-.37 1.149v4.43h-1.379ZM47.28 13.655l-2.324-7.023h1.404l1.443 4.494c.094.264.175.532.243.805.076.264.132.472.166.626.042-.154.098-.362.166-.626.076-.273.153-.54.23-.805l1.417-4.494h1.392l-2.324 7.023H47.28ZM55.395 13.782c-.57 0-1.072-.11-1.506-.332a2.422 2.422 0 0 1-.984-.957c-.23-.409-.344-.886-.344-1.43V9.224c0-.553.115-1.03.344-1.43a2.34 2.34 0 0 1 .984-.945c.434-.23.936-.345 1.506-.345.579 0 1.081.115 1.507.345.425.221.753.536.983.945.23.4.345.877.345 1.43v1.251h-4.341v.588c0 .519.127.915.383 1.187.264.272.642.409 1.136.409.4 0 .724-.069.97-.205a.93.93 0 0 0 .46-.625h1.366c-.102.595-.408 1.072-.92 1.43-.51.349-1.14.523-1.889.523Zm1.507-4.137v-.434c0-.51-.128-.906-.383-1.187-.256-.281-.63-.422-1.124-.422-.485 0-.86.14-1.123.422-.256.28-.383.68-.383 1.2v.32l3.115-.014-.102.115Z"/>
    <path stroke="#fff" stroke-width=".1" d="m7.751 10.706-1.211.267-.15-.567 1.286-.235.075.535ZM6.54 10.973l-1.053.357-.228-.591 1.13-.333.15.567ZM7.676 10.17l-1.287.235-.135-.661 1.355-.2.067.626Z"/>
    <path stroke="#fff" stroke-width=".1" d="m6.39 10.406-1.131.333-.205-.69 1.2-.304.135.662ZM7.832 11.137l-1.131.293-.162-.458 1.212-.267.081.432Z"/>
    <path stroke="#fff" stroke-width=".1" d="m6.701 11.431-.97.378-.244-.479 1.053-.357.161.458ZM7.609 9.546l-1.355.2-.117-.74 1.414-.161.058.701Z"/>
    <path stroke="#fff" stroke-width=".1" d="m6.254 9.744-1.2.304-.178-.773 1.26-.271.118.74ZM9.076 10.532l-1.325.176-.075-.535 1.395-.14.005.5ZM7.918 11.458l-1.048.314-.169-.34 1.132-.292.085.318ZM5.486 11.33l-.863.444-.303-.61.939-.425.227.592Z"/>
    <path stroke="#fff" stroke-width=".1" d="m6.87 11.77-.884.393-.255-.354.97-.377.17.339ZM9.07 10.033l-1.394.14-.067-.626 1.458-.099.004.585ZM5.259 10.74l-.939.425-.274-.712 1.008-.404.205.69ZM9.082 10.931l-1.25.207-.08-.432 1.324-.176.006.401ZM5.73 11.81l-.781.455-.326-.491.863-.443.245.479ZM7.551 8.844l-1.414.16-.096-.8 1.463-.12.047.76Z"/>
    <path stroke="#fff" stroke-width=".1" d="m6.137 9.005-1.261.27-.147-.836 1.312-.236.096.802ZM9.067 9.446l-1.458.099-.058-.701 1.514-.055.002.657Z"/>
    <path stroke="#fff" stroke-width=".1" d="m5.054 10.047-1.008.404-.238-.798 1.068-.379.178.773ZM9.089 11.224l-1.171.233-.086-.318 1.25-.207.007.292ZM8.005 11.654l-.962.329-.173-.21 1.048-.315.087.196ZM5.986 12.165l-.697.464-.34-.363.782-.456.255.355Z"/>
    <path stroke="#fff" stroke-width=".1" d="m7.043 11.981-.796.403-.26-.22.883-.393.173.21ZM9.065 8.789l-1.514.054-.047-.76 1.56-.008v.714ZM4.876 9.275l-1.067.38-.196-.866 1.117-.35.146.836ZM9.097 11.4l-1.092.252-.087-.196 1.171-.232.008.177Z"/>
    <path stroke="#fff" stroke-width=".1" d="m7.505 8.084-1.464.119-.072-.844 1.5-.076.036.8ZM10.453 10.441l-1.377.09-.005-.5 1.44-.049-.058.46ZM6.04 8.203l-1.31.236-.112-.882 1.35-.198.073.844Z"/>
    <path stroke="#fff" stroke-width=".1" d="m10.393 10.807-1.311.124-.006-.4 1.377-.09-.06.366ZM10.51 9.983l-1.44.05-.003-.586 1.497-.005-.053.541ZM4.623 11.772l-.659.517-.374-.618.73-.508.303.61Z"/>
    <path stroke="#fff" stroke-width=".1" d="m4.32 11.165-.73.508-.337-.725.793-.495.274.712ZM6.247 12.383l-.611.468-.347-.224.697-.464.26.22ZM4.949 12.263l-.584.522-.4-.496.658-.518.326.492ZM8.092 11.72l-.877.338-.172-.077.962-.329.087.069ZM10.33 11.072l-1.241.153-.007-.292 1.31-.124-.062.263ZM10.564 9.442l-1.497.004-.002-.657 1.546.043-.047.61ZM7.215 12.059l-.71.406-.258-.08.796-.403.172.077ZM9.064 8.076l-1.56.008-.034-.8 1.594.039v.753ZM4.046 10.452l-.793.495-.293-.814.849-.479.237.798Z"/>
    <path stroke="#fff" stroke-width=".1" d="m9.105 11.458-1.013.263-.087-.068 1.092-.252.008.057ZM5.289 12.627l-.504.523-.42-.363.584-.522.34.362ZM4.73 8.439l-1.117.35-.149-.911 1.154-.32.111.88ZM10.268 11.225l-1.17.175-.009-.177 1.241-.153-.062.155ZM7.47 7.283l-1.502.076-.047-.866 1.527-.032.022.822ZM10.61 8.832l-1.546-.043v-.714l1.586.094-.04.663Z"/>
    <path stroke="#fff" stroke-width=".1" d="m5.968 7.36-1.35.199-.072-.904 1.375-.16.047.866ZM6.506 12.464l-.526.466-.344-.079.61-.467.26.08ZM3.809 9.654l-.85.479-.241-.886.895-.458.196.865ZM8.177 11.658l-.796.339-.166.06.877-.337.085-.062ZM5.635 12.853l-.423.52-.427-.221.504-.523.346.224ZM9.064 7.322l-1.594-.04-.022-.821 1.618.088-.002.773ZM10.207 11.268l-1.101.189-.009-.057 1.17-.174-.06.042ZM11.815 10.43l-1.362.011.058-.459 1.414.032-.11.417ZM11.697 10.76l-1.304.048.06-.366 1.362-.01-.117.328ZM7.382 11.998l-.625.404-.251.063.709-.407.167-.06ZM10.65 8.17l-1.586-.093v-.753l1.619.145-.032.701Z"/>
    <path stroke="#fff" stroke-width=".1" d="m9.115 11.392-.938.267-.085.062 1.014-.263.009-.066ZM11.925 10.015l-1.414-.032.053-.54 1.462.078-.1.494ZM4.619 7.558l-1.155.32-.097-.936 1.179-.288.073.904ZM11.576 10.992l-1.246.078.063-.263 1.304-.048-.121.233ZM3.964 12.292l-.456.575-.435-.618.518-.575.373.618Z"/>
    <path stroke="#fff" stroke-width=".1" d="m4.366 12.789-.39.572-.468-.494.456-.575.402.497ZM7.448 6.462l-1.527.032-.02-.866 1.539.011.008.823ZM12.026 9.52l-1.462-.078.047-.609 1.504.129-.089.559ZM3.59 11.671l-.518.575-.393-.729.574-.57.337.724ZM3.613 8.789l-.895.458-.184-.935.93-.435.149.912Z"/>
    <path stroke="#fff" stroke-width=".1" d="m5.922 6.494-1.376.16-.032-.906 1.387-.12.02.866ZM11.454 11.126l-1.186.102.062-.155 1.246-.079-.122.132ZM6.757 12.402l-.442.46-.335.069.526-.466.25-.063Z"/>
    <path stroke="#fff" stroke-width=".1" d="m5.98 12.93-.344.513-.424-.072.424-.52.344.08ZM4.785 13.15l-.321.565-.488-.356.39-.572.419.363ZM10.148 11.195l-1.034.196-.009.066 1.101-.19-.058-.072ZM3.253 10.947l-.574.572-.342-.823.623-.563.293.815ZM9.066 6.55l-1.618-.088-.008-.822 1.63.135-.004.775ZM10.683 7.469l-1.619-.145.002-.773 1.64.196-.023.722ZM12.115 8.962l-1.504-.129.04-.663 1.539.18-.075.612ZM8.258 11.467l-.719.333-.157.197.795-.339.08-.191Z"/>
    <path stroke="#fff" stroke-width=".1" d="m9.124 11.204-.866.264-.08.192.937-.268.009-.188ZM11.334 11.15l-1.127.118.06-.042 1.187-.102-.12.026ZM7.54 11.8l-.546.396-.237.206.625-.404.157-.197ZM4.546 6.654l-1.18.288-.043-.939 1.19-.254.033.905ZM5.212 13.372l-.25.555-.498-.21.32-.566.428.22ZM2.96 10.133l-.623.564-.282-.897.663-.552.242.885ZM3.464 7.878l-.93.435-.12-.961.953-.41.097.936ZM12.19 8.35l-1.54-.18.032-.702 1.566.234-.058.648ZM7.44 5.639 5.9 5.627l.008-.845 1.537.054-.006.803Z"/>
    <path stroke="#fff" stroke-width=".1" d="m10.094 11.01-.97.194-.01.188 1.034-.196-.054-.186ZM6.315 12.86l-.267.5-.412.081.344-.513.335-.069ZM12.923 10.78l-1.226-.02.118-.328 1.27.057-.162.29ZM13.085 10.487l-1.27-.057.11-.416 1.313.1-.153.373ZM10.706 6.745l-1.64-.195.003-.776 1.65.246-.013.725ZM5.901 5.627l-1.388.12.01-.883 1.386-.082-.008.845ZM11.218 11.07l-1.07.125.058.072 1.128-.117-.116-.08ZM6.994 12.196l-.364.448-.315.217.442-.46.237-.205Z"/>
    <path stroke="#fff" stroke-width=".1" d="m12.755 10.98-1.179.012.121-.233 1.226.019-.168.202ZM13.238 10.116l-1.313-.1.101-.495 1.352.148-.14.447ZM9.07 5.774 7.44 5.64l.006-.803 1.628.18-.005.758ZM5.636 13.442l-.18.541-.495-.058.25-.555.425.072ZM8.332 11.151l-.648.32-.145.33.719-.332.074-.318Z"/>
    <path stroke="#fff" stroke-width=".1" d="m12.585 11.088-1.131.036.122-.131 1.178-.013-.17.108ZM9.133 10.898l-.801.253-.074.317.866-.264.009-.306ZM13.378 9.668l-1.352-.148.089-.56 1.385.2-.122.508ZM12.248 7.702l-1.565-.234.023-.722 1.583.287-.04.67ZM2.718 9.245l-.662.552-.215-.949.693-.537.184.934ZM3.508 12.867l-.27.612-.485-.61.32-.621.435.619Z"/>
    <path stroke="#fff" stroke-width=".1" d="m3.976 13.359-.217.6-.52-.481.269-.613.468.494ZM7.684 11.47l-.473.382-.217.344.545-.395.145-.33ZM3.072 12.248l-.318.622-.439-.724.364-.627.393.73ZM4.514 5.747 3.323 6l.011-.917 1.189-.22-.01.883ZM12.418 11.098l-1.084.052.12-.026 1.13-.036-.166.01ZM11.111 10.884l-1.017.124.054.187 1.07-.126-.107-.185ZM3.367 6.941l-.954.41-.054-.965.964-.383.044.938ZM4.464 13.716l-.161.585-.544-.341.217-.6.488.356ZM10.046 10.714l-.913.183-.01.307.97-.194-.047-.296ZM13.5 9.16l-1.385-.2.075-.61 1.413.251-.103.558ZM10.719 6.02l-1.65-.245.005-.757 1.648.293-.003.71ZM7.446 4.837l-1.537-.054.035-.803 1.522.094-.02.763ZM6.63 12.646l-.193.486-.389.232.266-.502.316-.216ZM2.679 11.518l-.364.626-.38-.82.402-.629.342.823ZM5.909 4.783l-1.386.082.051-.84 1.37-.045-.035.803Z"/>
    <path stroke="#fff" stroke-width=".1" d="m9.074 5.018-1.628-.18.02-.764 1.614.223-.006.72ZM6.048 13.36l-.113.526-.48.096.182-.541.411-.08ZM12.289 7.034l-1.584-.287.014-.726 1.592.34-.022.673ZM12.257 11.01l-1.038.06.115.08 1.084-.052-.161-.088ZM7.212 11.852l-.293.432-.289.361.364-.448.218-.345ZM4.961 13.926l-.105.569-.553-.193.16-.586.498.21ZM2.534 8.312l-.693.538-.14-.979.712-.52.121.961ZM13.602 8.6l-1.412-.25.058-.649 1.434.305-.08.595ZM9.142 10.477l-.744.235-.066.437.8-.253.01-.419Z"/>
    <path stroke="#fff" stroke-width=".1" d="m8.398 10.714-.587.3-.127.457.648-.32.066-.437ZM11.015 10.599l-.97.114.05.296 1.016-.124-.096-.286ZM2.337 10.696l-.402.629-.314-.899.435-.626.281.896ZM13.995 10.854l-1.072-.076.162-.29 1.107.112-.197.254ZM13.793 11.025l-1.038-.044.168-.202 1.073.076-.204.17ZM14.192 10.6l-1.107-.112.153-.374 1.138.155-.184.33Z"/>
    <path stroke="#fff" stroke-width=".1" d="m10.004 10.315-.862.164-.01.418.914-.183-.042-.4ZM7.811 11.013l-.408.361-.192.476.473-.381.127-.456ZM12.107 10.825l-.996.06.107.185 1.039-.06-.15-.185ZM10.722 5.31l-1.648-.293.006-.72 1.635.337.007.677ZM5.456 13.984l-.05.55-.55-.04.105-.568.495.058ZM3.323 6.002l-.964.383.014-.945.961-.355-.011.917ZM13.587 11.108l-1.002-.021.17-.107 1.037.044-.205.084ZM4.523 4.865l-1.189.22.067-.872 1.173-.188-.051.84ZM14.376 10.27l-1.137-.156.14-.446 1.165.202-.168.4ZM13.682 8.007 12.248 7.7l.04-.669 1.449.359-.055.616ZM12.31 6.36l-1.591-.339.003-.71 1.59.388-.001.661ZM7.466 4.074l-1.522-.093.063-.74 1.492.13-.033.703ZM6.92 12.284l-.127.469-.356.378.193-.486.29-.36Z"/>
    <path stroke="#fff" stroke-width=".1" d="m13.385 11.103-.968-.005.168-.01 1.002.02-.202-.005ZM6.437 13.13l-.05.508-.452.25.113-.526.39-.231ZM14.544 9.87l-1.166-.201.122-.509 1.191.252-.147.458ZM9.08 4.297l-1.614-.223.033-.703 1.588.261-.007.665ZM10.931 10.22l-.926.096.04.4.97-.116-.084-.38ZM5.944 3.98l-1.37.046.093-.774 1.34-.01-.063.739ZM2.413 7.351l-.713.52-.063-.984.722-.501.054.965ZM2.056 9.8l-.435.627-.239-.954.46-.621.214.949ZM7.403 11.375l-.229.411-.255.497.293-.432.191-.476Z"/>
    <path stroke="#fff" stroke-width=".1" d="m11.972 10.55-.958.05.097.286.996-.06-.135-.276ZM3.76 13.96l-.046.581-.543-.473.068-.59.52.482ZM3.239 13.477l-.068.59-.506-.604.088-.596.486.61ZM9.15 9.958l-.696.208-.056.546.744-.234.008-.52ZM13.191 11.005l-.934.003.16.088.968.005-.194-.096Z"/>
    <path stroke="#fff" stroke-width=".1" d="m8.454 10.167-.535.275-.108.572.587-.3.056-.547ZM14.691 9.412l-1.19-.252.102-.558 1.21.303-.122.507ZM4.303 14.302l-.023.572-.567-.333.047-.581.543.342ZM5.935 13.887l.005.53-.534.116.05-.55.479-.096ZM13.737 7.392l-1.448-.359.022-.674 1.454.411-.028.622ZM2.753 12.87l-.088.595-.456-.718.106-.601.438.723ZM9.971 9.822l-.82.138-.01.52.864-.165-.034-.493ZM10.716 4.634 9.08 4.296l.007-.664 1.612.377.017.625ZM12.313 5.698l-1.59-.388-.007-.676 1.58.432.017.632Z"/>
    <path stroke="#fff" stroke-width=".1" d="m7.919 10.442-.355.336-.16.598.407-.361.108-.573ZM4.856 14.494v.562l-.576-.183.023-.572.553.193ZM13.01 10.824l-.903.002.15.184.934-.002-.18-.184ZM3.334 5.085l-.961.356.082-.901.946-.327-.067.872ZM14.813 8.905l-1.21-.304.079-.594 1.226.357-.095.541ZM4.574 4.025l-1.173.187.122-.805 1.143-.156-.092.774ZM2.315 12.146l-.106.6-.397-.816.123-.605.38.82ZM11.855 10.185l-.924.032.083.381.958-.05-.117-.363ZM10.863 9.752l-.892.07.033.493.927-.097-.068-.466ZM7.5 3.37l-1.493-.13.088-.656 1.451.162-.046.625ZM1.841 8.851l-.459.621-.157-.988.475-.612.141.98ZM6.793 12.753l.01.488-.415.398.049-.507.356-.38Z"/>
    <path stroke="#fff" stroke-width=".1" d="M9.087 3.633 7.499 3.37l.047-.624 1.548.295-.007.59ZM7.174 11.788l-.067.448-.314.518.126-.469.255-.497ZM13.765 6.77l-1.454-.41.002-.662 1.453.46v.612ZM14.62 11.115l-.828-.09.204-.171.851.12-.226.141Z"/>
    <path stroke="#fff" stroke-width=".1" d="m14.847 10.974-.851-.12.196-.254.874.155-.219.219ZM2.359 6.387l-.722.5.016-.966.72-.48-.014.946ZM14.392 11.179l-.805-.07.205-.083.829.091-.229.062ZM15.066 10.755l-.874-.156.184-.33.895.195-.206.29ZM6.007 3.239l-1.34.01.131-.687 1.297.02-.088.657ZM9.158 9.35l-.66.174-.045.643.697-.208.008-.61ZM5.407 14.533l.022.55-.573-.028v-.562l.55.04ZM6.388 13.64l.055.508-.503.27-.005-.529.453-.25ZM12.847 10.557l-.875-.007.135.276.903-.002-.163-.267ZM7.563 10.78l-.176.386-.213.622.229-.411.16-.598ZM14.909 8.364l-1.227-.357.055-.615 1.236.409-.065.563Z"/>
    <path stroke="#fff" stroke-width=".1" d="m9.947 9.246-.79.104-.007.61.821-.139-.024-.575ZM1.935 11.324l-.123.604-.327-.897.136-.605.314.898ZM14.167 11.156l-.782-.054.202.007.805.068-.225-.02ZM8.497 9.524l-.495.243-.084.675.535-.275.044-.643ZM15.27 10.464l-.894-.195.168-.4.913.24-.187.355ZM12.295 5.067l-1.58-.432-.016-.625 1.56.472.036.585ZM10.699 4.009l-1.612-.377.008-.591 1.577.41.027.558ZM11.76 9.748l-.897.005.068.466.925-.031-.096-.44Z"/>
    <path stroke="#fff" stroke-width=".1" d="m13.951 11.053-.76-.047.194.096.782.053-.216-.102ZM15.457 10.11l-.913-.24.147-.459.93.288-.164.411ZM10.812 9.212l-.865.035.024.575.892-.07-.05-.54ZM8.002 9.766l-.313.305-.126.706.355-.336.084-.675ZM13.766 6.157l-1.453-.46-.018-.63 1.444.504.027.586ZM12.706 10.211l-.85-.026.116.363.875.008-.141-.345ZM14.973 7.8l-1.236-.41.028-.621 1.241.46-.033.57ZM5.94 14.418l.044.54-.555.128-.022-.552.533-.116ZM1.7 7.873l-.475.612-.07-.997.482-.6.063.985ZM3.401 4.212l-.946.327.15-.833.918-.299-.122.805ZM7.546 2.747l-1.451-.163.112-.555 1.397.19-.058.528ZM4.667 3.25l-1.143.156.174-.716 1.1-.127-.131.687Z"/>
    <path stroke="#fff" stroke-width=".1" d="m9.095 3.04-1.549-.294.058-.528 1.5.321-.01.502ZM13.75 10.873l-.74-.049.181.184.76.047-.202-.182ZM3.713 14.539l.066.53-.541-.472-.067-.532.542.474ZM15.62 9.7l-.929-.289.123-.506.943.338-.136.457ZM3.171 14.069l.067.532-.505-.602-.068-.533.506.603ZM7.107 12.234l.06.467-.364.54-.01-.489.314-.518ZM1.62 10.426l-.135.606-.248-.955.145-.605.239.954Z"/>
    <path stroke="#fff" stroke-width=".1" d="m4.28 14.874.064.531-.565-.332-.066-.531.566.332ZM7.387 11.163l-.017.424-.263.646.067-.448.213-.622ZM9.164 8.664l-.636.135-.03.724.66-.175.006-.684ZM6.802 13.24l.103.488-.461.42-.056-.51.414-.398ZM12.258 4.482l-1.56-.472-.026-.558 1.53.506.056.524ZM9.933 8.603l-.768.062-.007.685.789-.104-.014-.643ZM2.373 5.44l-.72.48.097-.924.705-.456-.082.9ZM2.665 13.465l.068.533-.456-.717-.068-.535.456.719ZM11.688 9.242l-.876-.03.051.54.897-.004-.072-.506ZM6.095 2.583l-1.297-.02.168-.582 1.24.047-.111.555ZM10.672 3.45l-1.577-.41.008-.5 1.534.437.035.474Z"/>
    <path stroke="#fff" stroke-width=".1" d="m8.529 8.8-.469.207-.058.76.496-.242.03-.724ZM13.567 10.616l-.72-.058.163.267.74.048-.183-.257ZM7.688 10.071l-.135.359-.166.733.176-.386.125-.706ZM12.59 9.8l-.83-.053.096.44.85.025-.116-.413ZM15.757 9.243l-.943-.338.095-.542.952.39-.104.49ZM4.856 15.055l.063.531-.575-.183-.065-.53.577.182ZM15.006 7.23l-1.241-.46.001-.613 1.24.509v.564ZM13.74 5.57l-1.445-.504-.037-.586 1.428.545.054.545ZM10.78 8.61l-.848-.007.015.643.865-.035-.032-.601ZM2.209 12.746l.069.535-.396-.814-.07-.538.397.817ZM15.183 11.243l-.562-.128.226-.141.575.154-.24.115ZM6.444 14.148l.064.53-.524.281-.044-.54.504-.27ZM14.941 11.286l-.549-.108.229-.06.562.127-.242.041Z"/>
    <path stroke="#fff" stroke-width=".1" d="m15.422 11.13-.575-.155.219-.22.586.188-.23.186ZM14.704 11.252l-.537-.095.225.021.55.108-.238-.034ZM15.652 10.941l-.587-.187.205-.29.598.224-.216.253ZM8.06 9.006l-.286.271-.085.796.313-.306.058-.761ZM1.382 9.472l-.145.605-.164-.99.152-.603.157.988ZM13.41 10.289l-.704-.076.141.344.72.058-.157-.326ZM9.103 2.54 7.604 2.22l.07-.417 1.438.341-.009.397ZM15.861 8.753l-.952-.39.064-.562.96.439-.072.513ZM1.637 6.887l-.482.6.019-.981.479-.586-.016.967ZM5.429 15.085l.063.532-.572-.03-.064-.53.573.028ZM7.604 2.218l-1.397-.19.133-.437 1.333.21-.069.417ZM12.202 3.957l-1.53-.506-.036-.474 1.493.532.073.448Z"/>
    <path stroke="#fff" stroke-width=".1" d="m14.475 11.143-.524-.088.216.102.537.095-.229-.109ZM11.642 8.68l-.862-.07.032.601.876.03-.046-.56ZM15.868 10.687l-.597-.224.186-.355.608.266-.197.313ZM3.524 3.406l-.918.3.215-.743.877-.273-.174.716ZM4.798 2.563l-1.1.127.223-.607 1.045-.102-.168.582ZM12.503 9.327l-.815-.087.072.506.83.053-.087-.472ZM9.928 7.907l-.758.016-.006.742.769-.063-.005-.695ZM9.17 7.923l-.625.09-.017.787.636-.135.006-.742ZM15.006 6.666l-1.24-.508-.026-.587 1.233.553.033.542ZM7.37 11.589l.104.445-.306.667-.061-.466.263-.646ZM10.636 2.976 9.103 2.54l.01-.397 1.48.456.043.378ZM1.812 11.928l.07.538-.326-.894-.07-.54.326.896ZM13.686 5.024l-1.428-.544-.056-.524 1.405.578.079.49ZM7.168 12.701l.143.467-.406.56-.103-.488.366-.539ZM7.553 10.432l.022.398-.205.759.017-.424.166-.733ZM14.262 10.962l-.513-.09.202.182.524.089-.213-.18Z"/>
    <path stroke="#fff" stroke-width=".1" d="m10.768 7.962-.84-.055.005.695.848.008-.013-.648ZM16.065 10.375l-.608-.265.163-.41.617.309-.172.366ZM6.207 2.029l-1.241-.046.2-.46 1.174.068-.133.438ZM2.455 4.54l-.705.455.175-.857.68-.432-.15.833ZM8.545 8.015l-.455.164-.03.828.468-.206.017-.786ZM13.28 9.9l-.69-.101.115.413.705.075-.13-.387ZM15.933 8.24l-.96-.439.033-.57.962.488-.035.521ZM7.774 9.275l-.107.328-.114.827.135-.36.086-.795ZM5.984 14.959l.062.534-.555.125-.062-.532.555-.127ZM6.904 13.729l.084.518-.48.43-.065-.529.461-.42ZM14.07 10.714l-.502-.1.181.258.514.09-.193-.248ZM16.237 10.008l-.617-.31.136-.456.624.356-.143.41ZM12.447 8.807l-.805-.127.046.56.814.086-.055-.519Z"/>
    <path stroke="#fff" stroke-width=".1" d="m11.624 8.081-.856-.12.012.648.862.072-.018-.6ZM9.112 2.143l-1.439-.341.078-.294 1.37.353-.009.282ZM3.78 15.072l.1.477-.535-.468-.107-.481.541.472ZM14.973 6.125l-1.233-.553-.054-.546 1.22.592.066.507ZM12.13 3.509l-1.494-.533-.044-.378 1.448.551.09.36Z"/>
    <path stroke="#fff" stroke-width=".1" d="m3.238 14.6.107.481-.499-.595-.113-.488.505.602ZM1.225 8.484l-.152.602-.073-1 .155-.6.07.998ZM8.09 8.178l-.272.233-.044.866.286-.271.03-.828ZM7.673 1.8 6.34 1.59l.152-.308 1.259.224-.078.294ZM1.485 11.031l.07.541-.247-.951-.072-.545.249.955ZM9.935 7.18l-.76-.035-.005.78.759-.016.006-.73ZM4.344 15.403l.096.474-.56-.33-.101-.476.565.332ZM13.607 4.535l-1.404-.578-.074-.447 1.374.604.104.421Z"/>
    <path stroke="#fff" stroke-width=".1" d="m9.175 7.145-.627.041-.002.829.624-.09.005-.78ZM13.183 9.461l-.68-.134.087.472.69.101-.097-.439ZM10.593 2.599l-1.48-.457.009-.282 1.42.468.05.27ZM15.968 7.718l-.962-.488v-.564l.96.534.002.518ZM1.653 5.921l-.48.586.11-.941.467-.569-.097.924ZM2.733 13.998l.113.488-.451-.709-.118-.496.456.717ZM13.904 10.403l-.494-.117.158.327.502.1-.166-.31ZM10.776 7.284l-.841-.107-.006.729.84.055.007-.677ZM16.38 9.6l-.624-.355.105-.491.629.403-.11.444ZM4.966 1.983l-1.045.101.266-.48.979-.08-.2.459ZM3.698 2.691l-.877.272.275-.631.825-.248-.223.607ZM15.192 11.425l-.25-.139.24-.04.256.156-.246.023ZM15.438 11.4l-.255-.156.239-.115.258.18-.242.092ZM4.92 15.588l.09.472-.57-.182-.096-.474.576.184Z"/>
    <path stroke="#fff" stroke-width=".1" d="m14.95 11.38-.246-.128.237.034.251.139-.241-.046ZM8.548 7.185l-.457.119-.001.873.456-.164.002-.828ZM15.68 11.311l-.258-.18.23-.187.262.21-.234.157ZM7.575 10.831l.138.423-.239.78-.104-.444.205-.759ZM6.508 14.676l.061.536-.523.28-.062-.535.524-.281ZM7.474 12.034l.178.447-.34.688-.144-.467.306-.668ZM6.34 1.592l-1.174-.068.227-.323 1.098.083-.15.308ZM12.424 8.255l-.8-.174.018.6.805.127-.023-.553Z"/>
    <path stroke="#fff" stroke-width=".1" d="m14.719 11.266-.243-.122.228.108.247.127-.232-.113ZM2.277 13.28l.118.496-.392-.805-.121-.505.395.814ZM7.667 9.605l.048.372-.14.854-.022-.4.114-.826ZM14.906 5.619l-1.22-.592-.08-.49 1.203.624.097.458ZM11.633 7.46l-.857-.172-.008.677.856.119.01-.624ZM15.914 11.15l-.262-.209.216-.253.266.243-.22.22ZM13.767 10.04l-.486-.14.129.388.494.116-.137-.363ZM12.04 3.15 10.593 2.6l-.052-.27 1.397.56.102.261ZM2.606 3.706l-.68.432.25-.767.645-.408-.215.743ZM16.49 9.158l-.629-.403.071-.513.632.45-.075.466ZM13.12 8.98l-.673-.173.056.519.68.133-.062-.48ZM9.121 1.862l-1.37-.354.084-.161 1.296.357-.01.158ZM15.966 7.2l-.96-.534-.034-.542.956.576.038.5Z"/>
    <path stroke="#fff" stroke-width=".1" d="m7.818 8.411-.093.295-.058.899.107-.328.044-.866ZM14.502 11.086l-.24-.124.214.18.243.123-.217-.179ZM13.503 4.114 12.13 3.51l-.089-.36 1.338.623.125.34ZM7.311 13.166l.1.508-.423.57-.083-.518.406-.56ZM9.951 6.436l-.773-.09-.003.799.76.035.016-.744ZM16.134 10.93l-.266-.242.197-.313.268.28-.2.276ZM5.491 15.617l.085.473-.566-.03-.09-.473.571.03ZM10.541 2.329l-1.42-.468.01-.158 1.353.47.057.156ZM1.237 10.075l.071.545-.163-.987-.072-.548.164.99Z"/>
    <path stroke="#fff" stroke-width=".1" d="m10.805 6.597-.853-.163-.017.743.841.108.029-.688ZM9.177 6.346l-.641-.01.012.85.626-.043.003-.797ZM7.75 1.507l-1.259-.224.166-.168 1.178.23-.084.162ZM8.09 7.304l-.272.193v.914l.272-.234v-.873ZM1.155 7.487 1 8.085l.02-.987.153-.593-.018.982ZM14.306 10.847l-.236-.133.192.248.24.124-.196-.239ZM1.882 12.467l.122.505-.323-.883-.125-.516.326.894ZM13.664 9.632l-.48-.171.097.44.486.14-.103-.409ZM16.333 10.654l-.268-.279.172-.366.27.319-.174.326ZM12.434 7.683l-.8-.226-.01.624.8.174.01-.572ZM16.564 8.69l-.631-.45.035-.521.632.495-.036.477ZM14.809 5.161l-1.202-.624-.104-.422 1.18.65.126.396ZM11.671 6.825l-.866-.227-.028.687.857.172.037-.632Z"/>
    <path stroke="#fff" stroke-width=".1" d="m8.536 6.336-.473.072.028.896.457-.119-.012-.85ZM13.094 8.474l-.67-.218.023.553.674.173-.027-.508ZM11.938 2.89l-1.397-.562-.057-.155 1.341.563.113.154ZM1.75 4.996l-.468.569.196-.876.447-.55-.175.857ZM15.928 6.702l-.955-.576-.067-.507.947.614.075.47ZM5.166 1.524l-.98.08.304-.34.903-.063-.227.323ZM14.137 10.553l-.233-.149.166.31.237.133-.17-.294ZM6.988 14.247l.06.539-.479.427-.06-.536.48-.43ZM13.378 3.775l-1.338-.623-.102-.26 1.297.632.143.25ZM6.492 1.285l-1.099-.083.249-.177 1.015.092-.165.168ZM9.978 5.696 9.18 5.55l-.001.794.774.09.026-.74ZM9.131 1.705l-1.296-.358.089-.024 1.216.354-.009.028ZM3.92 2.084l-.824.248.328-.503.763-.225-.266.48ZM16.507 10.328l-.27-.32.143-.41.271.361-.144.369ZM6.046 15.49l.079.476-.55.123-.083-.473.554-.126Z"/>
    <path stroke="#fff" stroke-width=".1" d="m10.484 2.172-1.353-.47.009-.028 1.283.463.061.035ZM10.853 5.916l-.875-.22-.026.738.853.163.048-.681ZM9.179 5.55l-.67-.063.027.847.641.01.002-.795ZM7.715 9.978l.162.4-.164.875-.138-.422.14-.853ZM13.598 9.188l-.478-.208.063.48.481.171-.066-.443ZM7.713 11.254l.205.429-.266.799-.178-.447.24-.781ZM7.725 8.707l.062.344-.072.927-.048-.372.058-.899ZM7.835 1.346l-1.178-.23.174-.022 1.093.228-.089.024ZM3.88 15.549l.1.399-.525-.459-.11-.408.536.468ZM16.6 8.212l-.632-.495-.001-.518.63.539.003.474Z"/>
    <path stroke="#fff" stroke-width=".1" d="m3.345 15.081.11.409-.49-.584-.12-.42.5.595ZM12.479 7.105l-.808-.28-.037.632.8.226.045-.578ZM7.818 7.498l-.093.26v.949l.093-.295v-.914ZM13.998 10.211l-.23-.17.136.364.233.148-.139-.342ZM15.123 11.587l.07-.164.244-.024-.071.18-.243.008ZM14.683 4.762l-1.18-.65-.125-.34 1.153.667.152.323ZM1.556 11.573l.125.516-.245-.94-.128-.527.248.951Z"/>
    <path stroke="#fff" stroke-width=".1" d="m11.736 6.204-.883-.285-.048.68.866.228.065-.623ZM14.884 11.532l.067-.155.241.046-.069.164-.239-.055ZM2.82 2.965l-.643.408.32-.655.599-.385-.275.632ZM1.073 9.086l.072.548-.073-.997L1 8.085l.073 1.001ZM4.44 15.877l.089.393-.549-.323-.1-.4.56.33ZM11.825 2.737l-1.34-.563-.062-.034 1.28.554.122.043ZM15.366 11.581l.071-.18.243-.091-.075.2-.24.071ZM8.063 6.407l-.288.152.043.938.273-.194-.028-.896ZM7.652 12.48l.114.499-.355.696-.1-.508.34-.688ZM13.105 7.95l-.67-.266-.011.572.67.218.011-.524ZM16.651 9.96l-.271-.36.11-.444.272.403-.11.401ZM15.853 6.23l-.947-.614-.097-.458.934.645.11.426ZM14.655 11.414l.064-.15.232.113-.067.155-.23-.118ZM2.846 14.486l.12.42-.443-.695-.128-.434.45.709ZM13.235 3.521l-1.297-.632-.114-.154 1.253.633.158.153Z"/>
    <path stroke="#fff" stroke-width=".1" d="m15.605 11.51.075-.2.234-.158-.077.226-.232.132ZM10.014 4.983l-.835-.2v.768l.8.145.035-.713ZM8.51 5.487l-.504.025.057.894.473-.072-.027-.847ZM9.14 1.677l-1.216-.354.09.116 1.135.34-.009-.102ZM10.423 2.137 9.14 1.674l.009.103 1.21.448.064-.088Z"/>
    <path stroke="#fff" stroke-width=".1" d="m10.919 5.26-.905-.278-.036.713.874.221.067-.655ZM14.44 11.24l.062-.153.217.178-.064.151-.215-.177ZM1.174 6.505l-.154.593.113-.948.15-.587-.11.942ZM5.01 16.06l.078.39-.559-.18-.089-.393.57.182ZM9.179 4.782l-.71-.114.04.82.67.063v-.769ZM15.836 11.377l.078-.226.22-.22-.08.255-.217.19ZM13.57 8.722l-.476-.25.027.509.477.208-.029-.467ZM13.893 9.832l-.229-.198.103.408.231.17-.105-.38ZM16.598 7.74l-.631-.539-.039-.5.627.578.043.46ZM6.657 1.116l-1.015-.092L5.906 1l.926.093-.175.023ZM6.57 15.213l.073.48-.519.274-.078-.475.523-.28ZM14.247 11.007l.06-.16.195.239-.062.152-.193-.231ZM5.393 1.202l-.904.063.332-.188.82-.052-.248.177ZM12.556 6.54l-.82-.337-.065.623.808.28.077-.566ZM11.704 2.694l-1.281-.554-.064.087 1.22.537.125-.07Z"/>
    <path stroke="#fff" stroke-width=".1" d="m11.827 5.603-.908-.343-.066.655.883.285.09-.597ZM16.763 9.558l-.273-.403.074-.466.273.445-.074.424ZM2.395 13.777l.128.434-.384-.79-.136-.45.392.806ZM7.924 1.322 6.83 1.094l.18.125 1.004.22-.091-.117ZM14.531 4.44l-1.153-.667-.143-.25 1.123.676.173.242ZM7.411 13.676l.06.542-.422.566-.06-.538.422-.57ZM10.059 4.314l-.881-.254.001.722.835.2.045-.668ZM16.053 11.187l.08-.254.2-.277-.083.286-.197.245ZM13.154 7.424l-.675-.319-.045.578.672.267.048-.526ZM13.077 3.368l-1.252-.633-.12-.043 1.204.624.168.052ZM15.743 5.804l-.934-.644-.126-.396.919.669.141.372ZM10.359 2.227l-1.21-.448.008.233 1.137.423.065-.208ZM1.925 4.14l-.447.549.281-.787.417-.529-.25.767Z"/>
    <path stroke="#fff" stroke-width=".1" d="m11.002 4.65-.944-.334-.044.668.905.279.083-.612ZM9.149 1.779l-1.134-.34.09.253 1.052.319-.008-.232ZM4.187 1.604l-.763.225.373-.358.693-.207-.303.34ZM14.079 10.726l.058-.173.17.294-.06.16-.168-.281ZM8.468 4.67l-.546-.023.084.868.503-.024-.04-.82ZM9.177 4.06l-.762-.164.054.772.71.114-.002-.722ZM5.576 16.092l.067.39-.555-.03-.078-.39.566.03Z"/>
    <path stroke="#fff" stroke-width=".1" d="m8.006 5.514-.319.11.087.936.289-.152-.057-.894ZM13.825 9.42l-.227-.23.066.443.23.198-.069-.41ZM1.308 10.622l.129.528-.161-.975-.13-.54.162.987ZM11.578 2.764l-1.22-.537-.065.207 1.159.512.126-.182Z"/>
    <path stroke="#fff" stroke-width=".1" d="m7.775 6.559-.109.225.06.973.092-.26-.043-.938ZM13.58 8.245l-.474-.295-.011.524.474.249.012-.478ZM10.11 3.71l-.936-.305.003.655.881.255.052-.604ZM16.25 10.94l.083-.286.174-.327-.086.32-.171.292ZM7.725 7.758l.062.317v.975l-.062-.344v-.948ZM11.94 5.049l-.938-.4-.083.612.907.344.114-.556ZM10.294 2.434l-1.137-.423.007.355 1.065.391.065-.323ZM7.787 9.052l.174.38-.084.947-.162-.4.072-.927Z"/>
    <path stroke="#fff" stroke-width=".1" d="m11.1 4.098-.99-.387-.051.604.943.335.098-.552ZM16.555 7.278l-.627-.577-.075-.47.622.613.08.434ZM16.837 9.135l-.273-.445.036-.476.273.486-.036.435ZM12.663 5.998l-.837-.393-.09.598.82.337.107-.542ZM7.877 10.377l.224.412-.183.892-.205-.429.164-.875ZM14.358 4.196l-1.123-.676-.158-.154 1.09.677.19.153ZM12.91 3.316l-1.206-.624-.125.07 1.156.606.174-.052ZM9.157 2.01l-1.052-.32.088.385.97.29-.006-.356Z"/>
    <path stroke="#fff" stroke-width=".1" d="m8.015 1.439-1.004-.22.18.271.915.202-.091-.253ZM10.167 3.187l-.998-.351.005.57.936.306.057-.525ZM1 8.087l.072.552.02-.983L1.02 7.1 1 8.087ZM10.23 2.757l-1.066-.39.006.468.998.352.062-.43ZM2.004 12.97l.135.45-.315-.865-.143-.468.323.883ZM13.941 10.404l.057-.192.14.342-.059.173-.138-.323Z"/>
    <path stroke="#fff" stroke-width=".1" d="m11.452 2.945-1.158-.511-.065.323 1.099.476.124-.288ZM9.174 3.405l-.824-.212.065.702.763.165-.004-.655ZM11.21 3.62l-1.043-.434-.057.524.99.387.11-.477ZM13.239 6.911l-.683-.372-.077.567.675.319.085-.514ZM3.095 2.334l-.598.385.384-.524.543-.364-.329.503ZM6.831 1.093 5.906 1l.271.13.834.089-.18-.126ZM15.602 5.434l-.919-.67-.152-.323.901.687.17.306Z"/>
    <path stroke="#fff" stroke-width=".1" d="m11.328 3.233-1.099-.477-.061.43 1.041.434.119-.387ZM7.918 11.682l.125.49-.277.808-.114-.5.266-.798ZM9.164 2.366l-.971-.29.082.506.894.253-.005-.469Z"/>
    <path stroke="#fff" stroke-width=".1" d="m9.17 2.836-.894-.254.074.612.824.212-.004-.57ZM12.074 4.55l-.974-.452-.098.551.938.4.134-.499ZM8.415 3.896l-.602-.068.11.817.546.023-.054-.772ZM16.421 10.646l.086-.32.144-.368-.088.356-.142.332ZM12.735 3.369l-1.156-.605-.127.181 1.108.579.175-.155ZM13.796 8.99l-.227-.267.028.466.228.231-.03-.43ZM14.504 11.711l.38-.179.239.056-.387.188-.232-.065ZM5.642 1.024l-.821.051.351-.03L5.906 1l-.264.024Z"/>
    <path stroke="#fff" stroke-width=".1" d="m14.736 11.776.387-.188.243-.008-.395.2-.235-.004ZM7.049 14.785l.068.486-.474.421-.073-.48.479-.427ZM14.28 11.591l.375-.175.229.118-.38.179-.223-.122ZM12.8 5.497l-.86-.448-.114.556.838.392.135-.5ZM13.63 7.767l-.476-.342-.048.525.475.295.05-.478ZM14.167 4.045l-1.09-.677-.168-.052 1.055.668.203.06ZM8.105 1.692l-.914-.202.175.41.827.177-.088-.385ZM12.225 4.123l-1.016-.5-.11.475.975.453.15-.428ZM1.282 5.565l-.149.586.206-.884.14-.578-.197.876ZM6.125 15.967l.057.394-.539.12-.067-.391.549-.123ZM7.922 4.647l-.364.07.129.909.319-.11-.084-.869ZM13.836 10.046l.057-.216.105.38-.057.193-.105-.357Z"/>
    <path stroke="#fff" stroke-width=".1" d="m14.97 11.78.396-.2.24-.071-.402.217-.233.055ZM16.872 8.7l-.272-.485-.003-.475.271.524.005.437ZM12.56 3.523l-1.108-.579-.124.289 1.06.543.172-.253ZM16.475 6.844l-.622-.612-.11-.426.615.641.117.397ZM14.073 11.415l.367-.176.215.177-.374.175-.208-.176ZM12.388 3.778l-1.06-.544-.119.388 1.016.501.163-.345ZM8.35 3.195l-.669-.11.132.745.602.067-.065-.702ZM3.98 15.947l.07.303-.511-.446-.084-.316.525.46ZM13.358 6.422l-.694-.426-.108.541.683.373.119-.488Z"/>
    <path stroke="#fff" stroke-width=".1" d="m15.203 11.726.402-.217.231-.133-.409.238-.224.112ZM15.432 5.126l-.9-.686-.174-.242.88.695.194.233ZM8.193 2.076l-.827-.178.165.537.744.146-.082-.505ZM3.455 15.489l.084.316-.476-.567-.098-.333.49.584ZM16.563 10.314l.088-.355.111-.401-.09.392-.109.364ZM13.885 11.187l.362-.181.193.232-.367.175-.188-.226ZM8.275 2.582l-.744-.146.15.649.67.109-.076-.612ZM7.687 5.623l-.137.192.116.97.108-.226-.087-.936ZM7.766 12.98l.06.545-.355.693-.06-.542.355-.697ZM4.49 1.265l-.693.207.41-.203.614-.193-.331.189ZM7.011 1.22l-.834-.09.272.284.742.076-.18-.27ZM12.96 5.05l-.886-.5-.134.498.86.448.16-.446ZM13.964 3.984l-1.055-.668-.174.052 1.019.65.21-.034ZM4.529 16.271l.054.294-.534-.314-.069-.303.549.323ZM1.681 12.09l.142.468-.24-.92-.147-.488.245.94ZM1.145 9.636l.13.54-.07-.985-.133-.552.073.997ZM13.806 8.553l-.225-.309-.012.478.227.269.01-.438ZM2.177 3.37l-.418.53.359-.676.38-.508-.321.655Z"/>
    <path stroke="#fff" stroke-width=".1" d="m15.427 11.613.41-.238.216-.191-.416.262-.21.167ZM2.965 14.906l.098.333-.43-.675-.11-.352.442.694ZM13.769 9.664l.056-.244.068.41-.056.216-.068-.382ZM7.667 6.785l.048.29.072 1-.062-.318-.058-.972ZM13.721 10.917l.358-.191.168.28-.362.182-.164-.27ZM13.72 7.303l-.481-.392-.085.513.477.343.088-.464ZM13.14 4.67l-.915-.547-.15.428.885.5.18-.38ZM7.812 3.828l-.42.032.166.855.364-.07-.11-.817ZM13.754 4.016l-1.019-.65-.175.155.983.623.211-.128ZM16.869 8.263l-.272-.524-.042-.46.27.559.044.425ZM16.358 6.447l-.615-.641-.141-.371.606.664.15.348ZM13.508 5.975l-.708-.478-.136.5.694.427.15-.449ZM15.238 4.892l-.88-.694-.191-.154.858.695.213.153ZM7.787 8.074l.175.36v.995l-.175-.38v-.975ZM13.337 4.366l-.949-.589-.163.346.915.547.197-.304Z"/>
    <path stroke="#fff" stroke-width=".1" d="m13.543 4.148-.983-.624-.172.254.949.589.206-.22ZM5.088 16.45l.038.29-.543-.175-.054-.295.559.18ZM5.906 1l-.733.045.362.13.642-.044L5.906 1ZM16.672 9.95l.09-.391.075-.424-.092.428-.073.388ZM15.637 11.447l.416-.262.197-.245-.422.289-.19.218ZM7.191 1.49l-.742-.076.265.428.652.058-.175-.41ZM7.961 9.429l.234.398-.094.962-.224-.413.084-.947ZM13.587 10.61l.354-.207.138.323-.357.192-.135-.308ZM1.02 7.099l.073.556.113-.944-.072-.56-.114.948ZM3.424 1.83l-.544.363.436-.379.48-.343-.372.358ZM6.643 15.692l.047.4-.508.27-.057-.395.518-.275ZM2.523 14.212l.11.352-.373-.766-.12-.375.383.789ZM7.681 3.084l-.49-.003.201.778.42-.031-.131-.744ZM13.856 8.118l-.225-.351-.05.477.225.309.05-.435ZM13.74 9.265l.056-.276.029.43-.056.244-.03-.398ZM7.366 1.9l-.652-.057.25.561.567.033-.165-.536ZM13.685 5.577l-.725-.527-.16.447.708.478.177-.398ZM7.558 4.715l-.18.16.171.94.138-.192-.129-.908ZM15.026 4.74l-.86-.696-.202-.06.835.686.227.07ZM13.844 6.865l-.486-.441-.12.487.481.392.125-.438ZM8.1 10.79l.134.484-.19.899-.126-.491.183-.892Z"/>
    <path stroke="#fff" stroke-width=".1" d="m7.53 2.436-.567-.033.229.68.489.003-.15-.65ZM7.471 14.218l.064.494-.418.558-.068-.486.422-.566ZM16.208 6.098l-.606-.664-.17-.307.596.68.18.29ZM15.828 11.23l.422-.288.172-.293-.429.317-.165.264ZM16.825 7.838l-.27-.56-.08-.434.267.59.083.404ZM13.485 10.272l.352-.225.104.357-.354.206-.102-.338ZM5.643 16.482l.023.29-.54-.031-.038-.29.555.03ZM16.745 9.564l.092-.428.035-.436-.093.463-.034.4ZM4.82 1.076l-.614.193.434-.04.532-.183-.351.03ZM13.833 11.913l.67-.202.233.064-.68.21-.223-.072ZM13.886 5.24l-.745-.572-.181.38.725.528.2-.336Z"/>
    <path stroke="#fff" stroke-width=".1" d="m13.62 11.788.66-.198.224.121-.67.203-.215-.126ZM14.8 4.67l-.836-.687-.21.034.812.67.233-.017ZM1.436 11.15l.148.487-.157-.953-.151-.508.16.974ZM1.478 4.687l-.14.578.294-.796.127-.569-.28.787ZM14.056 11.986l.68-.21.235.005-.69.22-.225-.015Z"/>
    <path stroke="#fff" stroke-width=".1" d="m13.42 11.611.653-.197.208.176-.662.198-.2-.177ZM6.177 1.13l-.642.046.362.289.552-.051-.272-.283ZM7.55 5.815l.021.265.144.995-.049-.29-.116-.97ZM14.103 4.978l-.766-.612-.196.304.745.572.217-.264ZM14.566 4.688l-.812-.67-.21.129.788.644.234-.103ZM13.749 8.864l.057-.31-.01.437-.057.276.01-.403ZM13.946 7.699l-.226-.396-.089.464.226.351.089-.42ZM14.001 6.464l-.493-.49-.15.45.486.44.157-.4ZM14.281 12.002l.69-.221.233-.054-.7.235-.223.04ZM15.993 10.966l.429-.317.142-.333-.433.346-.138.304ZM13.239 11.387l.646-.2.188.227-.654.197-.18-.224ZM2.14 13.422l.12.375-.306-.84-.13-.4.315.865Z"/>
    <path stroke="#fff" stroke-width=".1" d="m14.332 4.79-.79-.644-.206.22.767.611.229-.186ZM16.028 5.807l-.596-.68-.194-.233.585.688.205.225ZM8.043 12.172l.06.55-.277.803-.06-.546.277-.807ZM1.072 8.638l.132.553.02-.97-.131-.566-.02.983ZM7.392 3.86l-.237.129.223.885.18-.16-.166-.855ZM13.419 9.91l.35-.247.068.382-.352.226-.066-.36ZM16.742 7.435l-.267-.59-.117-.398.264.617.12.371ZM2.498 2.716l-.38.508.428-.546.335-.487-.383.525ZM14.504 11.962l.7-.236.223-.112-.709.252-.214.096ZM13.082 11.123l.64-.206.162.27-.645.2-.157-.264ZM16.779 9.161l.094-.463-.004-.436-.095.496.005.403ZM7.715 7.076l.164.341.083 1.018-.175-.36-.072-.999ZM6.449 1.414l-.552.051.353.44.464-.063-.265-.428ZM14.187 6.114l-.502-.535-.177.398.493.49.186-.353Z"/>
    <path stroke="#fff" stroke-width=".1" d="m15.823 5.582-.585-.688-.213-.154.573.689.225.153ZM7.117 15.27l.038.41-.465.412-.047-.4.474-.421ZM6.182 16.362l.007.294-.523.115-.023-.289.539-.12ZM16.13 10.662l.434-.346.108-.365-.437.376-.105.335ZM14.718 11.868l.71-.252.21-.168-.72.271-.2.149ZM14.07 7.306l-.226-.44-.125.438.226.396.126-.394ZM7.192 3.08l-.304.103.267.805.237-.13-.2-.778ZM13.798 8.467l.059-.347-.05.434-.058.31.049-.397ZM3.797 1.47l-.48.343.477-.22.412-.326-.409.203ZM4.05 16.25l.022.194-.492-.43-.042-.21.511.447ZM12.952 10.825l.635-.216.134.309-.64.206-.129-.299Z"/>
    <path stroke="#fff" stroke-width=".1" d="m3.539 15.804.042.21-.459-.546-.06-.23.477.566ZM13.39 9.54l.35-.273.029.397-.35.248-.03-.372ZM7.962 8.433l.235.386-.002 1.007-.234-.398.001-.995ZM6.714 1.843l-.464.063.333.579.38-.08-.25-.562ZM5.172 1.046l-.532.182.447.125.447-.177-.362-.13ZM16.622 7.064l-.264-.617-.15-.348.26.637.154.328Z"/>
    <path stroke="#fff" stroke-width=".1" d="m6.963 2.403-.38.08.305.703.303-.103-.228-.68ZM4.583 16.566l.003.182-.514-.303-.023-.193.534.314ZM14.398 5.818l-.513-.576-.2.336.502.535.21-.295ZM1.133 6.15l.073.56.205-.88-.072-.564-.206.884ZM15.598 5.427l-.572-.689-.226-.07.56.682.238.077ZM16.774 8.76l.095-.497-.044-.425-.096.527.045.395ZM7.378 4.876l-.019.241.212.964-.021-.264-.172-.941ZM3.063 15.238l.06.23-.415-.649-.075-.256.43.675ZM14.919 11.72l.718-.271.19-.219-.726.292-.182.198ZM1.824 12.558l.13.4-.233-.893-.137-.427.24.92ZM7.826 13.526l.06.504-.35.683-.065-.494.355-.693ZM12.854 10.5l.631-.23.102.339-.635.216-.098-.325ZM14.626 5.588l-.523-.612-.217.264.512.576.228-.228ZM8.195 9.828l.138.48-.099.966-.133-.484.094-.962ZM15.36 5.35l-.56-.681-.234.017.548.665.246-.001ZM1.276 10.175l.151.508-.07-.963-.153-.53.072.985ZM16.235 10.325l.437-.375.073-.387-.441.404-.07.358ZM14.23 6.947 14 6.465l-.157.4.227.44.159-.358ZM14.867 5.432l-.535-.642-.229.186.523.612.241-.156Z"/>
    <path stroke="#fff" stroke-width=".1" d="m15.114 5.354-.548-.666-.234.104.535.642.247-.08ZM13.885 8.084l.06-.385-.088.42-.06.347.088-.382ZM5.126 16.74l-.017.175-.523-.169-.003-.181.543.174ZM12.714 12.01l.905-.222.214.126-.915.227-.204-.132ZM16.468 6.735l-.26-.637-.18-.291.257.651.183.277ZM13.398 9.164l.35-.302-.009.403-.35.273.009-.374Z"/>
    <path stroke="#fff" stroke-width=".1" d="m12.918 12.141.915-.227.222.072-.925.235-.212-.08ZM12.524 11.83l.896-.219.2.177-.906.222-.19-.18ZM13.13 12.221l.926-.235.225.017-.937.244-.214-.026ZM1.76 3.903l-.128.568.374-.686.112-.558-.359.676ZM12.35 11.605l.889-.217.18.223-.896.218-.172-.224ZM15.1 11.52l.728-.29.165-.265-.734.313-.158.243ZM2.633 14.563l.076.256-.36-.737-.089-.285.373.766ZM12.79 10.157l.629-.245.066.36-.63.229-.066-.344ZM16.73 8.366l.095-.527-.083-.403-.096.553.083.377ZM5.534 1.177l-.448.177.448.288.363-.177-.363-.288ZM14.418 6.635l-.23-.523-.187.353.229.482.188-.312ZM6.69 16.093l-.007.302-.494.26-.007-.294.508-.268Z"/>
    <path stroke="#fff" stroke-width=".1" d="m13.344 12.246.937-.245.223-.04-.948.256-.212.029ZM7.571 6.08l.141.325.167 1.012-.164-.341-.144-.996ZM12.2 11.343l.882-.219.157.264-.888.217-.15-.262ZM7.155 3.99l-.07.22.274.906.019-.241-.223-.886ZM1.092 7.655l.133.565.113-.931-.132-.578-.114.944ZM16.304 9.966l.44-.404.035-.4-.443.432-.032.372ZM2.88 2.195l-.334.487.486-.4.284-.466-.435.379ZM16.285 6.459l-.257-.652-.205-.225.253.659.209.218ZM8.234 11.274l.059.554-.19.895-.06-.55.191-.899ZM14.008 7.727l.063-.422-.125.394-.061.385.123-.357ZM4.206 1.269l-.412.326.506-.055.34-.311-.434.04ZM13.444 8.796l.354-.331-.05.397-.35.302.046-.368ZM5.665 16.771l-.036.175-.52-.03.016-.175.54.03Z"/>
    <path stroke="#fff" stroke-width=".1" d="m13.556 12.22.948-.256.214-.096-.958.27-.204.082ZM7.536 14.713l.03.422-.41.546-.039-.41.419-.558ZM15.259 11.275l.734-.313.137-.304-.74.335-.131.282ZM12.077 11.048l.875-.223.13.299-.881.218-.124-.294ZM14.63 6.377l-.232-.56-.21.295.23.523.213-.258ZM12.76 9.803l.63-.263.029.372-.63.245-.029-.354ZM16.646 7.987l.096-.554-.12-.37-.095.575.12.349ZM16.076 6.24l-.253-.658-.225-.153.25.659.228.153ZM5.897 1.464l-.363.176.435.444.281-.18-.353-.44ZM1.584 11.636l.137.428-.152-.926-.142-.455.157.953ZM7.879 7.415l.226.377.092 1.027-.235-.387-.083-1.017ZM6.888 3.185l-.132.203.33.822.07-.22-.268-.805ZM2.26 13.797l.09.284-.295-.807-.101-.317.306.84Z"/>
    <path stroke="#fff" stroke-width=".1" d="m14.862 6.18-.236-.591-.228.228.232.56.232-.197ZM13.76 12.136l.959-.269.2-.148-.968.283-.19.134ZM16.336 9.594l.443-.433-.006-.403-.443.46.006.376ZM11.982 10.73l.872-.229.098.325-.875.223-.095-.319ZM14.164 7.407l.066-.459-.159.358-.063.423.156-.322ZM15.847 6.088l-.25-.66-.238-.076.246.652.242.084ZM6.25 1.904l-.28.181.41.588.203-.19-.333-.579Z"/>
    <path stroke="#fff" stroke-width=".1" d="m6.583 2.482-.203.19.376.715.132-.203-.305-.702ZM13.527 8.446l.358-.362-.087.382-.354.331.083-.351ZM15.105 6.053l-.238-.618-.241.156.236.592.243-.13ZM1.339 5.266l.072.565.293-.792-.072-.57-.293.797ZM15.39 10.997l.74-.336.105-.335-.746.358-.1.313ZM15.605 6.004l-.245-.652-.246.001.242.639.25.012ZM15.355 5.991l-.241-.638-.247.08.238.618.25-.06ZM12.767 9.449l.63-.284-.008.375-.629.263.007-.354ZM11.628 12.257l1.086-.247.204.132-1.096.254-.194-.14Z"/>
    <path stroke="#fff" stroke-width=".1" d="m11.447 12.07 1.076-.24.191.18-1.086.246-.181-.186ZM1.204 9.191l.153.53.021-.95-.153-.55-.02.97ZM16.527 7.64l.095-.576-.153-.329-.095.593.153.311ZM4.072 16.445l-.022.077-.47-.41v-.096l.492.43ZM8.102 12.723l.058.514-.274.792-.06-.503.276-.803ZM8.197 8.821l.138.475-.002 1.012-.138-.48.002-1.007ZM11.822 12.396l1.096-.254.212.08-1.108.262-.2-.088Z"/>
    <path stroke="#fff" stroke-width=".1" d="M3.58 16.015v.096l-.436-.52-.022-.122.459.546ZM7.36 5.117l.106.312.246.978-.141-.326-.212-.964ZM11.283 11.84l1.068-.235.173.225-1.077.24-.164-.23ZM13.95 12.004l.969-.283.182-.198-.978.297-.172.184ZM6.189 16.655l-.056.18-.504.11.036-.174.524-.116ZM11.92 10.395l.87-.238.064.344-.871.23-.063-.336ZM4.586 16.748l-.046.063-.49-.289.022-.077.514.303ZM14.348 7.128l.07-.493-.188.312-.066.459.184-.278ZM12.022 12.485l1.107-.263.215.026-1.118.272-.204-.035ZM4.64 1.229l-.34.311.52.115.267-.301-.447-.125Z"/>
    <path stroke="#fff" stroke-width=".1" d="m11.14 11.574 1.061-.231.15.262-1.068.236-.143-.267ZM7.155 15.68l-.02.315-.452.4.007-.303.465-.411ZM16.33 9.218l.444-.46-.045-.395-.444.484.045.371ZM3.122 15.469l.021.121-.394-.62-.04-.15.413.649ZM2.118 3.224l-.112.559.446-.556.093-.548-.427.545ZM13.645 8.12l.362-.392-.123.356-.357.361.118-.325ZM16.374 7.328l.095-.593-.184-.277-.093.605.182.265ZM15.489 10.683l.746-.358.07-.358-.751.38-.065.336ZM3.316 1.814l-.284.466.532-.24.23-.446-.478.22ZM12.226 12.52l1.118-.273.212-.028-1.13.281-.2.02ZM12.81 9.103l.634-.306-.046.368-.63.284.043-.346Z"/>
    <path stroke="#fff" stroke-width=".1" d="m11.022 11.277 1.055-.23.124.295-1.06.232-.12-.297ZM1.954 12.957l.1.316-.223-.859-.11-.35.233.893ZM14.123 11.817l.978-.298.158-.243-.986.313-.15.228ZM5.11 16.915l-.07.055-.5-.16.046-.064.523.169ZM11.891 10.052l.87-.248.028.353-.869.238-.029-.343ZM14.557 6.901l.073-.525-.212.258-.07.493.21-.226ZM1.206 6.71l.131.579.204-.868-.13-.59-.205.88ZM8.333 10.307l.059.558-.099.963-.059-.554.099-.967ZM12.426 12.5l1.13-.28.204-.083-1.14.29-.194.074ZM16.192 7.062l.093-.605-.209-.218-.091.611.207.212ZM16.285 8.847l.444-.484-.083-.377-.442.506.081.355ZM7.712 6.406l.209.371.184 1.018-.226-.377-.167-1.012ZM2.709 14.82l.04.15-.342-.702-.057-.186.359.737ZM1.427 10.683l.142.456-.067-.935-.144-.484.07.963Z"/>
    <path stroke="#fff" stroke-width=".1" d="m10.931 10.958 1.052-.229.094.32-1.055.228-.09-.32ZM7.886 14.03l.024.438-.345.668-.03-.422.351-.684ZM7.085 4.21l.063.301.318.917-.107-.312-.274-.906ZM14.785 6.733l.077-.552-.232.196-.072.525.227-.169ZM13.796 7.83l.367-.423-.156.322-.362.392.15-.292ZM5.087 1.354l-.266.3.52.281.193-.293-.447-.288ZM15.554 10.347l.75-.38.032-.371-.753.4-.03.351ZM15.984 6.852l.092-.611-.229-.153-.089.611.226.153ZM12.89 8.775l.637-.329-.083.352-.633.306.078-.33ZM14.273 11.591l.986-.313.13-.28-.993.327-.123.266ZM11.897 9.71l.87-.26-.007.354-.869.248.006-.342ZM10.502 12.628l1.222-.295-.188-.163-1.225.292.191.166ZM10.311 12.46l1.225-.292-.173-.209-1.228.288.176.212ZM15.026 6.627l.08-.575-.244.13-.077.552.24-.107ZM6.683 16.394l-.075.19-.475.249.056-.18.494-.26ZM12.62 12.427l1.14-.291.19-.135-1.15.3-.18.126Z"/>
    <path stroke="#fff" stroke-width=".1" d="m10.703 12.742 1.218-.297-.197-.114-1.222.294.2.117ZM5.629 16.944l-.094.054-.496-.029.07-.055.52.03ZM15.758 6.698l.09-.611-.243-.084-.086.605.24.09ZM10.871 10.623l1.05-.228.062.335-1.051.228-.06-.335ZM10.135 12.248l1.228-.288-.154-.25-1.23.285.156.253ZM15.272 6.585l.084-.593-.25.06-.08.575.246-.042ZM16.203 8.491l.443-.505-.12-.348-.44.522.117.331Z"/>
    <path stroke="#fff" stroke-width=".1" d="m15.519 6.61.086-.606-.25-.012-.083.593.247.025ZM10.908 12.807l1.216-.297-.203-.062-1.218.296.205.063ZM13.974 7.58l.374-.451-.185.277-.367.422.178-.249ZM6.756 3.388l.009.293.383.83-.063-.301-.329-.822ZM9.978 11.998l1.23-.285-.13-.282-1.234.28.134.287ZM1.632 4.471l.072.569.374-.682-.072-.573-.374.686ZM8.105 7.793l.135.473.095 1.029-.138-.476-.092-1.026ZM5.534 1.643l-.192.293.507.44.12-.29-.435-.443ZM1.225 8.22l.153.55.112-.91-.152-.57-.113.93ZM2.35 14.081l.057.186-.282-.77-.07-.224.295.808ZM15.583 9.995l.753-.4-.006-.376-.754.42.007.356Z"/>
    <path stroke="#fff" stroke-width=".1" d="m11.113 12.815 1.214-.298-.203-.008-1.216.297.205.009ZM3.794 1.596l-.23.446.564-.073.171-.428-.505.055ZM13.002 8.473l.643-.352-.118.326-.638.328.113-.302ZM14.396 11.323l.993-.328.1-.312-1 .342-.093.298ZM12.8 12.301l1.15-.3.173-.184-1.16.31-.164.174ZM7.565 15.136l-.031.331-.4.53.021-.315.41-.546ZM8.293 11.828l.056.526-.188.883-.059-.515.191-.894ZM11.937 9.378l.874-.274-.044.346-.87.26.04-.332ZM1.721 12.065l.11.35-.146-.89-.116-.385.152.925ZM4.05 16.522 4 16.482l-.444-.387.026.017.47.41ZM10.842 10.282l1.049-.231.029.343-1.049.229-.029-.34Z"/>
    <path stroke="#fff" stroke-width=".1" d="m3.58 16.112-.025-.017-.414-.493.002-.011.438.52ZM9.844 11.71l1.234-.28-.105-.309-1.236.276.107.313ZM16.087 8.162l.44-.523-.153-.31-.437.535.15.298ZM6.38 2.674l-.052.29.437.719-.009-.294-.376-.715ZM5.97 2.085l-.121.29.479.587.052-.29-.41-.587ZM2.545 2.68l-.093.549.507-.41.073-.538-.487.4ZM14.176 7.378l.381-.476-.209.227-.374.45.202-.2ZM4.54 16.81l-.078-.054L4 16.482l.051.04.49.289ZM7.467 5.428l.182.368.272.98-.209-.37-.245-.978ZM11.312 12.768l1.212-.297-.197.046-1.214.298.2-.047ZM3.143 15.59l-.002.01-.373-.585-.02-.045.395.62ZM6.133 16.835l-.118.06-.48.105.094-.054.504-.111ZM15.576 9.64l.754-.42-.045-.371-.753.436.044.354ZM9.737 11.396l1.236-.275-.076-.328-1.238.27.078.333ZM15.937 7.864l.437-.537-.183-.264-.431.545.177.256ZM12.962 12.127l1.161-.31.15-.227-1.17.318-.14.22ZM13.144 8.203l.652-.374-.15.292-.645.351.143-.269ZM9.244 12.951l1.258-.325-.19-.166-1.266.318.198.173ZM14.49 11.027l.998-.342.066-.336-1.004.356-.06.322Z"/>
    <path stroke="#fff" stroke-width=".1" d="m9.046 12.78 1.265-.319-.176-.212-1.273.31.184.22ZM14.396 7.231l.39-.499-.228.17-.382.475.22-.146ZM10.847 9.945l1.05-.235-.006.342-1.048.231.004-.338ZM12.01 9.063l.88-.29-.08.33-.873.274.074-.314ZM5.04 16.97l-.106-.064-.472-.152.078.055.5.16ZM9.452 13.073l1.25-.33-.2-.116-1.258.325.208.121ZM1.357 9.719l.145.485.02-.921-.144-.513-.02.949ZM8.862 12.557l1.273-.31-.157-.253-1.28.3.164.263ZM11.501 12.667l1.21-.296-.187.1-1.212.297.189-.1ZM8.335 9.297l.06.562-.003 1.007-.06-.558.003-1.011ZM1.411 5.831l.13.59.29-.781-.127-.6-.293.791ZM7.135 15.996l-.092.205-.435.384.075-.19.452-.399ZM15.76 7.61l.432-.546-.207-.211-.426.55.2.207ZM9.665 13.14l1.243-.334-.205-.063-1.25.33.212.066ZM8.16 13.237l.019.455-.269.775-.023-.437.274-.793ZM2.054 13.274l.07.223-.212-.819-.081-.263.223.86ZM14.629 7.145l.397-.518-.24.107-.39.499.232-.088ZM2.749 14.969l.02.045-.324-.665-.039-.083.343.703Z"/>
    <path stroke="#fff" stroke-width=".1" d="m8.698 12.297 1.28-.3-.133-.287-1.287.288.14.299ZM9.659 11.062l1.238-.27-.044-.339-1.241.266.047.343ZM4.3 1.541l-.172.428.58.098.112-.412-.52-.114ZM15.532 9.286l.753-.437-.082-.356-.75.452.079.34ZM15.558 7.4l.427-.549-.227-.153-.42.55.22.153ZM13.315 7.975l.66-.396-.18.25-.65.374.17-.228ZM14.867 7.117l.405-.533-.247.042-.397.518.24-.027ZM9.878 13.149l1.235-.334-.205-.008-1.242.332.212.01ZM13.104 11.91l1.17-.319.122-.266-1.177.326-.115.259Z"/>
    <path stroke="#fff" stroke-width=".1" d="m15.339 7.248.42-.549-.24-.09-.413.544.233.095Z"/>
    <path stroke="#fff" stroke-width=".1" d="m15.106 7.152.412-.544-.246-.024-.405.533.24.035ZM14.55 10.703l1.004-.357.03-.35-1.006.368-.027.339ZM10.884 9.617l1.053-.24-.04.332-1.05.235.037-.327ZM12.117 8.774 13 8.47l-.112.302-.878.29.106-.288ZM11.675 12.515l1.208-.294-.172.15-1.21.296.174-.152ZM8.558 11.998l1.286-.289-.107-.313-1.292.275.113.327ZM7.148 4.51l.148.369.353.916-.183-.368-.318-.916ZM7.92 6.774l.129.473.19 1.018-.134-.473-.184-1.018ZM5.535 16.998l-.133-.065-.468-.027.105.064.496.029ZM1.569 11.14l.116.386-.064-.898-.12-.423.068.935ZM9.612 10.718l1.24-.265-.011-.34-1.243.26.014.345ZM10.084 13.098l1.228-.331-.2.046-1.234.334.206-.049ZM2.006 3.785l.071.572.446-.552-.07-.576-.447.556ZM15.453 8.943l.75-.452-.116-.33-.748.463.114.319ZM3.999 16.482l-.05-.148-.416-.363.022.124.444.387ZM6.608 16.584l-.14.071-.452.238.117-.06.475-.249ZM8.025 13.31l1.22-.358-.2-.173-1.23.347.21.184ZM7.814 13.126l1.231-.347-.183-.22-1.243.333.195.234Z"/>
    <path stroke="#fff" stroke-width=".1" d="m3.555 16.095-.022-.124-.388-.461-.003.093.413.492ZM13.507 7.794l.669-.416-.202.2-.66.396.193-.18ZM3.032 2.281l-.072.538.554-.25.05-.528-.532.24ZM8.246 13.44l1.207-.366-.209-.12-1.219.357.221.129ZM7.91 14.466l-.042.352-.334.648.032-.332.344-.668ZM1.337 7.29l.152.57.2-.848-.148-.59-.204.868ZM2.406 14.268l.039.083-.266-.728-.054-.126.281.77ZM8.445 11.67l1.292-.277-.078-.333-1.297.263.083.346ZM7.619 12.89l1.243-.332-.164-.263-1.254.317.175.279ZM4.462 16.755l-.079-.166-.434-.256.05.148.463.273ZM13.22 11.65l1.176-.325.093-.299-1.182.333-.088.291ZM14.578 10.364l1.006-.37-.008-.356-1.006.38.008.346ZM4.82 1.653l-.112.412.58.267.054-.398-.522-.28ZM11.828 12.315l1.208-.292-.153.198-1.209.294.154-.2Z"/>
    <path stroke="#fff" stroke-width=".1" d="m8.391 10.865.056.539-.098.95-.056-.526.098-.963ZM8.472 13.509l1.194-.37-.214-.066-1.206.366.226.07ZM12.252 8.523l.893-.32-.143.269-.885.304.135-.253ZM10.953 9.309l1.058-.246-.074.314-1.053.24.069-.308ZM3.141 15.602l.004-.093-.35-.549-.027.056.373.586ZM10.28 12.994l1.221-.328-.188.1-1.229.333.195-.105Z"/>
    <path stroke="#fff" stroke-width=".1" d="m7.444 12.613 1.254-.317-.14-.298-1.263.299.15.316ZM15.34 8.625l.747-.463-.15-.298-.742.473.144.288ZM6.765 3.68l.106.371.425.827-.148-.368-.383-.83ZM13.717 7.667l.679-.435-.22.147-.67.416.211-.128ZM9.598 10.371l1.243-.26.02-.334-1.244.256-.019.338ZM1.831 12.414l.081.263-.139-.847-.088-.306.146.89ZM4.934 16.907l-.11-.175-.441-.142.08.165.47.152ZM8.696 13.52l1.182-.371-.213-.01-1.194.37.225.01ZM8.362 11.326l1.297-.263-.047-.343-1.3.249.05.357ZM6.015 16.894l-.159-.06-.454.1.133.066.48-.106ZM7.294 12.296l1.264-.299-.113-.326-1.272.279.121.346ZM15.195 8.336l.742-.473-.177-.256-.736.478.171.25ZM5.342 1.937l-.054.397.565.429-.004-.386-.507-.44ZM7.534 15.466l-.108.226-.383.509.092-.206.399-.53Z"/>
    <path stroke="#fff" stroke-width=".1" d="m13.94 7.594.689-.45-.233.088-.679.435.223-.073ZM14.57 10.019l1.006-.38-.044-.354-1.006.39.043.344ZM2.768 15.016l.028-.056-.303-.623-.048.014.323.665ZM13.307 11.358l1.183-.332.06-.323-1.186.338-.057.317ZM6.91 13.7l1.115-.39-.21-.183-1.132.374.227.198ZM6.683 13.5l1.131-.374-.195-.234-1.147.355.21.253ZM1.378 8.768l.145.514.108-.883-.142-.542-.111.911ZM12.412 8.31l.902-.335-.17.227-.893.32.161-.212ZM6.328 2.962l.057.377.486.713-.106-.371-.437-.72ZM11.957 12.07l1.208-.287-.13.24-1.207.291.13-.243ZM8.24 8.267l.06.566.094 1.025-.06-.563-.094-1.028Z"/>
    <path stroke="#fff" stroke-width=".1" d="m7.148 13.837 1.098-.399-.221-.128-1.115.388.238.139ZM10.458 12.838l1.216-.322-.173.152-1.222.328.179-.158ZM11.051 9.03l1.066-.255-.106.288-1.058.246.098-.28ZM5.849 2.375l.003.386.533.579-.057-.377-.48-.588ZM8.914 13.468l1.17-.368-.206.048-1.182.37.218-.05ZM6.472 13.248l1.147-.356-.175-.279-1.16.334.188.3ZM15.024 8.086l.736-.477-.202-.208-.727.48.193.205ZM1.704 5.038l.127.6.37-.672-.123-.61-.374.682ZM14.168 7.58l.7-.462-.24.027-.688.45.228-.014ZM7.649 5.795l.117.473.283.98-.128-.472-.272-.981ZM2.125 13.497l.054.126-.202-.774-.065-.171.213.819ZM3.949 16.334l-.008-.244-.387-.337-.021.218.416.363ZM7.391 13.913l1.08-.404-.225-.07-1.098.398.243.076ZM9.617 10.034l1.244-.256.053-.318-1.245.25-.052.324Z"/>
    <path stroke="#fff" stroke-width=".1" d="m8.35 12.355.014.475-.185.863-.018-.455.188-.883ZM3.533 15.972l.02-.219-.36-.429-.048.186.388.462ZM8.312 10.967l1.3-.25-.014-.345-1.303.235.017.36ZM7.173 11.95l1.272-.279-.083-.346-1.278.258.09.367ZM14.83 7.88l.729-.478-.22-.154-.72.477.212.156ZM14.397 7.624l.71-.471-.24-.035-.699.463.229.043ZM5.402 16.933l-.138-.177-.44-.025.11.176.468.026Z"/>
    <path stroke="#fff" stroke-width=".1" d="m14.62 7.725.719-.477-.233-.096-.71.472.224.1ZM6.283 12.946l1.161-.333-.15-.317-1.174.309.163.341ZM4.383 16.59l-.039-.262-.403-.238.008.244.434.256ZM3.564 2.04l-.05.527.588-.083.026-.517-.564.073ZM7.043 16.201l-.16.09-.414.365.14-.071.434-.384ZM14.526 9.676l1.006-.39-.08-.34-1.003.397.077.333ZM12.595 8.144l.912-.35-.193.18-.902.335.182-.165ZM3.146 15.51l.048-.186-.325-.51-.073.146.35.55ZM13.364 11.04l1.187-.337.027-.339-1.19.342-.024.335ZM7.633 13.924l1.063-.405-.225-.01-1.08.405.242.01ZM1.502 10.204l.119.422.02-.884-.119-.459-.02.92ZM9.12 13.357l1.16-.362-.196.105-1.17.367.206-.11ZM5.951 14.113l.96-.414-.228-.198-.98.396.248.216ZM12.059 11.793l1.208-.284-.102.276-1.208.287.102-.28ZM10.616 12.63l1.212-.316-.153.2-1.217.323.158-.208ZM5.704 13.896l.98-.396-.212-.253-.999.373.23.276ZM2.445 14.352l.047-.014-.249-.682-.064-.032.266.728ZM11.178 8.785l1.073-.263-.134.254-1.066.254.127-.245ZM2.452 3.228l.072.576.506-.407-.07-.579-.508.41Z"/>
    <path stroke="#fff" stroke-width=".1" d="m6.21 14.264.939-.427-.239-.139-.959.414.26.152ZM6.12 12.606l1.174-.308-.12-.347-1.186.282.132.373ZM4.825 16.732l-.07-.273-.41-.132.038.262.442.143ZM5.473 13.62l1-.373-.19-.3-1.016.346.206.327ZM7.084 11.582l1.278-.258-.05-.357-1.283.235.055.38ZM6.469 16.654l-.185-.047-.428.226.16.06.453-.239ZM8.296 10.608l1.302-.235.02-.339-1.304.222-.018.352ZM9.67 9.712l1.244-.25.084-.295-1.245.246-.084.3ZM14.45 9.342l1.003-.397-.114-.319-.999.403.11.313ZM6.475 14.349l.917-.434-.243-.076-.938.426.264.084ZM12.794 8.03l.923-.364-.21.128-.912.35.2-.115ZM8.178 13.69l-.05.376-.26.751.042-.351.268-.776Z"/>
    <path stroke="#fff" stroke-width=".1" d="m7.867 13.869 1.047-.402-.218.05-1.063.406.234-.054ZM3.94 16.091l.08-.322-.357-.311-.109.296.387.337ZM2.796 14.96l.073-.148-.281-.579-.095.103.303.623ZM1.685 11.525l.088.306-.06-.856-.092-.348.064.898ZM3.554 15.752l.109-.296-.332-.396-.137.263.36.429ZM1.541 6.42l.149.59.285-.762-.144-.608-.29.78ZM5.267 13.293l1.016-.346-.163-.341-1.032.315.179.372ZM5.18 14.542l.771-.43-.247-.216-.796.41.272.236ZM9.308 13.19l1.15-.353-.179.158-1.159.362.188-.168ZM4.909 14.305l.795-.409-.23-.275-.818.382.253.302ZM8.394 9.856l.056.552-.003.994-.055-.539.002-1.007Z"/>
    <path stroke="#fff" stroke-width=".1" d="m4.344 16.326.048-.34-.372-.22-.08.322.404.238ZM13.388 10.707l1.19-.343-.009-.345-1.19.345.009.343ZM5.856 16.833l-.168-.17-.425.093.14.177.453-.1ZM5.988 12.231l1.185-.281-.09-.368-1.193.253.098.396ZM7.296 4.878l.103.476.368.914-.118-.473-.353-.917ZM5.464 14.708l.747-.444-.26-.152-.771.43.284.166ZM11.33 8.58l1.082-.27-.16.212-1.074.262.151-.204ZM10.748 12.377l1.209-.306-.13.243-1.211.315.133-.252ZM12.13 11.481l1.21-.279-.073.305-1.208.284.072-.31ZM3.194 15.322l.137-.262-.3-.471-.162.223.325.51ZM6.737 14.358l.896-.435-.242-.01-.916.433.262.012ZM14.34 9.028l1-.402-.145-.29-.992.407.138.285ZM4.656 14.003l.817-.382-.206-.328-.839.35.228.36ZM13.005 7.97l.934-.375-.222.072-.923.363.21-.06ZM1.912 12.679l.066.171-.132-.8-.073-.219.139.848Z"/>
    <path stroke="#fff" stroke-width=".1" d="m5.264 16.758-.102-.275-.407-.022.07.273.439.024ZM7.029 11.203l1.283-.235-.016-.36-1.287.214.02.381ZM4.128 1.967l-.026.517.605.089.001-.509-.58-.097ZM4.02 15.767l.21-.38-.327-.285-.24.354.357.311ZM4.609 14.973l.571-.431-.272-.237-.598.408.299.26Z"/>
    <path stroke="#fff" stroke-width=".1" d="m3.663 15.457.24-.353-.304-.363-.268.32.332.396ZM5.088 12.92l1.032-.315-.132-.374-1.045.283.145.407ZM4.31 14.712l.598-.408-.252-.302-.623.378.277.332ZM5.753 14.8l.722-.453-.265-.083-.746.444.289.091ZM4.755 16.457l.015-.351-.378-.122-.048.34.41.133ZM8.049 7.249l.06.57.19 1.015-.06-.567-.19-1.018ZM8.088 13.752l1.032-.394-.206.11-1.047.403.22-.119ZM7.868 14.817l-.12.252-.321.622.107-.226.334-.648ZM8.314 10.255l1.303-.222.052-.323-1.303.209-.052.336ZM9.753 9.412l1.245-.246.113-.264-1.245.243-.113.267ZM4.23 15.389l.379-.416-.299-.26-.407.39.327.286ZM4.92 15.156l.544-.448-.284-.166-.571.431.311.183Z"/>
    <path stroke="#fff" stroke-width=".1" d="m4.391 15.986.18-.398-.341-.2-.21.379.371.219ZM2.179 13.623l.065.032-.189-.725-.077-.08.201.773ZM14.203 8.742l.992-.406-.17-.251-.986.407.164.25ZM3.903 15.102l.408-.39-.278-.331-.434.359.304.362ZM13.223 7.965l.945-.386-.228.015-.935.375.218-.004ZM4.428 13.645l.838-.351-.178-.372-.856.315.196.408Z"/>
    <path stroke="#fff" stroke-width=".1" d="m4.033 14.382.623-.378-.228-.36-.645.344.25.394ZM3.331 15.06l.268-.32-.275-.432-.293.28.3.472ZM2.493 14.338l.094-.104-.23-.633-.113.054.249.683ZM4.571 15.589l.35-.434-.312-.182-.38.415.342.2ZM13.379 10.364l1.19-.345-.043-.344-1.19.346.043.343ZM2.87 14.814l.161-.223-.26-.534-.183.178.281.579ZM9.474 12.97l1.142-.34-.158.208-1.15.352.166-.22ZM6.992 14.3l.875-.43-.234.054-.896.435.255-.06ZM1.49 7.858l.141.542.196-.822-.137-.568-.2.848ZM5.89 11.836l1.194-.252-.055-.38-1.2.223.062.41ZM11.502 8.426l1.093-.28-.183.165-1.082.271.172-.156ZM14.039 8.492l.985-.406-.193-.206-.977.405.185.207Z"/>
    <path stroke="#fff" stroke-width=".1" d="m3.599 14.741.434-.358-.25-.395-.459.322.275.431ZM13.44 8.017l.957-.394-.229-.044-.945.386.217.052ZM5.237 15.255l.516-.458-.29-.09-.543.447.317.1ZM6.04 14.813l.697-.454-.262-.012-.722.452.287.014ZM7.427 15.692l-.179.113-.365.485.16-.089.384-.509ZM2.078 4.355l.124.61.441-.543-.12-.62-.445.553ZM12.17 11.15l1.21-.275-.04.327-1.21.279.04-.332ZM4.77 16.107l.148-.408-.347-.111-.18.398.38.12ZM13.854 8.285l.977-.405-.211-.155-.967.4.2.16ZM10.853 12.086l1.206-.294-.102.28-1.209.305.105-.29Z"/>
    <path stroke="#fff" stroke-width=".1" d="m13.653 8.127.967-.401-.223-.101-.957.395.213.107ZM4.943 12.514l1.045-.282-.098-.396-1.055.246.108.432ZM4.918 15.701l.319-.443-.317-.1-.35.432.348.111ZM3.783 13.989l.645-.344-.196-.408-.666.304.217.447ZM6.87 4.052l.088.48.442.822-.104-.476-.425-.826ZM7.01 10.822l1.286-.213.018-.352-1.288.191-.017.374ZM5.162 16.48l-.016-.353-.376-.02-.015.35.407.023Z"/>
    <path stroke="#fff" stroke-width=".1" d="m4.232 13.235.856-.315-.145-.407-.871.276.16.446ZM8.447 11.402l.013.495-.096.93-.015-.474.098-.95ZM3.031 14.59l.293-.28-.237-.49-.315.236.26.535ZM6.883 16.29l-.208-.027-.39.345.184.047.414-.365ZM2.96 2.819l.07.579.554-.248-.07-.582-.554.25ZM8.29 13.57l1.018-.38-.188.167-1.032.394.202-.18ZM4.708 2.064l-.001.509.604.257-.022-.5-.58-.266ZM5.689 16.661l-.132-.268-.395.087.102.275.425-.094ZM9.866 9.146l1.246-.242.14-.225-1.246.239-.14.228ZM3.324 14.309l.459-.322-.216-.447-.48.279.237.49ZM6.284 16.609l-.195-.158-.4.211.167.172.428-.225ZM8.366 9.919l1.303-.209.084-.299-1.302.197-.085.311ZM13.337 10.021l1.19-.346-.078-.333-1.186.346.074.333ZM1.522 9.284l.119.459.105-.848-.115-.494-.109.883ZM5.552 15.272l.488-.46-.287-.013-.516.457.315.016ZM11.69 8.32l1.104-.29-.2.115-1.092.28.188-.105ZM7.231 14.172l.857-.421-.221.119-.875.43.24-.128ZM2.588 14.233l.184-.178-.213-.585-.203.129.232.634ZM6.318 14.75l.674-.45-.255.06-.697.454.278-.064ZM5.83 11.426l1.199-.223-.02-.382-1.202.193.022.412ZM5.146 16.128l.117-.41-.345-.019-.148.408.376.02ZM9.614 12.7l1.135-.324-.133.253-1.142.34.14-.268Z"/>
    <path stroke="#fff" stroke-width=".1" d="m5.263 15.718.289-.445-.315-.016-.319.443.345.018ZM3.567 13.539l.665-.304-.16-.446-.682.26.177.49ZM6.385 3.339l.067.485.505.707-.087-.48-.485-.712ZM12.176 10.804l1.211-.269-.007.34-1.21.274.006-.345ZM2.244 13.656l.112-.055-.174-.673-.127.003.189.725ZM1.621 10.627l.091.348.02-.842-.09-.39-.021.883ZM5.288 2.333l.023.5.587.42-.045-.492-.565-.428ZM10.925 11.763l1.206-.282-.072.31-1.206.294.072-.322ZM4.835 12.082l1.056-.246-.062-.41-1.062.21.068.446Z"/>
    <path stroke="#fff" stroke-width=".1" d="m4.072 12.79.871-.277-.108-.432-.883.235.12.473ZM13.263 9.687l1.187-.346-.11-.314-1.182.345.105.315ZM1.978 12.85l.077.081-.123-.75-.086-.131.132.8ZM2.772 14.055l.315-.237-.195-.536-.333.189.213.584ZM1.773 11.83l.073.218-.057-.808-.077-.266.061.855ZM5.853 2.76l.045.491.554.573-.067-.485-.532-.58Z"/>
    <path stroke="#fff" stroke-width=".1" d="m3.087 13.82.48-.279-.177-.49-.498.233.195.536ZM11.89 8.269l1.115-.3-.211.06-1.104.29.2-.05ZM7.026 10.447l1.288-.19.052-.337-1.286.17-.054.357ZM10.006 8.915l1.245-.24.162-.18-1.244.236-.163.184ZM8.467 13.333l1.007-.364-.166.22-1.019.381.178-.237ZM8.364 12.828l-.055.402-.18.836.05-.375.185-.863ZM5.557 16.394l-.047-.347-.364.082.016.353.395-.088ZM5.856 15.204l.462-.453-.278.064-.488.459.304-.07ZM8.3 8.834l.056.565.094 1.011-.056-.552L8.3 8.834ZM7.766 6.269l.061.574.282.976-.06-.57-.283-.98ZM8.45 9.61l1.303-.197.113-.267-1.3.185-.115.279ZM1.832 5.64l.143.608.363-.656-.136-.624-.37.672Z"/>
    <path stroke="#fff" stroke-width=".1" d="m7.45 13.974.84-.405-.202.18-.857.421.22-.196ZM13.158 9.373l1.183-.344-.139-.286-1.176.341.132.29ZM6.58 14.608l.651-.437-.24.129-.673.449.262-.14ZM12.095 8.274l1.128-.308-.218.004-1.115.299.205.005ZM5.596 15.642l.26-.439-.304.07-.29.445.334-.076Z"/>
    <path stroke="#fff" stroke-width=".1" d="m5.51 16.046.086-.404-.333.075-.117.41.364-.081ZM5.806 11.015l1.203-.193.017-.374-1.203.164-.017.403ZM12.149 10.456l1.213-.264.025.344-1.21.27-.028-.35ZM3.39 13.05l.682-.26-.12-.474-.695.215.133.52ZM9.722 12.39l1.13-.306-.104.291-1.134.325.108-.31ZM6.089 16.451l-.16-.254-.372.197.132.269.4-.212ZM2.356 13.6l.203-.128-.16-.621-.218.076.175.674ZM10.965 11.42l1.205-.269-.04.332-1.205.282.04-.345ZM8.129 14.065l-.13.281-.251.722.12-.251.26-.752ZM13.027 9.084l1.176-.341-.164-.25-1.168.337.155.254Z"/>
    <path stroke="#fff" stroke-width=".1" d="m4.766 11.636 1.063-.21-.023-.411-1.066.172.026.449ZM12.301 8.335l1.139-.317-.218-.052-1.127.308.206.06ZM3.952 12.318l.883-.234-.069-.446-.89.191.076.49ZM10.169 8.733l1.244-.237.18-.13-1.242.234-.182.133ZM3.514 2.567l.07.581.587-.08-.069-.584-.588.083ZM6.675 16.263l-.22-.136-.366.324.195.157.391-.345ZM2.893 13.285l.497-.232-.133-.52-.511.183.147.569ZM2.559 13.471l.333-.188-.147-.57-.347.138.16.62ZM12.87 8.83l1.169-.337-.185-.208-1.16.331.176.213ZM7.08 10.09l1.286-.17.085-.312-1.283.152-.088.33ZM12.503 8.451l1.15-.324-.213-.107-1.139.316.202.115ZM7.748 15.07l-.194.142-.306.593.179-.113.321-.623Z"/>
    <path stroke="#fff" stroke-width=".1" d="m12.694 8.616 1.16-.331-.201-.16-1.15.324.191.167ZM8.615 13.046l.998-.344-.139.268-1.007.364.148-.288ZM7.248 15.805H7.02l-.344.458.208.027.365-.485ZM2.523 3.802l.12.619.501-.4-.114-.625-.507.406ZM6.143 15.049l.437-.44-.262.14-.461.453.286-.153ZM8.567 9.331l1.3-.186.139-.228-1.296.177-.143.237ZM1.69 7.013l.136.568.278-.738-.13-.593-.284.763ZM2.055 12.928l.127-.003-.114-.696-.135-.05.122.75ZM12.088 10.113l1.216-.259.058.34-1.213.264-.061-.345ZM5.928 16.197l-.076-.333-.342.182.046.347.372-.196ZM7.642 13.718l.825-.384-.178.237-.84.405.193-.258Z"/>
    <path stroke="#fff" stroke-width=".1" d="m6.819 14.395.631-.42-.219.196-.65.438.238-.214ZM10.351 8.6l1.243-.235.195-.078-1.241.234-.197.079ZM5.823 10.611l1.203-.163.054-.357-1.202.135-.055.385ZM9.798 12.05l1.127-.286-.072.322-1.13.307.075-.342ZM5.91 15.476l.233-.425-.287.153-.26.44.314-.168ZM3.257 12.531l.695-.214-.077-.489-.704.167.086.536ZM8.45 10.41l.012.517-.002.972-.013-.495.003-.994ZM10.97 11.06l1.206-.255-.006.345-1.205.268.004-.358Z"/>
    <path stroke="#fff" stroke-width=".1" d="m5.852 15.864.058-.39-.314.168-.086.404.342-.182ZM1.846 12.049l.087.132-.054-.756-.09-.184.057.808ZM7.4 5.353l.061.577.367.911-.061-.574-.367-.914ZM1.631 8.4l.115.495.188-.789-.108-.527-.195.822ZM4.74 11.187l1.066-.173.017-.404-1.067.136-.016.44ZM3.875 11.828l.891-.192-.026-.448-.896.148.031.492ZM11.996 9.78l1.218-.254.09.326-1.216.258-.092-.33ZM2.182 12.927l.216-.077-.104-.642-.226.022.114.697ZM7.168 9.758l1.283-.15.115-.279-1.277.134-.121.295ZM8.71 9.092l1.296-.176.163-.184-1.29.17-.169.19ZM1.712 10.975l.077.266.019-.794-.076-.314-.02.842ZM1.641 9.742l.09.39.101-.806-.086-.431-.105.847ZM2.746 12.712l.51-.182-.085-.537-.52.131.095.588ZM10.548 8.522l1.24-.233.204-.023-1.239.233-.205.023ZM6.455 16.127l-.188-.231-.339.301.161.254.366-.324ZM8.732 12.711l.99-.32-.108.31-.998.343.116-.333Z"/>
    <path stroke="#fff" stroke-width=".1" d="m2.398 12.852.348-.137-.095-.588-.357.083.104.642ZM6.405 14.816l.414-.42-.239.214-.437.44.262-.235ZM4.102 2.484l.068.583.604.09-.068-.584-.604-.089ZM8.11 7.82l.058.578.188 1.002-.056-.565-.19-1.015ZM11.874 9.474l1.221-.25.119.304-1.218.253-.122-.307ZM10.94 10.697l1.209-.24.027.348-1.207.255-.03-.363ZM7.803 13.402l.813-.358-.149.289-.825.384.16-.315ZM7.028 14.113l.614-.395-.192.258-.631.42.21-.283ZM9.838 11.684l1.127-.266-.04.345-1.127.287.04-.366ZM10.753 8.497l1.239-.233.207.033-1.236.234-.21-.034ZM5.878 10.227l1.202-.136.088-.33-1.197.109-.093.357Z"/>
    <path stroke="#fff" stroke-width=".1" d="m8.46 11.898-.059.43-.092.9.055-.4.096-.93ZM2.202 4.967l.136.624.433-.531-.128-.637-.441.544ZM3.171 11.995l.704-.166-.03-.492-.71.118.036.54ZM6.197 15.219l.208-.404-.262.235-.233.425.287-.256ZM7.02 15.804l-.244-.107-.322.43.221.136.344-.459ZM11.727 9.197l1.224-.245.144.273-1.22.249-.148-.277ZM8.878 8.903l1.291-.17.182-.132-1.285.164-.188.138ZM6.267 15.896l-.102-.31-.313.279.076.332.34-.301ZM6.957 4.534l.063.58.441.82-.062-.577-.442-.823ZM1.933 12.182l.135.05-.05-.702-.139-.104.054.756ZM10.963 8.533l1.236-.234.204.088-1.233.236-.207-.09ZM7.289 9.465l1.277-.134.144-.237-1.27.119-.151.252ZM4.756 10.746l1.067-.136.055-.385-1.064.1-.058.42Z"/>
    <path stroke="#fff" stroke-width=".1" d="m6.165 15.587.031-.367-.286.256-.058.39.313-.28ZM3.844 11.338l.896-.149.016-.44-.896.106-.016.483ZM11.558 8.958l1.227-.241.166.234-1.224.245-.17-.238ZM11.17 8.62l1.233-.236.197.141-1.23.238-.2-.144ZM3.03 3.397l.114.626.549-.244-.11-.63-.553.248ZM11.37 8.764l1.23-.238.184.19-1.227.242-.187-.194ZM8.309 13.23l-.138.314-.172.804.13-.28.18-.838ZM10.874 10.338l1.214-.227.06.345-1.21.24-.064-.358ZM8.811 12.342l.987-.292-.076.342-.99.32.08-.37ZM7.554 15.21l-.247.034-.288.56h.23l.305-.593ZM4.707 2.572l.067.584.603.258-.066-.584-.604-.258ZM2.65 12.126l.521-.13-.035-.54-.525.078.04.592ZM7.999 14.347l-.207.177-.238.687.194-.142.25-.722ZM6.634 14.505l.394-.393-.21.283-.413.42.23-.31ZM9.841 11.303l1.129-.243-.005.358-1.127.266.003-.38ZM2.068 12.23l.226-.023-.045-.646-.23-.033.049.702ZM9.066 8.765l1.285-.164.197-.08-1.278.162-.204.082ZM6.452 3.825l.064.582.504.706-.063-.58-.505-.708Z"/>
    <path stroke="#fff" stroke-width=".1" d="m2.294 12.208.357-.083-.04-.593-.362.029.045.647ZM1.79 11.243l.089.183.018-.743-.09-.235-.018.795ZM7.928 13.041l.804-.328-.116.333-.813.358.125-.363ZM5.971 9.868l1.197-.109.12-.295L6.1 9.55l-.129.318ZM1.975 6.247l.129.593.353-.635-.119-.614-.363.656ZM7.203 13.768l.6-.365-.161.315-.614.395.175-.345ZM5.311 2.833l.066.584.587.42-.065-.583-.588-.421ZM7.44 9.212l1.27-.12.168-.19-1.261.108-.177.202ZM10.778 9.994l1.218-.214.092.33-1.213.228-.097-.344ZM6.776 15.698l-.21-.202-.299.4.188.231.321-.43Z"/>
    <path stroke="#fff" stroke-width=".1" d="m5.898 3.252.065.583.553.571-.064-.582-.554-.572ZM8.356 9.398l.015.54.091.988-.012-.516-.094-1.012ZM3.136 11.454l.708-.119.016-.483-.709.071-.015.53ZM9.27 8.681l1.278-.16.205-.024-1.27.16-.213.024ZM4.814 10.326l1.064-.101.093-.357-1.058.069-.1.389ZM6.448 14.88l.186-.374-.23.31-.207.403.25-.339ZM7.827 6.844l.063.59.278.964-.059-.578-.282-.976ZM1.732 10.134l.076.314.095-.761-.071-.36-.1.807ZM3.86 10.853l.896-.106.058-.42-.892.065-.062.461ZM1.826 7.58l.108.526.267-.708-.097-.557-.278.739ZM8.853 11.948l.985-.263-.04.366-.987.293.042-.396ZM9.807 10.916l1.132-.22.03.363-1.128.243-.034-.386ZM1.746 8.895l.086.432.18-.75-.078-.47-.188.788ZM10.65 9.674l1.225-.2.121.307-1.219.214-.127-.32ZM6.565 15.497l-.126-.28-.274.37.102.31.298-.4Z"/>
    <path stroke="#fff" stroke-width=".1" d="m6.439 15.217.009-.337-.252.338-.031.367.274-.368ZM9.483 8.657l1.27-.16.21.034-1.263.162-.217-.036ZM1.879 11.424l.14.104.017-.69-.14-.157-.017.743ZM6.1 9.55l1.19-.085.15-.252-1.179.065-.16.273ZM7.617 9.01l1.261-.107.189-.138-1.252.098-.198.147ZM2.61 11.532l.526-.079.015-.53-.525.027-.015.582ZM6.826 14.127l.377-.36-.175.345-.394.393.192-.378ZM7.307 15.245l-.262-.072-.269.525.243.107.288-.56ZM8.013 12.64l.798-.295-.08.368-.804.329.086-.402ZM10.496 9.387l1.231-.19.148.277-1.225.2-.154-.287ZM3.584 3.148l.108.63.58-.08-.102-.632-.586.082ZM2.643 4.423l.128.637.492-.39-.119-.648-.5.4ZM9.7 8.694l1.263-.162.207.09-1.255.166-.215-.094Z"/>
    <path stroke="#fff" stroke-width=".1" d="m7.34 13.37.588-.33-.125.363-.6.365.136-.398ZM8.462 10.929l-.058.46-.003.942.059-.43.002-.972ZM10.319 9.138l1.238-.18.17.238-1.231.19-.177-.248ZM9.915 8.788l1.255-.166.2.144-1.246.171-.209-.15ZM2.019 11.53l.23.032.017-.635-.23-.087-.017.69Z"/>
    <path stroke="#fff" stroke-width=".1" d="m2.25 11.56.36-.028.017-.581-.361-.025-.017.635ZM9.737 10.537l1.137-.198.065.358-1.132.221-.07-.38ZM10.123 8.936l1.247-.171.188.193-1.24.18-.195-.202ZM4.914 9.937 5.97 9.87l.129-.32-1.048.04-.138.348ZM8.855 11.537l.986-.233-.003.38-.985.265.002-.412ZM3.151 10.923l.709-.07.062-.461-.704.025-.067.506ZM7.792 14.523l-.26.072-.225.649.247-.033.238-.688ZM7.815 8.862l1.252-.1.203-.081-1.24.093-.215.088Z"/>
    <path stroke="#fff" stroke-width=".1" d="m3.922 10.392.892-.065.1-.39-.885.028-.107.427ZM6.657 14.467l.169-.34-.192.378-.186.375.21-.413ZM8.401 12.33l-.141.348-.09.866.139-.314.092-.9ZM1.808 10.447l.089.235.09-.711-.084-.284-.095.76ZM7.461 5.932l.067.601.362.9-.063-.59-.366-.911ZM6.26 9.279l1.18-.066.177-.202-1.167.05-.19.218ZM7.045 15.173l-.23-.164-.25.488.211.201.269-.525ZM8.171 13.544l-.215.215-.164.766.207-.177.172-.804ZM9.632 10.171l1.145-.177.098.344-1.138.199-.105-.366Z"/>
    <path stroke="#fff" stroke-width=".1" d="m8.057 12.209.796-.26-.042.395-.798.296.044-.431ZM8.168 8.396l.019.56.184.98-.015-.538-.188-1.002ZM2.338 5.592l.12.614.42-.514-.107-.631-.433.53ZM6.668 14.765l-.01-.3-.21.414-.01.337.23-.45Z"/>
    <path stroke="#fff" stroke-width=".1" d="m8.03 8.774 1.24-.094.213-.024-1.228.092-.225.026ZM6.814 15.008l-.146-.241-.229.45.126.279.25-.488ZM6.974 13.691l.365-.32-.136.396-.377.36.148-.436ZM2.627 10.95l.525-.027.066-.507-.52-.021-.071.555ZM4.17 3.066l.103.633.597.09-.096-.633-.603-.09ZM8.816 11.12l.991-.202.034.386-.987.234-.038-.417ZM7.432 12.93l.58-.291-.085.402-.588.33.093-.44ZM1.832 9.326l.071.36.17-.707-.061-.403-.18.75ZM9.496 9.83l1.154-.157.127.32-1.144.177-.137-.34ZM5.052 9.59 6.1 9.55l.16-.273-1.034.015-.174.297ZM1.897 10.68l.139.159.083-.66-.133-.21-.089.712ZM6.45 9.058l1.167-.05.198-.147-1.152.038-.213.159Z"/>
    <path stroke="#fff" stroke-width=".1" d="m8.255 8.748 1.228-.092.217.036-1.215.094-.23-.038ZM2.104 6.84l.098.556.34-.609-.085-.583-.353.635ZM3.218 10.417l.704-.025.107-.427-.695-.018-.116.47ZM2.266 10.925l.36.024.072-.555-.355-.077-.077.608ZM1.934 8.106l.078.47.255-.673-.066-.506-.267.71ZM4.03 9.964l.884-.027.138-.348-.872-.007-.15.382ZM7.02 5.112l.071.612.437.81-.067-.602-.441-.82ZM9.331 9.525l1.165-.138.154.288-1.154.156-.165-.306ZM7.531 14.594l-.277-.03-.21.607.263.072.224-.65ZM3.144 4.023l.12.647.537-.237-.108-.654-.549.244Z"/>
    <path stroke="#fff" stroke-width=".1" d="m2.036 10.838.23.087.077-.607-.224-.14-.083.66ZM8.485 8.789 9.7 8.694l.215.094-1.201.1-.23-.1ZM8.057 11.76l.797-.222-.002.411-.795.26v-.448ZM8.74 10.71l.997-.173.07.38-.99.204-.078-.411ZM6.82 13.989l.154-.298-.148.436-.169.34.163-.478ZM9.143 9.262l1.176-.122.177.248-1.165.138-.188-.264Z"/>
    <path stroke="#fff" stroke-width=".1" d="m8.714 8.887 1.201-.1.208.149-1.188.11-.221-.16ZM4.774 3.156l.096.633.597.256-.09-.63-.603-.259Z"/>
    <path stroke="#fff" stroke-width=".1" d="m8.935 9.045 1.189-.11.195.201-1.176.123-.208-.214ZM8.37 9.938l-.055.49.089.959.058-.46-.091-.99ZM6.663 8.898l1.152-.037.215-.088-1.137.031-.23.094ZM5.226 9.292l1.035-.014.189-.219-1.02-.005-.204.238ZM7.478 12.458l.579-.25-.044.43-.581.293.046-.473ZM7.075 13.209l.357-.278-.093.44-.365.321.101-.483ZM6.516 4.406l.078.62.498.697-.072-.611-.504-.706ZM7.254 14.565l-.247-.122-.193.565.23.165.21-.608ZM7.956 13.759l-.271.114-.154.722.261-.07.164-.766ZM6.845 14.247l-.025-.257-.163.478.011.3.177-.521ZM2.698 10.395l.52.022.116-.47-.51-.067-.126.515ZM5.377 3.417l.09.63.58.416-.084-.626-.586-.42ZM1.903 9.687l.083.284.16-.66-.073-.332-.17.708ZM8.625 10.314l1.008-.143.104.365-.998.173-.114-.395ZM7.89 7.434l.024.58.273.944-.019-.56-.278-.964Z"/>
    <path stroke="#fff" stroke-width=".1" d="m5.963 3.835.083.626.547.565-.077-.62-.553-.571ZM7.007 14.444l-.162-.197-.177.52.146.242.193-.565ZM8.404 11.387l-.143.386-.001.905.141-.349.003-.942ZM4.18 9.582l.872.007.174-.297-.858-.036-.189.326Z"/>
    <path stroke="#fff" stroke-width=".1" d="m8.014 11.306.802-.184.038.417-.797.222-.043-.455ZM8.26 12.678l-.22.257-.084.824.215-.216.089-.865ZM6.893 8.808l1.137-.03.225-.026-1.12.029-.242.027ZM3.334 9.947l.695.017.15-.382-.681-.056-.164.42ZM2.771 5.059l.107.632.478-.377-.093-.645-.492.39ZM2.343 10.32l.355.077.127-.516-.345-.124-.137.563ZM8.476 9.946l1.02-.116.136.34-1.007.144-.149-.368ZM5.43 9.054l1.02.006.213-.159-1.002-.02-.23.173ZM1.986 9.971l.133.21.148-.613-.122-.257-.159.66ZM3.693 3.78l.108.654.569-.076-.097-.657-.58.079ZM6.93 13.46l.145-.251-.1.484-.155.297.11-.53ZM2.012 8.578l.061.403.241-.635-.047-.442-.255.674Z"/>
    <path stroke="#fff" stroke-width=".1" d="m7.136 8.78 1.119-.029.23.038-1.102.031-.247-.04ZM7.478 11.964l.58-.206-.001.449-.578.25-.001-.493ZM2.12 10.18l.223.139.137-.564-.213-.188-.148.613ZM8.298 9.616l1.033-.092.165.307-1.02.116-.178-.331ZM7.126 12.69l.353-.231-.047.472-.357.279.05-.52ZM2.457 6.206l.085.583.405-.492-.069-.605-.42.514ZM7.685 13.871l-.289.016-.142.676.277.03.154-.722ZM7.929 10.858l.81-.147.077.411-.802.184-.085-.448Z"/>
    <path stroke="#fff" stroke-width=".1" d="m7.383 8.819 1.102-.032.229.1-1.084.04-.247-.108ZM2.202 7.398l.065.505.324-.578-.05-.536-.34.609ZM8.094 9.33l1.049-.07.188.264-1.033.09-.204-.284ZM4.369 9.257l.857.037.205-.24-.84-.059-.222.262Z"/>
    <path stroke="#fff" stroke-width=".1" d="m7.63 8.926 1.084-.04.22.16-1.065.052-.239-.172ZM2.825 9.88l.51.067.163-.42-.495-.109-.178.461ZM7.869 9.1l1.066-.052.207.214-1.049.07L7.87 9.1ZM5.661 8.88l1.002.02.23-.095-.981-.029-.25.104ZM7.528 6.533l.031.6.355.881-.024-.581-.362-.9Z"/>
    <path stroke="#fff" stroke-width=".1" d="m8.187 8.958-.051.52.179.95.056-.49-.184-.98ZM6.966 13.668l-.036-.208-.11.53.025.256.121-.578ZM3.498 9.527l.681.056.19-.327-.665-.088-.206.36ZM7.397 13.89l-.258-.074-.131.628.246.121.143-.676Z"/>
    <path stroke="#fff" stroke-width=".1" d="m7.139 13.815-.173-.148-.12.579.161.197.132-.628ZM7.803 10.425l.822-.11.114.394-.81.147-.126-.431ZM7.43 11.468l.584-.162.043.454-.579.207-.048-.5ZM2.073 8.98l.073.33.225-.592-.057-.372-.241.634ZM8.04 12.935l-.277.16-.078.778.27-.114.084-.824ZM4.273 3.701l.097.657.585.089-.085-.657-.597-.089ZM5.912 8.777l.981.03.243-.028-.96-.032-.264.03ZM2.48 9.758l.345.124.178-.462-.33-.167-.193.505ZM6.985 12.89l.14-.2-.05.518-.145.251.055-.569ZM3.263 4.67l.093.645.522-.228-.078-.653-.537.236Z"/>
    <path stroke="#fff" stroke-width=".1" d="m8.315 10.429-.14.424.087.92.142-.386-.09-.958ZM7.124 12.149l.354-.183v.492l-.352.232-.002-.541ZM4.592 8.993l.838.06.231-.173-.817-.077-.252.19Z"/>
    <path stroke="#fff" stroke-width=".1" d="m8.262 11.771-.222.301v.861l.22-.256.002-.905ZM7.64 10.024l.837-.077.148.368-.822.11-.163-.401ZM2.146 9.31l.121.257.21-.549-.106-.301-.225.592ZM7.092 5.722l.04.618.427.792-.031-.6-.436-.81ZM2.267 9.567l.213.188.193-.504-.196-.232-.21.548ZM6.176 8.747l.96.032.248.04-.938-.028-.27-.044ZM3.003 9.418l.495.109.206-.36-.476-.144-.225.395ZM3.704 9.168l.664.088.224-.262-.644-.115-.244.289ZM2.267 7.902l.047.443.306-.545-.029-.476-.324.578ZM7.335 10.976l.594-.119.085.45-.584.161-.095-.492ZM4.87 3.79l.085.657.584.251-.072-.652-.597-.256ZM7.444 9.66l.854-.046.179.331-.837.077-.196-.362ZM7.026 13.045l-.04-.155-.056.569.036.208.06-.622ZM7.763 13.096l-.294.066-.073.727.289-.016.078-.777ZM2.878 5.69l.069.606.46-.36-.051-.622-.478.377ZM6.446 8.793l.938.028.246.108-.916-.018-.269-.118ZM7.914 8.015l-.043.55.265.913.05-.52-.272-.943ZM6.593 5.026l.05.633.489.682-.04-.618-.499-.697ZM4.844 8.803l.817.077.25-.103-.793-.088-.274.114Z"/>
    <path stroke="#fff" stroke-width=".1" d="m7.22 9.349.874-.02.204.285-.854.046-.223-.311ZM2.542 6.789l.05.535.385-.466-.03-.561-.405.492ZM6.714 8.91l.916.017.239.172-.894-.002-.26-.188Z"/>
    <path stroke="#fff" stroke-width=".1" d="m6.975 9.097.894.002.225.231-.873.02-.246-.253ZM5.467 4.046l.073.652.568.408-.062-.644-.58-.416ZM7.07 11.599l.36-.133.048.5-.354.182-.053-.55ZM6.046 4.462l.062.644.535.553-.05-.633-.547-.564ZM7.205 13.14l-.179-.095-.06.621.173.149.066-.675ZM6.983 12.296l.141-.148.001.542-.14.2-.002-.594ZM7.468 13.162l-.263-.02-.066.674.257.073.072-.727ZM7.196 10.5l.607-.076.126.43-.594.119-.139-.474ZM2.674 9.251l.329.168.225-.395-.309-.205-.245.432ZM3.8 4.434l.078.654.552-.072-.06-.658-.57.076ZM2.314 8.344l.057.373.287-.508-.038-.41-.306.545ZM3.949 8.878l.643.115.252-.19-.62-.135-.275.21ZM8.04 12.072l-.277.21v.812l.276-.16.001-.862ZM5.118 8.688l.794.087.264-.03-.769-.09-.289.033ZM3.228 9.024l.476.145.245-.29-.453-.172-.268.317ZM8.136 9.477l-.133.462.172.911.14-.424-.18-.95Z"/>
    <path stroke="#fff" stroke-width=".1" d="m2.477 9.02.197.232.245-.432-.176-.27-.266.47ZM2.371 8.718l.106.301.266-.47-.085-.339-.287.508ZM8.175 10.852l-.217.346.082.876.222-.3-.087-.921ZM7.016 10.058l.624-.035.163.401-.607.076-.18-.442ZM6.966 11.057l.37-.083.094.493-.36.133-.104-.543ZM7.025 12.398l-.042-.1.002.594.042.155-.002-.649ZM7.559 7.135l-.033.576.345.854.043-.55-.355-.88ZM5.407 8.655l.768.09.27.045-.742-.086-.296-.049ZM2.591 7.325l.03.476.364-.439-.007-.504-.387.467ZM6.924 11.694l.146-.094.054.549-.14.148-.06-.603ZM3.356 5.315l.05.621.503-.217-.03-.632-.523.228Z"/>
    <path stroke="#fff" stroke-width=".1" d="M6.8 9.661h.644l.196.362-.624.036-.215-.398ZM4.224 8.67l.62.134.274-.113-.593-.146-.3.125ZM7.763 12.283l-.295.12v.759l.295-.066v-.813ZM4.37 4.358l.06.658.568.087-.043-.656-.585-.089ZM5.703 8.707l.742.086.27.118-.717-.075-.295-.129ZM2.92 8.817l.308.205.267-.317-.284-.235-.292.347ZM7.203 12.435l-.178-.04.001.65.18.094-.003-.704ZM2.947 6.298l.03.56.438-.34-.008-.58-.46.36Z"/>
    <path stroke="#fff" stroke-width=".1" d="m6.554 9.32.666.03.224.312H6.8l-.246-.343ZM5.998 8.834l.717.074.26.188-.69-.056-.287-.206ZM7.468 12.402l-.264.035.001.705.264.02-.001-.76ZM3.496 8.705l.453.172.276-.21-.427-.193-.302.23Z"/>
    <path stroke="#fff" stroke-width=".1" d="m6.284 9.042.691.056.245.253-.666-.03-.27-.279ZM6.812 10.537l.384-.036.139.474-.37.083-.153-.52ZM7.132 6.34l-.02.602.414.768.033-.577-.427-.792ZM2.62 7.801l.038.409.34-.41-.013-.438-.365.44ZM7.87 8.563l-.123.498.256.878.133-.462-.265-.915ZM4.525 8.543l.593.146.289-.033-.565-.15-.317.037ZM2.743 8.548l.176.27.292-.347-.152-.301-.316.378ZM7.957 11.197l-.273.26.079.826.277-.21-.083-.876ZM4.955 4.446l.044.656.567.245-.026-.65-.585-.25ZM6.96 11.74l-.036-.045.06.603.04.1-.064-.658ZM6.809 11.1l.157-.041.105.542-.147.094-.115-.595Z"/>
    <path stroke="#fff" stroke-width=".1" d="m2.658 8.209.085.339.317-.378-.061-.37-.34.409ZM8.003 9.941l-.21.39.164.867.218-.345-.172-.912ZM6.614 10.05l.402.009.18.441-.384.037-.198-.486ZM6.643 5.657l-.005.622.474.661.02-.6-.489-.683ZM3.878 5.086l.03.632.532-.067-.01-.636-.552.071ZM5.54 4.698l.026.65.552.396-.01-.638-.568-.408ZM4.842 8.507l.565.15.296.048-.535-.145-.326-.053ZM3.798 8.477l.427.194.3-.126-.398-.206-.33.138ZM3.21 8.47l.285.236.303-.231-.257-.257-.33.253Z"/>
    <path stroke="#fff" stroke-width=".1" d="m6.108 5.104.01.638.52.537.005-.622-.535-.553ZM2.977 6.858l.008.504.413-.32.017-.525-.438.34ZM7.133 11.722l-.173.018.064.658.18.04-.07-.716ZM7.684 11.458l-.29.173.074.772.295-.119-.079-.826ZM6.376 9.613l.425.049.215.397-.402-.008-.238-.438ZM3.406 5.937l.009.58.478-.206.016-.591-.503.217ZM5.167 8.56l.536.144.295.13-.506-.132-.325-.142Z"/>
    <path stroke="#fff" stroke-width=".1" d="m7.393 11.629-.26.091.07.716.265-.035-.075-.772ZM6.64 10.527l.172.01.154.521-.157.042-.17-.573ZM7.526 7.71l-.11.532.332.82.123-.499-.345-.853ZM6.105 9.236l.45.083.246.343-.425-.049-.271-.377ZM5.492 8.703l.506.132.286.206-.477-.11-.315-.228Z"/>
    <path stroke="#fff" stroke-width=".1" d="m6.833 11.088-.025.011.116.596.036.044-.127-.651ZM5.807 8.93l.477.112.27.278-.45-.083-.297-.306ZM3.06 8.17l.15.301.33-.253-.122-.323-.359.275ZM4.127 8.336l.398.207.317-.037-.367-.21-.348.04ZM2.985 7.362l.014.438.386-.298.013-.461-.413.32ZM4.43 5.015l.01.636.546.085L5 5.102l-.568-.087ZM7.792 10.33l-.264.31.156.817.273-.26-.165-.867Z"/>
    <path stroke="#fff" stroke-width=".1" d="m2.999 7.8.06.37.359-.277-.033-.392L3 7.799ZM3.54 8.217l.258.257.33-.138-.227-.27-.36.15ZM7.748 9.063l-.199.432.244.835.21-.39-.255-.877ZM6.421 9.993l.193.058.198.486-.172-.01-.219-.534ZM6.997 11.013l-.164.074.127.651.173-.017-.136-.708ZM7.112 6.941l-.095.563.4.738.11-.532-.415-.769ZM4.475 8.296l.367.21.325.054-.335-.206-.357-.058ZM3.415 6.515l-.017.525.451-.193.045-.537-.479.205ZM3.909 5.719l-.015.592.505-.063.041-.597-.531.068Z"/>
    <path stroke="#fff" stroke-width=".1" d="m6.648 10.46-.009.066.17.572.024-.01-.185-.627ZM7.527 10.64l-.281.226.147.764.29-.173-.156-.817ZM4.999 5.102l-.013.633.546.236.034-.625L5 5.102ZM6.16 9.513l.216.101.238.438-.193-.059-.261-.48Z"/>
    <path stroke="#fff" stroke-width=".1" d="m7.246 10.866-.25.147.137.708.26-.09-.147-.765ZM3.417 7.894l.124.323.36-.15-.093-.338-.39.165ZM4.832 8.356l.335.206.325.142-.304-.191-.356-.157ZM3.9 8.068l.227.27.348-.04-.194-.275-.38.045ZM6.638 6.28l-.076.588.455.636.095-.563-.474-.662ZM5.861 9.099l.243.138.272.377-.216-.101-.299-.414ZM5.566 5.348l-.034.625.53.38.056-.61-.552-.395Z"/>
    <path stroke="#fff" stroke-width=".1" d="m5.188 8.51.304.192.315.228-.272-.17-.347-.25ZM3.398 7.042l-.013.46.422-.178.042-.474-.451.192ZM7.416 8.244l-.183.473.316.78.199-.434-.332-.819Z"/>
    <path stroke="#fff" stroke-width=".1" d="m5.535 8.76.272.17.297.306-.243-.139-.326-.336ZM6.118 5.744l-.056.61.5.516.076-.59-.52-.536ZM7.549 9.493l-.252.358.23.786.266-.309-.244-.835ZM3.385 7.501l.033.393.39-.165-.001-.407-.422.18ZM6.41 9.877l.011.115.218.534.01-.065-.24-.584ZM6.796 10.332l-.147.13.184.625.164-.074-.201-.681ZM4.44 5.651l-.04.597.52.081.066-.593-.546-.085ZM4.28 8.023l.195.275.357.059-.16-.27-.391-.064ZM3.894 6.313l-.045.538.477-.059.073-.542-.505.063Z"/>
    <path stroke="#fff" stroke-width=".1" d="m7.297 9.854-.267.28.216.734.282-.227-.23-.787ZM3.809 7.728l.091.337.38-.044-.058-.342-.413.049Z"/>
    <path stroke="#fff" stroke-width=".1" d="m7.03 10.133-.234.201.2.68.25-.146-.216-.735ZM6.124 9.353l.036.16.261.481-.011-.115-.286-.526ZM7.017 7.506l-.164.509.38.701.183-.472-.399-.738ZM4.671 8.085l.161.27.356.156-.127-.255-.39-.171ZM3.849 6.849l-.042.474.445-.054.074-.479-.477.059ZM6.537 9.698l-.127.18.238.585.148-.13-.26-.635Z"/>
    <path stroke="#fff" stroke-width=".1" d="m3.807 7.323.001.407.414-.05.03-.41-.445.053ZM7.233 8.716l-.234.402.298.735.252-.358-.316-.78ZM4.986 5.737l-.067.593.52.226.093-.583-.546-.236ZM5.797 8.897l.065.2.298.415-.036-.161-.327-.454ZM5.061 8.256l.127.255.347.25-.095-.232-.379-.273ZM5.44 8.528l.095.232.326.337-.064-.2-.357-.369ZM6.561 6.868l-.142.54.434.605.164-.51-.456-.635Z"/>
    <path stroke="#fff" stroke-width=".1" d="m4.222 7.679.059.342.39.063-.025-.337-.424-.068ZM4.4 6.25l-.074.542.49.078.103-.538-.52-.082ZM5.532 5.972l-.094.582.505.363.119-.564-.53-.381ZM6.75 9.445l-.213.252.26.635.233-.2-.28-.687ZM6.062 6.354l-.119.564.476.49.143-.539-.5-.515ZM6.999 9.117l-.248.327.28.686.266-.278L7 9.117ZM6.226 9.125l-.102.226.286.527.127-.18-.311-.573Z"/>
    <path stroke="#fff" stroke-width=".1" d="m6.853 8.015-.213.442.359.662.234-.402-.38-.702ZM4.253 7.268l-.031.41.424.07.065-.407-.458-.073ZM4.646 7.75l.025.337.39.17.01-.322-.425-.185Z"/>
    <path stroke="#fff" stroke-width=".1" d="m4.326 6.79-.073.479.458.074.105-.475-.49-.078ZM5.871 8.632l-.074.266.327.454.102-.227-.355-.493ZM4.92 6.331l-.104.538.49.214.133-.527-.52-.225ZM5.07 7.936l-.009.322.379.273.042-.299-.412-.296Z"/>
    <path stroke="#fff" stroke-width=".1" d="m6.415 8.828-.19.298.312.572.214-.252-.336-.618ZM5.482 8.23l-.042.299.357.368.074-.266-.389-.4ZM6.64 8.456l-.225.37.336.619.248-.327-.359-.662Z"/>
    <path stroke="#fff" stroke-width=".1" d="m6.42 7.41-.19.478.41.57.213-.443-.434-.605ZM4.71 7.344l-.064.406.424.185.098-.392-.458-.2ZM5.439 6.554l-.133.526.476.342.161-.505-.504-.363ZM4.816 6.867l-.105.475.457.2.138-.462-.49-.213Z"/>
    <path stroke="#fff" stroke-width=".1" d="m5.943 6.918-.161.506.449.462.188-.477-.476-.491ZM6.032 8.295l-.161.337.354.493.19-.298-.383-.532Z"/>
    <path stroke="#fff" stroke-width=".1" d="m6.23 7.887-.198.408.383.533.225-.371-.41-.57ZM5.168 7.542l-.098.392.412.297.13-.369-.444-.32Z"/>
    <path stroke="#fff" stroke-width=".1" d="m5.613 7.862-.131.369.389.4.161-.336-.42-.433Z"/>
    <path stroke="#fff" stroke-width=".1" d="m5.306 7.081-.138.461.445.32.169-.438-.476-.343Z"/>
    <path stroke="#fff" stroke-width=".1" d="m5.782 7.423-.17.439.42.432.199-.408-.45-.463Z"/>
  </g>
</svg>