<svg width="103" height="22" viewBox="0 0 103 22" fill="none" xmlns="http://www.w3.org/2000/svg">
<g opacity="0.6" clip-path="url(#clip0_2425_44599)">
<path d="M11.1159 21.7411C17.1131 21.7411 21.9747 16.8794 21.9747 10.8823C21.9747 4.8851 17.1131 0.0234375 11.1159 0.0234375C5.11874 0.0234375 0.25708 4.8851 0.25708 10.8823C0.25708 16.8794 5.11874 21.7411 11.1159 21.7411Z" fill="white"/>
<path fill-rule="evenodd" clip-rule="evenodd" d="M5.0222 10.3327C6.09531 9.44074 7.35726 9.05421 8.72553 8.96865C9.6257 8.91213 10.5133 9.01724 11.3885 9.23266C11.4969 9.25924 11.6048 9.32677 11.7456 9.25099C11.4978 8.62185 10.8699 8.40613 10.3383 7.97621C11.742 7.87141 13.0161 8.12196 14.173 8.75782C16.4271 9.99746 17.6505 11.9402 17.7275 14.5172C17.8027 17.0158 16.1316 19.0254 13.5142 19.7291C8.24978 21.1447 2.88484 17.6208 2.0522 12.2054C1.99201 11.8149 1.90889 11.4287 1.97031 11.0312C2.12828 11.1445 2.17839 11.3257 2.25784 11.488C2.58051 12.144 2.9597 12.764 3.42262 13.3323C5.45242 15.8235 8.72614 16.1187 10.9057 14.641C11.3973 14.3076 11.79 13.8939 12.0732 13.3778C12.5954 12.4269 12.2541 11.04 11.3622 10.6352C10.2973 10.1524 9.17287 10.0109 8.01573 10.2263C7.69092 10.2871 7.37009 10.3559 7.13634 10.6342C6.90564 10.9083 7.18981 11.1491 7.19776 11.4464C6.31042 11.3196 5.55112 11.0553 5.0222 10.3327Z" fill="#A2A2A2"/>
<path fill-rule="evenodd" clip-rule="evenodd" d="M5.02204 10.3324C5.55096 11.0548 6.31026 11.3191 7.1979 11.4465C7.18996 11.1489 6.90579 10.9084 7.13649 10.6343C7.37024 10.356 7.69107 10.2872 8.01588 10.2264C9.17332 10.011 10.2975 10.1525 11.3623 10.6352C12.2542 11.0398 12.5955 12.4267 12.0733 13.3779C11.7901 13.8937 11.3978 14.3077 10.9058 14.6411C8.72629 16.1187 5.45257 15.8236 3.42276 13.3324C2.95985 12.7641 2.58065 12.1441 2.25799 11.4881C2.17854 11.3258 2.12813 11.1446 1.97046 11.0312C2.01354 4.60878 8.27132 0.14033 14.2018 2.35561C13.657 3.07122 13.0044 3.6368 12.2747 4.12172C12.125 4.22102 12.0443 4.20177 12.0095 4.0053C11.96 3.72847 11.8741 3.4605 11.6682 3.202C10.995 4.34386 9.80185 4.66683 8.7214 5.16C8.23557 5.38152 7.91229 5.70511 7.84079 6.26366C7.79679 6.60802 8.1601 6.73208 8.24657 7.12655C7.82887 6.78158 7.62049 7.03091 7.38124 7.24938C7.21257 7.40338 7.00846 7.52469 6.80557 7.63347C6.55471 7.76791 6.27482 7.88433 6.00715 7.70527C5.74896 7.53264 5.90235 7.25458 5.9109 7.01472C4.68196 7.44983 4.00607 9.263 4.56462 10.6181C4.71771 10.5222 4.86988 10.4275 5.02204 10.3324Z" fill="#BFBFBF"/>
<path fill-rule="evenodd" clip-rule="evenodd" d="M15.0933 2.77344C16.6864 3.45483 17.8714 4.61105 18.7878 6.04349C20.1679 8.20194 20.4857 10.5538 19.9397 13.0419C19.7903 12.2958 19.6378 11.5551 19.3423 10.8471C18.8904 9.76546 18.1372 8.92335 17.2884 8.14999C17.8955 8.09194 18.4416 8.43172 19.071 8.45585C19.038 8.37152 19.0331 8.31591 19.0029 8.28902C18.906 8.20346 18.8 8.1286 18.6973 8.04977C18.7462 7.75674 18.5079 7.6553 18.3355 7.5123C16.8734 6.29985 15.1874 5.60899 13.3125 5.35752C13.5533 5.11582 13.8127 4.89613 14.0419 4.63824C14.5298 4.08885 14.7935 3.42335 15.0933 2.77344Z" fill="#BFBFBF"/>
<path fill-rule="evenodd" clip-rule="evenodd" d="M15.0932 2.77436C14.7938 3.42428 14.5301 4.08978 14.0418 4.63947C13.8126 4.89736 13.5532 5.11706 13.3124 5.35875C12.6934 5.68997 12.1773 6.21522 11.4507 6.32981C11.4785 6.27083 11.5204 6.19964 11.5466 6.12325C11.7608 5.50389 12.1987 5.13295 12.7808 4.83686C13.4615 4.49128 14.0064 3.95106 14.4274 3.30175C14.4693 3.2825 14.5139 3.25317 14.4739 3.20795C14.4586 3.19084 14.3965 3.21528 14.3559 3.22078C14.2459 3.22353 14.1429 3.32314 13.9895 3.22475C14.5557 2.61364 14.9163 1.8855 15.2457 1C15.4015 1.69514 15.0874 2.22222 15.0932 2.77436Z" fill="#A1A1A1"/>
<path fill-rule="evenodd" clip-rule="evenodd" d="M18.6973 8.04881C18.8 8.12765 18.906 8.20251 19.0029 8.28806C19.0331 8.31495 19.038 8.37056 19.071 8.4549C18.4415 8.43076 17.8955 8.09098 17.2884 8.14904C16.658 7.77076 16.049 7.35123 15.3337 7.11534C15.9617 7.00198 16.4817 7.36467 17.0482 7.5147C17.0873 7.52479 17.1264 7.53548 17.1652 7.54648C17.1646 7.50218 17.164 7.45817 17.1634 7.41417C17.2603 7.27056 17.2658 7.26048 17.3648 7.31426C17.8106 7.55534 18.2533 7.80284 18.6973 8.04881Z" fill="#A1A1A1"/>
<path fill-rule="evenodd" clip-rule="evenodd" d="M10.2202 5.57016C10.4237 5.43602 10.6296 5.30738 10.8765 5.25391C10.8484 5.99213 10.2587 6.49171 9.30322 6.59774C9.27266 6.37163 9.489 6.40493 9.59442 6.34352C9.90517 6.16171 10.1481 5.93896 10.2202 5.57016Z" fill="#A1A1A1"/>
<path fill-rule="evenodd" clip-rule="evenodd" d="M10.2204 5.57031C10.1483 5.93912 9.90533 6.16187 9.59458 6.34367C9.48917 6.40509 9.27283 6.37178 9.30339 6.5979C9.14878 6.68376 8.96239 6.73356 8.86308 6.57039C8.7647 6.40814 8.9025 6.24895 9.02564 6.13865C9.36603 5.83309 9.77792 5.66687 10.2204 5.57031Z" fill="#BFBFBF"/>
<path fill-rule="evenodd" clip-rule="evenodd" d="M5.15894 8.8811C5.29124 8.45638 5.44555 8.23638 5.80794 8.2376C5.92588 8.2379 6.03802 8.20093 6.04871 8.3699C6.05788 8.51168 6.03282 8.66477 5.85316 8.62779C5.60505 8.57646 5.4266 8.70846 5.15894 8.8811Z" fill="#BFBFBF"/>
<path d="M87.9968 6.56279C88.2178 6.53223 88.1866 6.36937 88.1829 6.22332C88.178 6.00362 88.0033 6.0687 87.8881 6.06748C87.2241 6.06137 86.5598 6.06259 85.8958 6.06687C85.7767 6.06748 85.6273 6.01737 85.6123 6.23615C85.5979 6.4537 85.7156 6.46868 85.8803 6.48518C86.3374 6.53101 86.4617 6.8057 86.3569 7.22157C86.3041 7.43026 86.264 7.64354 86.1956 7.84704C85.6734 9.40018 85.1448 10.9512 84.6192 12.5034C84.592 12.5841 84.5734 12.6638 84.4802 12.6623C83.7704 11.0153 83.3166 9.28468 82.7294 7.60015C82.6643 7.41376 82.6273 7.21576 82.5913 7.02082C82.5323 6.70151 82.6548 6.50504 82.9931 6.47418C83.1339 6.46134 83.3041 6.51482 83.3038 6.26945C83.3029 5.97887 83.089 6.07084 82.9488 6.06962C82.0853 6.06259 81.2221 6.06198 80.3586 6.07145C80.2351 6.07298 80.046 5.9697 80.0005 6.21109C79.9574 6.44087 80.1095 6.47601 80.2773 6.53101C80.8423 6.71648 81.5117 7.86232 81.3238 8.4169C80.8435 9.83468 80.3191 11.2375 79.7664 12.7753C79.1345 10.8962 78.4546 9.17498 77.9218 7.40184C77.7922 6.97101 77.7632 6.59884 78.3645 6.53926C78.5445 6.52123 78.5332 6.37212 78.5368 6.23523C78.5417 6.05434 78.4192 6.0684 78.304 6.06809C77.3745 6.06809 76.4444 6.0684 75.5149 6.06931C75.3982 6.06931 75.2799 6.0629 75.2793 6.23951C75.2787 6.36876 75.2989 6.46654 75.4458 6.49801C76.0838 6.6349 76.266 7.15984 76.4505 7.68265C77.321 10.1491 78.1894 12.6158 79.0667 15.0795C79.1205 15.2311 79.114 15.445 79.3906 15.4462C79.6665 15.4471 79.661 15.2351 79.7151 15.0835C80.1645 13.82 80.6018 12.5529 81.0458 11.2876C81.2694 10.6514 81.5001 10.0183 81.7553 9.3079C82.4541 11.268 83.1186 13.1386 83.7909 15.0062C83.856 15.1871 83.8251 15.4514 84.1548 15.4456C84.4591 15.4404 84.4273 15.1892 84.4891 15.0276C84.6831 14.517 84.8472 13.9957 85.0265 13.48C85.7137 11.5113 86.3982 9.54134 87.0942 7.57632C87.2546 7.12379 87.4108 6.64376 87.9968 6.56279Z" fill="white"/>
<path d="M63.826 14.7477C63.0857 14.5518 63.0111 14.4556 63.0096 13.6871C63.0056 11.745 63.0072 9.80258 63.0102 7.86017C63.0108 7.67867 63.0408 7.49717 63.0536 7.31567C63.0869 6.85886 63.302 6.57592 63.7817 6.52214C63.9409 6.50411 64.1154 6.4815 64.0839 6.23186C64.0518 5.9755 63.8624 6.0797 63.7432 6.07878C62.8134 6.07022 61.8839 6.07053 60.9541 6.08061C60.8334 6.08245 60.6437 5.97611 60.5997 6.21842C60.5551 6.4595 60.7271 6.49525 60.8897 6.52397C61.3315 6.60097 61.5811 6.86986 61.583 7.30406C61.5921 9.44539 61.5903 11.5867 61.5762 13.7278C61.5726 14.2781 61.3541 14.7 60.7268 14.7578C60.5312 14.7758 60.4903 14.8947 60.4985 15.0688C60.5102 15.2904 60.6736 15.2256 60.7888 15.2268C61.2866 15.2332 61.7846 15.2299 62.283 15.2299C62.283 15.2305 62.283 15.2311 62.283 15.2317C62.781 15.2317 63.2791 15.2354 63.7772 15.2293C63.9082 15.2271 64.0873 15.2971 64.0867 15.0383C64.0858 14.8424 63.991 14.7917 63.826 14.7477Z" fill="white"/>
<path d="M73.7896 10.4824C73.1275 10.1836 72.5118 9.81265 71.8753 9.4747C71.3024 9.17098 71.0662 8.65306 71.1689 8.0114C71.2651 7.40976 71.6575 7.04951 72.2194 6.86893C73.0966 6.58629 73.9537 6.84173 74.519 7.57537C74.6412 7.73426 74.7619 7.79812 74.9327 7.7587C75.1558 7.70676 75.0436 7.51273 75.0479 7.38684C75.0629 6.9392 75.0565 6.49065 75.0513 6.0424C75.0501 5.95409 75.1023 5.82759 74.9737 5.78848C74.8652 5.75579 74.7363 5.74051 74.6644 5.86823C74.4561 6.24101 74.1166 6.1799 73.7854 6.13651C73.1064 6.04698 72.429 6.02101 71.7565 6.17806C70.7115 6.4222 69.9674 7.19129 69.7979 8.1929C69.6151 9.2712 70.0252 10.1607 71.0152 10.7489C71.7259 11.1711 72.458 11.5577 73.181 11.9595C73.7246 12.2617 73.9308 12.7298 73.8593 13.3345C73.7896 13.9242 73.4428 14.2976 72.9103 14.5038C72.0171 14.85 70.9941 14.5705 70.3958 13.8231C70.2724 13.6691 70.1599 13.4998 70.0759 13.3216C69.9931 13.146 69.8614 13.1362 69.7074 13.1493C69.4834 13.1686 69.5745 13.3467 69.5718 13.4558C69.5608 13.8698 69.5672 14.2838 69.5672 14.7645C69.1421 14.6297 68.7868 14.5167 68.5423 14.2466C67.285 12.8584 66.049 11.4507 64.7916 10.0626C64.5943 9.84442 64.5747 9.72617 64.7978 9.5077C65.5369 8.78262 66.2045 7.98726 66.984 7.29884C67.3635 6.96395 67.7238 6.63029 68.2453 6.5594C68.454 6.53068 68.531 6.42587 68.5093 6.22329C68.4864 6.00634 68.3211 6.07693 68.2056 6.07601C67.4423 6.07112 66.6788 6.06959 65.9152 6.07906C65.7939 6.08059 65.6053 5.98343 65.5818 6.24162C65.5616 6.46926 65.708 6.45551 65.8559 6.48729C66.2739 6.57651 66.3069 6.82737 66.0948 7.14423C65.9943 7.29456 65.8687 7.42962 65.7438 7.5607C64.9438 8.4019 64.1463 9.24554 63.3341 10.0745C63.1554 10.2566 63.1554 10.3642 63.3293 10.5472C63.7864 11.0285 64.2264 11.5268 64.6633 12.0255C65.2209 12.6616 65.8363 13.2492 66.3249 13.9428C66.6143 14.3541 66.5428 14.5958 66.0875 14.7263C65.8782 14.7859 65.756 14.8393 65.7899 15.0765C65.8302 15.3603 66.0469 15.221 66.1792 15.2286C67.3479 15.2995 68.5246 15.114 69.6903 15.3291C69.7609 15.342 69.8941 15.3108 69.9128 15.2659C70.1153 14.7654 70.4609 14.9732 70.7848 15.0774C71.8649 15.4245 72.939 15.481 73.9724 14.9371C74.8918 14.4525 75.359 13.6688 75.3281 12.6268C75.297 11.5794 74.68 10.8842 73.7896 10.4824Z" fill="white"/>
<path d="M50.8114 14.7774C50.3213 14.704 50.1474 14.3893 50.1468 13.9386C50.144 11.7307 50.1425 9.52272 50.1431 7.31477C50.1431 6.92305 50.2947 6.63735 50.7163 6.56616C50.8945 6.53591 51.036 6.48244 51.0216 6.25663C51.0039 5.98041 50.7946 6.06444 50.6506 6.06352C49.7538 6.0568 48.8573 6.0568 47.9608 6.06505C47.8181 6.06627 47.6067 5.97369 47.5777 6.24502C47.5529 6.47694 47.7176 6.52583 47.8857 6.55363C48.4561 6.64775 48.6435 7.02663 48.6447 7.55035C48.6456 7.84919 48.6456 8.14772 48.6453 8.44686C48.6441 10.1732 48.6493 11.8999 48.6386 13.6266C48.6334 14.4562 48.5359 14.5787 47.7619 14.8192C47.6211 14.8632 47.5728 14.9228 47.5771 15.0579C47.5823 15.2174 47.6834 15.2436 47.8114 15.2436C48.3263 15.243 48.8408 15.2433 49.3557 15.2433C49.3557 15.2439 49.3557 15.2449 49.3557 15.2455C49.8208 15.2455 50.2855 15.2528 50.75 15.2412C50.8917 15.2375 51.1007 15.3335 51.131 15.0597C51.1585 14.8061 50.9645 14.8 50.8114 14.7774Z" fill="white"/>
<path d="M36.0929 7.66944C34.8105 6.13617 33.0682 5.84039 31.2031 6.19147C29.0936 6.58869 27.5664 8.51797 27.5511 10.6908C27.5365 12.8095 29.0291 14.6691 31.1274 15.1247C31.4011 15.184 31.6126 15.312 31.8158 15.4883C32.3673 15.9662 32.9164 16.4487 33.5938 16.7499C34.7289 17.2544 35.7874 17.0668 36.8055 16.4169C37.0056 16.2892 36.9574 16.1602 36.8892 16.0013C36.7936 15.778 36.6827 15.9249 36.5827 15.9913C35.997 16.3784 35.4015 16.2638 34.8322 15.9836C34.3895 15.7661 33.98 15.4794 33.4798 15.1776C33.6665 15.1112 33.7582 15.0721 33.8532 15.0459C37.2198 14.1099 38.0033 9.95317 36.0929 7.66944ZM31.8381 14.6001C30.8013 14.4488 30.0643 13.7638 29.617 12.8061C29.5748 12.716 29.5363 12.6249 29.5015 12.5333C29.2919 11.9836 29.2088 11.4094 29.2066 10.8216C29.2063 10.7238 29.2082 10.6248 29.2124 10.5261C29.2063 10.3592 29.2057 10.193 29.2118 10.028C29.224 9.69742 29.2632 9.37078 29.3389 9.04842C29.3768 8.88739 29.4239 8.72728 29.4813 8.56869C29.8825 7.46044 30.6754 6.82794 31.8332 6.69686C32.9408 6.57128 33.8948 6.90006 34.585 7.82375C35.6068 9.19172 35.7269 11.9203 34.8273 13.3717C34.1288 14.4983 33.0261 14.7736 31.8381 14.6001Z" fill="white"/>
<path d="M29.2124 10.5273C29.2084 10.626 29.2063 10.7247 29.2066 10.8228C29.2063 10.725 29.2081 10.6263 29.2124 10.528C29.2124 10.528 29.2124 10.5276 29.2124 10.5273Z" fill="white"/>
<path d="M29.5014 12.532C29.2918 11.9823 29.2087 11.4085 29.2065 10.8203C29.2084 11.4082 29.2918 11.9823 29.5014 12.532Z" fill="white"/>
<path d="M102.626 7.73793C102.39 6.84113 101.462 6.08855 100.493 6.07113C99.1491 6.0473 97.804 6.06288 96.4596 6.06777C96.3474 6.06807 96.1772 5.99046 96.1546 6.20985C96.1354 6.39991 96.1809 6.53282 96.3979 6.56521C96.9399 6.64557 97.0737 7.01927 97.0707 7.50113C97.0649 8.51374 97.0689 9.52605 97.0689 10.5387C97.0707 10.5387 97.0719 10.5387 97.0738 10.5387C97.0738 11.1693 97.0823 11.8003 97.0713 12.431C97.0615 12.9932 97.1333 13.5609 96.998 14.117C96.8724 14.6331 96.3869 14.8742 95.8686 14.7495C95.377 14.6316 95.106 14.3019 94.9071 13.8885C94.6568 13.3666 94.4283 12.834 94.1933 12.3042C93.327 10.3529 92.4644 8.40038 91.5936 6.45124C91.5258 6.29968 91.5276 6.07388 91.2761 6.05921C90.9846 6.04241 90.9962 6.30488 90.9189 6.46438C90.731 6.85091 90.5712 7.25119 90.3995 7.64596C89.547 9.60274 88.696 11.561 87.8408 13.5169C87.6015 14.0632 87.3934 14.6435 86.6787 14.7514C86.4966 14.7789 86.5312 14.9435 86.5306 15.0728C86.5293 15.2897 86.6974 15.2384 86.8169 15.2396C87.4973 15.2442 88.1781 15.2433 88.8589 15.2412C88.9836 15.2409 89.1345 15.2821 89.1394 15.0664C89.1431 14.8956 89.1076 14.7764 88.916 14.7437C88.4167 14.6597 88.4152 14.3101 88.5451 13.9529C88.766 13.3473 89.0309 12.7576 89.2662 12.1566C89.323 12.012 89.3964 11.9509 89.5534 11.9522C90.4499 11.9577 91.3461 11.9555 92.2426 11.954C92.3621 11.9537 92.469 11.9549 92.5252 12.0924C92.7874 12.7344 93.1581 13.3324 93.32 14.0159C93.4083 14.389 93.3493 14.6899 92.8941 14.737C92.6869 14.7581 92.6695 14.876 92.6643 15.0416C92.6557 15.2919 92.8296 15.2415 92.9686 15.2415C95.0442 15.2433 97.1187 15.2427 99.1934 15.2421C99.3385 15.2421 99.505 15.2787 99.4934 15.0355C99.4858 14.8763 99.4858 14.7471 99.2692 14.7303C98.721 14.6872 98.5584 14.3279 98.5594 13.8362C98.5603 13.0063 98.5685 12.1758 98.5429 11.3469C98.5328 11.0101 98.64 11.0004 98.941 11.0272C99.8751 11.111 100.803 11.0709 101.632 10.5448C102.524 9.97827 102.919 8.85199 102.626 7.73793ZM89.6588 11.2139C90.0463 10.2826 90.423 9.37602 90.8349 8.38419C91.2823 9.35982 91.6947 10.26 92.1326 11.2139C91.2945 11.2139 90.5055 11.2139 89.6588 11.2139ZM101.051 9.2321C100.769 10.0828 99.4928 10.6444 98.6932 10.2857C98.5172 10.2062 98.5526 10.0837 98.5514 9.96085C98.5474 9.4631 98.5499 8.96535 98.5499 8.46791C98.5499 7.97046 98.5487 7.47271 98.5505 6.97466C98.5511 6.82983 98.5239 6.70332 98.7558 6.66666C100.339 6.41671 101.543 7.75291 101.051 9.2321Z" fill="white"/>
<path d="M46.8911 6.06372C45.8791 6.06372 44.8668 6.0628 43.8545 6.06616C43.7332 6.06677 43.5807 6.02155 43.5617 6.23299C43.5425 6.44352 43.6543 6.47744 43.8276 6.48752C44.3235 6.51624 44.5679 6.78421 44.5878 7.28441C44.6599 9.07435 44.7357 10.868 44.5401 12.6509C44.4072 13.8603 43.5746 14.6009 42.4776 14.6294C41.2808 14.6602 40.5526 14.0629 40.2685 12.8079C40.2208 12.5989 40.1783 12.3832 40.1774 12.1705C40.1692 10.611 40.1615 9.05113 40.1753 7.49158C40.182 6.74663 40.2801 6.64366 40.9902 6.4863C41.1399 6.4533 41.2401 6.42824 41.2304 6.24919C41.2191 6.04966 41.0785 6.06555 40.9456 6.06555C39.9333 6.06555 38.921 6.06555 37.909 6.06677C37.7761 6.06708 37.6373 6.05149 37.6248 6.25133C37.6144 6.42213 37.7088 6.5028 37.8521 6.52113C38.5812 6.61402 38.6722 7.1463 38.6805 7.72472C38.6903 8.43819 38.6826 9.15166 38.6826 9.86513C38.6848 9.86513 38.6869 9.86513 38.6891 9.86513C38.6891 10.5954 38.6719 11.326 38.6933 12.0557C38.7227 13.0472 39.0624 13.926 39.87 14.5319C41.2285 15.5506 42.7367 15.612 44.2413 14.9477C45.6359 14.3327 46.1199 13.1297 46.0908 11.6578C46.0658 10.3806 46.078 9.10277 46.0887 7.82494C46.096 6.9758 46.2112 6.81569 46.9467 6.54374C47.0927 6.48935 47.1584 6.41999 47.1587 6.25927C47.1578 6.05424 47.0264 6.06372 46.8911 6.06372Z" fill="white"/>
<path d="M59.9041 15.0461C59.9106 14.4334 59.9096 13.8211 59.9054 13.2082C59.9044 13.1055 59.9521 12.9665 59.763 12.9539C59.6117 12.9445 59.5231 12.9817 59.4788 13.1455C59.3294 13.6989 58.9218 14.027 58.4439 14.2865C58.0008 14.5272 57.5193 14.6241 57.0206 14.6507C56.8889 14.6415 56.7575 14.6293 56.6249 14.6229C55.0272 14.5477 54.0674 13.639 53.6528 12.2319C53.3555 11.2242 53.3735 10.1948 53.672 9.18979C54.01 8.05221 54.7195 7.24829 55.8959 6.91829C56.1015 6.86054 56.3105 6.81563 56.5186 6.76491C56.7169 6.76368 56.9176 6.74535 57.1144 6.76429C58.1176 6.86207 59.128 6.95924 59.5112 8.13807C59.5552 8.27221 59.6515 8.2496 59.7456 8.25479C59.9271 8.26457 59.9066 8.13196 59.9069 8.01921C59.9078 7.35646 59.909 6.69371 59.9054 6.03096C59.9048 5.92677 59.9488 5.78071 59.759 5.78254C59.6484 5.78346 59.5369 5.75474 59.4981 5.92554C59.4101 6.31024 59.1155 6.3301 58.7965 6.28732C58.0751 6.19168 57.3573 6.05357 56.6237 6.08596C54.7882 6.03432 53.2702 6.68363 52.3679 8.31529C51.4409 9.99096 51.4638 11.751 52.5375 13.3649C53.5908 14.9486 55.1595 15.5212 57.0307 15.2966C57.6268 15.248 58.1995 15.0833 58.765 14.907C59.1024 14.8019 59.3523 14.8038 59.4742 15.1827C59.5308 15.359 59.6637 15.3434 59.7926 15.3238C59.9695 15.2966 59.9032 15.1457 59.9041 15.0461Z" fill="white"/>
</g>
<defs>
<clipPath id="clip0_2425_44599">
<rect width="102.972" height="22" fill="white"/>
</clipPath>
</defs>
</svg>
