<svg xmlns="http://www.w3.org/2000/svg" width="112" height="20" fill="none">
  <path fill="#F4F4F4" d="M17.31 15.122a.771.771 0 0 1-.036.028l-.037.026a2.705 2.705 0 0 1-.071.047l-.009.006-.06.037c-.031.018-.06.036-.092.052-.21.116-.429.21-.654.293a8.501 8.501 0 0 1-.643.206c-.31.087-.625.159-.941.222-.309.062-.617.114-.928.16a22.646 22.646 0 0 1-1.24.145c-.206.019-.411.035-.617.049l-.308.02c-.23.013-.46.022-.69.03l-.127.004-.115.004c.095-.117.19-.233.275-.356l.037-.046c.194-.262.381-.53.56-.802.018 0 .035-.002.053-.003.114-.006.226-.013.34-.022l.258-.018a23.132 23.132 0 0 0 2.309-.294 12.769 12.769 0 0 0 1.448-.353c.044-.013.086-.027.128-.042.064.011.124.038.184.061l.16.061c.15.06.297.126.44.2a2.481 2.481 0 0 1 .376.239c.02.015.025.021.018.03a.097.097 0 0 1-.019.016h.001Z"/>
  <path fill="#B0B0B0" d="M16.15 14.515a7.846 7.846 0 0 1-.386.118c-.391.113-.79.202-1.19.277a23.016 23.016 0 0 1-2.309.294l-.258.018c-.113.008-.226.016-.34.022l-.054.003a17.981 17.981 0 0 0 .836-1.42c.29.025.578.054.867.09.022.002.042.007.064.01.13.01.257.03.384.048a19.038 19.038 0 0 1 1.153.204l.355.078c.018.01.039.014.06.016.252.065.504.133.752.215.023.008.049.01.066.03v-.003Z"/>
  <path fill="#5A5A5A" d="M4.483 18.655a.024.024 0 0 1-.02-.009H4.474l.003.003h.001l.004.004v.002ZM4.463 18.646c-.007 0-.015 0-.02-.008h.006s.01.003.013.008h.001ZM4.443 18.637l-.001-.002.001.002ZM4.443 18.637c-.01 0-.017 0-.021-.01.009 0 .015 0 .02.008v.002ZM4.424 18.627h-.002v-.001l.002.001Z"/>
  <path fill="#5A5A5A" d="m4.424 18.627-.002-.001h.002v.001Z"/>
  <path fill="#5A5A5A" d="M4.423 18.626c-.009 0-.017.002-.02-.009.01-.002.017 0 .021.009ZM4.344 18.576a.345.345 0 0 0 .018.01l.014.006a.06.06 0 0 1 .021.016l.005.009a.122.122 0 0 1-.07-.03l.013-.011h-.001Z"/>
  <path fill="#F4F4F4" d="M6.177 17.715c-.022.003-.045.008-.066.01a2.277 2.277 0 0 1-.258.02h-.086c-.03 0-.058 0-.087-.002-.013 0-.025-.002-.037-.003l-.037-.004a.065.065 0 0 1-.04-.019 2.648 2.648 0 0 1-.1-.095c.238.034.474.065.711.093Z"/>
  <path fill="#F4F4F4" d="M9.9 13.718c-.17 0-.34.002-.51.006a13.343 13.343 0 0 1-1.137 1.518c-.183.208-.373.41-.574.601a7.658 7.658 0 0 1-.546.48c-.148.119-.3.232-.459.336-.292.193-.597.36-.926.481-.167.06-.338.11-.513.14a.212.212 0 0 0-.028.009.02.02 0 0 0 .002.009c0 .002 0 .003.003.005.013.02.024.038.038.056l.08.11c.043.053.089.104.136.154.236.035.473.066.71.094a2.29 2.29 0 0 0 .189-.037 3.267 3.267 0 0 0 .626-.218c.068-.03.134-.064.2-.098l.084-.046a5.54 5.54 0 0 0 .566-.36c.181-.13.355-.27.523-.418l.072-.064a8.432 8.432 0 0 0 .37-.354l.12-.123a11.595 11.595 0 0 0 .596-.677l.026-.031.144-.184a13.63 13.63 0 0 0 .656-.926l.12-.19.16-.26a32.778 32.778 0 0 0-.728-.01v-.003Z"/>
  <path fill="#A3A3A3" d="M8.457 13.754a21.22 21.22 0 0 0-.364.02 12.894 12.894 0 0 1-.853 1.078 16.57 16.57 0 0 1-.262.286 7.993 7.993 0 0 1-1.17 1.018 5.317 5.317 0 0 1-.514.316c-.128.07-.26.132-.395.188 0 .007 0 .013.002.02.018.052.04.103.06.153.023.05.045.1.07.15.047.098.1.194.16.287.004.008.01.012.016.018l.028-.009c.176-.03.347-.08.513-.14.33-.12.635-.288.926-.481.159-.105.31-.217.459-.336.189-.15.37-.311.546-.48a9.688 9.688 0 0 0 .788-.852c.334-.403.64-.828.923-1.267-.31.005-.622.015-.933.03v.001Z"/>
  <path fill="#F4F4F4" d="m5.702 14.967.037.006c-.239.23-.488.447-.756.644-.097.072-.194.145-.3.206a6.937 6.937 0 0 1-.085-1.077l.2.046a15.16 15.16 0 0 0 .904.176v-.001Z"/>
  <path fill="#898C8D" d="M6.794 13.885a2.209 2.209 0 0 1-.085.01 10.877 10.877 0 0 1-.97 1.079c.01 0 .02.003.028.005l-.029-.004c-.239.23-.489.446-.756.644-.097.071-.194.144-.3.205 0 .012.002.023.004.035v.01l.007.038.006.032.015.08c.03.15.066.299.112.446.02.066.037.133.07.194.134-.056.267-.118.395-.188.178-.096.348-.202.513-.317a7.861 7.861 0 0 0 1.17-1.018 11.122 11.122 0 0 0 .7-.808c.144-.18.282-.367.415-.556-.433.027-.866.063-1.297.111l.002.002Z"/>
  <path fill="#F4F4F4" d="m5.767 14.978-.029-.005.028.005h.001Z"/>
  <path fill="#898C8D" d="m5.74 14.973-.038-.007.037.007Z"/>
  <path fill="#B0B0B0" d="M6.523 13.92c.062-.013.124-.02.186-.026-.281.357-.582.698-.907 1.019l-.063.06-.037-.006a16.697 16.697 0 0 1-.903-.176l-.2-.047a10.009 10.009 0 0 1 .012-.496c.226-.054.453-.1.682-.144.39-.074.782-.134 1.175-.183l.018-.002c.008 0 .015-.002.022-.001.004 0 .009 0 .013.002h.002Z"/>
  <path fill="#F4F4F4" d="M18.901 14.204v-.94a.788.788 0 0 0-.096-.248 1.24 1.24 0 0 0-.287-.324 3.004 3.004 0 0 0-.381-.258 7.438 7.438 0 0 0-.57-.278c-.034-.016-.069-.023-.104-.037-.435-.17-.884-.3-1.338-.409-.29-.07-.583-.131-.877-.187-.33-.061-.662-.115-.994-.16-.229-.032-.458-.06-.688-.086-.102-.01-.204-.023-.308-.033a33.47 33.47 0 0 0-1.382-.107l-.437-.022c-.229-.01-.458-.018-.687-.024h-.05c-.361-.008-.724-.01-1.086-.008H9.6c-.373.003-.745.011-1.118.027-.023 0-.044.002-.066.003-.44.019-.88.047-1.32.084a26.884 26.884 0 0 0-1.974.236c-.025.087-.046.175-.078.26l-.065.26c-.059.23-.112.463-.159.696l.098-.017.128-.021a24.537 24.537 0 0 1 1.571-.205 34.415 34.415 0 0 1 1.165-.094c.22-.013.44-.025.66-.034l.17-.007.253-.01.162-.003c.2-.005.397-.008.596-.01l.223-.001a44.41 44.41 0 0 1 .523.002l.15.002c.135.002.27.006.406.01l.406.014c.023 0 .044.002.067.003.146.007.29.013.436.022l.334.02a25.575 25.575 0 0 1 .98.08l.33.034c.178.017.354.039.53.061.177.023.353.05.529.075l.219.034a19.265 19.265 0 0 1 1.42.285c.191.047.384.097.573.154a8.707 8.707 0 0 1 .931.331c.093.04.184.084.274.128l.066.034.052.026c.023.01.046.023.069.036a.955.955 0 0 1 .083.05c.103.07.207.136.301.217.022.018.044.038.064.057a.99.99 0 0 1 .246.307l.027.06.023.063.014.046v.002-.002c.012-.063.004-.127.005-.191l-.002-.003Z"/>
  <path fill="#B0B0B0" d="M18.904 13.14v-.71c0-.11 0-.22-.002-.329-.018-.062-.031-.125-.06-.184a1.153 1.153 0 0 0-.303-.373 2.539 2.539 0 0 0-.44-.299 5.287 5.287 0 0 0-.705-.321 9.89 9.89 0 0 0-.856-.275 15.349 15.349 0 0 0-1.434-.32 22.182 22.182 0 0 0-.802-.127c-.127-.018-.254-.035-.381-.05-.285-.037-.57-.068-.856-.093-.053-.005-.105-.013-.159-.017l-.647-.048-.092-.006a19.223 19.223 0 0 0-.995-.051h-.005c-.196-.007-.392-.014-.588-.018-.172-.003-.345-.004-.518-.005h-.228c-.303 0-.605.004-.908.013h-.013c-.355.011-.71.025-1.064.048-.272.017-.545.033-.818.055-.11.01-.22.023-.33.034a27.308 27.308 0 0 0-1.16.139c-.153.394-.29.795-.411 1.202l-.009.03.046-.007c.64-.101 1.282-.175 1.929-.23.44-.036.88-.063 1.319-.083l.066-.003c.373-.015.745-.024 1.118-.027h.017a36.381 36.381 0 0 1 2.26.054 33.064 33.064 0 0 1 1.69.14c.23.026.459.054.688.086.332.046.664.099.994.16.294.056.586.116.877.187.454.111.903.24 1.338.409.035.013.07.021.104.037.193.087.385.173.57.278.134.075.258.164.38.258.117.09.21.201.288.324a.772.772 0 0 1 .096.248c.008-.04.003-.082.003-.123l.001-.003Z"/>
  <path fill="#F4F4F4" d="M12.184 4.18c.158.246.272.512.359.79a4.695 4.695 0 0 1 .178.834c.01.087.02.175.028.263.003.043.008.088.01.131.016.239.023.478.016.717a10.171 10.171 0 0 1-.148 1.49c-.025.148-.052.295-.081.442a25.969 25.969 0 0 0-1.052-.064c.077-.332.142-.666.193-1.003a10.3 10.3 0 0 0 .11-1.124c.013-.32.012-.64-.014-.96a5.898 5.898 0 0 0-.115-.793 3.88 3.88 0 0 0-.286-.853 3.65 3.65 0 0 0-.173-.314c.05-.016.102-.017.152-.023a1 1 0 0 1 .08-.006l.069-.003h.11c.027 0 .053.002.079.003l.06.003a.03.03 0 0 1 .01.001c.006.001.011.003.017.006l.016.008a2.185 2.185 0 0 1 .383.453v.001Z"/>
  <path fill="#A3A3A3" d="M11.665 4.903c.058.262.094.526.116.793.026.32.028.64.015.961a9.984 9.984 0 0 1-.111 1.124c-.051.338-.116.671-.193 1.003-.087-.005-.173-.01-.26-.012a35.997 35.997 0 0 0-.593-.017c-.074 0-.147-.003-.22-.004a13.204 13.204 0 0 0 .353-1.862 9.792 9.792 0 0 0 .058-.914 7.25 7.25 0 0 0-.06-1.048 5.165 5.165 0 0 0-.103-.561 3.648 3.648 0 0 0-.131-.439c.038-.024.081-.036.123-.05a3.193 3.193 0 0 1 .52-.142l.018-.003h.011c.061.104.122.207.173.315.13.272.221.558.285.852v.004Z"/>
  <path fill="#4E4E4E" d="m18.9 15.522.002-.045v-.734l-.002-.317c0-.006.003-.013.002-.02l-.005-.01-.014-.046a.613.613 0 0 0-.023-.063l-.027-.06a.91.91 0 0 0-.246-.307.816.816 0 0 0-.064-.057c-.094-.08-.199-.147-.3-.217a.8.8 0 0 0-.084-.05l-.069-.036-.052-.026-.066-.034a6.305 6.305 0 0 0-.457-.204 8.344 8.344 0 0 0-.748-.255 13.242 13.242 0 0 0-.955-.242 21.494 21.494 0 0 0-1.038-.197 14.215 14.215 0 0 0-.22-.034c-.176-.026-.351-.052-.527-.075a14.412 14.412 0 0 0-.53-.062l-.332-.032-.016-.001a32.678 32.678 0 0 0-1.297-.1l-.436-.022c-.023 0-.045-.002-.067-.003a25.046 25.046 0 0 0-.813-.024l-.15-.002-.139-.001-.383-.001H9.62a26.84 26.84 0 0 0-.595.01l-.163.005a19.43 19.43 0 0 0-.422.016c-.22.01-.44.02-.66.034a30.621 30.621 0 0 0-1.856.171c-.23.03-.46.061-.69.097l-.19.03a5.192 5.192 0 0 0-.128.022l-.098.016c.047-.233.1-.464.159-.695l.065-.26c.032-.085.053-.173.078-.26l.009-.03A16.162 16.162 0 0 1 6.94 7.403c.298-.472.623-.925.978-1.356l.02-.028c.106-.123.211-.247.32-.366a8.349 8.349 0 0 1 1.164-1.078c.104-.079.213-.154.319-.23.01-.006.022-.007.034-.008.005-.016.02-.022.031-.03.22-.14.447-.266.687-.366l.026-.01a.033.033 0 0 0 .008-.003h.009c.038-.024.081-.035.123-.05a3.193 3.193 0 0 1 .52-.142l.018-.003.011.001c.05-.016.102-.017.152-.023a.996.996 0 0 1 .08-.006l.069-.004h.11c.027 0 .053.003.079.004l.06.003a.082.082 0 0 1 .027.007l.016.008c.008.004.015.011.022.018a2.185 2.185 0 0 1 .361.435c.158.246.272.513.359.792a4.693 4.693 0 0 1 .16.702l.018.13c.01.087.02.175.028.263.003.044.008.088.01.132.016.239.023.478.016.716a10.171 10.171 0 0 1-.148 1.492c-.025.147-.052.294-.081.44l.115.01c.275.022.55.049.823.075l-.007-.007.683.083a.029.029 0 0 1-.006.007l.042.005a14.22 14.22 0 0 0 .2-1.29c.021-.191.038-.383.047-.576l.015-.278c0-.012-.005-.028.013-.033V6.32c-.01-.004-.01-.012-.011-.02-.003-.036-.007-.07-.008-.105-.007-.251-.03-.5-.064-.748a5.735 5.735 0 0 0-.168-.813c-.019-.066-.035-.134-.065-.197l-.006-.023-.002-.003v-.003l-.006-.023a3.438 3.438 0 0 0-.453-.895 2.281 2.281 0 0 0-.704-.65c-.107-.063-.222-.106-.332-.161-.01-.005-.022-.005-.033-.007-.01-.013-.025-.016-.038-.022l-.773-.342c-.034-.014-.063-.037-.101-.041l-.019-.007c-.043-.014-.089-.023-.131-.044l-.011-.004a.008.008 0 0 1-.006-.003s-.008.001-.011-.003a2.473 2.473 0 0 0-.433-.067l-.06-.002a2.529 2.529 0 0 0-.423.024c-.14.02-.278.048-.415.086-.02.006-.039.011-.058.018a4.27 4.27 0 0 0-.741.302 6.111 6.111 0 0 0-.444.254c-.023.014-.046.03-.069.043l-.067.045c-.046.03-.09.06-.134.093l-.066.048v.004l-.002.004-.008.002v.003s0 .003-.002.004h-.006a5.358 5.358 0 0 0-.284.213l-.121.1a5.749 5.749 0 0 0-.141.123v.003l-.004.007h-.006l-.005.006-.006.007a.04.04 0 0 1-.012.005c0 .005-.001.008-.003.01-.004.002-.01 0-.014 0l-.047.049-.003.003v.002l-.003.006s-.003.002-.006 0l-.042.034a19.235 19.235 0 0 0-.212.2c-.04.038-.082.074-.12.113l-.062.063a11.228 11.228 0 0 0-.774.859l-.058.072a.048.048 0 0 0-.01.012l-.011.017-.015.023c-.005.005-.008.01-.012.016-.001.001-.002.003-.005.004l-.02.019-.001.003-.001.003-.003.003-.004.002c-.003.016-.016.024-.027.034l-.002.003-.009.01-.002.005-.002.006v.004c0 .003-.001.004-.004.006h-.003l-.002.002-.076.095a.02.02 0 0 1-.004.005v.011c0 .002-.001.004-.004.007v.002l-.007.005-.01.005-.012.013-.004.004-.01.01-.194.261c0 .003-.001.005-.004.007l-.005.003-.135.19-.026.037c-.066.097-.127.196-.194.292l-.097.146a2.604 2.604 0 0 1-.099.144c-.055.076-.103.159-.152.24-.02.035-.042.07-.063.104-.234.39-.462.785-.657 1.196a.523.523 0 0 1-.038.069c-.013.022-.027.044-.038.068-.066.134-.131.267-.193.402l-.07.15-.089.2-.11.254-.046.107c-.02.045-.038.09-.056.135-.066.158-.129.318-.19.479l-.053.14c-.042.115-.082.23-.122.344l-.03.082-.021.065c-.019.054-.037.11-.054.163l-.061.201-.046.144c-.035.106-.076.213-.09.326 0 .005-.007.01-.01.016-.017.046-.027.094-.039.143-.005.023-.013.046-.02.069l-.02.068a14.79 14.79 0 0 0-.258 1.137l-.038.212-.03.187-.036.237c-.01.072-.02.143-.028.214-.024.196-.044.392-.059.59l-.01.17-.01.169-.01.339v.101c0 .144.005.289.01.432v.02c0 .025.002.05.004.077.005.104.014.208.025.311.008.07.015.141.025.212l.004.03c.02.143.042.285.07.427a4.917 4.917 0 0 0 .221.788c.07.187.153.369.254.541a2.53 2.53 0 0 0 .723.806c.031.022.064.04.096.06l.019.01.014.006c.007.005.015.009.02.016.003.003.004.006.006.01.009-.003.016 0 .02.008.01 0 .016.002.02.01h.005s.01.003.014.008h.01l.004.002.004.005c.01.012.026.015.04.02l.856.38c.141.062.281.128.431.169.149.041.3.068.456.075h.309c.074-.002.148-.012.222-.023.3-.045.589-.134.867-.253.51-.22.97-.518 1.402-.864.094-.076.188-.155.279-.234a35.393 35.393 0 0 0 1.877-.016.05.05 0 0 1 .047-.002h.014a.078.078 0 0 1 .057-.003h.014a.047.047 0 0 1 .034-.005h.002l.01.003h.015a.045.045 0 0 1 .022-.006c.008 0 .017 0 .024.004h.014a.043.043 0 0 1 .016-.005c.01-.003.02 0 .031.003h.015a.056.056 0 0 1 .046-.002h.013c.015-.01.031-.009.047-.004h.013c.015-.01.031-.008.048-.002h.013l.008-.004c.006-.002.01-.002.015-.002.005 0 .01 0 .014.003.07-.003.14-.005.209-.01a31.383 31.383 0 0 0 1.598-.132c.806-.09 1.609-.211 2.4-.391.54-.123 1.072-.27 1.587-.478a4.26 4.26 0 0 0 .792-.406c.15-.101.288-.214.398-.359a.753.753 0 0 0 .15-.306.05.05 0 0 0 .012-.031 1.442 1.442 0 0 0 0-.248l-.002-.001Zm-10.461.95-.072.064a6.904 6.904 0 0 1-.523.42 5.664 5.664 0 0 1-.65.405 3.395 3.395 0 0 1-.404.183 3.353 3.353 0 0 1-.422.133 2.332 2.332 0 0 1-.189.037l-.066.01a2.3 2.3 0 0 1-.258.02H5.77l-.087-.002c-.013 0-.025-.003-.037-.004-.012 0-.025-.003-.037-.004a.066.066 0 0 1-.04-.018 2.018 2.018 0 0 1-.353-.416l-.002-.006a.02.02 0 0 0-.003-.008c-.005-.006-.012-.01-.016-.017a3.59 3.59 0 0 1-.229-.438 2.986 2.986 0 0 1-.06-.154c-.003-.006-.003-.012-.003-.02-.033-.061-.05-.128-.07-.193a4.551 4.551 0 0 1-.111-.447l-.016-.079-.005-.032-.008-.039v-.01l-.003-.034c-.02-.085-.028-.17-.038-.255a6.942 6.942 0 0 1-.047-.822 9.985 9.985 0 0 1 .012-.497 18.706 18.706 0 0 1 1.857-.327l.019-.002c.007 0 .014-.002.022 0l.013.001c.061-.013.123-.02.185-.026l.085-.008a26.045 26.045 0 0 1 1.663-.13 29.647 29.647 0 0 1 2.171-.028 12.562 12.562 0 0 1-.28.45 13.673 13.673 0 0 1-.8 1.11l-.026.032a10.67 10.67 0 0 1-1.086 1.153v-.002Zm8.89-1.366-.019.016a.702.702 0 0 1-.036.027c-.012.01-.025.018-.037.027a2.705 2.705 0 0 1-.071.047l-.009.006-.06.037a4.648 4.648 0 0 1-.745.345 8.487 8.487 0 0 1-.644.206c-.31.087-.625.159-.941.222-.309.062-.617.114-.928.16a22.641 22.641 0 0 1-1.24.145c-.206.019-.411.035-.617.049l-.308.02c-.23.012-.46.022-.69.03l-.127.004-.115.004c.095-.117.19-.233.275-.356l.037-.046c.184-.249.362-.502.532-.76l.07-.109a17.22 17.22 0 0 0 .793-1.354c.29.025.578.054.867.09.022.002.042.006.064.01.13.01.257.029.384.047a19.029 19.029 0 0 1 1.153.205l.355.078h.007c.008 0 .017 0 .024.002.011 0 .02.003.028.013.254.065.505.132.753.215.023.008.049.01.066.03.064.01.124.037.184.06l.16.061c.15.06.297.126.44.2a2.479 2.479 0 0 1 .376.239c.02.015.025.021.018.03Z"/>
  <path fill="#898C8D" d="M18.905 10.986a.674.674 0 0 0-.138-.367 1.607 1.607 0 0 0-.413-.386 4.464 4.464 0 0 0-.858-.437 7.787 7.787 0 0 0-.505-.182c-.26-.083-.523-.155-.787-.22a19.518 19.518 0 0 0-1.613-.316H14.562l-.023-.002a442.522 442.522 0 0 0-.235-.04c-.036-.004-.07-.01-.106-.015l-.042-.005-.424-.052c-.041-.006-.083-.009-.124-.013-.041-.005-.082-.009-.123-.018-.274-.025-.548-.053-.823-.076a25.962 25.962 0 0 0-.825-.055c-.114-.005-.228-.01-.342-.017-.087-.005-.173-.01-.26-.012a35.985 35.985 0 0 0-.593-.017c-.073 0-.147-.003-.22-.004 0 0 .136-.545.19-.821a13.265 13.265 0 0 0 .163-1.041 9.94 9.94 0 0 0 .059-.914 7.21 7.21 0 0 0-.06-1.048 5.14 5.14 0 0 0-.103-.561 3.63 3.63 0 0 0-.132-.439h-.008c-.004 0-.006 0-.01.002l-.025.011c-.24.101-.467.226-.687.365-.011.008-.026.014-.031.03.052.333.077.666.08 1.003a9.9 9.9 0 0 1-.096 1.434c-.05.359-.115.715-.196 1.067-.07.306-.15.609-.239.91-.216.002-.43.009-.647.016-.287.01-.573.023-.86.041-.253.017-.506.033-.758.055-.328.028-.656.06-.982.1a17.053 17.053 0 0 0-.535 1.235 26.883 26.883 0 0 1 1.16-.139c.11-.01.22-.024.33-.033.272-.023.546-.038.819-.056.354-.022.709-.037 1.064-.047h.013c.303-.01.605-.013.908-.013h.228c.172 0 .345.002.518.005.195.003.392.01.587.017h.006c.188.007.374.013.562.023.145.007.29.018.432.028l.093.007c.216.015.432.031.647.048.053.004.105.012.159.016a22.754 22.754 0 0 1 1.236.143 22.349 22.349 0 0 1 1.57.282c.223.05.445.106.667.166.29.078.574.17.855.274.243.09.478.197.705.322.156.086.305.182.44.299.124.106.231.224.303.372.028.059.041.123.06.185 0-.123.003-.246.003-.368v-.548c0-.066.002-.132 0-.198l-.005.004Z"/>
  <path fill="#5A5A5A" d="M11.69 2.267c-.044-.014-.09-.024-.132-.045v-.017a.594.594 0 0 1 .15.068l-.019-.006ZM11.537 2.214l.005.003s-.009.001-.012-.003h.007ZM6.222 5.538l-.003.007h-.002l-.004.003v-.002s.002-.006.004-.007l.004-.001h.001ZM6.457 5.238l-.006.005c-.003.003-.007.004-.01.005v-.01l.004-.008.007-.006.008-.005v.011c0 .003 0 .005-.003.007v.002-.001ZM7.942 3.608l.01-.01V3.6l-.002.006s-.004.003-.007.002h-.001ZM8.009 3.54l.01-.004c0 .006 0 .008-.002.01-.004.002-.01 0-.015.001a.025.025 0 0 1 .008-.008h-.001ZM8.052 3.512l-.003.007H8.04a.082.082 0 0 0 .01-.012v.003l.001.002ZM8.619 3.063l-.002.004-.009.002.011-.01v.004Z"/>
  <path fill="#5A5A5A" d="M8.61 3.068v.002l-.003.005H8.6c.003-.002.007-.003.01-.006Z"/>
  <path fill="#F4F4F4" d="M11.556 2.202c-.283-.126-.566-.251-.848-.378-.011-.006-.023 0-.033-.008-.01.002-.02.004-.024-.009-.012.006-.023 0-.034-.003a2.18 2.18 0 0 0-.758-.084 3.175 3.175 0 0 0-.986.224c-.1.038-.197.08-.294.126l-.072.035-.083.042a6.096 6.096 0 0 0-.671.407l-.113.08-.022.016a8.909 8.909 0 0 0-.883.743 12.765 12.765 0 0 0-1.496 1.73l-.035.05s0 .004-.002.005a.008.008 0 0 1-.006.002l-.12.173c-.068.096-.134.192-.199.29-.062.092-.123.187-.184.28a25.444 25.444 0 0 0-.263.427 15.425 15.425 0 0 0-.268.467l-.006.01-.076.139a20.168 20.168 0 0 0-.389.748 19.183 19.183 0 0 0-1.142 2.929c-.027.092-.055.184-.08.277a15.319 15.319 0 0 0-.21.84c-.025.113-.048.227-.07.341-.006.027-.012.054-.016.082l-.007.032a.039.039 0 0 1-.002.012l-.013.065a12.796 12.796 0 0 0-.15 1.056l-.012.116v.009l-.006.071a13.056 13.056 0 0 0-.034.581v.038a8.506 8.506 0 0 0 .03 1.086 6.572 6.572 0 0 0 .117.777c.06.283.142.561.254.83l.024.056a4.702 4.702 0 0 0 .086.185c.035.07.072.14.113.207a2.663 2.663 0 0 0 .516.63c.08.07.167.134.258.192.017.01.037.017.05.034l.004.007c.009-.002.015 0 .018.009.035.009.064.033.096.047l.52.231.298.13.013-.01a2.852 2.852 0 0 1-.097-.06 2.529 2.529 0 0 1-.722-.806 3.552 3.552 0 0 1-.254-.54l-.005-.014a4.914 4.914 0 0 1-.217-.775 6.973 6.973 0 0 1-.069-.427l-.004-.03a7.029 7.029 0 0 1-.05-.524l-.005-.077v-.02c-.005-.144-.01-.287-.01-.432v-.101l.011-.339.01-.169c.002-.056.006-.113.01-.17.015-.196.035-.393.059-.59.008-.07.018-.141.028-.213.01-.08.023-.159.036-.238l.03-.187.038-.211c.016-.09.035-.178.052-.268.02-.1.043-.203.065-.304l.064-.269c.024-.099.05-.197.076-.296a1.63 1.63 0 0 1 .021-.069l.02-.068c.012-.048.021-.097.039-.144.004-.005.01-.01.01-.016.015-.113.055-.218.09-.326l.045-.143.062-.2.053-.165.022-.064.03-.082c.04-.114.08-.23.122-.344l.053-.14a18.28 18.28 0 0 1 .291-.722l.111-.254a15.827 15.827 0 0 1 .352-.751l.038-.069c.013-.023.026-.044.038-.068.194-.412.422-.806.657-1.196.02-.035.042-.07.063-.104.049-.082.096-.164.152-.24.035-.047.066-.096.099-.145.031-.048.063-.097.096-.145.067-.097.129-.196.195-.292l.026-.038.135-.19v-.001s.002-.006.004-.007l.003-.001.195-.26c.003-.005.006-.008.01-.011 0-.002.003-.004.004-.005l.012-.013v-.01l.004-.007.007-.007.008-.004a.024.024 0 0 0 .005-.006l.076-.094c.003-.003.005-.008.008-.01l.002-.007c0-.003.003-.004.003-.006a.07.07 0 0 1 .008-.01l.002-.002c.011-.01.025-.018.028-.034V5.04c0-.003.002-.005.004-.006l.003-.001c.008-.006.014-.012.02-.019.002 0 .003-.003.005-.004a.275.275 0 0 0 .027-.04c.005-.005.008-.011.012-.017l.009-.012.059-.071a12.131 12.131 0 0 1 .774-.86l.062-.062c.039-.04.08-.075.12-.112l.047-.045.01-.01.15-.143.004-.003c.013-.012.028-.023.042-.034l.01-.008.003-.004L8 3.542a.025.025 0 0 1 .008-.008c.003-.002.006-.002.01-.003a.017.017 0 0 0 .012-.006l.007-.006a.023.023 0 0 0 .004-.007 5.72 5.72 0 0 1 .131-.117l.02-.016a5.357 5.357 0 0 1 .405-.313l.009-.005.01-.011c.022-.017.043-.033.066-.048l.134-.093a7.054 7.054 0 0 1 .135-.088 5.956 5.956 0 0 1 .445-.255c.237-.122.483-.225.74-.301.02-.006.04-.011.059-.018.137-.038.274-.067.415-.087a2.529 2.529 0 0 1 .422-.024l.06.003a2.206 2.206 0 0 1 .432.067h.008c.002 0 .003.002.005.003l.005.002.011.005.001-.018a.016.016 0 0 0-.004-.003l.007.007Z"/>
  <path fill="#B0B0B0" d="M10.651 1.809c-.004-.018-.02-.02-.034-.025-.243-.109-.487-.216-.732-.324-.065-.028-.128-.062-.195-.085-.008.005-.015.005-.024.001a2.036 2.036 0 0 0-.517-.093c-.16-.01-.321 0-.481.022-.131.018-.26.045-.389.08a3.843 3.843 0 0 0-.718.27c-.089.044-.174.094-.261.14-.03.016-.06.03-.088.046a6.92 6.92 0 0 0-.723.489c-.058.044-.118.088-.171.137-.035.031-.068.063-.106.09a.414.414 0 0 1-.023.015l-.019.016a.041.041 0 0 1-.01.02l-.008.004H6.14l-.004.002c-.02.015-.032.04-.05.054l-.008.005c-.048.025-.077.07-.12.101-.04.03-.074.07-.112.104-.187.172-.364.354-.539.539-.053.056-.102.117-.153.176-.03.034-.063.063-.092.097-.08.09-.157.183-.235.275a3.44 3.44 0 0 0-.165.211c-.041.058-.09.109-.134.165-.133.17-.26.347-.385.522-.125.174-.239.353-.357.532-.107.16-.205.324-.306.487-.036.06-.07.124-.107.184-.065.104-.125.21-.181.319-.036.042-.057.093-.084.141-.057.099-.11.2-.159.303-.015.033-.038.062-.054.095-.046.092-.091.184-.138.275-.118.23-.222.466-.33.7-.117.255-.22.514-.324.775-.07.176-.14.353-.195.534-.009.03-.026.057-.037.086-.053.157-.107.313-.159.47a18.524 18.524 0 0 0-.452 1.685l-.044.222c-.049.251-.092.504-.128.757-.034.241-.06.483-.082.726L1 13.22a9.745 9.745 0 0 0-.032.858c0 .073.007.145.006.218 0 .112.009.223.015.334l.009.122.002.022c.013.106.022.214.037.32.014.103.028.207.048.31.027.142.053.286.098.425.014.043.021.088.033.133a4.433 4.433 0 0 0 .262.686c.095.2.214.387.353.56.131.164.281.308.454.43l.022.014c.011.009.024.016.038.024a1.578 1.578 0 0 1 .092.06l.02.016.003.003c.004.005.012.006.018.009l.892.394c.012.005.022.013.038.01-.001-.004-.004-.006-.005-.008-.013-.016-.032-.023-.05-.034a2.138 2.138 0 0 1-.382-.31 2.663 2.663 0 0 1-.392-.512 2.975 2.975 0 0 1-.113-.207c-.022-.043-.041-.085-.062-.128l-.025-.056-.024-.056a4.726 4.726 0 0 1-.254-.83 6.572 6.572 0 0 1-.117-.776 8.506 8.506 0 0 1-.03-1.086v-.038c.004-.097.008-.195.014-.291.005-.097.013-.194.02-.29l.007-.072v-.009l.01-.116c.02-.173.04-.346.065-.52.026-.18.054-.357.087-.535l.013-.066c0-.004 0-.008.002-.011l.006-.033.016-.082a16.14 16.14 0 0 1 .278-1.175c0-.002 0-.004.002-.006.026-.092.052-.185.08-.277a19.904 19.904 0 0 1 .337-1.027 19.183 19.183 0 0 1 1.195-2.65c.024-.047.05-.092.075-.138l.007-.01c.003-.006.005-.01.004-.017l.011-.016c.027-.05.055-.097.083-.146.055-.096.111-.193.169-.289l.123-.202a25.444 25.444 0 0 1 .324-.505l.2-.29.12-.172v-.006a.008.008 0 0 1 .006-.002l.035-.049c.45-.619.943-1.202 1.496-1.73a8.906 8.906 0 0 1 .883-.744l.022-.016.113-.08a6.246 6.246 0 0 1 .671-.406l.084-.043.071-.034c.097-.046.195-.088.295-.126.318-.123.645-.207.986-.224.257-.014.51.009.758.084.01.003.021.008.033.003l-.004-.001ZM.994 14.44v.017-.017Z"/>
  <path fill="#898C8D" d="M9.637 1.352c-.22-.099-.443-.194-.664-.295a2.128 2.128 0 0 0-.79-.199h-.291a2.67 2.67 0 0 0-.414.058 4.154 4.154 0 0 0-1.137.44 6.776 6.776 0 0 0-1.018.698c-.04.033-.084.064-.12.103l-.007.006v.004h-.004l-.027.021c-.354.303-.683.632-.994.979-.37.413-.71.848-1.028 1.3a17.32 17.32 0 0 0-1.269 2.117 18.698 18.698 0 0 0-1.262 3.16c-.017.061-.039.122-.057.184-.13.46-.243.924-.331 1.394-.075.399-.136.799-.175 1.203-.03.293-.049.586-.049.88l.001.402c.002.018.002.037.003.056v.084c0 .163.014.325.03.487.026.264.066.526.123.785.073.325.173.64.316.941.154.323.347.616.609.861.152.144.32.264.509.352.168.08.339.153.508.228.116.051.231.107.35.154l-.02-.017a1.027 1.027 0 0 0-.07-.047l-.022-.014a.718.718 0 0 1-.038-.023l-.022-.015a2.214 2.214 0 0 1-.454-.43 2.858 2.858 0 0 1-.353-.559 4.773 4.773 0 0 1-.169-.398 3.293 3.293 0 0 1-.092-.288c-.012-.045-.02-.09-.034-.134-.045-.139-.07-.282-.098-.424-.02-.103-.033-.207-.048-.31-.015-.106-.023-.214-.036-.32 0-.008-.002-.014-.003-.022v.41-.41c-.004-.04-.005-.081-.008-.123-.006-.11-.015-.221-.015-.333 0-.073-.008-.146-.007-.218a9.847 9.847 0 0 1 .033-.858l.005-.068a13.591 13.591 0 0 1 .255-1.704 18.817 18.817 0 0 1 .452-1.685c.051-.157.105-.314.158-.47.01-.03.028-.057.037-.086.057-.181.126-.358.196-.534.103-.26.206-.52.324-.774.107-.235.211-.472.33-.7.046-.092.093-.184.138-.277.016-.032.039-.06.054-.094.049-.103.102-.204.158-.303.028-.048.048-.099.084-.141.056-.109.116-.215.181-.32.038-.06.071-.123.108-.183.1-.163.199-.328.305-.488.118-.178.232-.357.357-.53.126-.177.253-.353.386-.523.043-.055.092-.107.133-.165a2.82 2.82 0 0 1 .165-.21l.235-.277c.03-.033.062-.063.092-.096.051-.059.1-.12.153-.176.175-.185.352-.367.54-.539.037-.035.07-.074.112-.104.042-.03.072-.076.12-.101.003-.002.006-.003.008-.006.019-.014.03-.039.05-.053l.003-.003a.037.037 0 0 1 .007-.016.016.016 0 0 1 .013-.007l.012.001a.28.28 0 0 0 .018-.016l.023-.015c.038-.027.072-.059.107-.09.054-.05.113-.093.17-.137.23-.18.474-.34.723-.489.029-.017.059-.03.088-.045.087-.047.173-.097.262-.14.23-.115.47-.206.718-.272.128-.034.257-.06.389-.08.16-.021.32-.03.48-.021.176.01.35.038.518.093.008.003.016.004.023 0-.014-.016-.035-.016-.053-.025h.007Z"/>
  <path fill="#898C8D" d="m6.151 2.531-.005-.003c.002 0 .004.002.005.003ZM6.12 2.512a.244.244 0 0 1 .018.01l-.018-.01Z"/>
  <path fill="url(#a)" d="M17.32 15.114c.03-.022.03-.024 0-.047a1.817 1.817 0 0 0-.209-.143 4.392 4.392 0 0 0-.766-.356c-.061-.022-.12-.05-.184-.061-.017-.02-.043-.022-.066-.03a11.14 11.14 0 0 0-.812-.23l-.355-.078c-.22-.048-.44-.09-.66-.126a25.228 25.228 0 0 0-.493-.077c-.128-.019-.256-.038-.385-.048l-.064-.01a24.771 24.771 0 0 0-1.36-.128 30.87 30.87 0 0 0-2.056-.07c-.482 0-.963.013-1.444.035-.556.028-1.11.07-1.663.132-.09.01-.18.016-.271.035-.018-.005-.036 0-.054.002-.395.049-.787.108-1.176.182-.23.044-.46.091-.688.146l-.004.007s-.059.847.072 1.675a14.642 14.642 0 0 0 1.285.246c.286.042.573.083.86.113.28.03.559.06.839.08.166.012.33.026.497.035a33.577 33.577 0 0 0 1.409.053 32.453 32.453 0 0 0 2.11-.045c.412-.023.822-.055 1.232-.098a19.964 19.964 0 0 0 1.861-.274c.538-.108 1.07-.24 1.586-.43.225-.082.444-.175.654-.293.106-.058.208-.122.305-.197Z" opacity=".48"/>
  <path fill="#9E9DA0" d="m25.179 7.491 2.715 6.934 2.696-6.934h1.67l-3.65 9.19h-1.541L23.4 7.492h1.78-.001ZM35.763 14.903c.513.33 1.137.532 1.797.532 1.853 0 3.302-1.486 3.302-3.357h1.578c0 2.678-2.164 4.788-4.916 4.788-2.752 0-4.825-2.091-4.825-4.732s2.165-4.825 4.916-4.825c1.358 0 2.899.513 3.908 1.852l-5.76 5.742Zm-.99-1.027 4.585-4.605a3.229 3.229 0 0 0-1.797-.532c-1.834 0-3.284 1.486-3.284 3.338 0 .66.184 1.284.495 1.797v.002ZM44.202 3.29h1.724v13.392h-1.724V3.29ZM47.87 12.077c0-2.715 2.092-4.77 4.86-4.77 2.77 0 4.88 2.055 4.88 4.77 0 2.715-2.092 4.788-4.88 4.788-2.787 0-4.86-2.054-4.86-4.788Zm4.86 3.247c1.835 0 3.21-1.394 3.21-3.247 0-1.852-1.375-3.247-3.21-3.247-1.833 0-3.19 1.413-3.19 3.247 0 1.835 1.375 3.247 3.19 3.247ZM63.92 16.682c-2.97 0-4.953-1.834-4.953-4.605 0-2.77 1.981-4.586 4.953-4.586h1.541v-4.2h1.725v13.39H63.92Zm0-1.541h1.541V9.014h-1.54c-1.946 0-3.23 1.23-3.23 3.063 0 1.834 1.284 3.064 3.23 3.064ZM69.717 7.491h1.725v2.66l2.843-2.843 1.083 1.083-3.926 3.907v4.384h-1.725v-9.19ZM75.477 12.077c0-2.715 2.092-4.77 4.86-4.77 2.77 0 4.88 2.055 4.88 4.77 0 2.715-2.091 4.788-4.88 4.788-2.787 0-4.86-2.054-4.86-4.788Zm4.86 3.247c1.835 0 3.211-1.394 3.211-3.247 0-1.852-1.376-3.247-3.21-3.247s-3.192 1.413-3.192 3.247c0 1.835 1.376 3.247 3.192 3.247ZM87.162 7.491h1.688v1.1c1.485-1.118 2.127-1.283 2.97-1.283 1.102 0 2.055.569 2.514 1.485C96.02 7.491 96.7 7.308 97.58 7.308c1.578 0 2.824 1.137 2.824 2.861v6.513h-1.724v-6.33c0-.843-.605-1.466-1.376-1.466-.588 0-1.028.128-2.66 1.485v6.31h-1.724v-6.328c0-.844-.605-1.467-1.376-1.467-.587 0-1.027.128-2.66 1.485v6.31h-1.724v-9.19h.001ZM105.322 14.903c.514.33 1.137.532 1.798.532 1.852 0 3.302-1.486 3.302-3.357H112c0 2.678-2.164 4.788-4.916 4.788-2.752 0-4.825-2.091-4.825-4.732s2.164-4.825 4.916-4.825c1.357 0 2.898.513 3.907 1.852l-5.76 5.742Zm-.99-1.027 4.586-4.605a3.228 3.228 0 0 0-1.797-.532c-1.834 0-3.284 1.486-3.284 3.338 0 .66.183 1.284.495 1.797v.002Z"/>
  <defs>
    <linearGradient id="a" x1="10.994" x2="10.915" y1="14.028" y2="16.079" gradientUnits="userSpaceOnUse">
      <stop offset=".16" stop-color="#191919"/>
      <stop offset=".97" stop-color="#191919" stop-opacity="0"/>
    </linearGradient>
  </defs>
</svg>