<svg xmlns="http://www.w3.org/2000/svg" width="106" height="23" fill="none">
  <g clip-path="url(#a)" opacity=".6">
    <path fill="#fff"
      d="M14.097 9.918a1.275 1.275 0 0 0-1.021.114L1.557 16.67c-.567.34-.794 1.078-.454 1.645.398.795 1.76 1.532 3.348 1.816a9.39 9.39 0 0 0 1.816.17c1.589 0 3.177-.397 4.653-1.078 1.361-.624 2.666-2.043 3.46-3.745.852-1.816 1.022-3.575.455-4.936a1.37 1.37 0 0 0-.738-.625ZM31.971 16.727l-11.518-6.695c-.34-.17-.681-.227-1.021-.114-.34.114-.625.34-.738.681-.567 1.362-.397 3.178.454 4.937.794 1.702 2.1 3.064 3.461 3.745 1.475.68 3.064 1.078 4.653 1.078a9.84 9.84 0 0 0 1.816-.17c1.645-.34 3.007-1.078 3.347-1.816.34-.624.114-1.305-.453-1.646Z" />
    <path fill="#686868" fill-rule="evenodd"
      d="M12.055.669c0-.284.227-.567.567-.567a3.56 3.56 0 0 1 3.575 3.574.569.569 0 0 1-1.135 0 2.519 2.519 0 0 0-2.497-2.496.509.509 0 0 1-.51-.511ZM20.963 1.18a2.519 2.519 0 0 0-2.496 2.496.569.569 0 0 1-1.135 0C17.389 1.69 18.977.102 20.963.102c.284 0 .568.227.568.567 0 .34-.227.51-.567.51Z"
      clip-rule="evenodd" />
    <path fill="#898C8D"
      d="M22.209 19.395H10.293l5.39 3.12a2.1 2.1 0 0 0 2.157 0l5.39-3.12H22.21ZM23.856 12.527H9.104v3.575h15.32v-3.575h-.568Z" />
    <path fill="#D4D4D4"
      d="m23.346 9.238-.114-.056H10.295l-.113.056c-.681.398-1.078 1.079-1.078 1.816v1.419h15.32v-1.419c0-.68-.454-1.418-1.078-1.816ZM23.856 16.104H9.104v1.418c0 .738.397 1.475 1.078 1.816l.113.056h12.937l.114-.056c.68-.397 1.078-1.078 1.078-1.816v-1.418h-.568Z" />
    <path fill="#686868" d="M17.84 6.06c-.681-.398-1.476-.398-2.1 0l-5.447 3.12h12.88L17.84 6.06Z" />
    <path fill="#fff"
      d="M43.833 10.031h1.305v9.476h-1.305v-4.369H39.35v4.37h-1.305V10.03h1.305v3.972h4.483v-3.972Zm9.589 5.901c0 .568-.057 1.079-.227 1.532a4.08 4.08 0 0 1-.681 1.192c-.284.34-.624.567-1.021.738-.398.17-.851.283-1.305.283-.454 0-.908-.113-1.305-.283-.398-.17-.738-.454-1.022-.738a4.085 4.085 0 0 1-.68-1.192c-.17-.453-.228-.964-.228-1.532 0-.567.057-1.078.227-1.532.17-.454.398-.85.681-1.191.284-.34.624-.568 1.022-.738.397-.17.85-.284 1.305-.284.454 0 .907.114 1.305.284.397.17.737.397 1.021.738.284.34.51.737.68 1.191.114.511.228.965.228 1.532Zm-1.305 0c0-.794-.17-1.418-.51-1.872-.341-.454-.795-.738-1.42-.738-.623 0-1.078.227-1.418.738-.34.454-.51 1.078-.51 1.872 0 .795.17 1.419.51 1.93.34.454.851.68 1.419.68.624 0 1.078-.227 1.418-.68.34-.454.51-1.135.51-1.93Zm3.007-3.347c.284-.057.681-.17 1.135-.227a13.039 13.039 0 0 1 1.589-.114c.567 0 1.021.057 1.362.227.34.17.624.397.85.681.228.284.398.624.455 1.021.113.398.113.851.113 1.306v3.971H59.38v-3.688c0-.454-.057-.794-.114-1.135a2.224 2.224 0 0 0-.283-.737c-.114-.17-.284-.34-.511-.398-.227-.113-.51-.113-.794-.113h-.398c-.113 0-.283 0-.397.057-.113 0-.227 0-.34.056-.114 0-.17.057-.227.057v6.015h-1.249v-6.98h.057Zm7.206 3.347c0-.624.114-1.191.284-1.645.17-.454.397-.851.681-1.192.284-.283.624-.567 1.021-.68.397-.17.795-.228 1.192-.228.908 0 1.645.284 2.156.908.51.568.738 1.476.738 2.724v.454h-4.71c.057.738.284 1.305.624 1.702s.908.567 1.703.567a5.22 5.22 0 0 0 1.078-.113c.283-.057.51-.17.68-.227l.17 1.078c-.17.057-.396.17-.794.284-.397.113-.794.113-1.248.113a4.414 4.414 0 0 1-1.589-.283c-.454-.17-.794-.454-1.078-.795a3.198 3.198 0 0 1-.624-1.135 4.33 4.33 0 0 1-.284-1.532Zm4.767-.68c0-.568-.114-1.022-.397-1.42-.284-.396-.681-.567-1.192-.567-.284 0-.51.057-.738.17a1.44 1.44 0 0 0-.567.455c-.17.17-.284.397-.34.624-.057.227-.114.454-.17.738h3.404Zm2.213 5.56c.113.057.227.114.397.114.17.056.34.056.454.056.51 0 .85-.113 1.135-.34.283-.227.51-.567.737-1.078-.567-1.078-1.078-2.27-1.589-3.461a47.658 47.658 0 0 1-1.191-3.745h1.305c.113.397.227.85.34 1.305.114.454.284.964.454 1.475.17.51.34 1.021.568 1.475.17.511.397.965.624 1.419.34-.965.624-1.93.851-2.837l.68-2.894h1.25c-.341 1.362-.682 2.61-1.079 3.858-.397 1.249-.794 2.384-1.248 3.462-.17.397-.34.737-.568 1.078-.17.283-.397.567-.624.737-.227.17-.51.34-.794.398-.284.113-.624.113-.965.113h-.284c-.113 0-.227 0-.34-.057-.113 0-.17-.056-.284-.056-.056 0-.113-.057-.17-.057l.34-.965Zm9.022-2.213c.51 0 .85-.056 1.134-.227.227-.113.398-.34.398-.68 0-.284-.114-.568-.34-.738-.228-.17-.625-.398-1.192-.624-.284-.114-.511-.227-.795-.34-.227-.114-.454-.228-.624-.398-.17-.17-.34-.34-.397-.568a1.812 1.812 0 0 1-.17-.794c0-.624.227-1.135.68-1.475.454-.397 1.079-.568 1.816-.568.17 0 .397 0 .568.057.17 0 .397.057.567.057.17 0 .34.057.454.113.113.057.227.057.284.114l-.227 1.078a2.457 2.457 0 0 0-.624-.227 5.092 5.092 0 0 0-1.022-.114c-.34 0-.624.057-.908.227-.227.114-.397.34-.397.681 0 .17 0 .284.057.398.057.113.17.227.284.34.113.114.283.17.454.284.17.056.397.17.624.284.34.113.624.226.85.397.285.113.455.283.625.397.17.17.34.34.397.624.114.227.17.51.17.851 0 .681-.227 1.135-.737 1.475-.454.34-1.135.511-1.986.511-.624 0-1.078-.057-1.419-.17-.34-.114-.567-.17-.68-.227l.226-1.078c.114.056.34.113.681.227.34.056.738.113 1.249.113Zm9.93.908c-.228-.68-.511-1.418-.795-2.213a35.002 35.002 0 0 1-.738-2.61c-.227.908-.454 1.816-.737 2.61-.284.851-.511 1.589-.795 2.213H84.12a40.247 40.247 0 0 1-1.191-3.234c-.398-1.192-.738-2.497-1.078-3.915h1.305c.113.454.17.907.34 1.418.114.51.227 1.022.397 1.476.114.51.284.964.454 1.418.17.454.284.851.397 1.192.17-.454.284-.851.454-1.362.17-.454.284-.965.397-1.419.114-.51.284-.964.398-1.418.113-.454.227-.908.34-1.305h1.021c.057.397.17.85.284 1.305.114.454.227.964.397 1.418.114.454.284.965.397 1.419.17.454.284.908.454 1.362.114-.34.284-.738.398-1.192.17-.454.283-.965.454-1.419.113-.51.283-1.02.397-1.475.113-.51.227-.964.34-1.418h1.248c-.34 1.418-.737 2.666-1.078 3.915a50.37 50.37 0 0 1-1.191 3.234H88.26Zm6.978-.908h.795c.227 0 .397-.056.567-.056v-2.1c-.113-.057-.227-.057-.454-.113-.17-.057-.453-.057-.737-.057-.17 0-.397 0-.624.057-.227 0-.398.113-.568.17-.17.056-.283.227-.397.34a.958.958 0 0 0-.17.568c0 .454.113.794.397.964.34.114.738.227 1.191.227Zm-.113-6.355c.51 0 .908.057 1.248.227.34.114.624.34.795.568.227.226.34.51.454.85.113.341.113.682.113 1.079v4.426c-.113 0-.227.056-.454.056-.17 0-.397.057-.624.057-.227 0-.51.057-.794.057-.284 0-.568.057-.795.057a6.28 6.28 0 0 1-1.078-.114c-.34-.057-.624-.227-.85-.397-.228-.17-.398-.397-.568-.738-.114-.283-.17-.624-.17-1.078 0-.397.056-.738.226-1.021.17-.284.398-.51.625-.681.283-.17.567-.284.907-.397.34-.057.738-.114 1.135-.114h.398c.113 0 .283 0 .397.057.113 0 .227.057.34.057.114 0 .17.056.17.056v-.34c0-.227 0-.397-.056-.624-.057-.227-.114-.397-.227-.568-.114-.17-.284-.283-.454-.397-.17-.113-.454-.17-.795-.17-.397 0-.737.057-1.078.114-.284.056-.51.113-.68.17l-.17-1.078c.17-.057.396-.114.794-.227.397.113.794.113 1.191.113Zm9.476 3.688c0-.85-.227-1.475-.624-1.929-.397-.454-.908-.68-1.589-.68-.397 0-.681 0-.851.056-.227 0-.341.057-.511.114v4.482c.17.114.341.227.624.34.284.114.568.17.908.17.341 0 .681-.056.908-.17.284-.113.454-.34.624-.567.17-.227.284-.51.341-.794.17-.284.17-.624.17-1.022Zm1.305 0c0 .511-.057 1.022-.227 1.476-.113.454-.34.85-.567 1.191-.284.34-.568.568-.965.738a3.15 3.15 0 0 1-1.305.284c-.397 0-.738-.057-1.078-.17a3.762 3.762 0 0 1-.681-.341v2.837h-1.248v-9.306c.283-.056.681-.17 1.078-.227.454-.113.964-.113 1.532-.113.51 0 1.021.113 1.418.284.397.17.795.397 1.078.737.284.34.511.738.681 1.192.227.34.284.851.284 1.418Z" />
  </g>
  <defs>
    <clipPath id="a">
      <path fill="#fff" d="M.934.102h104.972v22.697H.934z" />
    </clipPath>
  </defs>
</svg>