<svg fill="none" height="22" viewBox="0 0 66 22" width="66" xmlns="http://www.w3.org/2000/svg" xmlns:xlink="http://www.w3.org/1999/xlink"><clipPath id="a"><path d="m0 0h66v22h-66z"/></clipPath><g clip-path="url(#a)" fill="#fff" fill-opacity=".6"><path clip-rule="evenodd" d="m16.772 2.06692c1.2339-.22851 5.8487-1.083184 6.0541.37349.2108 1.49182-1.691 3.54913-3.6808 4.47373-.1049.04876-.198.1159-.2913.18315-.0775.05584-.1551.11177-.2396.15733-.3132.16908-.4999.59112-.4539.97177v5.33011c-1.569-1.095-3.8754-1.7764-6.4893-1.7764-2.61399 0-4.92028.6814-6.48927 1.7763v-5.33001c.04586-.38065-.14093-.80269-.45413-.97177-.0843-.04549-.16176-.10133-.23914-.1571-.09341-.06733-.18669-.13456-.29171-.18338-1.9898-.92461-3.891413-2.98192-3.680963-4.47373.2056-1.456825 4.821533-.60183 6.054613-.37343.09813.01818.17483.03239.22618.04115.03577.00606.0691-.02421.06197-.05943-.07106-.3524-.1223-1.305249.55808-1.511551.43497-.132002.72167.111556.89186.357231.07622.11023.30421.58673.44587.9175.07645.17864.25439.43967.44976.43495.81988-.2532 1.64348-.37983 2.46688-.37983s1.6469.12663 2.4667.37983c.1955.00472.3733-.25631.4498-.43495.1416-.33077.3697-.80727.4458-.9175.1702-.245683.4571-.489233.892-.357231.6803.206302.629 1.159151.5581 1.511551-.0073.03522.0261.0655.0618.05943.0515-.00877.1283-.02301.2266-.04121zm-6.0807 5.9011c.0227-.13495-.1958-.47712-.87848-.94158-.47908-.32208-1.00986-.56945-1.56498-.73211-.13034-.03827-.26609-.06311-.40195-.05825-.24795.00915-.48554.09316-.69383.24186-.27803.1916-.47066.44732-.52875.7782-.05952.33046.03343.63629.22859.91086.14443.21027.33877.36984.56859.46257.12598.05097.26212.07342.39788.08186.57766.03536 1.16162-.01682 1.72286-.1569.80157-.20492 1.12487-.4522 1.15007-.58651zm5.2305.66155c.2298-.09274.4242-.2523.5686-.46257.1952-.27458.2881-.58024.2286-.91072-.058-.33087-.2507-.58674-.5287-.77835-.2083-.1487-.4459-.23271-.6939-.24186-.1358-.00485-.2716.01998-.4019.05825-.5551.16266-1.0859.41003-1.565.73211-.6826.46446-.9012.80651-.8786.94146.0253.13432.3485.38172 1.1502.58664.5611.14008 1.1452.19226 1.7229.1569.1357-.00844.2718-.03089.3978-.08186z" fill-rule="evenodd"/><path clip-rule="evenodd" d="m3.94033 17.0834c0-2.4393 3.46112-4.4166 7.73087-4.4166 4.2696 0 7.7309 1.9774 7.7309 4.4166 0 2.4393-3.4612 4.4166-7.7309 4.4166-4.26975 0-7.73087-1.9773-7.73087-4.4166zm2.67603-.2749c.11816.7263.73414 1.0465 1.39571.7263.64528-.3014 1.07055-.9308 1.10684-1.6373-.00286-.3744-.20261-.2306-.44929-.0531-.32985.2374-.74359.5351-.88267-.2649-.24312-1.3983-1.30004.4509-1.17059 1.229zm8.71374.7263c.6614.3202 1.2774 0 1.3957-.7263.1293-.7781-.9274-2.6273-1.1706-1.229-.1392.8-.5529.5022-.8827.2648-.2466-.1774-.4463-.3212-.4491.0532.036.7065.4614 1.3359 1.1067 1.6373z" fill-rule="evenodd"/><path d="m27.7554 5.13344c.2499-.21439.6778-.32171 1.2841-.32171h5.2666c.6071 0 1.0992-.49511 1.0992-1.10586s-.4921-1.10587-1.0992-1.10587h-5.1767c-2.878 0-4.317 1.17625-4.317 3.52874v.08043c0 1.15285.3513 2.02241 1.0543 2.6088.7027.58655 1.7903.87969 3.2627.87969h5.1767c.6071 0 1.0992-.49511 1.0992-1.10586s-.4921-1.10587-1.0992-1.10587h-5.2666c-.5995 0-1.026-.10716-1.2791-.3217-.2533-.21439-.3798-.53608-.3798-.9651v-.08043c0-.44238.1249-.77064.3748-.98526z"/><path d="m45.1025 2.63004-1.2522 2.18182h.6287c.6061 0 1.0343.10732 1.2842.32171.2498.21463.3747.54289.3747.98526v.08043c0 .42902-.1267.75071-.3798.9651-.2533.21455-.6795.3217-1.2791.3217h-2.1634l-1.2694 2.21173h3.3429c1.4722 0 2.5598-.29314 3.2628-.87969.7028-.58639 1.0543-1.45595 1.0543-2.6088v-.08043c0-2.14813-1.2039-3.31224-3.6037-3.49883z"/><path d="m42.8646 4.81173 1.2693-2.21173h-3.2319c-2.8781 0-4.3171 1.17625-4.3171 3.52874v.08043c0 1.15285.3513 2.02241 1.0543 2.6088.5645.47114 1.3817.7496 2.4428.84227l1.2478-2.17431h-.5177c-.5996 0-1.0261-.10716-1.2792-.3217-.2533-.21439-.3797-.53608-.3797-.9651v-.08043c0-.44238.1249-.77064.3748-.98526.2498-.21439.6777-.32171 1.2841-.32171"/><path d="m64.1457 2.6c-.4196 0-.8117.20996-1.0461.56011l-1.2426 1.85653c-.4738.70786-1.4932.75277-2.0267.08928l-1.3264-1.64958c-.5048-.62778-1.4563-.62778-1.9611 0l-1.3264 1.64958c-.5335.66349-1.5529.61858-2.0267-.08928l-1.2426-1.85653c-.2344-.35015-.6265-.56011-1.0461-.56011-1.0144 0-1.6137 1.14349-1.0407 1.98549l3.1035 4.56018c.4781.70247 1.4947.74129 2.0243.07729l1.5516-1.94516c.5049-.63292 1.4624-.63292 1.9673 0l1.5516 1.94516c.5296.66399 1.5462.62517 2.0243-.07729l3.1035-4.56018c.573-.842-.0263-1.98549-1.0407-1.98549z"/><path d="m24.8124 19.4h.8396v-2.651h1.4279c1.4374 0 2.4289-.6747 2.4289-2.1485 0-1.2346-.6689-2.1581-2.2818-2.1581h-2.4146zm.8444-3.4357v-2.7372h1.4753c.9298 0 1.4991.4738 1.4991 1.3542 0 .7944-.4744 1.383-1.6319 1.383z"/><path d="m33.0288 14.5766c-.6405 0-1.186.3254-1.5371.89h-.0189v-.8326h-.7875v4.766h.7875v-2.2969c0-.957.5408-1.6556 1.4374-1.6556.0806 0 .1992.0047.313.0143v-.8757c-.0569-.0095-.1233-.0095-.1944-.0095z"/><path d="m36.1502 19.4622c1.3947 0 2.4336-.9905 2.4336-2.4356 0-1.4547-1.0389-2.45-2.4336-2.45-1.4658 0-2.4431 1.0671-2.4431 2.45 0 1.3685.9773 2.4356 2.4431 2.4356zm0-.7273c-.9772 0-1.6508-.7657-1.6508-1.7083 0-.9523.6641-1.7179 1.6508-1.7179.9156 0 1.6367.6986 1.6367 1.7179 0 1.0048-.7259 1.7083-1.6367 1.7083z"/><path d="m41.0838 19.4622c.5598 0 .8872-.1435 1.1433-.2919l-.2087-.6938c-.223.1292-.5171.244-.797.244-.4459 0-.5787-.2823-.5787-.8565v-2.541h1.5654v-.689h-1.5654v-1.7179l-.7875.0861v1.6318h-.6025v.689h.6025v2.6606c0 .9618.389 1.4834 1.2286 1.4834z"/><path d="m45.2205 19.4622c1.3947 0 2.4336-.9905 2.4336-2.4356 0-1.4547-1.0389-2.45-2.4336-2.45-1.4658 0-2.4431 1.0671-2.4431 2.45 0 1.3685.9773 2.4356 2.4431 2.4356zm0-.7273c-.9772 0-1.6509-.7657-1.6509-1.7083 0-.9523.6642-1.7179 1.6509-1.7179.9156 0 1.6366.6986 1.6366 1.7179 0 1.0048-.7258 1.7083-1.6366 1.7083z"/><path d="m50.9132 19.4622c.8491 0 1.5559-.3493 1.9544-.8087l-.5455-.4929c-.2894.3302-.7828.5695-1.3378.5695-.9488 0-1.6082-.6939-1.6082-1.7131 0-1.0097.65-1.7179 1.6082-1.7179.5645 0 1.0294.2441 1.3236.5982l.5455-.4786c-.4649-.555-1.2002-.8469-1.907-.8469-1.39 0-2.3672 1.0096-2.3672 2.4548 0 1.4451.9772 2.4356 2.3387 2.4356z"/><path d="m56.0935 19.4622c1.3947 0 2.4336-.9905 2.4336-2.4356 0-1.4547-1.0389-2.45-2.4336-2.45-1.4659 0-2.4431 1.0671-2.4431 2.45 0 1.3685.9772 2.4356 2.4431 2.4356zm0-.7273c-.9773 0-1.6509-.7657-1.6509-1.7083 0-.9523.6641-1.7179 1.6509-1.7179.9155 0 1.6366.6986 1.6366 1.7179 0 1.0048-.7258 1.7083-1.6366 1.7083z"/><path d="m59.8079 19.4h.7828v-7.2112h-.7828z"/></g></svg>