<svg xmlns="http://www.w3.org/2000/svg" width="103" height="16" fill="none">
  <g clip-path="url(#a)" opacity=".6">
    <path fill="#fff"
      d="M19.802 12.31c-.24 0-.408-.05-.507-.149-.09-.1-.136-.256-.136-.47V4.516c0-.215.05-.372.149-.471.098-.108.263-.161.494-.161h3.026c1.153 0 2.001.243 2.545.73.543.488.815 1.215.815 2.181 0 .958-.272 1.681-.815 2.168-.535.48-1.384.72-2.545.72h-1.173v2.006c0 .215-.05.372-.149.471-.098.099-.267.149-.506.149h-1.198Zm2.829-4.423c.337 0 .597-.091.778-.273.19-.182.284-.454.284-.818 0-.371-.095-.648-.284-.83-.181-.181-.44-.272-.778-.272h-.976v2.193h.976ZM29.105 12.495c-.774 0-1.395-.247-1.865-.743-.461-.504-.691-1.21-.691-2.119 0-.693.156-1.3.469-1.82.321-.521.77-.922 1.346-1.203.585-.289 1.256-.433 2.014-.433.626 0 1.177.07 1.655.21.486.133.93.327 1.334.583v4.955c0 .157-.028.26-.086.31-.058.05-.173.075-.346.075h-1.26a.477.477 0 0 1-.21-.038.373.373 0 0 1-.124-.148l-.16-.372a2.088 2.088 0 0 1-.865.558c-.33.123-.733.185-1.21.185Zm.927-1.685c.321 0 .572-.078.753-.235.182-.157.272-.38.272-.669V7.973a1.381 1.381 0 0 0-.593-.111c-.436 0-.786.153-1.05.458-.255.306-.383.735-.383 1.289 0 .8.334 1.201 1.001 1.201ZM35.086 12.31c-.239 0-.407-.05-.506-.15-.099-.098-.148-.255-.148-.47V6.747c0-.149.024-.248.074-.298.057-.057.173-.086.346-.086h1.272c.099 0 .173.016.222.05.058.024.09.074.1.148l.06.372a2.38 2.38 0 0 1 .903-.546c.379-.14.799-.21 1.26-.21.667 0 1.206.19 1.618.57.412.371.618.925.618 1.66v3.283c0 .215-.05.372-.149.47-.09.1-.255.15-.494.15h-1.198c-.239 0-.412-.05-.519-.15-.099-.098-.148-.255-.148-.47V8.568c0-.248-.054-.425-.16-.533-.108-.107-.276-.16-.507-.16-.247 0-.445.065-.593.197-.14.133-.21.314-.21.546v3.072c0 .215-.05.372-.148.47-.09.1-.256.15-.494.15h-1.199ZM45.271 12.495c-1.153 0-2.042-.268-2.668-.805-.626-.537-.94-1.317-.94-2.342 0-.627.145-1.18.433-1.66.289-.479.704-.85 1.248-1.115.552-.264 1.202-.396 1.952-.396.568 0 1.046.053 1.433.16.395.108.745.273 1.05.496.09.058.135.133.135.223a.544.544 0 0 1-.098.26l-.507.88c-.057.116-.127.174-.21.174-.05 0-.127-.033-.234-.1a2.946 2.946 0 0 0-.63-.31c-.19-.065-.429-.098-.717-.098-.412 0-.745.132-1 .396-.248.264-.371.628-.371 1.09 0 .471.127.835.383 1.09.255.248.605.372 1.05.372.263 0 .502-.037.716-.111.214-.074.433-.178.655-.31.115-.066.198-.099.247-.099.074 0 .14.058.198.174l.556.954a.48.48 0 0 1 .061.198c0 .074-.05.144-.148.21a3.899 3.899 0 0 1-1.136.496c-.404.116-.89.173-1.458.173ZM51.145 12.495c-.774 0-1.396-.247-1.865-.743-.461-.504-.692-1.21-.692-2.119 0-.693.157-1.3.47-1.82.32-.521.77-.922 1.346-1.203.585-.289 1.256-.433 2.014-.433.626 0 1.177.07 1.655.21.486.133.93.327 1.334.583v4.955c0 .157-.029.26-.086.31-.058.05-.173.075-.346.075h-1.26a.478.478 0 0 1-.21-.038.374.374 0 0 1-.124-.148l-.16-.372a2.09 2.09 0 0 1-.865.558c-.33.123-.733.185-1.21.185Zm.927-1.685c.321 0 .572-.078.753-.235.181-.157.272-.38.272-.669V7.973a1.382 1.382 0 0 0-.593-.111c-.436 0-.786.153-1.05.458-.255.306-.383.735-.383 1.289 0 .8.334 1.201 1 1.201ZM63.167 11.839c.057.066.086.14.086.223a.252.252 0 0 1-.074.186.298.298 0 0 1-.198.062h-1.914a1.01 1.01 0 0 1-.26-.025.565.565 0 0 1-.16-.136l-1.68-2.292v1.833c0 .215-.05.372-.148.471-.1.099-.268.149-.507.149h-1.198c-.239 0-.408-.05-.507-.149-.09-.1-.136-.256-.136-.47V4.516c0-.215.05-.372.149-.471.099-.108.263-.161.494-.161h1.198c.239 0 .408.053.507.16.098.1.148.257.148.472v4.15l1.63-2.13a.406.406 0 0 1 .161-.137.69.69 0 0 1 .26-.037h1.914c.082 0 .144.024.185.074.05.041.075.1.075.173a.33.33 0 0 1-.087.223l-2.112 2.429 2.174 2.577ZM67.178 12.495c-.692 0-1.31-.115-1.853-.346a2.877 2.877 0 0 1-1.273-1.041c-.312-.463-.469-1.029-.469-1.698 0-1.049.297-1.85.89-2.403.593-.554 1.445-.83 2.557-.83 1.087 0 1.91.272 2.47.817.569.537.853 1.285.853 2.243 0 .413-.182.62-.544.62H65.93c0 .355.132.627.395.817.272.19.68.285 1.223.285.338 0 .618-.029.84-.087a3.5 3.5 0 0 0 .692-.284.674.674 0 0 1 .198-.063c.074 0 .136.05.185.15l.42.792a.476.476 0 0 1 .062.186c0 .074-.05.144-.148.21a3.49 3.49 0 0 1-1.15.484c-.427.099-.917.148-1.47.148Zm.951-3.865c0-.314-.09-.558-.272-.731-.18-.174-.453-.26-.815-.26-.362 0-.638.09-.828.272-.19.174-.284.413-.284.719h2.199ZM74.587 12.495a8.84 8.84 0 0 1-1.965-.21c-.617-.15-1.115-.356-1.494-.62-.14-.091-.21-.186-.21-.285 0-.066.024-.137.074-.21l.605-.967c.066-.1.132-.149.198-.149a.52.52 0 0 1 .21.087c.305.173.65.314 1.037.421.387.107.77.161 1.15.161.386 0 .67-.058.852-.173.189-.116.284-.302.284-.558a.667.667 0 0 0-.31-.582c-.197-.14-.572-.318-1.123-.533-.832-.314-1.483-.665-1.952-1.053-.461-.397-.692-.933-.692-1.61 0-.818.293-1.442.877-1.872.585-.429 1.363-.644 2.335-.644.675 0 1.252.062 1.73.186a3.39 3.39 0 0 1 1.235.545c.14.108.21.207.21.298a.371.371 0 0 1-.075.198l-.605.966c-.074.1-.14.149-.197.149a.52.52 0 0 1-.21-.087c-.478-.314-1.046-.47-1.705-.47-.354 0-.626.057-.815.173-.19.115-.285.305-.285.57 0 .181.05.33.149.446.099.115.23.219.395.31.173.082.436.19.79.322l.235.086c.61.24 1.087.471 1.433.694.354.215.622.483.803.805.181.314.272.71.272 1.19 0 .735-.276 1.321-.828 1.76-.543.437-1.346.656-2.409.656ZM80.448 12.31a.538.538 0 0 1-.284-.063c-.066-.04-.116-.124-.149-.248l-1.593-5.352a.397.397 0 0 1-.025-.111c0-.116.082-.174.247-.174h1.63c.108 0 .186.021.235.062.05.033.083.091.099.174l.667 2.812.84-2.267a.52.52 0 0 1 .124-.198c.05-.042.132-.062.247-.062h.778c.115 0 .194.02.235.062.05.033.094.099.136.198l.827 2.267.68-2.812a.335.335 0 0 1 .099-.174c.04-.041.115-.062.222-.062h1.643c.165 0 .247.058.247.174a.384.384 0 0 1-.025.111L85.722 12c-.032.124-.082.207-.148.248-.058.042-.148.062-.272.062h-1.21a.446.446 0 0 1-.26-.062.582.582 0 0 1-.148-.248l-.815-2.242-.816 2.242a.453.453 0 0 1-.148.248.444.444 0 0 1-.259.062h-1.198ZM90.484 12.495c-.774 0-1.395-.247-1.865-.743-.461-.504-.692-1.21-.692-2.119 0-.693.156-1.3.47-1.82.32-.521.77-.922 1.346-1.203.585-.289 1.256-.433 2.014-.433.626 0 1.177.07 1.655.21.486.133.93.327 1.334.583v4.955c0 .157-.029.26-.087.31-.058.05-.172.075-.345.075h-1.26a.48.48 0 0 1-.21-.038.37.37 0 0 1-.124-.148l-.16-.372a2.091 2.091 0 0 1-.865.558c-.33.123-.733.185-1.21.185Zm.927-1.685c.32 0 .572-.078.754-.235.18-.157.271-.38.271-.669V7.973a1.385 1.385 0 0 0-.593-.111c-.437 0-.786.153-1.05.458-.255.306-.383.735-.383 1.289 0 .8.334 1.201 1.001 1.201ZM96.453 14.812c-.24 0-.408-.05-.507-.148-.09-.1-.136-.256-.136-.471v-7.1c.37-.264.837-.483 1.396-.656a5.897 5.897 0 0 1 1.754-.26c2.488 0 3.731 1.057 3.731 3.171 0 .959-.264 1.723-.791 2.293-.527.57-1.272.854-2.235.854-.272 0-.536-.033-.791-.099a1.932 1.932 0 0 1-.618-.272v2.069c0 .215-.05.372-.148.47-.099.1-.268.15-.507.15h-1.148Zm2.68-3.99c.355 0 .618-.131.79-.396.182-.272.272-.636.272-1.09 0-.537-.106-.913-.32-1.127-.206-.223-.528-.335-.964-.335-.28 0-.502.037-.667.112v1.97c0 .28.078.495.234.644.157.149.375.223.655.223Z" />
    <path fill="#fff" fill-rule="evenodd"
      d="M7.82 15.968c-2.34-.001-4.225-.565-5.542-1.576-1.333-1.024-2.04-2.477-2.04-4.12 0-1.585.706-2.727 1.504-3.5a6.622 6.622 0 0 1 1.797-1.215 25.119 25.119 0 0 1-.366-1.225c-.162-.605-.322-1.316-.322-1.836 0-.616.134-1.235.495-1.716C3.728.272 4.302 0 4.993 0c.54 0 1 .2 1.358.548.343.33.572.77.73 1.23.276.806.384 1.818.414 2.829h.662c.03-1.01.138-2.023.416-2.83.157-.458.386-.898.729-1.23A1.907 1.907 0 0 1 10.659 0c.691 0 1.266.272 1.647.78.362.481.496 1.1.496 1.716 0 .52-.16 1.23-.322 1.836-.122.453-.257.89-.366 1.225.48.223 1.171.61 1.797 1.216.798.772 1.504 1.914 1.504 3.498 0 1.644-.707 3.097-2.04 4.12-1.317 1.012-3.203 1.576-5.543 1.577h-.011Z"
      clip-rule="evenodd" />
    <path fill="#727272"
      d="M4.994.586c-1.013 0-1.479.765-1.479 1.823 0 .841.542 2.525.764 3.181a.296.296 0 0 1-.172.366C3.296 6.28.902 7.466.902 10.184c0 2.863 2.433 5.021 6.92 5.025h.01c4.486-.004 6.919-2.162 6.919-5.025 0-2.717-2.394-3.904-3.205-4.228a.296.296 0 0 1-.172-.366c.222-.656.763-2.34.763-3.181 0-1.058-.466-1.823-1.478-1.823-1.457 0-1.82 2.091-1.846 4.335a.272.272 0 0 1-.269.272H7.11a.272.272 0 0 1-.27-.272C6.815 2.677 6.45.586 4.994.586Z" />
    <path fill="#BABABA"
      d="M7.832 14.291c-3.296 0-6.924-1.787-6.93-4.101v.01c0 2.865 2.437 5.025 6.93 5.025s6.93-2.16 6.93-5.025v-.01c-.006 2.314-3.634 4.101-6.93 4.101Z" />
    <path fill="#fff"
      d="M6 9.48c0 .78-.364 1.188-.814 1.188-.45 0-.814-.407-.814-1.189 0-.781.365-1.188.814-1.188.45 0 .814.407.814 1.188ZM11.291 9.48c0 .78-.364 1.188-.814 1.188-.45 0-.814-.407-.814-1.189 0-.781.365-1.188.814-1.188.45 0 .814.407.814 1.188Z" />
  </g>
  <defs>
    <clipPath id="a">
      <path fill="#fff" d="M0 0h102.691v16H0z" />
    </clipPath>
  </defs>
</svg>