<svg width="77" height="26" viewBox="0 0 77 26" fill="none" xmlns="http://www.w3.org/2000/svg">
<g opacity="0.6">
<path d="M26.6723 4.7791H32.3366C33.7156 4.7791 34.9013 5.01109 35.8937 5.47506C36.899 5.92614 37.6658 6.57699 38.1942 7.4276C38.7355 8.27821 39.0062 9.27704 39.0062 10.4241C39.0062 11.9964 38.6518 13.3819 37.9429 14.5805C37.2341 15.7662 36.2417 16.6877 34.9658 17.345C33.7027 17.9894 32.24 18.3116 30.5774 18.3116H23.9658L26.6723 4.7791ZM30.6741 15.7404C31.7309 15.7404 32.6459 15.5213 33.4192 15.0831C34.2054 14.632 34.8047 14.0198 35.2171 13.2466C35.6295 12.4604 35.8357 11.5776 35.8357 10.5981C35.8357 9.57991 35.5071 8.78729 34.8498 8.22022C34.1925 7.64025 33.2388 7.35027 31.9886 7.35027H29.3015L27.6196 15.7404H30.6741Z" fill="white"/>
<path d="M47.5714 6.19035C47.1074 6.19035 46.7401 6.31923 46.4694 6.57699C46.2117 6.82186 46.0312 7.21495 45.9281 7.75625L45.8508 8.14289H48.4993L48.0353 10.4627H45.4642L43.8983 18.3116H40.8825L42.4484 10.4627H40.8245L41.2884 8.14289H42.9123L43.0283 7.54359C43.2732 6.38367 43.7758 5.47506 44.5362 4.81777C45.3095 4.14759 46.3148 3.8125 47.552 3.8125C48.016 3.8125 48.4542 3.86405 48.8666 3.96716C49.2919 4.07026 49.6528 4.21203 49.9492 4.39246L48.7699 6.55766C48.4477 6.31278 48.0482 6.19035 47.5714 6.19035Z" fill="white"/>
<path d="M61.2485 7.9109L54.3276 19.0075C53.5801 20.219 52.8519 21.0567 52.1431 21.5207C51.4471 21.9847 50.5901 22.2167 49.5719 22.2167C49.0306 22.2167 48.5022 22.1329 47.9867 21.9653C47.4583 21.7978 47.0459 21.5787 46.7494 21.308L48.1414 19.1428C48.6053 19.5682 49.1595 19.7808 49.8039 19.7808C50.1906 19.7808 50.5256 19.6841 50.8092 19.4908C51.0927 19.2975 51.3827 18.9689 51.6791 18.5049L51.7758 18.3309L49.3786 7.9109H52.3944L53.941 14.9864L58.2714 7.9109H61.2485Z" fill="white"/>
<path d="M69.2067 7.75625C70.3666 7.75625 71.2881 8.06556 71.9712 8.68419C72.6542 9.28993 72.9958 10.1599 72.9958 11.294C72.9958 11.7193 72.9507 12.1382 72.8605 12.5506L71.7005 18.3116H68.6847L69.806 12.7439C69.8575 12.5248 69.8833 12.2864 69.8833 12.0286C69.8833 11.4873 69.7351 11.0749 69.4387 10.7914C69.1422 10.5078 68.6976 10.3661 68.1048 10.3661C67.3315 10.3661 66.6871 10.5916 66.1715 11.0427C65.6689 11.4809 65.3274 12.1446 65.1469 13.0339L64.103 18.3116H61.0872L63.1557 7.9109H66.0169L65.7849 9.03216C66.7128 8.18155 67.8534 7.75625 69.2067 7.75625Z" fill="white"/>
<path d="M9.19336 16.4063L9.57398 14.9382C9.57615 14.9284 9.57615 14.9182 9.57397 14.9084C9.57179 14.8985 9.56749 14.8893 9.56137 14.8813C9.55525 14.8733 9.54746 14.8667 9.53854 14.862C9.52962 14.8574 9.51978 14.8547 9.50972 14.8542H2.40649C2.39638 14.8546 2.38632 14.8526 2.37713 14.8483C2.36794 14.8441 2.35989 14.8377 2.35363 14.8298C2.34736 14.8218 2.34307 14.8125 2.34109 14.8026C2.33911 14.7926 2.3395 14.7824 2.34223 14.7726L5.98776 1.19396C5.99156 1.17981 5.99991 1.1673 6.01153 1.15837C6.02314 1.14944 6.03737 1.14457 6.05202 1.14453H10.0065C12.6609 1.15442 14.3268 1.86869 15.3623 2.90674C16.3979 3.9448 16.8453 5.25719 16.8453 6.92301C16.8527 8.45996 16.3876 9.96207 15.5131 11.226C15.5063 11.2356 15.5023 11.2468 15.5015 11.2585C15.5007 11.2702 15.5031 11.2819 15.5084 11.2923C15.5137 11.3028 15.5218 11.3116 15.5318 11.3177C15.5418 11.3239 15.5533 11.3272 15.565 11.3273H20.8096C20.8228 11.3274 20.8356 11.3314 20.8465 11.3387C20.8574 11.346 20.8658 11.3564 20.8709 11.3686C20.8759 11.3807 20.8772 11.394 20.8747 11.4069C20.8721 11.4198 20.8658 11.4317 20.8566 11.441L7.13703 24.8813C7.12716 24.8926 7.11366 24.9 7.09886 24.9024C7.08406 24.9048 7.0689 24.9019 7.056 24.8943C7.0431 24.8866 7.03326 24.8747 7.0282 24.8606C7.02314 24.8465 7.02317 24.8311 7.02828 24.817L9.19336 16.4063Z" fill="white"/>
</g>
</svg>
