<svg xmlns="http://www.w3.org/2000/svg" width="72" height="28" fill="none">
  <g clip-path="url(#a)">
    <path fill="#999" d="M31.762 7.733h2.667V18.4h2.666V5.066H34.43a2.675 2.675 0 0 0-2.667 2.667ZM39.762 18.4h2.667v-5.333c0-1.467-1.2-2.667-2.667-2.667v8ZM45.095 10.4v8h2.667v-5.333h2.667v2.667c0 1.466 1.2 2.666 2.666 2.666v-5.333c0-1.467-1.2-2.667-2.666-2.667h-5.334ZM69.095 10.4H66.43V7.733c0-1.467-1.2-2.667-2.667-2.667v10.667h-5.333v-2.667h2.666V10.4H58.43a2.675 2.675 0 0 0-2.667 2.666v2.667c0 1.467 1.2 2.667 2.667 2.667h8v-5.334h2.666v2.667c0 1.467 1.2 2.667 2.667 2.667v-5.334c0-1.466-1.2-2.666-2.667-2.666ZM39.762 7.733h2.667c0-1.467-1.2-2.667-2.667-2.667v2.667Z"/>
    <path fill="#999" fill-opacity=".7" d="M35.92 21.066v1.745h-.245l-.96-1.209v1.21h-.286v-1.746h.244l.96 1.215v-1.215h.286ZM41.344 22.811h-1.035v-1.745h1.01v.287h-.703v.434h.628v.287h-.628v.45h.728v.287ZM46.3 21.353h-.566v-.287h1.438v.287h-.566v1.458H46.3v-1.458ZM53.699 21.066h.294l-.499 1.745h-.286l-.422-1.26-.414 1.26h-.289l-.521-1.745h.344l.352 1.245.389-1.245h.304l.398 1.247.35-1.247ZM58.383 21.966a.88.88 0 0 1 .254-.64.886.886 0 0 1 .653-.26c.263 0 .48.084.65.25.174.168.26.385.26.65 0 .261-.086.477-.26.646a.891.891 0 0 1-.65.254.896.896 0 0 1-.65-.249.866.866 0 0 1-.257-.65Zm.324 0a.61.61 0 0 0 .167.44c.111.116.25.174.416.174.18 0 .322-.058.426-.175a.625.625 0 0 0 .16-.439.608.608 0 0 0-.17-.44.562.562 0 0 0-.416-.173.56.56 0 0 0-.419.172.612.612 0 0 0-.164.441ZM64.897 22.163v.654h-.307V21.07c.086 0 .18 0 .282-.002l.249-.003c.422 0 .633.18.633.539a.516.516 0 0 1-.102.329.518.518 0 0 1-.234.17l.545.713h-.371l-.481-.654h-.215Zm.209-.81a.48.48 0 0 0-.04.003c-.018 0-.044 0-.077.002h-.093v.519h.2a.376.376 0 0 0 .24-.073.234.234 0 0 0 .094-.197c0-.17-.108-.254-.324-.254ZM70.66 22.811h-.307v-1.745h.307v.828l.688-.828h.37l-.719.813.763.932h-.389l-.713-.9v.9Z"/>
    <mask id="b" width="29" height="28" x="0" y="0" maskUnits="userSpaceOnUse" style="mask-type:luminance">
      <path fill="#fff" d="M28.429 0h-28v28h28V0Z"/>
    </mask>
    <g fill="#999" mask="url(#b)">
      <path fill-rule="evenodd" d="M22.422 4.904c-.819-.531-1.402-.761-1.402-.761a31.997 31.997 0 0 0 1.624.112c.197.018.401.039.607.063a14.334 14.334 0 0 0-1.079-.772c-2.159-1.396-4.187-1.831-5.877-1.831a9.943 9.943 0 0 0-3.539.651c-.661.254-1.058.493-1.118.528l-.002.002.853-1.356.063-.664a.667.667 0 0 1 .603.647 10.631 10.631 0 0 1 3.14-.475c2.113 0 4.688.638 7.368 2.746a.667.667 0 0 1-.09 1.108c.483.37 1.001.822 1.51 1.367 1.847 1.975 3.556 5.139 3.097 9.86a.667.667 0 0 1-.827.582c-.15 2.018-1.03 5.355-4.817 8.2a.666.666 0 0 1-.993-.229 9.618 9.618 0 0 1-.117.107c-1.077.975-2.716 2.04-4.93 2.348a.671.671 0 0 1-.092.007h-.022a.667.667 0 0 1-.657-.555 9.852 9.852 0 0 1-1.924.183c-1.237 0-2.733-.21-4.486-.825a.667.667 0 0 1 .376-1.277c.496.119.991.178 1.507.178 3.355 0 5.983-2.504 5.983-5.502 0-1.478-.626-2.833-1.682-3.833l-.008.01c-.241.312-.532.689-.737.959-.333.467-.45.725-.423.959a2.702 2.702 0 0 1-.57 2.076c-.172.2-.497.483-.786.736l-.04.034a17.182 17.182 0 0 0-.8.728c-.517.482-1.191.55-1.593.55-.111 0-.211-.008-.28-.013h-.003l-.003-.001a1.578 1.578 0 0 0-.108-.007h-.091a.859.859 0 0 0-.07.051c-.05.039-.111.091-.197.167-.164.154-.36.221-.492.254a1.93 1.93 0 0 1-.462.053c-.39 0-.836-.087-1.203-.178a10.55 10.55 0 0 1-.943-.284 1.208 1.208 0 0 1-.435-.307 2.321 2.321 0 0 1-.269-.358 5.46 5.46 0 0 1-.401-.815c-.218-.537-.4-1.153-.431-1.455-.021-.2.028-.39.064-.51.042-.137.1-.28.16-.415.12-.265.277-.562.412-.817l.006-.011c.095-.181.18-.34.244-.473.032-.066.056-.119.073-.159l.017-.045c.036-.173.15-1.02.267-1.932.115-.899.224-1.793.245-1.976a.856.856 0 0 0 0-.3c-.017-.076-.06-.197-.192-.413a2.094 2.094 0 0 1-.003-.007l-.002-.002c-.291-.495-.306-.982-.183-1.578C4.774 9 .992 6.207.757 6.015A.891.891 0 0 1 .43 5.49a.746.746 0 0 1 .104-.531l.002-.002v-.002l.556.369s-.044.066.087.175a2.675 2.675 0 0 0 .07.055l.317.238.725.538c1.49 1.101 4.014 2.947 4.729 3.413-.219.787-.219 1.16 0 1.531.306.503.328.766.284 1.138-.043.371-.437 3.587-.525 3.98-.035.16-.206.483-.394.838-.278.526-.594 1.124-.568 1.372.044.416.612 2.188 1.115 2.385.372.13 1.291.415 1.904.415.218 0 .415-.044.503-.131.372-.328.481-.394.743-.394h.066c.05 0 .105.005.164.01.07.006.147.012.23.012.35 0 .81-.066 1.137-.372.227-.227.532-.492.818-.742.32-.28.619-.54.757-.702.328-.415.503-.984.416-1.553-.066-.525.219-.984.547-1.443.415-.547 1.181-1.532 1.181-1.532a6.522 6.522 0 0 1 .512.428c1.207 1.122 1.938 2.666 1.938 4.363 0 2.954-2.23 5.416-5.213 6.025a7.187 7.187 0 0 1-3.1-.053c.586.205 1.14.363 1.663.481.52.118 1.007.197 1.464.245.404.043.784.061 1.14.061a8.86 8.86 0 0 0 2.316-.292c.966-.262 1.468-.605 1.468-.605s-.13.167-.363.425c-.191.212-.452.484-.768.777l-.05.047c-.002 0-.002.002-.003.002l-.02.018h.022c.416-.058.81-.144 1.182-.253 1.9-.557 3.238-1.697 4.03-2.563.582-.634.87-1.121.87-1.121s-.051.362-.132.81c-.035.2-.077.415-.122.624-.03.14-.063.277-.096.403.295-.222.572-.447.831-.674 3.205-2.806 3.722-5.93 3.745-7.568a8.22 8.22 0 0 0 0-.216v-.007a6.537 6.537 0 0 0-.067-.896l-.002-.012-.001-.011a.19.19 0 0 0 .015.02c.038.05.131.165.247.306l.215.261.002.002a152.46 152.46 0 0 1 .396.483c.028-.292.048-.578.06-.857v-.006l.004-.11c.196-5.841-3.174-8.9-5.16-10.188ZM7.493 3.696l.05.162c.096.317.211.666.33.963a5.77 5.77 0 0 1 .386-.904c.938-1.749 2.482-2.225 3.422-2.346.484-.062.808-.031.808-.031l.063-.664h-.008l-.006-.001a3.394 3.394 0 0 0-.185-.009 5.544 5.544 0 0 0-1.951.335 4.97 4.97 0 0 0-2.398 1.857 23.385 23.385 0 0 1-.064-.238l-.009-.034-.002-.009v-.002a.667.667 0 0 0-1.086-.337l.44.502-.44-.501h-.001l-.001.001-.003.003a1.002 1.002 0 0 0-.032.029 3.871 3.871 0 0 0-.302.327c-.18.219-.408.539-.605.953a4.556 4.556 0 0 0-.434 2.294 411.428 411.428 0 0 0-3.408-1.21 47.42 47.42 0 0 0-.512-.175L1.54 4.66a1.188 1.188 0 0 0-.158-.04.94.94 0 0 0-.526.067.791.791 0 0 0-.315.26L.54 4.95l-.002.002v.001l.554.371s.044-.066.197-.044a.772.772 0 0 1 .056.017h.002c.074.025.212.071.4.136.224.078.52.181.86.302a398.333 398.333 0 0 1 3.735 1.339 4.663 4.663 0 0 1-.18-.775 3.916 3.916 0 0 1 .601-2.728c.269-.411.52-.631.52-.631s.084.33.21.756ZM1.115 5.924h.001-.001Z" clip-rule="evenodd"/>
      <path fill-opacity=".7" d="M12.642 18.536c-.068.084-.304.298-.529.502l-.193.176c-.091.084-.185.167-.278.25-.174.155-.345.307-.488.45-.087.087-.262.131-.525.131h-.656a9.9 9.9 0 0 1 .619-.713c.14-.13.281-.253.41-.359.223-.185.448-.31.644-.42.359-.201.624-.35.624-.717.014-.746-.486-.89-.857-.895.11-.026.235-.046.354-.046-.416-.11-.94 0-1.181.24-.175.161-.214.594-.253 1.026-.02.217-.04.433-.076.615-.098.51-.406.791-.878 1.221L9.377 20l-.17.156a2.791 2.791 0 0 1-.04.037L7.72 19.87s.962-.503 1.116-1.072c.137-.49-.218-1.997-.309-2.385l-.02-.087.009.008a2.4 2.4 0 0 1 .648.999c.35-.963.809-1.881.94-1.97.113-.074 1.437-.78 1.808-.976-.162.44-.318.875-.43 1.196-.393.11-.787.328-1.071.765.153-.109.634-.175.984-.218.306-.022 1.247.48 1.487 1.422v.043c.044.35-.065.678-.24.94Z"/>
      <path fill-opacity=".7" d="M11.9 15.54c.448-.042.82.049.917.087.853-1.618 1.531-2.493 1.706-2.493.019-.003.059-.001.117 0 .485.017 2.222.077 2.946-1.663.775-1.896-.317-3.516-.391-3.627l-.003-.004c.919 3.019-1.116 4.703-2.494 4.725-.766 0-1.794.503-1.794.503L11.9 15.539Z"/>
      <path fill-opacity=".7" d="M17.192 7.84s.002 0 .003.002c.095.045 1.729.838 2.2 3.298a8.373 8.373 0 0 1 1.953 4.531c0 .11.153.263.306.394.197.197.394.394.394.59 0 .525-.044 1.05-.131 1.554-.039.154-.215.258-.406.37l-.019.012-.022.013a3.078 3.078 0 0 0-.131.082c-.115.073-.236.15-.253.2-.446 1.58-1.378 2.99-2.624 4.059a8.985 8.985 0 0 0 4.248-5.419 7.124 7.124 0 0 0 .082-2.84c-.788-4.462-5.338-6.737-5.6-6.846ZM11.935 8.059c.404.02 1.268-.02 2.085-.614l.245.58a4.952 4.952 0 0 1-2.33.034ZM14.951 7.777a4.547 4.547 0 0 0 1.596-1.242 8.884 8.884 0 0 0-1.499-.293c-.153.24-.306.46-.46.635.091.223.222.546.364.9Z"/>
      <path fill-opacity=".7" d="M19.314 14.621c.218-1.115.24-2.078.175-2.865a8.016 8.016 0 0 1 1.531 3.937c.022.175.197.35.372.525.153.132.328.307.328.416 0 .503-.044 1.006-.131 1.51-.021.062-.199.163-.348.248l-.024.014c-.219.11-.416.219-.46.394a8.146 8.146 0 0 1-2.887 4.221c2.034-2.121 3.019-5.621 1.444-8.4Z"/>
      <path fill-rule="evenodd" d="M9.623 6.308s-.394-2.822 1.575-4.003l-.04.015c-.402.151-3.33 1.252-1.535 3.988Zm4.244-2.581c1.51-.57 3.61-.875 6.869-.263-1.444-.722-2.954-1.094-4.463-1.116-.569 0-1.094.044-1.575.132-1.706.306-3.106 1.531-3.587 3.172 0 0 .35-.547 1.18-1.116l.035-.047c.308-.417.77-1.045 1.213-1.572.13.285.284.635.328.81Zm7.569 3.63c3.084 2.035 4.484 4.288 5.468 6.935-.043-2.8-.984-5.206-2.8-7.131l-.043-.044c-1.597-1.684-3.938-2.472-6.257-2.144-.875.11-1.75.285-2.428.504-.11.021-.218.043-.328.087h.044c.175-.022 3.369-.175 6.344 1.794Zm2.843 13.913c-.328.438-.7.897-1.137 1.335 2.822-5.425.131-10.39.022-10.588.197.197.393.416.569.613 2.165 2.406 2.428 6.015.546 8.64ZM7.015 4.447c-.083.317-.82 3.132 1.667 3.217C7.195 6.767 7.02 4.448 7.02 4.427l-.001.004-.002.006-.002.01Zm4.336 5.864-1.137 1.947s1.05-.481 1.465-1.094c.329-.525-.328-.853-.328-.853Zm-.76 9.021c.14-.13.282-.253.41-.359.225-.185.449-.31.645-.42.359-.201.624-.35.624-.717.014-.745-.486-.89-.857-.895l.017-.004c-.203.046-.363.111-.363.111s.634-.109.875.35c.24.46.044.722-.35.985-.197.13-.621.545-1 .95Zm2.073-6.746c-.101.086-.44.952-.752 1.8-.371.198-1.695.903-1.808.978-.13.087-.59 1.006-.94 1.969a2.402 2.402 0 0 0-.648-.998l-.009-.009.02.087c.092.388.446 1.896.309 2.385-.154.57-1.116 1.072-1.116 1.072l1.447.322c-.285.255-.492.334-.66.334a7.549 7.549 0 0 1-1.115-.284c-.219-.284-.547-1.225-.635-1.619.048-.157.197-.439.326-.683l.134-.257.036-.07c.24-.46.382-.73.423-.98.088-.372.372-2.669.481-3.631.285.371.679.984.591 1.378.634-.897.175-1.772-.044-2.122-.197-.35-.46-1.05-.24-1.794.218-.744 1.006-2.8 1.006-2.8s.262.46.634.372c.372-.088 3.37-4.594 3.37-4.594s.809 1.772-.045 3.063c-.875 1.29-1.728 1.53-1.728 1.53s.086.017.234.024a4.953 4.953 0 0 0 2.33-.034c.359.864.656 1.635.674 1.76l-.095.226v.001c-.245.582-.86 2.05-.933 2.158-.044.044-.35.132-.57.175-.371.11-.59.175-.677.24Zm.59-7.831s.197.875-.306 1.465c-.634.722-1.181.7-1.16.7l1.466-2.165ZM8.201 17.18l-.175.875s.35-.044.35.35c0 .306-.35.722-.634.743-.285.022-.394-.328-.328-.524.065-.175.787-1.444.787-1.444Zm3.347-7.307c.766.154.985 1.05.569 1.532-.416.46-1.466 1.115-2.078 1.268-.132.504-1.247.285-.832-1.312 0 0 .197.765.394.7.197-.066 2.428-3.566 2.428-3.566s-.284.92-.48 1.378Zm-.776 8.144c-.012.212-.031.558-.186.782l.123-.13c.115-.122.28-.296.38-.396.068-.06.144-.11.218-.156.162-.102.307-.195.307-.39 0-.307-.416-.372-.59-.329-.176.044-.22.329-.241.482-.005.032-.008.08-.011.137Zm10.16.847c-.48 1.728-1.574 3.26-2.996 4.353.178-.085.354-.176.526-.273 1.246-1.069 2.178-2.48 2.624-4.058.017-.05.138-.128.253-.2l.097-.063.02-.012.014-.008.022-.013.019-.011c.191-.113.367-.216.406-.371a9.112 9.112 0 0 0 .131-1.553c0-.197-.197-.394-.394-.59-.153-.132-.306-.285-.306-.395a8.374 8.374 0 0 0-1.953-4.53c.01.05.02.103.028.155a8.546 8.546 0 0 1 1.794 4.354c0 .081.098.187.193.29.032.036.064.07.091.103.197.197.394.394.394.59 0 .526-.044 1.05-.131 1.554-.044.175-.263.306-.482.416l-.096.061c-.115.073-.237.15-.253.201ZM17.193 7.84c.264.11 4.813 2.385 5.6 6.847a7.122 7.122 0 0 1-.082 2.84c.21-.76.322-1.557.322-2.38 0-4.088-2.744-7.54-6.485-8.611-.501.6-1.051.992-1.596 1.242.372.927.819 2.061.819 2.14 0 .132-.416 1.203-.46 1.247-.043.022-.546.066-.743.066-.219.525-.438 1.028-.481 1.093-.066.088-.263.153-.678.263l-.144.042c-.197.057-.412.12-.447.155-.11.131-.7 1.684-1.094 2.778.06-.01.118-.017.176-.023l1.005-2.47s1.028-.504 1.794-.504c1.378-.022 3.412-1.706 2.494-4.725ZM8.07 9.042c.153-.284.022-.481-.11-.59l-.043-.044c-.263-.131-1.903-.744-3.522-1.313 1.422.94 2.997 1.86 3.26 1.99.196.088.327.11.415-.043Z" clip-rule="evenodd"/>
    </g>
  </g>
  <defs>
    <clipPath id="a">
      <path fill="#fff" d="M.429 0h71.333v28H.429z"/>
    </clipPath>
  </defs>
</svg>