<svg width="68" height="21" viewBox="0 0 68 21" fill="none" xmlns="http://www.w3.org/2000/svg">
<path d="M10.5713 20.0716C16.0831 20.0716 20.5641 15.6049 20.5641 10.0788C20.5641 4.56697 16.0974 0.0859375 10.5713 0.0859375C5.05951 0.0859375 0.578491 4.55265 0.578491 10.0788C0.578491 15.5906 5.0452 20.0716 10.5713 20.0716Z" fill="#C8C8C8"/>
<path d="M18.3018 3.83667C17.6146 3.97983 16.9417 4.16595 16.3977 4.2948C15.1522 4.56681 13.9925 5.526 13.7492 7.25829C13.5201 8.81877 14.0498 9.47733 13.8207 11.2955C13.4199 14.4594 10.3848 15.5475 8.9675 16.206C8.15146 16.5783 6.16149 17.4516 4.62964 18.1244C6.29034 19.3556 8.33758 20.0715 10.5566 20.0715C16.0827 20.0715 20.5494 15.6047 20.5494 10.0786C20.5494 7.73073 19.7334 5.56895 18.3733 3.8653C18.359 3.85099 18.3304 3.85099 18.3018 3.83667Z" fill="#727272"/>
<path d="M9.44044 8.6041C10.2135 6.9434 9.9272 6.9434 10.5142 5.3686C11.2443 3.39294 13.5492 3.95127 14.1792 4.03717C15.2243 4.18034 15.4963 3.80811 17.701 3.4502C17.8155 3.43588 17.9157 3.42157 18.0159 3.40725C16.1834 1.36001 13.5349 0.0715332 10.5714 0.0715332C6.59149 0.0715332 3.16988 2.39079 1.55213 5.75514C4.84489 6.58549 8.40966 8.36072 9.44044 8.6041ZM7.26436 1.81813C7.55068 1.86108 8.968 3.622 9.2257 8.11734C9.2257 8.11734 7.40752 7.68785 7.02098 6.74297C6.70602 5.9842 7.12119 4.96774 7.26436 1.81813ZM18.3739 3.83674C18.3739 3.85106 18.3882 3.85106 18.3882 3.85106C18.3595 3.85106 18.3309 3.85106 18.3166 3.83674C18.3309 3.83674 18.3452 3.83674 18.3739 3.83674ZM0.578613 10.0787C0.578613 9.27697 0.664512 8.50388 0.850624 7.75943C1.20853 8.06008 1.59507 8.38935 2.01025 8.7759C4.61583 11.1954 8.85347 13.0994 10.3853 11.3242C10.3853 11.3242 10.3996 11.3242 10.3996 11.3385C10.1133 11.7108 9.03958 12.8847 6.99234 12.5125L3.74253 17.3657C1.7955 15.5332 0.578613 12.9563 0.578613 10.0787Z" fill="#919191"/>
<path d="M59.2755 8.43232C59.1466 8.146 58.9462 7.84535 58.7028 7.68787C58.4165 7.47313 58.0872 7.31565 57.6434 7.1868C57.0707 7.015 56.2547 6.97205 55.3098 7.015C55.0665 7.015 54.8231 7.05795 54.5654 7.05795C54.322 7.1009 54.0786 7.1009 53.8209 7.14385C53.6205 7.1868 53.4058 7.1868 53.2483 7.22975V8.80455C53.4058 8.7616 53.6205 8.71865 53.778 8.6757C54.0214 8.63275 54.2647 8.58981 54.5224 8.54686C54.7658 8.50391 55.0092 8.50391 55.2669 8.46096C55.9684 8.41801 56.541 8.41801 56.8703 8.50391C57.1137 8.54686 57.3141 8.63275 57.443 8.71865C57.5718 8.80455 57.6434 8.9334 57.6863 9.09088C57.7293 9.21973 57.7722 9.33426 57.7722 9.50605V9.6349L57.6434 9.59195C57.1137 9.42016 56.4551 9.37721 55.7107 9.37721C55.0951 9.37721 54.6083 9.42016 54.1932 9.50605C53.778 9.59195 53.4487 9.7208 53.2053 9.87828C52.9619 10.0501 52.7901 10.2076 52.7186 10.4223C52.6327 10.637 52.5897 10.8375 52.5897 11.0809V11.2097C52.5897 11.4531 52.6327 11.7108 52.7472 11.9112C52.8331 12.126 52.9906 12.3264 53.234 12.5411C53.4773 12.7129 53.8066 12.8704 54.2218 12.9563C54.637 13.0852 55.1667 13.1281 55.7823 13.1281C56.312 13.1281 56.813 13.0852 57.2139 12.9563C57.6291 12.8704 57.7007 12.8275 58.0729 12.67C58.2017 12.5841 58.5167 12.5411 58.7314 12.627L59.1037 12.8418H59.4759V9.34857C59.4759 9.13383 59.39 8.7616 59.2755 8.43232ZM57.7579 11.6821H57.672C57.1423 11.8539 56.5697 11.9255 55.9111 11.9255C55.5389 11.9255 55.2096 11.9255 55.0092 11.8826C54.8088 11.8396 54.637 11.8396 54.5224 11.7537C54.3936 11.7108 54.322 11.6249 54.2791 11.539C54.2361 11.4531 54.2361 11.3672 54.2361 11.2956C54.2361 11.224 54.2361 11.1668 54.2791 11.0809C54.322 10.995 54.4079 10.9091 54.4795 10.8661C54.5654 10.8232 54.7229 10.7373 54.9233 10.7373C55.1237 10.6943 55.41 10.6943 55.7393 10.6943C56.1115 10.6943 56.4408 10.6943 56.7701 10.7373C57.0564 10.7802 57.3428 10.8232 57.6291 10.9091H57.715V11.6535H57.7579V11.6821Z" fill="#9E9DA0"/>
<path d="M30.6287 7.75936C30.3853 7.51598 30.056 7.30124 29.6408 7.12944C29.2257 6.95764 28.696 6.88606 28.0374 6.88606C27.7081 6.88606 27.3789 6.92901 27.0925 6.97196C26.8062 7.01491 26.5199 7.10081 26.2335 7.18671L26.1047 7.22966V4.98198L24.759 4.19458H24.4297V10.2647C24.4297 10.6799 24.4726 11.0521 24.5872 11.3814C24.6731 11.7107 24.8735 12.0113 25.1169 12.2977C25.3603 12.541 25.6895 12.7558 26.1047 12.9276C26.5199 13.0994 27.0496 13.171 27.7081 13.171H28.0374C28.696 13.171 29.2257 13.0851 29.6408 12.9276C30.056 12.7987 30.4139 12.5983 30.6716 12.2977C30.915 12.0543 31.0868 11.7536 31.2013 11.3814C31.2872 11.0092 31.3588 10.637 31.3588 10.2647V9.80661C31.3588 9.39143 31.3159 9.0192 31.2013 8.68993C31.0725 8.30339 30.8721 8.01706 30.6287 7.75936ZM29.5979 10.594C29.5979 10.8088 29.512 10.9662 29.3975 11.138C29.2686 11.2669 29.1111 11.3814 28.8678 11.5103C28.6244 11.5962 28.2951 11.6391 27.8799 11.6391C27.4648 11.6391 27.1355 11.5962 26.8921 11.5103C26.6487 11.4244 26.4769 11.2955 26.3624 11.138C26.2335 10.9662 26.2049 10.8088 26.162 10.594C26.162 10.4222 26.119 10.2218 26.119 10.007V8.71856H26.162C26.4053 8.63266 26.6917 8.54676 26.978 8.50381C27.2643 8.46086 27.5507 8.41791 27.9229 8.41791C28.3381 8.41791 28.6673 8.46087 28.8678 8.54676C29.0682 8.63266 29.2829 8.76151 29.3545 8.87604C29.4834 9.04784 29.512 9.20532 29.5549 9.42006C29.5549 9.59186 29.5979 9.79229 29.5979 10.007C29.5979 10.2218 29.5979 10.4222 29.5979 10.594Z" fill="#9E9DA0"/>
<path d="M33.3771 4.18042H33.2912C32.919 4.18042 32.6756 4.26632 32.5467 4.39517C32.4179 4.56696 32.3463 4.72444 32.3463 4.98214V5.11099C32.3463 5.32573 32.4322 5.52616 32.5467 5.69796C32.6756 5.86975 32.919 5.9127 33.2912 5.9127H33.3771C33.7493 5.9127 33.9927 5.8268 34.1215 5.69796C34.2504 5.52616 34.279 5.36868 34.279 5.11099V4.98214C34.279 4.76739 34.1931 4.56696 34.0786 4.39517C33.9927 4.26632 33.735 4.18042 33.3771 4.18042Z" fill="#9E9DA0"/>
<path d="M32.4755 7.1438V12.9276H34.1934V7.9312L32.8477 7.1438H32.4755Z" fill="#9E9DA0"/>
<path d="M40.9076 9.92113C40.7501 9.79228 40.5354 9.67775 40.3349 9.59185C40.1345 9.50595 39.8911 9.463 39.6334 9.42005C39.433 9.37711 39.1896 9.33416 38.9749 9.33416C38.7744 9.33416 38.5597 9.33416 38.4452 9.29121C37.9584 9.29121 37.6291 9.24826 37.4144 9.20531C37.0851 9.11941 37.0422 8.96193 37.0422 8.79013C37.0422 8.70424 37.0422 8.66129 37.0851 8.61834C37.1281 8.57539 37.171 8.48949 37.2855 8.44654C37.3714 8.40359 37.5289 8.36064 37.7007 8.36064C37.8582 8.31769 38.1159 8.31769 38.4452 8.31769C38.9319 8.31769 39.433 8.36064 39.8768 8.40359C40.292 8.44654 40.7358 8.53244 41.1939 8.61834V7.15807C40.8217 7.07217 40.4495 6.98627 40.0486 6.94332C39.6334 6.90037 39.1896 6.85742 38.7744 6.85742H38.3593C37.7437 6.85742 37.2569 6.90037 36.8417 7.02922C36.4695 7.11512 36.1402 7.2726 35.8969 7.44439C35.6535 7.61619 35.4817 7.81662 35.4101 8.03137C35.3242 8.24611 35.2812 8.48949 35.2812 8.73287V8.86172C35.2812 9.14804 35.3242 9.40574 35.4387 9.60617C35.5676 9.82091 35.6821 9.97839 35.8539 10.1072C36.0114 10.2361 36.2261 10.3506 36.4266 10.4365C36.627 10.5224 36.8704 10.5654 37.0851 10.6083C37.3285 10.6513 37.5289 10.6942 37.7437 10.6942C37.9441 10.6942 38.1588 10.7372 38.3163 10.7372C38.8031 10.7372 39.1324 10.7801 39.3471 10.8231C39.6764 10.866 39.7623 11.0664 39.7623 11.2382C39.7623 11.2812 39.7623 11.3671 39.7193 11.41C39.6764 11.453 39.6334 11.5389 39.5189 11.5818C39.433 11.6248 39.2755 11.6677 39.1037 11.6677C38.9462 11.7107 38.6885 11.7107 38.4022 11.7107C37.9155 11.7107 37.3428 11.6677 36.7988 11.6248C36.312 11.5818 35.768 11.4959 35.3242 11.3814V12.8417C35.768 12.9276 36.1832 13.0135 36.6413 13.0564C37.0851 13.0994 37.6291 13.1423 38.1159 13.1423H38.4452C39.0608 13.1423 39.5475 13.0994 39.9198 12.9705C40.3349 12.8846 40.6213 12.7271 40.8646 12.5553C41.108 12.3835 41.2369 12.1831 41.3514 11.9684C41.4373 11.7536 41.5089 11.5102 41.5089 11.2669V11.138C41.5089 10.8517 41.4659 10.594 41.3514 10.3936C41.1939 10.2218 41.0794 10.05 40.9076 9.92113Z" fill="#9E9DA0"/>
<path d="M49.2685 10.9233L47.794 7.1438H46.4769L45.0452 10.9233L43.5706 7.1438H42.0531V7.51603L44.2721 12.9276H45.7897L47.1354 9.43442L48.4811 12.9276H49.9987L52.2464 7.51603V7.1438H50.6859L49.2685 10.9233Z" fill="#9E9DA0"/>
<path d="M67.2214 8.76147C67.1355 8.4322 66.935 8.13155 66.6917 7.84522C66.4483 7.60184 66.119 7.3871 65.6609 7.2153C65.2457 7.04351 64.716 6.97192 64.0574 6.97192H63.7711C63.1126 6.97192 62.5829 7.05782 62.1677 7.2153C61.7525 7.34415 61.4232 7.54458 61.1799 7.84522C60.9365 8.0886 60.7647 8.38925 60.6502 8.76147C60.5643 9.1337 60.4927 9.50593 60.4927 9.87815V15.9483H60.8649L62.2106 15.1609V12.9132L62.3395 12.9562C62.6258 13.0421 62.8692 13.128 63.1985 13.1709C63.4848 13.2139 63.8141 13.2568 64.1433 13.2568C64.8019 13.2568 65.3316 13.1709 65.7468 13.0134C66.162 12.8416 66.4912 12.6842 66.7346 12.3835C66.978 12.1401 67.1498 11.7965 67.2643 11.4673C67.3502 11.138 67.4218 10.7658 67.4218 10.3506V9.89247C67.3788 9.50592 67.3359 9.1337 67.2214 8.76147ZM65.6609 10.7228C65.6609 10.9376 65.575 11.095 65.4605 11.2668C65.3316 11.4386 65.1741 11.5102 64.9737 11.5961C64.7733 11.682 64.444 11.725 64.0288 11.725C63.6995 11.725 63.3703 11.682 63.0839 11.6391C62.7976 11.5961 62.5113 11.5102 62.2679 11.4243H62.225V10.1358C62.225 9.9211 62.225 9.76362 62.2679 9.54887C62.2679 9.33413 62.3538 9.17665 62.4683 9.00485C62.5972 8.83305 62.7547 8.76147 62.998 8.63262C63.2414 8.54673 63.5707 8.50378 63.9859 8.50378C64.401 8.50378 64.7303 8.54673 64.9737 8.63262C65.2171 8.71852 65.3889 8.84737 65.5034 9.00485C65.6322 9.17665 65.7038 9.33413 65.7038 9.54887C65.7038 9.72067 65.7468 9.9211 65.7468 10.1358C65.6609 10.3506 65.6609 10.551 65.6609 10.7228Z" fill="#9E9DA0"/>
</svg>
