<svg width="456" height="91" viewBox="0 0 456 91" fill="none" xmlns="http://www.w3.org/2000/svg">
<path d="M42.5991 0.102134C64.6195 -1.35204 83.6276 12.8781 89.3404 32.821C89.3404 32.9249 89.3404 32.9249 89.3404 33.0288C89.4443 33.3404 89.7559 33.4443 90.0675 33.5481H90.1714C93.9107 33.5481 96.6113 32.9249 98.2732 32.5094C98.3771 32.5094 98.481 32.4056 98.5848 32.4056C98.6887 32.4056 98.7926 32.4056 98.8964 32.4056C99.8313 32.4056 100.558 33.1326 100.558 34.0675V41.65C100.454 42.2732 100.143 42.7925 99.6235 43.0003C99.4158 43.0003 99.3119 43.1041 99.1042 43.1041C97.65 43.5196 95.0533 44.1428 91.8333 44.4544C91.7294 44.4544 91.6256 44.4544 91.5217 44.4544C91.2101 44.5583 90.8985 44.8699 90.8985 45.1815V45.2854V45.3893C90.8985 46.428 90.8985 47.4667 90.7946 48.5054C90.7946 48.5054 90.7946 48.5053 90.7946 48.6092C90.7946 49.0247 91.1062 49.3363 91.5217 49.4402C91.6256 49.4402 91.6256 49.4402 91.7294 49.4402C94.6378 49.2324 96.7152 48.817 98.1693 48.4015C98.2732 48.4015 98.3771 48.2976 98.481 48.2976C98.5848 48.2976 98.6887 48.2976 98.7926 48.2976C99.6235 48.2976 100.351 48.9208 100.454 49.7518V57.542C100.454 58.1652 100.039 58.7884 99.4158 58.9962C99.3119 58.9962 99.1042 59.1 99.0003 59.1C97.1307 59.6194 93.3913 60.4503 88.8211 60.6581H88.7172C88.4056 60.6581 88.1979 60.8658 87.9901 61.0736C87.9901 61.0736 87.9901 61.1774 87.8863 61.1774C81.5502 78.5237 64.8272 90.8841 45.2997 90.8841C19.1246 90.8841 -1.75316 68.7599 0.116493 42.2732C2.09001 19.6296 20.2672 1.66018 42.5991 0.102134ZM199.131 34.5868C203.389 34.5868 206.713 35.9371 209.102 38.5339C211.491 41.1306 212.634 44.9738 212.634 49.8557C212.634 53.2834 211.907 56.1917 210.556 58.6846C209.206 61.1774 207.232 63.0471 204.74 64.3974C202.247 65.7477 199.338 66.3709 195.911 66.3709C194.249 66.3709 192.587 66.1632 190.717 65.7477V79.4585H181.888V35.1062H188.64L189.99 38.7416C191.34 37.2874 192.691 36.2487 194.041 35.6255C195.599 34.8984 197.261 34.5868 199.131 34.5868ZM45.7152 11.32C26.9148 11.32 11.7499 26.5889 11.7499 45.2854C11.7499 63.9819 27.0187 79.2507 45.7152 79.2507C59.2183 79.2507 70.9555 71.3566 76.3567 59.8271C76.4606 59.7233 76.4606 59.5155 76.5645 59.4117V59.3078C76.5645 58.9962 76.3567 58.6846 76.0451 58.5807C76.0451 58.5807 76.0451 58.5807 75.9413 58.5807H75.8374L75.4219 58.4768C65.6582 55.153 56.4138 56.8149 52.3629 57.8536C52.3629 57.8536 52.3629 57.8536 52.259 57.8536C52.1551 57.8536 52.0513 57.8536 51.9474 57.8536C51.1164 57.8536 50.3894 57.2304 50.2855 56.5033V48.0899C50.3894 47.5705 50.8048 47.0512 51.2203 46.8434C51.2203 46.8434 51.2203 46.8434 51.3242 46.8434C54.0248 45.8047 61.815 43.7274 75.318 47.2589C76.2529 47.4667 77.1877 47.7783 78.1225 47.8821C78.2264 47.8821 78.4341 47.986 78.538 47.986C78.9535 47.986 79.2651 47.6744 79.2651 47.3628C79.2651 47.2589 79.2651 47.155 79.2651 47.0512C79.2651 46.428 79.369 45.9086 79.369 45.2854C79.369 44.9738 79.369 44.6622 79.369 44.3506C79.369 44.2467 79.369 44.1428 79.369 44.1428C79.369 43.8312 79.1612 43.6235 78.8496 43.5196H78.7457C77.707 43.3119 76.7722 43.0003 75.7335 42.6887L75.318 42.5848C65.8659 39.261 56.8293 40.819 52.6745 41.8577C52.4667 41.9616 52.1551 41.9616 51.9474 42.0654C51.9474 42.0654 51.9474 42.0654 51.8435 42.0654C51.0126 42.0654 50.2855 41.4422 50.1816 40.7151V32.3017C50.2855 31.7823 50.5971 31.3669 51.1164 31.1591C51.2203 31.1591 51.3242 31.0553 51.428 31.0553C54.2325 30.0166 61.815 28.1469 74.6948 31.4707H74.7987C74.9026 31.4707 74.9026 31.4707 75.0064 31.4707C75.5258 31.4707 75.8374 31.0553 75.8374 30.6398C75.8374 30.5359 75.8374 30.5359 75.8374 30.432C75.8374 30.3282 75.7335 30.2243 75.7335 30.1204C70.5401 18.9025 59.0105 11.32 45.7152 11.32ZM374.359 34.3791C383.603 34.3791 388.173 39.5726 388.173 50.0634V52.0369H367.399C367.815 57.3343 370.515 59.931 375.501 59.931C377.059 59.931 378.617 59.7233 380.175 59.4117C381.733 59.1 383.395 58.4768 385.369 57.7497L387.446 63.2548C382.772 65.4361 378.409 66.4748 374.462 66.4748C369.581 66.4748 365.737 65.0206 362.933 62.2161C360.128 59.4117 358.778 55.4646 358.778 50.375C358.778 45.3893 360.128 41.4422 362.829 38.6377C365.633 35.7294 369.477 34.3791 374.359 34.3791ZM231.953 34.3791C241.198 34.3791 245.768 39.5726 245.768 50.0634V52.0369H224.994C225.41 57.3343 228.11 59.931 233.096 59.931C234.654 59.931 236.212 59.7233 237.77 59.4117C239.328 59.1 240.99 58.4768 242.964 57.7497L245.041 63.2548C240.367 65.4361 236.004 66.4748 232.057 66.4748C227.175 66.4748 223.332 65.0206 220.528 62.2161C217.723 59.4117 216.373 55.4646 216.373 50.375C216.373 45.3893 217.723 41.4422 220.424 38.6377C223.228 35.7294 227.071 34.3791 231.953 34.3791ZM306.636 23.4728C313.075 23.4728 318.061 25.3424 321.489 28.9779C324.917 32.6133 326.682 37.9107 326.682 44.766C326.682 51.7253 325.02 57.1265 321.593 60.8658C318.165 64.6051 313.179 66.3709 306.739 66.3709C300.196 66.3709 295.21 64.5013 291.782 60.8658C288.355 57.1265 286.693 51.8292 286.693 44.766C286.693 37.9107 288.458 32.7172 291.886 28.9779C295.21 25.3424 300.196 23.4728 306.636 23.4728ZM155.505 23.4728C161.945 23.4728 166.931 25.3424 170.359 28.9779C173.786 32.6133 175.552 37.9107 175.552 44.766C175.552 51.7253 173.89 57.1265 170.463 60.8658C167.035 64.6051 162.049 66.3709 155.609 66.3709C149.065 66.3709 144.08 64.5013 140.652 60.8658C137.224 57.1265 135.562 51.8292 135.562 44.766C135.562 37.9107 137.328 32.7172 140.756 28.9779C143.976 25.3424 148.962 23.4728 155.505 23.4728ZM405.935 34.3791C410.297 34.3791 413.621 35.4178 415.906 37.599C418.191 39.7803 419.438 42.8964 419.438 46.9473V65.8516H412.167L411.128 62.2161C409.882 63.5664 408.428 64.6051 406.87 65.2283C405.312 65.9554 403.546 66.267 401.78 66.267C398.56 66.267 396.067 65.4361 394.198 63.7742C392.328 62.1123 391.393 59.931 391.393 57.1265C391.393 53.9066 392.743 51.4137 395.444 49.544C398.145 47.7783 401.988 46.8434 406.87 46.8434H410.609V46.1163C410.505 42.5848 408.428 40.7151 404.585 40.7151C403.234 40.7151 401.676 40.9229 399.91 41.3383C398.145 41.7538 396.587 42.2732 395.132 42.8964L393.263 36.9758C395.34 36.1449 397.418 35.5216 399.703 35.1062C401.988 34.6907 403.961 34.3791 405.935 34.3791ZM346.729 34.483C349.845 34.483 352.858 35.21 355.662 36.6642L353.688 42.4809C351.611 41.3383 349.534 40.819 347.664 40.819C345.067 40.819 343.094 41.65 341.743 43.3119C340.393 44.9738 339.666 47.2589 339.666 50.2711C339.666 53.2833 340.393 55.5685 341.847 57.2304C343.302 58.8923 345.379 59.7233 347.976 59.7233C350.157 59.7233 352.338 59.2039 354.416 58.2691L355.87 64.2935C354.416 64.9167 352.961 65.4361 351.299 65.7477C349.638 66.0593 348.08 66.267 346.625 66.267C341.536 66.267 337.589 64.9167 334.888 62.1123C332.187 59.4116 330.837 55.4646 330.837 50.2711C330.837 45.2854 332.187 41.3383 334.992 38.5339C337.693 35.8333 341.64 34.483 346.729 34.483ZM270.801 34.483C274.021 34.483 276.513 35.4178 278.279 37.2874C280.045 39.1571 280.876 41.8577 280.876 45.2854V65.7477H272.047V45.7009C272.047 43.9351 271.735 42.5848 271.008 41.7538C270.281 40.9229 269.139 40.5074 267.581 40.5074C266.126 40.5074 264.88 40.819 263.634 41.4422C262.387 42.0654 261.452 43.0003 260.621 44.039V65.6438H251.792V34.7946H259.167L260.102 39.0532C262.803 36.041 266.438 34.483 270.801 34.483ZM445.925 34.483C449.145 34.483 451.637 35.4178 453.403 37.2874C455.169 39.1571 456 41.8577 456 45.2854V65.7477H447.171V45.7009C447.171 43.9351 446.859 42.5848 446.132 41.7538C445.405 40.9229 444.263 40.5074 442.705 40.5074C441.251 40.5074 440.004 40.819 438.758 41.4422C437.511 42.0654 436.576 43.0003 435.745 44.039V65.6438H426.917V34.7946H434.291L435.226 39.0532C437.927 36.041 441.562 34.483 445.925 34.483ZM410.609 51.7253H407.597C405.104 51.7253 403.13 52.1408 401.78 52.9717C400.43 53.8027 399.703 55.0491 399.703 56.6072C399.703 57.8536 400.118 58.7884 400.845 59.5155C401.572 60.1387 402.715 60.5542 404.065 60.5542C405.312 60.5542 406.558 60.2426 407.701 59.7233C408.843 59.2039 409.882 58.373 410.609 57.4381V51.7253ZM197.261 40.819C195.703 40.819 194.353 41.2345 193.21 42.0654C192.067 42.8964 191.236 44.1428 190.821 45.597V59.6194C191.964 59.931 192.795 60.0349 193.418 60.1387C194.041 60.2426 194.664 60.2426 195.495 60.2426C198.196 60.2426 200.169 59.4117 201.623 57.6459C203.078 55.8801 203.805 53.3872 203.805 50.0634C203.805 43.8312 201.623 40.819 197.261 40.819ZM155.505 30.5359C151.974 30.5359 149.273 31.7824 147.507 34.1714C145.742 36.5604 144.807 40.0919 144.807 44.766C144.807 49.544 145.742 53.1795 147.507 55.5685C149.273 58.0614 151.974 59.3078 155.505 59.3078C159.037 59.3078 161.738 58.0614 163.503 55.5685C165.269 53.0756 166.204 49.4402 166.204 44.766C166.204 40.0919 165.269 36.5604 163.503 34.1714C161.634 31.7824 158.933 30.5359 155.505 30.5359ZM306.636 30.5359C303.104 30.5359 300.403 31.7824 298.638 34.1714C296.872 36.5604 295.937 40.0919 295.937 44.766C295.937 49.544 296.872 53.1795 298.638 55.5685C300.403 57.9575 303.104 59.3078 306.636 59.3078C310.167 59.3078 312.868 58.0614 314.634 55.5685C316.399 53.0756 317.334 49.4402 317.334 44.766C317.334 40.0919 316.399 36.5604 314.634 34.1714C312.868 31.7824 310.167 30.5359 306.636 30.5359ZM232.057 40.5074C230.084 40.5074 228.526 41.0267 227.487 42.0654C226.344 43.1041 225.617 44.766 225.306 46.9473H237.77C237.458 42.5848 235.589 40.5074 232.057 40.5074ZM374.359 40.5074C372.385 40.5074 370.827 41.0267 369.788 42.0654C368.646 43.1041 367.919 44.766 367.607 46.9473H380.071C379.76 42.5848 377.89 40.5074 374.359 40.5074Z" fill="#B5B7B8"/>
</svg>
