<svg xmlns="http://www.w3.org/2000/svg" width="103" height="22" fill="none">
  <g clip-path="url(#a)" opacity=".6">
    <path fill="#fff" d="M11.116 21.741c5.997 0 10.859-4.862 10.859-10.859S17.113.023 11.115.023C5.12.023.258 4.885.258 10.883c0 5.996 4.862 10.858 10.859 10.858Z"/>
    <path fill="#A2A2A2" fill-rule="evenodd" d="M5.022 10.333c1.073-.892 2.335-1.279 3.704-1.364.9-.057 1.787.048 2.662.264.109.026.217.094.358.018-.248-.63-.876-.845-1.408-1.275 1.404-.105 2.678.146 3.835.782 2.254 1.24 3.478 3.182 3.554 5.76.076 2.498-1.595 4.507-4.213 5.211-5.264 1.416-10.63-2.108-11.462-7.524-.06-.39-.143-.776-.082-1.174.158.114.208.295.288.457a9.62 9.62 0 0 0 1.165 1.844c2.03 2.491 5.303 2.787 7.483 1.309a3.612 3.612 0 0 0 1.167-1.263c.522-.951.181-2.338-.71-2.743a5.512 5.512 0 0 0-3.347-.409c-.325.061-.646.13-.88.408-.23.274.054.515.062.812-.888-.126-1.647-.39-2.176-1.113Z" clip-rule="evenodd"/>
    <path fill="#BFBFBF" fill-rule="evenodd" d="M5.022 10.332c.529.723 1.288.987 2.176 1.114-.008-.297-.292-.538-.062-.812.234-.278.555-.347.88-.408a5.512 5.512 0 0 1 3.346.41c.892.404 1.233 1.79.711 2.742a3.61 3.61 0 0 1-1.167 1.263c-2.18 1.478-5.453 1.183-7.483-1.309a9.62 9.62 0 0 1-1.165-1.844c-.08-.162-.13-.343-.288-.457C2.014 4.61 8.271.141 14.202 2.356c-.545.715-1.198 1.28-1.927 1.766-.15.099-.23.08-.266-.117a1.706 1.706 0 0 0-.34-.803C10.994 4.344 9.801 4.667 8.72 5.16c-.485.222-.809.545-.88 1.104-.044.344.32.468.406.863-.418-.345-.627-.096-.866.122a2.83 2.83 0 0 1-.575.384c-.251.135-.531.251-.799.072-.258-.172-.105-.45-.096-.69-1.229.435-1.905 2.248-1.346 3.603l.457-.286Z" clip-rule="evenodd"/>
    <path fill="#BFBFBF" fill-rule="evenodd" d="M15.093 2.773c1.593.682 2.778 1.838 3.695 3.27 1.38 2.159 1.698 4.51 1.152 6.999-.15-.746-.302-1.487-.598-2.195-.452-1.082-1.205-1.924-2.054-2.697.607-.058 1.154.282 1.783.306-.033-.084-.038-.14-.068-.167-.097-.086-.203-.16-.306-.24.05-.292-.19-.394-.361-.537-1.463-1.212-3.149-1.903-5.023-2.154.24-.242.5-.462.729-.72.488-.55.752-1.215 1.051-1.865Z" clip-rule="evenodd"/>
    <path fill="#A1A1A1" fill-rule="evenodd" d="M15.093 2.774c-.3.65-.563 1.316-1.051 1.865-.23.258-.489.478-.73.72-.619.331-1.135.856-1.861.97.027-.058.07-.13.096-.206.214-.62.652-.99 1.234-1.286.68-.346 1.225-.886 1.646-1.535.042-.02.087-.049.047-.094-.015-.017-.078.007-.118.013-.11.003-.213.102-.367.004.567-.611.927-1.34 1.257-2.225.155.695-.159 1.222-.153 1.774ZM18.697 8.049c.103.079.209.154.306.24.03.026.035.082.068.166-.63-.024-1.176-.364-1.783-.306-.63-.378-1.239-.798-1.954-1.034.628-.113 1.148.25 1.714.4l.117.031-.002-.132c.097-.143.103-.154.202-.1.446.241.888.489 1.332.735ZM10.22 5.57c.204-.134.41-.263.656-.316-.028.738-.617 1.238-1.573 1.344-.03-.226.186-.193.291-.254.311-.182.554-.405.626-.774Z" clip-rule="evenodd"/>
    <path fill="#BFBFBF" fill-rule="evenodd" d="M10.22 5.57c-.072.37-.315.592-.625.774-.106.061-.322.028-.292.254-.154.086-.34.136-.44-.028-.098-.162.04-.321.163-.431.34-.306.752-.472 1.194-.569ZM5.159 8.881c.132-.425.287-.645.649-.643.118 0 .23-.037.24.132.01.142-.015.295-.195.258-.248-.052-.426.08-.694.253Z" clip-rule="evenodd"/>
    <path fill="#fff" d="M87.997 6.563c.22-.03.19-.194.186-.34-.005-.22-.18-.154-.295-.156-.664-.006-1.328-.004-1.992 0-.12 0-.269-.05-.284.17-.014.217.104.232.268.248.457.046.582.32.477.737-.053.208-.093.422-.161.625-.523 1.553-1.051 3.104-1.577 4.656-.027.081-.046.16-.139.16-.71-1.648-1.163-3.378-1.75-5.063a3.91 3.91 0 0 1-.139-.58c-.059-.318.064-.515.402-.546.14-.013.311.04.31-.205 0-.29-.214-.198-.354-.2-.864-.006-1.727-.007-2.59.002-.124.002-.313-.101-.358.14-.044.23.108.265.276.32.565.185 1.235 1.331 1.047 1.886-.48 1.418-1.005 2.82-1.558 4.358-.632-1.879-1.311-3.6-1.844-5.373-.13-.431-.159-.803.443-.863.18-.018.168-.167.172-.304.005-.18-.118-.167-.233-.167l-2.79.001c-.116 0-.234-.006-.235.17 0 .13.02.228.167.259.638.137.82.662 1.005 1.185.87 2.466 1.738 4.933 2.616 7.396.054.152.047.366.324.367.275.001.27-.21.324-.362.45-1.264.887-2.531 1.33-3.796.224-.637.455-1.27.71-1.98.7 1.96 1.364 3.83 2.036 5.698.065.181.034.445.364.44.304-.006.272-.257.334-.418.194-.511.358-1.032.537-1.548.688-1.969 1.372-3.939 2.068-5.904.16-.452.317-.932.903-1.013ZM63.826 14.748c-.74-.196-.815-.292-.816-1.06-.004-1.943-.003-3.885 0-5.828 0-.181.03-.363.044-.544.033-.457.248-.74.728-.794.159-.018.333-.04.302-.29-.032-.256-.222-.152-.34-.153-.93-.009-1.86-.008-2.79.002-.12.001-.31-.105-.354.137-.045.242.127.277.29.306.441.077.691.346.693.78.01 2.141.007 4.283-.007 6.424-.003.55-.222.972-.85 1.03-.195.018-.236.137-.227.31.011.222.175.158.29.159.498.006.996.003 1.494.003v.002c.498 0 .996.003 1.494-.003.131-.002.31.068.31-.19-.001-.197-.096-.247-.261-.291Z"/>
    <path fill="#fff" d="M73.79 10.482c-.663-.298-1.278-.67-1.915-1.007-.573-.304-.809-.822-.706-1.464.096-.601.489-.961 1.05-1.142.878-.283 1.735-.027 2.3.706.122.16.243.223.414.184.223-.052.11-.246.115-.372.015-.448.008-.896.003-1.345 0-.088.051-.214-.077-.254-.109-.032-.238-.047-.31.08-.208.373-.547.312-.879.269-.679-.09-1.356-.116-2.028.041-1.046.244-1.79 1.013-1.96 2.015-.182 1.078.228 1.968 1.218 2.556.71.422 1.443.809 2.166 1.21.544.303.75.77.678 1.376-.07.59-.416.963-.949 1.169a2.21 2.21 0 0 1-2.514-.68 2.56 2.56 0 0 1-.32-.502c-.083-.176-.215-.186-.369-.173-.224.02-.132.198-.135.307-.011.414-.005.828-.005 1.309-.425-.135-.78-.248-1.025-.518-1.257-1.389-2.493-2.796-3.75-4.184-.198-.219-.217-.337.006-.555.739-.725 1.406-1.52 2.186-2.21.38-.334.74-.668 1.261-.739.209-.028.286-.133.264-.336-.023-.217-.188-.146-.303-.147-.764-.005-1.527-.006-2.29.003-.122.002-.31-.096-.334.163-.02.227.126.214.274.245.418.09.45.34.239.657-.1.15-.226.286-.351.417-.8.84-1.598 1.685-2.41 2.514-.179.182-.179.29-.005.472.457.481.897.98 1.334 1.478.558.637 1.173 1.224 1.662 1.918.29.411.218.653-.237.783-.21.06-.332.113-.298.35.04.284.257.145.39.153 1.168.07 2.345-.115 3.51.1.07.013.204-.018.223-.063.202-.5.548-.293.872-.189 1.08.348 2.154.404 3.187-.14.92-.484 1.387-1.268 1.356-2.31-.031-1.048-.648-1.743-1.538-2.145ZM50.811 14.777c-.49-.073-.664-.388-.664-.838a4301.45 4301.45 0 0 1-.004-6.624c0-.392.152-.678.573-.749.178-.03.32-.084.306-.31-.018-.276-.227-.192-.371-.192-.897-.007-1.794-.007-2.69.001-.143.001-.354-.091-.383.18-.025.232.14.28.308.309.57.094.758.473.759.996v.897c0 1.726.004 3.453-.006 5.18-.006.83-.103.952-.877 1.192-.14.044-.19.104-.185.239.005.16.106.186.234.186h1.545v.002c.465 0 .93.007 1.394-.005.142-.003.35.093.381-.181.027-.254-.166-.26-.32-.283ZM36.093 7.67c-1.283-1.534-3.025-1.83-4.89-1.479-2.11.398-3.637 2.327-3.652 4.5-.014 2.118 1.478 3.978 3.576 4.434.274.059.486.187.689.363.551.478 1.1.96 1.778 1.262 1.135.504 2.193.317 3.212-.333.2-.128.151-.257.083-.416-.095-.223-.206-.076-.306-.01-.586.387-1.181.273-1.75-.007-.444-.218-.853-.505-1.353-.806.187-.067.278-.106.373-.132 3.367-.936 4.15-5.093 2.24-7.377Zm-4.255 6.93c-1.037-.151-1.774-.836-2.221-1.794a3.955 3.955 0 0 1-.116-.273 4.809 4.809 0 0 1-.294-1.711c0-.098.001-.197.005-.296a6.782 6.782 0 0 1 0-.498c.012-.33.051-.657.127-.98.038-.16.085-.32.142-.48.401-1.108 1.194-1.74 2.352-1.871 1.108-.126 2.062.203 2.752 1.127 1.022 1.368 1.142 4.096.242 5.548-.698 1.126-1.8 1.402-2.989 1.228Z"/>
    <path fill="#fff" d="M29.212 10.527a6.792 6.792 0 0 0 0 .001ZM29.501 12.532ZM102.626 7.738c-.236-.897-1.164-1.65-2.133-1.667-1.344-.024-2.689-.008-4.033-.003-.113 0-.283-.078-.305.142-.02.19.026.323.243.355.542.08.676.454.673.936-.006 1.013-.002 2.025-.002 3.038h.005c0 .63.008 1.261-.003 1.892-.01.562.062 1.13-.073 1.686-.126.516-.611.757-1.13.632-.491-.117-.762-.447-.96-.86-.251-.522-.48-1.055-.715-1.585-.866-1.951-1.729-3.904-2.6-5.853-.067-.151-.065-.377-.317-.392-.291-.017-.28.246-.357.405-.188.387-.348.787-.52 1.182-.852 1.957-1.703 3.915-2.558 5.87-.24.547-.448 1.127-1.162 1.235-.182.028-.148.193-.148.322-.002.217.166.165.286.167.68.004 1.361.003 2.042.001.125 0 .276.041.28-.175.004-.17-.031-.29-.223-.322-.5-.084-.5-.434-.37-.791.22-.606.485-1.195.72-1.796.057-.145.13-.206.287-.205.897.006 1.793.004 2.69.002.12 0 .226 0 .282.138.262.642.633 1.24.795 1.924.088.373.03.674-.426.721-.207.021-.225.139-.23.305-.008.25.166.2.305.2h6.224c.145 0 .312.037.3-.207-.007-.159-.007-.288-.224-.305-.548-.043-.71-.402-.71-.894.001-.83.01-1.66-.016-2.49-.01-.336.097-.346.398-.319.934.084 1.862.044 2.691-.482.892-.567 1.287-1.693.994-2.807Zm-12.967 3.476 1.176-2.83 1.298 2.83h-2.474Zm11.392-1.982c-.282.85-1.558 1.412-2.358 1.054-.176-.08-.14-.202-.142-.325-.004-.498-.001-.996-.001-1.493V6.975c.001-.145-.026-.272.206-.308 1.583-.25 2.787 1.086 2.295 2.565ZM46.891 6.064c-1.012 0-2.024-.001-3.036.002-.122 0-.274-.044-.293.167-.02.21.092.244.266.255.495.028.74.296.76.796.072 1.79.148 3.584-.048 5.367-.133 1.21-.965 1.95-2.062 1.978-1.197.031-1.925-.566-2.21-1.821a2.958 2.958 0 0 1-.09-.637c-.009-1.56-.017-3.12-.003-4.68.007-.744.105-.847.815-1.005.15-.033.25-.058.24-.237-.01-.2-.151-.183-.284-.183h-3.037c-.133.001-.272-.015-.284.185-.01.171.084.252.227.27.73.093.82.625.829 1.204.01.713.002 1.427.002 2.14h.006c0 .73-.017 1.461.004 2.19.03.992.37 1.871 1.177 2.477 1.358 1.019 2.867 1.08 4.371.416 1.395-.615 1.879-1.818 1.85-3.29-.025-1.277-.013-2.555-.002-3.833.007-.85.122-1.01.858-1.281.146-.055.211-.124.212-.285-.001-.205-.133-.195-.268-.195ZM59.904 15.046c.007-.613.006-1.225.001-1.838 0-.103.047-.242-.142-.254-.151-.01-.24.028-.284.191-.15.554-.557.882-1.035 1.142-.443.24-.925.337-1.423.364-.132-.01-.264-.022-.396-.028-1.598-.075-2.558-.984-2.972-2.391a5.29 5.29 0 0 1 .019-3.042c.338-1.138 1.047-1.942 2.224-2.272.206-.057.414-.102.623-.153.198-.001.399-.02.595 0 1.004.097 2.014.194 2.397 1.373.044.134.14.112.235.117.181.01.16-.123.16-.236.002-.663.003-1.325 0-1.988-.001-.104.043-.25-.147-.248-.11 0-.222-.028-.26.143-.089.384-.384.404-.703.361-.72-.095-1.439-.233-2.172-.201-1.836-.052-3.354.598-4.256 2.23-.927 1.675-.904 3.435.17 5.049 1.053 1.584 2.622 2.156 4.493 1.932.596-.049 1.169-.214 1.734-.39.337-.105.587-.103.71.276.056.176.189.16.318.14.176-.026.11-.177.111-.277Z"/>
  </g>
  <defs>
    <clipPath id="a">
      <path fill="#fff" d="M0 0h102.972v22H0z"/>
    </clipPath>
  </defs>
</svg>