<svg xmlns="http://www.w3.org/2000/svg" width="105" height="18" fill="none">
  <g fill="#9E9DA0" clip-path="url(#a)">
    <path d="m7.582 5.516-1.32-1.273a5.254 5.254 0 0 0-2.278 2L2.17 3.684A8.21 8.21 0 0 1 8.431.799c1.514 0 2.932.408 4.15 1.12L9.723 3.933 7.582 5.516ZM4.94 9.845l-1.276 1.317a5.25 5.25 0 0 0 2.005 2.271l-2.564 1.808A8.168 8.168 0 0 1 .21 8.997c0-1.51.409-2.923 1.123-4.138l2.02 2.85L4.94 9.846ZM13.51 10.285 11.922 8.15l1.276-1.317a5.25 5.25 0 0 0-2.005-2.272l2.564-1.807a8.168 8.168 0 0 1 2.894 6.243c0 1.51-.409 2.924-1.122 4.139l-2.02-2.851ZM12.88 11.753l1.811 2.557a8.209 8.209 0 0 1-6.26 2.886 8.2 8.2 0 0 1-4.15-1.12l2.859-2.015L9.28 12.48l1.32 1.273a5.252 5.252 0 0 0 2.278-2ZM104.211 2.751v12.22h-1.643V2.752h1.643Z"/>
    <path fill-rule="evenodd" d="M25.114 2.766c1.086 0 2.02.272 2.8.814.78.531 1.369 1.266 1.765 2.204.396.938.594 2.012.594 3.221 0 1.21-.198 2.284-.594 3.222-.396.938-.984 1.678-1.765 2.22-.78.532-1.714.797-2.8.797-1.086 0-2.019-.265-2.8-.796-.78-.543-1.368-1.283-1.764-2.221-.396-.938-.594-2.012-.594-3.222 0-1.209.198-2.283.594-3.22.396-.939.984-1.674 1.764-2.205.781-.542 1.714-.814 2.8-.814Zm0 2.306c.6 0 1.09.2 1.47.598l-3.672 5.304c-.16-.56-.241-1.217-.241-1.969 0-1.198.204-2.153.61-2.865.42-.712 1.03-1.068 1.833-1.068Zm0 7.867c-.601 0-1.095-.2-1.48-.6l3.675-5.308c.166.562.249 1.22.249 1.974 0 1.198-.21 2.153-.628 2.866-.407.712-1.013 1.068-1.816 1.068Z" clip-rule="evenodd"/>
    <path d="m30.304 14.973 3.19-4.68-2.918-4.272h3.054l1.222 2.221c.136.238.203.475.203.712 0 .102.017.187.051.255.046.068.12.102.22.102.103 0 .17-.034.205-.102a.449.449 0 0 0 .067-.255c0-.237.068-.474.204-.712l1.222-2.22h3.054l-2.919 4.272 3.19 4.68h-3.054l-1.493-2.646c-.113-.18-.181-.418-.204-.712v-.05c-.022-.204-.113-.306-.271-.306-.102 0-.17.034-.204.102a.631.631 0 0 0-.068.254c-.022.294-.09.532-.203.712l-1.493 2.645h-3.055Z"/>
    <path fill-rule="evenodd" d="M48.315 3.022c1.608 0 2.766.334 3.473 1.002.719.667 1.078 1.578 1.078 2.733 0 .724-.16 1.369-.479 1.934-.308.566-.781 1.008-1.42 1.324-.639.317-1.431.476-2.378.476h-2.977v4.48h-1.78V3.023h4.483Zm.257 5.975c.798 0 1.414-.204 1.848-.611.444-.419.667-.962.667-1.63 0-.712-.217-1.261-.65-1.646-.422-.396-1.044-.594-1.865-.594h-2.96v4.481h2.96Z" clip-rule="evenodd"/>
    <path d="M55.946 8.284c-.022.023-.057.028-.102.017-.057-.011-.086-.045-.086-.102 0-.056.006-.113.017-.17h.017v-.033a4 4 0 0 0 .189-1.138v-.577h-1.643v8.69h1.643v-4.158c0-.78.097-1.397.29-1.85.206-.453.542-.77 1.01-.95.479-.193 1.14-.26 1.985-.204V6.146c-.719 0-1.283.067-1.694.203-.4.136-.707.345-.924.628-.217.272-.428.662-.633 1.171l-.017.017a.379.379 0 0 1-.052.12Z"/>
    <path fill-rule="evenodd" d="M65.852 6.74c-.639-.396-1.386-.594-2.241-.594-.856 0-1.609.198-2.259.594-.638.396-1.129.939-1.472 1.629-.342.679-.513 1.431-.513 2.257 0 .826.171 1.585.513 2.275a3.958 3.958 0 0 0 1.472 1.612c.65.396 1.403.594 2.259.594.855 0 1.602-.198 2.241-.594a3.918 3.918 0 0 0 1.489-1.612 5.05 5.05 0 0 0 .513-2.275c0-.826-.171-1.578-.513-2.257a3.894 3.894 0 0 0-1.489-1.63Zm-.856 6.483c-.387.26-.85.39-1.385.39-.537 0-1.004-.13-1.404-.39a2.615 2.615 0 0 1-.889-1.086 3.611 3.611 0 0 1-.308-1.51c0-.555.102-1.059.308-1.511.205-.453.502-.81.89-1.07.399-.271.866-.407 1.403-.407.536 0 .998.136 1.385.407.4.26.702.617.907 1.07.206.452.308.956.308 1.51 0 .555-.102 1.058-.308 1.511a2.57 2.57 0 0 1-.907 1.086Z" clip-rule="evenodd"/>
    <path d="M67.945 6.281v1.426h1.643v4.718c0 .623.097 1.12.29 1.494.194.373.485.645.873.815.388.158.89.237 1.506.237h1.437v-1.425h-1.3c-.32 0-.565-.04-.736-.12a.688.688 0 0 1-.343-.39c-.056-.18-.085-.44-.085-.78v-4.55h2.464V6.282H71.23V3.837h-1.642V6.28h-1.643Z"/>
    <path fill-rule="evenodd" d="M80.832 6.74c-.64-.396-1.387-.594-2.242-.594s-1.608.198-2.258.594c-.639.396-1.13.939-1.472 1.629-.342.679-.513 1.431-.513 2.257 0 .826.17 1.585.513 2.275a3.958 3.958 0 0 0 1.472 1.612c.65.396 1.403.594 2.258.594s1.603-.198 2.242-.594a3.918 3.918 0 0 0 1.488-1.612 5.05 5.05 0 0 0 .513-2.275c0-.826-.17-1.578-.513-2.257a3.894 3.894 0 0 0-1.488-1.63Zm-.856 6.483c-.388.26-.85.39-1.386.39-.536 0-1.004-.13-1.403-.39a2.615 2.615 0 0 1-.89-1.086 3.611 3.611 0 0 1-.308-1.51c0-.555.103-1.059.308-1.511.206-.453.502-.81.89-1.07.4-.271.867-.407 1.403-.407s.998.136 1.386.407c.4.26.701.617.906 1.07.206.452.309.956.309 1.51 0 .555-.103 1.058-.309 1.511a2.566 2.566 0 0 1-.906 1.086Z" clip-rule="evenodd"/>
    <path d="M84.263 8.369c-.342.679-.514 1.431-.514 2.257 0 .826.172 1.585.514 2.275a4.034 4.034 0 0 0 1.506 1.612c.65.396 1.408.594 2.275.594.776 0 1.45-.152 2.02-.458a3.601 3.601 0 0 0 1.334-1.239c.32-.52.507-1.086.565-1.697h-1.609c-.08.532-.32.984-.718 1.358-.4.362-.925.543-1.575.543-.536 0-1.009-.136-1.42-.408a2.693 2.693 0 0 1-.924-1.086 3.412 3.412 0 0 1-.325-1.494c0-.543.108-1.04.325-1.493.217-.453.525-.815.924-1.087.411-.271.884-.407 1.42-.407.65 0 1.175.187 1.575.56.398.362.638.81.718 1.341h1.609a3.78 3.78 0 0 0-.565-1.68 3.398 3.398 0 0 0-1.352-1.24c-.57-.316-1.238-.474-2.002-.474-.89 0-1.66.198-2.31.594-.638.396-1.129.939-1.471 1.629Z"/>
    <path fill-rule="evenodd" d="M99.37 6.74c-.64-.396-1.386-.594-2.242-.594-.855 0-1.608.198-2.258.594-.639.396-1.13.939-1.472 1.629-.342.679-.513 1.431-.513 2.257 0 .826.171 1.585.513 2.275a3.952 3.952 0 0 0 1.472 1.612c.65.396 1.403.594 2.258.594.856 0 1.603-.198 2.242-.594a3.913 3.913 0 0 0 1.488-1.612c.343-.69.514-1.449.514-2.275 0-.826-.171-1.578-.514-2.257a3.89 3.89 0 0 0-1.489-1.63Zm-.856 6.483c-.388.26-.85.39-1.386.39-.536 0-1.003-.13-1.403-.39a2.62 2.62 0 0 1-.89-1.086 3.62 3.62 0 0 1-.307-1.51c0-.555.102-1.059.307-1.511.206-.453.503-.81.89-1.07.4-.271.867-.407 1.403-.407.537 0 .998.136 1.386.407.4.26.702.617.907 1.07.206.452.308.956.308 1.51 0 .555-.102 1.058-.308 1.511a2.57 2.57 0 0 1-.907 1.086Z" clip-rule="evenodd"/>
  </g>
  <defs>
    <clipPath id="a">
      <path fill="#fff" d="M.21.799h104v16.546H.21z"/>
    </clipPath>
  </defs>
</svg>