<svg xmlns="http://www.w3.org/2000/svg" width="66" height="22" fill="none">
  <clipPath id="a">
    <path d="M0 0h66v22H0z"/>
  </clipPath>
  <g fill="#fff" fill-opacity=".6" clip-path="url(#a)">
    <path fill-rule="evenodd" d="M16.772 2.067c1.234-.229 5.849-1.083 6.054.373.21 1.492-1.69 3.55-3.68 4.474-.106.049-.199.116-.292.183-.078.056-.155.112-.24.158-.313.169-.5.59-.454.971v5.33c-1.569-1.094-3.875-1.776-6.489-1.776s-4.92.681-6.49 1.776v-5.33c.047-.38-.14-.802-.453-.971-.085-.046-.162-.102-.24-.157a1.815 1.815 0 0 0-.291-.184C2.207 5.99.306 3.932.516 2.44.722.984 5.338 1.84 6.571 2.067l.226.041c.036.006.069-.024.062-.06-.071-.352-.123-1.305.558-1.51.435-.133.721.11.892.356.076.11.304.587.446.918.076.179.254.44.45.435.82-.253 1.643-.38 2.466-.38s1.647.127 2.467.38c.195.005.373-.256.45-.435.141-.33.37-.807.445-.918.17-.245.458-.489.892-.357.68.206.63 1.16.559 1.512-.008.035.026.065.061.06l.227-.042zm-6.08 5.901c.022-.135-.197-.477-.88-.942a5.667 5.667 0 0 0-1.564-.732 1.273 1.273 0 0 0-.402-.058 1.27 1.27 0 0 0-.694.242c-.278.192-.47.447-.529.778-.06.33.034.636.229.911.144.21.339.37.568.463.126.05.263.073.398.081a5.695 5.695 0 0 0 1.723-.156c.802-.205 1.125-.453 1.15-.587zm5.23.662c.23-.093.424-.253.568-.463.196-.275.288-.58.229-.91-.058-.332-.25-.587-.529-.78a1.27 1.27 0 0 0-.694-.24 1.273 1.273 0 0 0-.402.057 5.668 5.668 0 0 0-1.565.732c-.682.465-.9.807-.878.942.025.134.348.382 1.15.587.561.14 1.145.192 1.723.156.136-.008.272-.03.398-.081z" clip-rule="evenodd"/>
    <path fill-rule="evenodd" d="M3.94 17.083c0-2.439 3.461-4.416 7.731-4.416s7.731 1.977 7.731 4.416c0 2.44-3.461 4.417-7.73 4.417-4.27 0-7.732-1.977-7.732-4.417zm2.676-.274c.119.726.735 1.046 1.396.726a1.917 1.917 0 0 0 1.107-1.637c-.003-.375-.203-.231-.45-.054-.33.238-.743.536-.882-.264-.243-1.399-1.3.45-1.17 1.228zm8.714.726c.661.32 1.277 0 1.396-.726.13-.779-.928-2.628-1.17-1.23-.14.8-.554.503-.883.265-.247-.177-.447-.32-.45.054a1.916 1.916 0 0 0 1.107 1.637z" clip-rule="evenodd"/>
    <path d="M27.755 5.133c.25-.214.678-.321 1.285-.321h5.266c.607 0 1.1-.495 1.1-1.106s-.493-1.106-1.1-1.106H29.13c-2.878 0-4.317 1.176-4.317 3.529v.08c0 1.153.352 2.023 1.055 2.609.702.587 1.79.88 3.262.88h5.177c.607 0 1.1-.495 1.1-1.106s-.493-1.106-1.1-1.106H29.04c-.6 0-1.026-.107-1.28-.322-.253-.214-.38-.536-.38-.965v-.08c0-.443.126-.77.375-.986zM45.102 2.63 43.85 4.812h.629c.606 0 1.034.107 1.284.322.25.214.375.542.375.985v.08c0 .43-.127.751-.38.965-.253.215-.68.322-1.279.322h-2.163l-1.27 2.212h3.343c1.472 0 2.56-.293 3.263-.88.703-.586 1.054-1.456 1.054-2.609v-.08c0-2.148-1.204-3.312-3.604-3.499zM42.865 4.812 44.134 2.6h-3.232c-2.878 0-4.317 1.176-4.317 3.529v.08c0 1.153.351 2.023 1.054 2.609.565.471 1.382.75 2.443.842l1.248-2.174h-.518c-.6 0-1.026-.107-1.28-.322-.252-.214-.379-.536-.379-.965v-.08c0-.443.125-.77.375-.986.25-.214.678-.321 1.284-.321M64.146 2.6c-.42 0-.812.21-1.046.56l-1.243 1.857a1.257 1.257 0 0 1-2.027.089l-1.326-1.65a1.256 1.256 0 0 0-1.961 0l-1.327 1.65a1.257 1.257 0 0 1-2.026-.09L51.947 3.16a1.26 1.26 0 0 0-1.046-.56c-1.014 0-1.614 1.143-1.04 1.985l3.103 4.56a1.257 1.257 0 0 0 2.024.078l1.552-1.945a1.257 1.257 0 0 1 1.967 0l1.552 1.945c.53.664 1.546.625 2.024-.077l3.103-4.56c.573-.843-.026-1.986-1.04-1.986zM24.812 19.4h.84v-2.651h1.428c1.437 0 2.429-.675 2.429-2.148 0-1.235-.67-2.159-2.282-2.159h-2.415zm.845-3.436v-2.737h1.475c.93 0 1.5.474 1.5 1.354 0 .795-.475 1.383-1.633 1.383zM33.029 14.577c-.64 0-1.186.325-1.537.89h-.02v-.833h-.787V19.4h.788v-2.297c0-.957.54-1.656 1.437-1.656.08 0 .2.005.313.015v-.876c-.057-.01-.123-.01-.194-.01zM36.15 19.462c1.395 0 2.434-.99 2.434-2.435 0-1.455-1.04-2.45-2.434-2.45-1.466 0-2.443 1.067-2.443 2.45 0 1.368.977 2.435 2.443 2.435zm0-.727c-.977 0-1.65-.766-1.65-1.708 0-.953.664-1.718 1.65-1.718.916 0 1.637.698 1.637 1.718 0 1.004-.726 1.708-1.637 1.708zM41.084 19.462c.56 0 .887-.143 1.143-.292l-.209-.694c-.223.13-.517.245-.797.245-.446 0-.578-.283-.578-.857v-2.541h1.565v-.689h-1.565v-1.718l-.788.086v1.632h-.602v.689h.602v2.66c0 .962.39 1.484 1.229 1.484zM45.22 19.462c1.395 0 2.434-.99 2.434-2.435 0-1.455-1.039-2.45-2.434-2.45-1.465 0-2.443 1.067-2.443 2.45 0 1.368.978 2.435 2.443 2.435zm0-.727c-.977 0-1.65-.766-1.65-1.708 0-.953.664-1.718 1.65-1.718.916 0 1.637.698 1.637 1.718 0 1.004-.726 1.708-1.636 1.708zM50.913 19.462c.85 0 1.556-.35 1.955-.809l-.546-.492c-.29.33-.783.57-1.338.57-.948 0-1.608-.695-1.608-1.714 0-1.01.65-1.718 1.608-1.718.565 0 1.03.244 1.324.598l.545-.478c-.465-.555-1.2-.847-1.907-.847-1.39 0-2.367 1.01-2.367 2.455s.977 2.435 2.339 2.435zM56.093 19.462c1.395 0 2.434-.99 2.434-2.435 0-1.455-1.039-2.45-2.434-2.45-1.465 0-2.443 1.067-2.443 2.45 0 1.368.978 2.435 2.443 2.435zm0-.727c-.977 0-1.65-.766-1.65-1.708 0-.953.664-1.718 1.65-1.718.916 0 1.637.698 1.637 1.718 0 1.004-.726 1.708-1.636 1.708zM59.808 19.4h.783v-7.211h-.783z"/>
  </g>
</svg>