<svg xmlns="http://www.w3.org/2000/svg" width="101" height="21" fill="none">
  <g opacity=".5">
    <path fill="url(#a)"
      d="M10.757 21c5.941 0 10.758-4.701 10.758-10.5S16.698 0 10.757 0C4.817 0 0 4.701 0 10.5S4.816 21 10.757 21Z" />
    <path fill="#595959" d="M13.934 15.978V8.891H7.58l6.354 7.087Z" />
    <path fill="#ACACAC" d="M7.58 5.02v7.07h6.354L7.58 5.02Z" />
    <path fill="#fff"
      d="M27.317 14.416h6.86v-1.485h-5.062V4.966h-1.798v9.45ZM42.306 10.852c0-2.254-1.576-3.726-3.734-3.726-2.2 0-3.817 1.54-3.817 3.686s1.604 3.699 4.08 3.699c1.272 0 2.31-.405 2.973-1.175l-.926-1.04c-.526.527-1.176.784-2.006.784-1.286 0-2.185-.675-2.393-1.728h5.796c.013-.162.027-.365.027-.5Zm-3.734-2.376c1.134 0 1.95.716 2.088 1.755h-4.19c.166-1.053.982-1.755 2.102-1.755ZM49.087 7.207l-2.365 5.346-2.296-5.346H42.63l3.167 7.21h1.784l3.167-7.21h-1.66ZM52.699 6.02c.65 0 1.107-.46 1.107-1.054 0-.553-.47-.972-1.107-.972-.636 0-1.106.446-1.106 1.013s.47 1.012 1.106 1.012Zm-.871 8.396h1.728V7.207h-1.728v7.21ZM60.016 7.126c-1.078 0-1.977.351-2.544 1.013v-.932h-1.646v7.21h1.728V10.77c0-1.444.83-2.173 2.061-2.173 1.107 0 1.757.62 1.757 1.903v3.915H63.1v-4.13c0-2.174-1.314-3.16-3.085-3.16ZM67.576 14.51c2.075 0 3.347-.877 3.347-2.227 0-2.821-4.564-1.525-4.564-2.983 0-.473.498-.81 1.549-.81.705 0 1.41.135 2.116.54l.664-1.283c-.664-.391-1.784-.62-2.766-.62-1.992 0-3.25.89-3.25 2.254 0 2.875 4.564 1.58 4.564 2.956 0 .5-.457.797-1.55.797-.926 0-1.922-.297-2.572-.716l-.664 1.283c.664.459 1.895.81 3.126.81ZM82.263 7.207l-2.006 5.346-1.992-5.346h-1.452l-2.033 5.32-1.95-5.32h-1.632l2.71 7.21h1.66l1.937-4.969 1.908 4.968h1.66l2.725-7.209h-1.535ZM87.578 7.126c-1.19 0-2.337.297-3.125.891l.677 1.229c.553-.446 1.411-.716 2.24-.716 1.232 0 1.84.58 1.84 1.566v.108h-1.908c-2.24 0-3.07.945-3.07 2.147 0 1.255 1.064 2.16 2.752 2.16 1.106 0 1.908-.351 2.323-.972v.877h1.632v-4.225c0-2.08-1.23-3.065-3.36-3.065Zm-.235 6.156c-.885 0-1.41-.391-1.41-.999 0-.526.318-.958 1.493-.958h1.784v.837c-.29.742-1.023 1.12-1.867 1.12ZM97.252 7.126c-1.01 0-1.867.338-2.448 1.026v-.945h-1.646v9.828h1.729V13.54c.594.661 1.424.972 2.365.972 2.157 0 3.748-1.458 3.748-3.7 0-2.227-1.59-3.685-3.748-3.685Zm-.194 5.94c-1.245 0-2.199-.877-2.199-2.254s.955-2.255 2.2-2.255c1.244 0 2.184.878 2.184 2.255 0 1.377-.94 2.254-2.185 2.254Z" />
  </g>
  <defs>
    <linearGradient id="a" x1="14.203" x2="23.593" y1="2.953" y2="48.116" gradientUnits="userSpaceOnUse">
      <stop stop-color="#fff" />
      <stop offset=".28" stop-color="#E7E7E7" />
      <stop offset=".61" stop-color="#BEBEBE" />
      <stop offset=".86" stop-color="#ACACAC" />
      <stop offset="1" stop-color="#A3A3A3" />
    </linearGradient>
  </defs>
</svg>