<svg xmlns="http://www.w3.org/2000/svg" width="63" height="22" fill="none">
  <g clip-path="url(#a)" opacity=".6">
    <path fill="#fff"
      d="M23.551 3.23h3.837c2.571 0 4.163.694 5.163 1.694.98.98 1.428 2.265 1.428 3.857a7.253 7.253 0 0 1-2.16 5.204c-1.593 1.591-3.858 2.428-6.92 2.428H20L23.551 3.23Zm1.694 10.591a6.167 6.167 0 0 0 4.408-1.612 4.608 4.608 0 0 0 1.327-3.306 2.884 2.884 0 0 0-.776-2.102c-.592-.592-1.55-.959-3.04-.959h-1.409L23.614 13.8h1.632v.021ZM36.47 8.78h-1.206l.653-2.448h1.184l.123-.551c.592-2.245 1.98-3.245 4.082-3.245a6.126 6.126 0 0 1 1.959.286l-.612 2.368a3.752 3.752 0 0 0-1.247-.244 1.333 1.333 0 0 0-1.408 1.102l-.084.285h2.429l-.653 2.449h-2.369l-2.081 7.652h-2.852L36.47 8.78ZM40.49 18.801l1.53-2.081c.32.236.705.37 1.102.388a1.253 1.253 0 0 0 1.103-.612L42.978 6.314h2.918l.47 6.857 3.797-6.858h3.082L46.979 16.66c-1.326 2.06-2.448 2.836-4.163 2.836a3.554 3.554 0 0 1-2.327-.696ZM54.551 6.332h2.857l-.184.653c.715-.633 1.511-.837 2.654-.837 1.816 0 2.98 1.103 2.98 2.939a7.466 7.466 0 0 1-.348 1.918l-1.449 5.428h-2.857l1.49-5.55c.079-.293.12-.595.123-.898 0-.817-.51-1.247-1.388-1.247-1.122 0-1.857.816-2.184 2.02l-1.53 5.673h-2.858l2.694-10.099Z" />
    <path fill="url(#b)"
      d="m6.347 14.167.347-1.367c0-.042-.02-.083-.061-.083H.06c-.041 0-.061-.042-.061-.083L3.388.042c0-.02.041-.042.06-.042h3.654c2.469 0 4.02.673 4.98 1.632a5.016 5.016 0 0 1 1.387 3.714 6.9 6.9 0 0 1-.367 2.245 6.31 6.31 0 0 1-.878 1.734c-.02.042 0 .103.042.103h4.857a.057.057 0 0 1 .042.102L4.447 21.983a.062.062 0 0 1-.1-.022.062.062 0 0 1-.002-.039l2.002-7.755Z" />
  </g>
  <defs>
    <radialGradient id="b" cx="0" cy="0" r="1" gradientTransform="matrix(17.7096 0 0 17.71 6.215 14.366)"
      gradientUnits="userSpaceOnUse">
      <stop stop-color="#fff" />
      <stop offset=".469" stop-color="#D5D5D5" />
      <stop offset=".917" stop-color="#DFDFDF" />
    </radialGradient>
    <clipPath id="a">
      <path fill="#fff" d="M0 0h62.857v22H0z" />
    </clipPath>
  </defs>
</svg>