<svg width="112" height="20" viewBox="0 0 112 20" fill="none" xmlns="http://www.w3.org/2000/svg">
<path d="M17.3102 15.1224C17.2982 15.1322 17.2863 15.1409 17.2743 15.1496C17.2624 15.1583 17.2494 15.167 17.2374 15.1756C17.2135 15.1919 17.1896 15.2082 17.1657 15.2234L17.157 15.2289C17.1375 15.2419 17.1169 15.2538 17.0962 15.2658C17.0658 15.2842 17.0365 15.3016 17.005 15.3179C16.7954 15.4341 16.5761 15.5286 16.3513 15.6111C16.1395 15.6893 15.9245 15.7566 15.7084 15.8174C15.3978 15.9043 15.0829 15.976 14.7669 16.039C14.4584 16.1009 14.15 16.153 13.8395 16.1986C13.5289 16.2442 13.2172 16.2811 12.9055 16.3137C12.8035 16.3246 12.7014 16.3344 12.5982 16.3441C12.393 16.3626 12.1877 16.3789 11.9825 16.393C11.8793 16.3995 11.7772 16.406 11.6741 16.4125C11.4438 16.4256 11.2136 16.4353 10.9834 16.443C10.9421 16.444 10.8998 16.4462 10.8574 16.4473C10.8194 16.4484 10.7803 16.4495 10.7423 16.4506C10.8368 16.3344 10.9313 16.2182 11.0171 16.0954C11.029 16.0802 11.042 16.065 11.054 16.0487C11.2484 15.787 11.4351 15.5199 11.6132 15.2473C11.6317 15.2473 11.6491 15.2451 11.6675 15.2441C11.7805 15.2375 11.8934 15.231 12.0074 15.2223C12.0932 15.2169 12.179 15.2104 12.2648 15.2039C12.8643 15.1572 13.4615 15.0909 14.0566 14.9975C14.2293 14.9704 14.402 14.9411 14.5736 14.9096C14.9743 14.8347 15.3728 14.7467 15.7649 14.6337C15.8506 14.6088 15.9364 14.5827 16.0222 14.5566C16.0657 14.5436 16.108 14.5295 16.1504 14.5154C16.2144 14.5262 16.2742 14.5534 16.3339 14.5762C16.3871 14.5957 16.4403 14.6164 16.4935 14.637C16.6434 14.6967 16.7911 14.763 16.9344 14.8379C16.9909 14.8672 17.0463 14.8987 17.1006 14.9324C17.1733 14.9769 17.2439 15.0225 17.3102 15.0757C17.3297 15.0909 17.3351 15.0975 17.3275 15.1061C17.3243 15.1105 17.3189 15.1148 17.3091 15.1224H17.3102Z" fill="#F4F4F4"/>
<path d="M16.1503 14.5154C16.1079 14.5295 16.0645 14.5436 16.0221 14.5567C15.9363 14.5838 15.8506 14.6099 15.7648 14.6338C15.3727 14.7456 14.9742 14.8347 14.5735 14.9096C14.4019 14.9411 14.2292 14.9704 14.0566 14.9976C13.4625 15.091 12.8653 15.1572 12.2647 15.2039C12.1789 15.2104 12.0932 15.2169 12.0074 15.2224C11.8944 15.23 11.7815 15.2376 11.6675 15.2441C11.649 15.2441 11.6316 15.2462 11.6132 15.2473C11.7359 15.0595 11.8553 14.8694 11.9715 14.6761C12.1388 14.397 12.2973 14.1136 12.4493 13.8269C12.7382 13.8519 13.0271 13.8812 13.3159 13.917C13.3377 13.9192 13.3583 13.9236 13.38 13.9268C13.5092 13.9366 13.6374 13.9561 13.7644 13.9746C13.9284 13.9985 14.0924 14.0245 14.2564 14.0528C14.4768 14.0897 14.6973 14.131 14.9166 14.1788C15.035 14.2048 15.1534 14.2309 15.2717 14.2569C15.2902 14.2667 15.3108 14.2711 15.3315 14.2732C15.5845 14.3384 15.8364 14.4057 16.084 14.4883C16.1068 14.4959 16.1329 14.498 16.1503 14.5176V14.5154Z" fill="#B0B0B0"/>
<path d="M4.4828 18.6552C4.4752 18.6552 4.46869 18.653 4.46326 18.6465C4.46326 18.6465 4.46434 18.6465 4.46543 18.6465C4.46543 18.6465 4.4676 18.6465 4.46869 18.6465C4.46869 18.6465 4.47086 18.6465 4.47194 18.6465H4.47412C4.47412 18.6465 4.47629 18.6476 4.47737 18.6487H4.47846C4.47846 18.6487 4.48063 18.6519 4.48172 18.653L4.4828 18.6552Z" fill="#5A5A5A"/>
<path d="M4.46327 18.6464C4.45567 18.6464 4.44807 18.6453 4.44373 18.6377C4.44373 18.6377 4.44807 18.6377 4.44916 18.6377C4.44916 18.6377 4.45893 18.641 4.46219 18.6464H4.46327Z" fill="#5A5A5A"/>
<path d="M4.44318 18.6369L4.44153 18.6353L4.44318 18.6369Z" fill="#5A5A5A"/>
<path d="M4.44263 18.6365C4.43394 18.6365 4.42634 18.6365 4.422 18.6267C4.43068 18.6267 4.4372 18.6278 4.44154 18.6354L4.44263 18.6365Z" fill="#5A5A5A"/>
<path d="M4.42364 18.6274H4.422V18.6257L4.42364 18.6274Z" fill="#5A5A5A"/>
<path d="M4.42364 18.6274L4.422 18.6257H4.42364V18.6274Z" fill="#5A5A5A"/>
<path d="M4.42311 18.6257C4.41442 18.6257 4.40574 18.6279 4.40356 18.617C4.41225 18.6148 4.41985 18.617 4.4242 18.6257H4.42311Z" fill="#5A5A5A"/>
<path d="M4.34385 18.5757C4.34928 18.5789 4.3558 18.5822 4.36232 18.5855C4.36666 18.5876 4.37209 18.5898 4.37643 18.592C4.38404 18.5963 4.39164 18.6007 4.39707 18.6083C4.39924 18.6104 4.40032 18.6137 4.4025 18.617C4.37535 18.6148 4.35254 18.6039 4.33191 18.5865L4.34494 18.5757H4.34385Z" fill="#5A5A5A"/>
<path d="M6.17701 17.715C6.15529 17.7182 6.13249 17.7226 6.11077 17.7247C6.02498 17.7367 5.93919 17.7432 5.8534 17.7454C5.82408 17.7454 5.79584 17.7454 5.76652 17.7454C5.7372 17.7454 5.70896 17.7443 5.67964 17.7432C5.66661 17.7432 5.65467 17.741 5.64272 17.74C5.63078 17.7389 5.61774 17.7367 5.6058 17.7356C5.5906 17.7345 5.57756 17.728 5.56562 17.7171C5.53195 17.6857 5.49829 17.6542 5.4668 17.6216C5.70354 17.6563 5.94027 17.6867 6.17701 17.715Z" fill="#F4F4F4"/>
<path d="M9.90065 13.7183C9.73016 13.7183 9.55966 13.7204 9.39025 13.7237C9.10682 14.1635 8.80058 14.587 8.46719 14.991C8.3966 15.0757 8.32602 15.1593 8.25326 15.2419C8.06973 15.4504 7.87969 15.6513 7.67879 15.8435C7.50395 16.0118 7.32259 16.1725 7.13255 16.3235C6.98486 16.4418 6.83283 16.5548 6.67428 16.659C6.38216 16.8523 6.077 17.0185 5.74796 17.1401C5.58072 17.2009 5.41023 17.2509 5.23539 17.2802C5.22561 17.2824 5.21584 17.2856 5.20715 17.2889C5.20715 17.2921 5.20824 17.2954 5.20933 17.2976C5.20933 17.2997 5.20933 17.3008 5.2115 17.303C5.22453 17.3225 5.23647 17.341 5.24951 17.3595C5.27557 17.3964 5.30272 17.4333 5.33095 17.4692C5.3733 17.5224 5.41891 17.5734 5.46561 17.6234C5.70235 17.6581 5.93909 17.6885 6.17583 17.7167C6.23881 17.707 6.3018 17.695 6.36478 17.6798C6.50921 17.6451 6.65039 17.6006 6.78722 17.5473C6.85563 17.5202 6.92405 17.492 6.99138 17.4615C7.05871 17.4311 7.12495 17.3975 7.19011 17.3638C7.21834 17.3486 7.24658 17.3334 7.27481 17.3182C7.47137 17.2096 7.66033 17.0891 7.84059 16.9588C8.02195 16.8284 8.1957 16.6873 8.36403 16.5396C8.38792 16.5179 8.41181 16.4972 8.4357 16.4755C8.45307 16.4592 8.47045 16.4429 8.48891 16.4266C8.59751 16.3278 8.70284 16.2257 8.80601 16.1215C8.84619 16.0813 8.88528 16.04 8.92546 15.9988C9.05469 15.863 9.18175 15.724 9.30446 15.5818C9.37831 15.496 9.44998 15.4102 9.52165 15.3222C9.53034 15.3114 9.53903 15.3005 9.54772 15.2907C9.59658 15.2299 9.64437 15.1691 9.69215 15.1072C9.84201 14.9128 9.98753 14.7141 10.1265 14.5121C10.2015 14.4024 10.2753 14.2927 10.3481 14.1809C10.3882 14.1179 10.4284 14.0549 10.4675 13.9919C10.5218 13.905 10.575 13.8182 10.6282 13.7302C10.385 13.7248 10.1428 13.7215 9.89957 13.7215L9.90065 13.7183Z" fill="#F4F4F4"/>
<path d="M8.45748 13.7541C8.33585 13.7596 8.21422 13.7661 8.0926 13.7737C7.95903 13.9627 7.82111 14.1484 7.67776 14.3297C7.53659 14.5078 7.39216 14.6826 7.24012 14.8521C7.15433 14.9487 7.06637 15.0432 6.97841 15.1377C6.91542 15.2039 6.85135 15.2701 6.78619 15.3342C6.52448 15.5894 6.25082 15.8316 5.95652 16.0488C5.90766 16.0846 5.85879 16.1204 5.80775 16.1552C5.64268 16.2703 5.4711 16.3767 5.29409 16.4723C5.16595 16.5418 5.03346 16.6037 4.8988 16.6602C4.8988 16.6667 4.8988 16.6732 4.90098 16.6797C4.91944 16.7318 4.94007 16.7829 4.96179 16.8328C4.98351 16.8839 5.00631 16.9327 5.0302 16.9827C5.07799 17.0815 5.1312 17.1771 5.19093 17.2705C5.19527 17.2781 5.20179 17.2824 5.20722 17.2878C5.21699 17.2846 5.22568 17.2813 5.23545 17.2792C5.41137 17.2498 5.58187 17.1999 5.74802 17.1391C6.07707 17.0185 6.3833 16.8513 6.67434 16.658C6.83289 16.5527 6.98492 16.4408 7.13261 16.3224C7.32157 16.1715 7.50292 16.0108 7.67885 15.8424C7.87975 15.6502 8.06979 15.4493 8.25332 15.2408C8.32608 15.1583 8.39667 15.0747 8.46725 14.99C8.80064 14.5871 9.10688 14.1625 9.39031 13.7227C9.07973 13.7281 8.76806 13.7379 8.45748 13.7531V13.7541Z" fill="#A3A3A3"/>
<path d="M5.70233 14.9669C5.71427 14.9691 5.72731 14.9712 5.73925 14.9734C5.50034 15.2036 5.25057 15.4197 4.98343 15.6174C4.88569 15.6891 4.78904 15.7618 4.6837 15.8226C4.66416 15.7379 4.65547 15.6521 4.6457 15.5674C4.61203 15.2938 4.60008 15.0201 4.599 14.7454C4.66524 14.7617 4.73149 14.7769 4.79881 14.7921C4.9932 14.8366 5.18867 14.8757 5.38523 14.9126C5.49057 14.9321 5.59699 14.9506 5.70233 14.968V14.9669Z" fill="#F4F4F4"/>
<path d="M6.79371 13.8854C6.76548 13.8887 6.73724 13.8919 6.70901 13.8941C6.42775 14.2514 6.12694 14.5924 5.80224 14.9127C5.7816 14.9333 5.76097 14.9529 5.73925 14.9735C5.74903 14.9746 5.7588 14.9768 5.76749 14.979C5.75771 14.9779 5.74794 14.9757 5.73817 14.9746C5.49926 15.2048 5.24949 15.4209 4.98234 15.6186C4.88461 15.6903 4.78795 15.763 4.68262 15.8238C4.68262 15.8358 4.6837 15.8466 4.68588 15.8586C4.68588 15.8618 4.68588 15.8651 4.68588 15.8684C4.68805 15.8814 4.69131 15.8944 4.69348 15.9074C4.69565 15.9183 4.69673 15.9281 4.69891 15.9389C4.70434 15.965 4.70868 15.9922 4.71411 16.0182C4.74452 16.1692 4.78035 16.3179 4.82596 16.4645C4.8466 16.5308 4.86289 16.5981 4.89546 16.6589C5.03012 16.6025 5.16261 16.5406 5.29075 16.4711C5.46885 16.3755 5.63934 16.2691 5.80441 16.154C5.85436 16.1192 5.90432 16.0845 5.95318 16.0475C6.24748 15.8303 6.52114 15.5893 6.78285 15.333C6.84801 15.2689 6.91208 15.2027 6.97507 15.1364C7.06412 15.043 7.15099 14.9475 7.23678 14.8508C7.38882 14.6814 7.53325 14.5066 7.67442 14.3285C7.81777 14.1471 7.95569 13.9614 8.08926 13.7725C7.65596 13.7985 7.22267 13.8354 6.79154 13.8832L6.79371 13.8854Z" fill="#898C8D"/>
<path d="M5.76748 14.9777C5.75771 14.9766 5.74793 14.9745 5.73816 14.9734C5.74793 14.9745 5.75771 14.9766 5.76639 14.9777H5.76748Z" fill="#F4F4F4"/>
<path d="M5.73932 14.9726C5.72737 14.9704 5.71542 14.9682 5.70239 14.9661L5.73932 14.9726Z" fill="#898C8D"/>
<path d="M6.52331 13.9201C6.58521 13.9071 6.64711 13.9006 6.70901 13.894C6.42775 14.2513 6.12694 14.5923 5.80224 14.9127C5.7816 14.9333 5.76097 14.9528 5.73925 14.9735L5.70233 14.967C5.59699 14.9496 5.49057 14.9311 5.38523 14.9116C5.18867 14.8757 4.9932 14.8356 4.79881 14.791C4.73257 14.7758 4.66633 14.7595 4.599 14.7443C4.599 14.6412 4.60009 14.5369 4.60334 14.4327C4.60551 14.3708 4.60769 14.31 4.61094 14.2481C4.83682 14.1938 5.06379 14.1471 5.29292 14.1036C5.68278 14.0298 6.07481 13.9701 6.46793 13.9212C6.47444 13.9212 6.48096 13.919 6.48639 13.919C6.49399 13.919 6.50051 13.9168 6.50811 13.9179C6.51245 13.9179 6.5168 13.9179 6.52114 13.9201H6.52331Z" fill="#B0B0B0"/>
<path d="M18.901 14.2036C18.901 13.8909 18.901 13.5781 18.901 13.2643C18.8804 13.1774 18.8543 13.0916 18.8055 13.0156C18.7273 12.8918 18.6339 12.7821 18.5177 12.692C18.3961 12.5975 18.2712 12.5084 18.1365 12.4335C17.9519 12.3303 17.7597 12.2424 17.5675 12.1555C17.5327 12.1403 17.498 12.1327 17.4632 12.1186C17.0278 11.9481 16.5793 11.8199 16.1253 11.7103C15.8343 11.6397 15.5422 11.5789 15.2479 11.5235C14.9178 11.4616 14.5865 11.4084 14.2542 11.3628C14.0251 11.3313 13.796 11.303 13.5657 11.277C13.4637 11.2661 13.3616 11.2542 13.2584 11.2444C12.9685 11.2162 12.6796 11.1901 12.3897 11.1695C12.2181 11.1564 12.0476 11.1456 11.876 11.1369C11.7305 11.1293 11.585 11.1217 11.4394 11.1152C11.2103 11.1043 10.9812 11.0967 10.752 11.0913C10.7357 11.0913 10.7184 11.0913 10.7021 11.0902C10.3405 11.0826 9.97775 11.0804 9.61612 11.0826C9.61069 11.0826 9.60418 11.0826 9.59875 11.0826C9.22626 11.0858 8.85378 11.0945 8.4813 11.1097C8.45849 11.1097 8.43677 11.1119 8.41506 11.113C7.97416 11.1315 7.53435 11.1597 7.09562 11.1966C6.45056 11.2509 5.80768 11.3248 5.16696 11.4257C5.15176 11.4279 5.13656 11.4301 5.12135 11.4333C5.09638 11.5202 5.07466 11.6082 5.04316 11.6929C5.02145 11.7798 4.99973 11.8666 4.97801 11.9535C4.91937 12.1837 4.86615 12.4161 4.81946 12.6485L4.91719 12.6322C4.95955 12.6246 5.00298 12.6181 5.04534 12.6105C5.10832 12.5997 5.17239 12.5899 5.23538 12.5801C5.46452 12.5443 5.69474 12.5128 5.92496 12.4835C6.15518 12.4541 6.38541 12.4292 6.61671 12.4053C6.77092 12.3901 6.92513 12.376 7.07933 12.3629C7.31281 12.3434 7.54629 12.3271 7.78086 12.3119C8.00131 12.2989 8.22067 12.2869 8.44112 12.2782C8.49759 12.2761 8.55406 12.2728 8.61053 12.2706C8.69415 12.2674 8.77885 12.2652 8.86356 12.2619C8.91785 12.2608 8.97215 12.2587 9.02645 12.2576C9.22518 12.2532 9.42282 12.25 9.62155 12.2478C9.69648 12.2478 9.77033 12.2478 9.84526 12.2467C9.9734 12.2467 10.1015 12.2467 10.2286 12.2478C10.2753 12.2478 10.3209 12.2478 10.3676 12.2489C10.4176 12.2489 10.4675 12.25 10.5175 12.2511C10.6532 12.2532 10.7879 12.2565 10.9236 12.2608C11.0594 12.2652 11.194 12.2695 11.3298 12.275C11.3526 12.275 11.3743 12.2771 11.3971 12.2782C11.5426 12.2847 11.687 12.2913 11.8326 12.2999C11.9444 12.3065 12.0552 12.313 12.167 12.3206C12.3343 12.3314 12.5015 12.3434 12.6687 12.3575C12.8229 12.3705 12.9761 12.3846 13.1303 12.3998C13.1357 12.3998 13.1411 12.3998 13.1466 12.4009C13.2573 12.4118 13.367 12.4227 13.4778 12.4335C13.6548 12.4509 13.8307 12.4726 14.0077 12.4954C14.1836 12.5182 14.3596 12.5443 14.5355 12.5703C14.6083 12.5812 14.6821 12.5921 14.7549 12.604C14.9731 12.6388 15.1925 12.6789 15.4097 12.7213C15.5378 12.7463 15.6649 12.7723 15.793 12.8006C15.9201 12.8288 16.0471 12.857 16.1742 12.8885C16.3664 12.9363 16.5586 12.9863 16.7476 13.0427C17.0006 13.1177 17.2504 13.2002 17.4958 13.2979C17.5577 13.3218 17.6185 13.3479 17.6793 13.374C17.7716 13.4141 17.8629 13.4576 17.953 13.5021C17.9747 13.513 17.9975 13.5238 18.0192 13.5358C18.0366 13.5444 18.054 13.5531 18.0714 13.5618C18.0942 13.5727 18.117 13.5846 18.1398 13.5977C18.168 13.6129 18.1963 13.6292 18.2234 13.6476C18.3255 13.7182 18.4297 13.7844 18.5242 13.8648C18.5459 13.8833 18.5677 13.9028 18.5883 13.9224C18.6133 13.943 18.6361 13.9647 18.6589 13.9875C18.6958 14.0244 18.7305 14.0646 18.7609 14.107C18.7762 14.1276 18.7903 14.1482 18.8022 14.171C18.8131 14.1895 18.8239 14.209 18.8337 14.2286C18.8435 14.2481 18.8522 14.2688 18.8609 14.2894C18.8695 14.31 18.8771 14.3307 18.8837 14.3524C18.888 14.3676 18.8934 14.3828 18.8978 14.398C18.8978 14.398 18.8978 14.398 18.8978 14.4002V14.398C18.9097 14.335 18.9021 14.2709 18.9032 14.2069L18.901 14.2036Z" fill="#F4F4F4"/>
<path d="M18.9043 13.1404C18.9043 12.9037 18.9043 12.6659 18.9043 12.4291C18.9043 12.3195 18.9032 12.2098 18.9021 12.1012C18.8836 12.0393 18.8706 11.9763 18.8413 11.9166C18.7696 11.7689 18.6632 11.6494 18.5394 11.5441C18.4047 11.4279 18.2549 11.3312 18.0985 11.2454C17.8715 11.1206 17.6359 11.0141 17.3937 10.924C17.1124 10.8197 16.8268 10.7274 16.538 10.6493C16.3164 10.5895 16.0949 10.5341 15.8712 10.4831C15.6171 10.4255 15.3608 10.3745 15.1045 10.33C14.8374 10.2833 14.5713 10.2388 14.302 10.2018C14.1749 10.1845 14.0479 10.1671 13.9208 10.1519C13.6363 10.115 13.3507 10.0835 13.0651 10.0585C13.0119 10.0542 12.9598 10.0455 12.9065 10.0422C12.6904 10.0259 12.4743 10.0096 12.2593 9.99442C12.2289 9.99225 12.1974 9.99008 12.167 9.98791C12.0226 9.97705 11.8792 9.96727 11.7348 9.95967C11.5469 9.9499 11.3601 9.94338 11.1723 9.93687C11.1701 9.93687 11.169 9.93687 11.1668 9.93687C10.9714 9.93035 10.7748 9.92275 10.5793 9.91949C10.4067 9.91623 10.234 9.91515 10.0613 9.91406C9.98532 9.91406 9.9093 9.91406 9.83329 9.91406C9.5303 9.91406 9.22841 9.91841 8.92543 9.92709C8.92108 9.92709 8.91674 9.92709 8.91239 9.92709C8.55729 9.93795 8.20218 9.95207 7.84816 9.97488C7.57558 9.99225 7.30301 10.0075 7.03043 10.0303C6.92075 10.04 6.80999 10.0531 6.7003 10.0639C6.31696 10.1019 5.93471 10.1465 5.55245 10.2008C5.54811 10.2008 5.54376 10.2018 5.53942 10.2029C5.38738 10.5971 5.24947 10.9978 5.12893 11.4051C5.12567 11.4149 5.1235 11.4257 5.12024 11.4355C5.13544 11.4333 5.15065 11.4301 5.16585 11.4279C5.80548 11.3269 6.44836 11.253 7.09451 11.1987C7.53432 11.1618 7.97413 11.1347 8.41394 11.1151C8.43566 11.1151 8.45847 11.113 8.48018 11.1119C8.85267 11.0967 9.22515 11.088 9.59763 11.0847C9.60306 11.0847 9.60958 11.0847 9.61501 11.0847C9.97772 11.0815 10.3393 11.0847 10.701 11.0923C10.7173 11.0923 10.7335 11.0923 10.7509 11.0934C10.9801 11.0988 11.2092 11.1064 11.4383 11.1173C11.5838 11.1238 11.7294 11.1314 11.8749 11.139C12.0465 11.1488 12.217 11.1597 12.3885 11.1716C12.6785 11.1922 12.9684 11.2183 13.2573 11.2465C13.3594 11.2563 13.4615 11.2672 13.5646 11.2791C13.7949 11.3052 14.024 11.3334 14.2531 11.3649C14.5854 11.4105 14.9166 11.4637 15.2468 11.5256C15.5411 11.581 15.8332 11.6407 16.1242 11.7124C16.5782 11.8232 17.0267 11.9513 17.4621 12.1207C17.4969 12.1338 17.5316 12.1424 17.5664 12.1576C17.7586 12.2445 17.9508 12.3314 18.1354 12.4357C18.2701 12.5106 18.3939 12.5996 18.5166 12.6941C18.6328 12.7842 18.7262 12.895 18.8044 13.0177C18.8532 13.0948 18.8804 13.1795 18.8999 13.2664C18.9075 13.2251 18.9032 13.1839 18.9032 13.1426L18.9043 13.1404Z" fill="#B0B0B0"/>
<path d="M12.1844 4.17926C12.3419 4.42577 12.4559 4.69183 12.5428 4.97092C12.5699 5.0578 12.5938 5.14468 12.6155 5.23155C12.6514 5.37707 12.6796 5.52476 12.7024 5.67354C12.7089 5.71697 12.7154 5.76041 12.7209 5.80385C12.7317 5.89073 12.7415 5.97869 12.7491 6.06665C12.7524 6.11009 12.7567 6.15461 12.7589 6.19805C12.7752 6.43696 12.7817 6.67587 12.7752 6.91478C12.7687 7.16564 12.7535 7.41541 12.7285 7.66518C12.7035 7.91386 12.6688 8.16037 12.6275 8.4058C12.6025 8.55349 12.5754 8.70009 12.546 8.8467C12.3093 8.82824 12.0726 8.81195 11.8358 8.8C11.7218 8.79457 11.6078 8.78914 11.4937 8.78263C11.5709 8.45141 11.636 8.11693 11.687 7.78029C11.7435 7.40672 11.7826 7.03207 11.7978 6.65633C11.8098 6.33597 11.8087 6.01561 11.7826 5.69525C11.7609 5.42811 11.7251 5.16422 11.6675 4.90251C11.6034 4.60821 11.5122 4.32261 11.3819 4.05003C11.3309 3.94144 11.27 3.83827 11.2092 3.73619C11.2592 3.7199 11.3113 3.71882 11.3613 3.71339C11.3884 3.71013 11.4145 3.70796 11.4416 3.70687C11.4644 3.70579 11.4872 3.7047 11.51 3.70361C11.547 3.70361 11.5839 3.70361 11.6208 3.70361C11.6469 3.70361 11.6729 3.70579 11.699 3.70687C11.7185 3.70687 11.7392 3.70904 11.7587 3.71013C11.762 3.71013 11.7652 3.71013 11.7685 3.71122C11.775 3.7123 11.7804 3.71447 11.7859 3.71664C11.7913 3.71882 11.7967 3.72207 11.8022 3.72533C11.8098 3.72968 11.8174 3.73619 11.8239 3.74271C11.8413 3.759 11.8586 3.77529 11.8749 3.79158C11.9086 3.82524 11.9412 3.8589 11.9727 3.89474C12.0508 3.98379 12.1214 4.07827 12.1855 4.17818L12.1844 4.17926Z" fill="#F4F4F4"/>
<path d="M11.6654 4.90343C11.7229 5.16515 11.7588 5.42904 11.7805 5.69618C11.8066 6.01654 11.8087 6.3369 11.7957 6.65725C11.7816 7.03408 11.7414 7.40873 11.6849 7.78122C11.6339 8.11895 11.5687 8.45234 11.4916 8.78355C11.4047 8.77921 11.319 8.77486 11.2321 8.77161C11.0344 8.76401 10.8368 8.75966 10.6391 8.75532C10.5653 8.75423 10.4915 8.75206 10.4187 8.75097C10.4904 8.47948 10.5544 8.20582 10.6087 7.92999C10.65 7.72366 10.6858 7.51624 10.7173 7.30774C10.738 7.16874 10.7564 7.02865 10.7716 6.88856C10.7879 6.74196 10.801 6.59535 10.8107 6.44766C10.8205 6.2902 10.827 6.13274 10.8303 5.97527C10.8335 5.7646 10.827 5.55392 10.8118 5.34325C10.802 5.20424 10.7879 5.06633 10.7706 4.92733C10.7467 4.73837 10.7119 4.5505 10.6674 4.36589C10.6315 4.21711 10.5903 4.07051 10.536 3.92716C10.574 3.90327 10.6174 3.89132 10.6587 3.87612C10.7434 3.84463 10.8292 3.81748 10.915 3.79359C11.0019 3.7697 11.0898 3.75015 11.1789 3.73495C11.1854 3.73386 11.1908 3.73278 11.1973 3.73169C11.2006 3.73169 11.2049 3.73169 11.2082 3.73278C11.269 3.83594 11.3298 3.93911 11.3809 4.04662C11.5112 4.31919 11.6024 4.6048 11.6665 4.89909L11.6654 4.90343Z" fill="#A3A3A3"/>
<path d="M18.9 15.522C18.9 15.5068 18.9021 15.4927 18.9021 15.4775C18.9021 15.2332 18.9021 14.9877 18.9021 14.7434C18.9021 14.6381 18.9 14.5316 18.9 14.4263C18.9 14.4198 18.9032 14.4133 18.9021 14.4068C18.9021 14.4068 18.8978 14.3992 18.8967 14.3959C18.8924 14.3807 18.8869 14.3655 18.8826 14.3503C18.8761 14.3286 18.8685 14.3079 18.8598 14.2873C18.8511 14.2667 18.8424 14.246 18.8326 14.2265C18.8229 14.2069 18.812 14.1874 18.8011 14.1689C18.7881 14.1472 18.774 14.1255 18.7599 14.1049C18.7295 14.0625 18.6958 14.0234 18.6578 13.9854C18.635 13.9626 18.6122 13.9409 18.5872 13.9202C18.5666 13.8996 18.5459 13.8812 18.5231 13.8627C18.4287 13.7823 18.3244 13.7161 18.2223 13.6455C18.1952 13.627 18.168 13.6107 18.1387 13.5955C18.1159 13.5836 18.0942 13.5717 18.0703 13.5597C18.0529 13.551 18.0355 13.5423 18.0182 13.5336C17.9964 13.5228 17.9736 13.5119 17.9519 13.5C17.8618 13.4555 17.7706 13.412 17.6783 13.3718C17.6174 13.3458 17.5566 13.3208 17.4947 13.2958C17.2493 13.1981 16.9995 13.1145 16.7465 13.0406C16.5565 12.9842 16.3653 12.9342 16.1731 12.8864C16.0461 12.8549 15.9201 12.8256 15.792 12.7985C15.6649 12.7713 15.5368 12.7442 15.4086 12.7192C15.1914 12.6757 14.9721 12.6366 14.7538 12.6019C14.681 12.59 14.6083 12.5791 14.5344 12.5682C14.3585 12.5422 14.1826 12.5161 14.0066 12.4933C13.8307 12.4694 13.6537 12.4488 13.4767 12.4314C13.3659 12.4205 13.2563 12.4097 13.1455 12.3988C13.1401 12.3988 13.1346 12.3988 13.1292 12.3977C12.975 12.3825 12.8219 12.3684 12.6677 12.3554C12.5004 12.3424 12.3332 12.3304 12.166 12.3185C12.0541 12.3109 11.9433 12.3043 11.8315 12.2978C11.686 12.2902 11.5415 12.2826 11.396 12.2761C11.3732 12.2761 11.3515 12.2739 11.3287 12.2729C11.1929 12.2674 11.0583 12.262 10.9225 12.2587C10.7868 12.2544 10.6521 12.2511 10.5164 12.249C10.4664 12.249 10.4165 12.2479 10.3665 12.2468C10.3198 12.2468 10.2742 12.2468 10.2275 12.2457C10.0994 12.2457 9.97124 12.2446 9.84418 12.2446C9.76925 12.2446 9.69432 12.2446 9.62047 12.2457C9.42174 12.2468 9.2241 12.25 9.02537 12.2555C8.97107 12.2566 8.91677 12.2576 8.86248 12.2598C8.77777 12.262 8.69415 12.2652 8.60945 12.2685C8.55298 12.2707 8.49651 12.2729 8.44004 12.2761C8.21959 12.2859 8.00023 12.2967 7.77978 12.3098C7.5463 12.3239 7.31173 12.3413 7.07825 12.3608C6.92405 12.3738 6.76984 12.388 6.61563 12.4032C6.38433 12.426 6.1541 12.452 5.92388 12.4814C5.69366 12.5107 5.46344 12.5422 5.2343 12.578C5.17023 12.5878 5.10724 12.5986 5.04426 12.6084C5.0019 12.6149 4.95847 12.6225 4.91611 12.6301L4.81838 12.6464C4.86507 12.4129 4.91829 12.1816 4.97693 11.9514C4.99865 11.8645 5.02037 11.7777 5.04208 11.6908C5.07358 11.6061 5.0953 11.5181 5.12027 11.4312C5.12353 11.4215 5.1257 11.4106 5.12896 11.4008C5.2495 10.9947 5.38742 10.594 5.53945 10.1987C5.6361 9.94782 5.73927 9.70022 5.84786 9.4548C5.92062 9.28973 5.99664 9.12684 6.07483 8.96395C6.33437 8.42857 6.62106 7.9084 6.94033 7.40343C7.23789 6.93104 7.56259 6.4782 7.91769 6.04707C7.9253 6.03838 7.93073 6.02861 7.93724 6.01884C8.04366 5.89612 8.149 5.77232 8.25868 5.65287C8.61488 5.25867 8.99713 4.89487 9.42174 4.57452C9.52599 4.49633 9.63459 4.4214 9.74101 4.34538C9.75079 4.33886 9.76273 4.33778 9.77468 4.33669C9.78011 4.32149 9.79423 4.31497 9.80617 4.30629C10.0255 4.1662 10.2525 4.04131 10.4925 3.9414C10.5012 3.93815 10.5088 3.9338 10.5186 3.93054C10.5207 3.93054 10.524 3.92946 10.5272 3.92837C10.5305 3.92837 10.5327 3.92837 10.5359 3.92837C10.5739 3.90448 10.6174 3.89254 10.6586 3.87733C10.7433 3.84584 10.8291 3.81869 10.9149 3.7948C11.0018 3.77091 11.0898 3.75136 11.1788 3.73616C11.1853 3.73507 11.1908 3.73399 11.1973 3.7329C11.2005 3.7329 11.2049 3.7329 11.2081 3.73399C11.2581 3.7177 11.3102 3.71661 11.3602 3.71118C11.3873 3.70792 11.4134 3.70575 11.4405 3.70467C11.4633 3.70358 11.4861 3.70249 11.5089 3.70141C11.5459 3.70141 11.5828 3.70141 11.6197 3.70141C11.6458 3.70141 11.6718 3.70358 11.6979 3.70467C11.7175 3.70467 11.7381 3.70684 11.7576 3.70792C11.7609 3.70792 11.7641 3.70792 11.7674 3.70901C11.7739 3.7101 11.7794 3.71227 11.7848 3.71444C11.7902 3.71661 11.7956 3.71987 11.8011 3.72313C11.8087 3.72747 11.8163 3.73399 11.8228 3.7405C11.8402 3.75679 11.8575 3.77308 11.8738 3.78937C11.9075 3.82304 11.9401 3.8567 11.9716 3.89254C12.0498 3.98158 12.1203 4.07606 12.1844 4.17597C12.3419 4.42248 12.4559 4.68854 12.5428 4.96763C12.5699 5.05451 12.5938 5.14138 12.6155 5.22826C12.6514 5.37378 12.6796 5.52147 12.7024 5.67024C12.7089 5.71368 12.7154 5.75712 12.7209 5.80056C12.7317 5.88744 12.7415 5.9754 12.7491 6.06336C12.7524 6.1068 12.7567 6.15132 12.7589 6.19476C12.7752 6.43367 12.7817 6.67258 12.7752 6.91149C12.7687 7.16235 12.7535 7.41212 12.7285 7.66189C12.7035 7.91057 12.6687 8.15708 12.6275 8.40251C12.6025 8.5502 12.5754 8.6968 12.546 8.84341C12.584 8.84666 12.6221 8.84884 12.6611 8.85209C12.9359 8.8749 13.2106 8.90205 13.4843 8.92811C13.4821 8.92594 13.48 8.92268 13.4767 8.92051C13.7047 8.94874 13.9317 8.97589 14.1598 9.00413C14.1587 9.0063 14.1565 9.00847 14.1543 9.01064C14.1685 9.01281 14.1815 9.01499 14.1956 9.01607C14.2412 8.79128 14.2825 8.5654 14.3172 8.33844C14.3487 8.13536 14.3748 7.9312 14.3965 7.72596C14.4171 7.53483 14.4345 7.34262 14.4432 7.1504C14.4475 7.0581 14.453 6.9647 14.4584 6.8724C14.4584 6.86045 14.453 6.84416 14.4714 6.83873C14.4714 6.66607 14.4714 6.4934 14.4703 6.32073C14.4606 6.31747 14.4606 6.30879 14.4595 6.3001C14.4573 6.26535 14.453 6.2306 14.4519 6.19585C14.4454 5.94499 14.4215 5.69631 14.3878 5.44762C14.3509 5.17288 14.2955 4.90139 14.2195 4.63533C14.201 4.56909 14.1847 4.50067 14.1554 4.43769L14.1489 4.41488C14.1489 4.41488 14.1467 4.41271 14.1467 4.41162C14.1467 4.41162 14.1467 4.41054 14.1467 4.40945C14.1446 4.40185 14.1435 4.39316 14.1413 4.38556C14.0305 4.06738 13.8872 3.76548 13.6885 3.49073C13.4973 3.22685 13.2671 3.00423 12.9837 2.84025C12.8773 2.77835 12.7621 2.73491 12.6525 2.67952C12.6427 2.67518 12.6297 2.67518 12.6188 2.67301C12.609 2.65998 12.5938 2.65672 12.5808 2.65129C12.3234 2.53726 12.066 2.42324 11.8076 2.30921C11.7739 2.2951 11.7446 2.27229 11.7066 2.26795C11.7001 2.26578 11.6946 2.2636 11.6881 2.26143C11.6447 2.24731 11.5991 2.23754 11.5567 2.21691C11.5535 2.21582 11.5491 2.21474 11.5459 2.21256C11.5437 2.21256 11.5415 2.21148 11.5404 2.21039H11.5394C11.5394 2.21039 11.5318 2.21148 11.5285 2.20713C11.446 2.1865 11.3623 2.17021 11.2787 2.15827C11.2179 2.14958 11.1571 2.14306 11.0963 2.1398C11.0757 2.13872 11.055 2.13763 11.0355 2.13763C10.9747 2.13655 10.9138 2.13763 10.853 2.1398C10.7727 2.14306 10.6923 2.15066 10.613 2.16152C10.4729 2.18107 10.335 2.21039 10.1982 2.2484C10.1787 2.25383 10.1591 2.25926 10.1396 2.26578C9.88219 2.34179 9.63568 2.44604 9.39894 2.56767C9.31966 2.60894 9.24147 2.65129 9.16437 2.69581C9.09378 2.73599 9.02428 2.77835 8.95478 2.82178C8.93198 2.8359 8.90917 2.85111 8.88637 2.86522C8.86356 2.88043 8.84076 2.89454 8.81904 2.90975C8.77343 2.94015 8.7289 2.97056 8.68546 3.00314C8.66375 3.01943 8.64203 3.03463 8.61922 3.05092C8.61922 3.05201 8.61922 3.05418 8.61922 3.05527C8.61922 3.05635 8.61814 3.05744 8.61705 3.05852C8.61596 3.05961 8.61271 3.06069 8.60945 3.06069V3.06395C8.60945 3.06395 8.60836 3.06721 8.60728 3.0683C8.60728 3.0683 8.6051 3.0683 8.60293 3.0683C8.60293 3.0683 8.60185 3.0683 8.60076 3.0683C8.50411 3.13563 8.40963 3.2073 8.31733 3.28114C8.27606 3.31372 8.23588 3.34739 8.1957 3.38105C8.18918 3.38648 8.18267 3.39191 8.17724 3.39734C8.13597 3.43209 8.0947 3.46793 8.05452 3.50376C8.05452 3.50376 8.05452 3.50594 8.05452 3.50702C8.05452 3.50919 8.05344 3.51137 8.05127 3.51354C8.05127 3.51354 8.05127 3.51354 8.04909 3.51354C8.04801 3.51354 8.04692 3.51354 8.04475 3.51354C8.04367 3.51571 8.04149 3.51788 8.04041 3.52005C8.03824 3.52223 8.03606 3.5244 8.03389 3.52657C8.03063 3.52874 8.02629 3.53091 8.02195 3.532C8.02195 3.53743 8.02086 3.5396 8.01869 3.54177C8.01543 3.54394 8.00891 3.54177 8.00457 3.54286C7.98937 3.55915 7.97308 3.57435 7.95787 3.59064C7.95787 3.59173 7.9557 3.59281 7.95462 3.5939C7.95462 3.5939 7.95462 3.59498 7.95462 3.59607C7.95462 3.59824 7.95353 3.59933 7.95245 3.6015C7.95245 3.6015 7.94919 3.60367 7.94593 3.60259C7.93181 3.61345 7.91769 3.62431 7.90358 3.63625C7.90249 3.63625 7.9014 3.63842 7.90032 3.63951C7.84928 3.68729 7.79933 3.73507 7.74937 3.78286C7.74611 3.78611 7.74285 3.78937 7.7396 3.79263C7.72439 3.80783 7.7081 3.82304 7.69182 3.83715C7.65164 3.87408 7.61037 3.90991 7.57236 3.94901C7.55173 3.96964 7.53109 3.99136 7.51046 4.01199C7.39101 4.13253 7.27372 4.25416 7.1597 4.38013C7.01418 4.54085 6.873 4.70374 6.73617 4.87098C6.71663 4.89487 6.69708 4.91876 6.67753 4.94265C6.67428 4.94591 6.67102 4.95026 6.66885 4.9546C6.6645 4.96003 6.66124 4.96655 6.6569 4.97198C6.65147 4.97958 6.64713 4.98826 6.6417 4.99478C6.63735 5.00021 6.63409 5.00564 6.62975 5.01107C6.62867 5.01216 6.62758 5.01433 6.62541 5.01541C6.61889 5.02193 6.61238 5.02845 6.60477 5.03388C6.60477 5.03496 6.60477 5.03605 6.60369 5.03713C6.60369 5.03822 6.60369 5.0393 6.6026 5.04039C6.6026 5.04039 6.60152 5.04148 6.60043 5.04256C6.60043 5.04256 6.59826 5.04365 6.59609 5.04473C6.59283 5.06102 6.5798 5.06863 6.56894 5.07949C6.56894 5.07949 6.56785 5.08057 6.56677 5.08166C6.56351 5.08492 6.56134 5.08817 6.55808 5.09143C6.55808 5.0936 6.55591 5.09469 6.55591 5.09686C6.55591 5.09903 6.55373 5.1012 6.55373 5.10338C6.55373 5.10338 6.55373 5.10555 6.55373 5.10663C6.55373 5.10989 6.55265 5.11098 6.55048 5.11315H6.54722L6.54505 5.11532C6.52007 5.14681 6.49401 5.17831 6.46903 5.2098C6.46794 5.21197 6.46686 5.21306 6.46469 5.21523C6.46469 5.21957 6.46469 5.22283 6.46469 5.22609C6.46469 5.22826 6.4636 5.23043 6.46143 5.2326V5.23478C6.46143 5.23478 6.456 5.23912 6.45383 5.24021C6.45165 5.24238 6.44731 5.24346 6.44405 5.24455C6.43971 5.24889 6.43645 5.25324 6.43211 5.25758C6.43102 5.25867 6.42885 5.26084 6.42776 5.26193C6.42451 5.26518 6.42125 5.26953 6.41799 5.27279C6.35283 5.35966 6.28876 5.44654 6.2236 5.53341C6.2236 5.53559 6.22252 5.53776 6.22035 5.53993H6.21926C6.21926 5.53993 6.216 5.54319 6.21492 5.54319C6.17039 5.60617 6.12478 5.66807 6.08026 5.73214C6.07157 5.74518 6.06288 5.75712 6.05419 5.77015C5.98795 5.8668 5.92714 5.96562 5.85981 6.06227C5.82723 6.11006 5.79574 6.15892 5.76316 6.20779C5.73167 6.25666 5.69909 6.30553 5.66434 6.35222C5.60895 6.42824 5.56117 6.51077 5.5123 6.59222C5.49167 6.62697 5.46995 6.66172 5.44932 6.69647C5.21475 7.08633 4.9867 7.48053 4.79231 7.89211C4.78146 7.916 4.76842 7.93881 4.75431 7.96052C4.74127 7.98333 4.72716 8.00505 4.7163 8.02894C4.65005 8.16251 4.5849 8.29608 4.523 8.43074C4.49911 8.4807 4.4763 8.53174 4.4535 8.58169C4.42309 8.64793 4.39377 8.71418 4.36445 8.78042C4.32753 8.86513 4.2906 8.94874 4.25368 9.03453C4.23848 9.07037 4.22327 9.10621 4.20807 9.14204C4.18852 9.18657 4.17006 9.23109 4.1516 9.2767C4.08644 9.43525 4.02346 9.59489 3.96265 9.75561C3.94527 9.8023 3.92681 9.85009 3.90943 9.89678C3.86708 10.0108 3.8269 10.1259 3.78672 10.2399C3.77695 10.2671 3.76717 10.2942 3.7574 10.3225C3.7498 10.3442 3.74328 10.3659 3.73568 10.3865C3.71722 10.4408 3.69876 10.4962 3.68247 10.5505C3.66184 10.6179 3.6412 10.6841 3.62057 10.7514C3.60537 10.7992 3.59125 10.847 3.57496 10.8948C3.54021 11.0012 3.49894 11.1076 3.48591 11.2206C3.48591 11.226 3.47831 11.2314 3.47505 11.2369C3.45768 11.2835 3.4479 11.3313 3.43596 11.3802C3.43053 11.403 3.42293 11.4258 3.41641 11.4486C3.40989 11.4714 3.40229 11.4942 3.39578 11.517C3.36971 11.6158 3.34365 11.7147 3.31976 11.8135C3.29804 11.9025 3.27632 11.9927 3.25569 12.0828C3.23288 12.1838 3.21116 12.2848 3.19053 12.3869C3.17207 12.4759 3.15469 12.5639 3.1384 12.654C3.12537 12.7246 3.11234 12.7952 3.1004 12.8658C3.08954 12.9277 3.07976 12.9907 3.06999 13.0526C3.05696 13.1318 3.04501 13.2111 3.03415 13.2904C3.02438 13.3621 3.01461 13.4327 3.00592 13.5043C2.98203 13.6998 2.96248 13.8964 2.94728 14.094C2.94293 14.1505 2.93968 14.2069 2.93642 14.2634C2.93316 14.3199 2.9299 14.3763 2.92773 14.4328C2.92339 14.5458 2.92013 14.6587 2.91687 14.7716C2.91687 14.7977 2.91687 14.8227 2.91687 14.8487C2.91687 14.8563 2.91687 14.8639 2.91687 14.8726C2.91687 15.0171 2.9223 15.1615 2.92664 15.3048C2.92664 15.3114 2.92664 15.3179 2.92664 15.3244C2.92664 15.3504 2.92882 15.3754 2.93099 15.4015C2.93642 15.5057 2.9451 15.61 2.95596 15.7132C2.96357 15.7837 2.97117 15.8543 2.98094 15.9249C2.98203 15.9347 2.9842 15.9456 2.98529 15.9553C3.00483 16.0976 3.02655 16.2398 3.05479 16.3821C3.10691 16.646 3.17641 16.9055 3.27089 17.1575C3.27198 17.1618 3.27415 17.1662 3.27632 17.1705C3.34691 17.3573 3.42944 17.5386 3.53043 17.7113C3.69659 17.9958 3.89966 18.2467 4.15812 18.4476C4.18852 18.4715 4.22002 18.4943 4.2526 18.5171C4.28409 18.5388 4.31667 18.5573 4.34924 18.5768C4.35467 18.5801 4.36119 18.5833 4.36771 18.5866C4.37205 18.5888 4.37748 18.5909 4.38182 18.5931C4.38943 18.5975 4.39703 18.6018 4.40246 18.6094C4.40463 18.6116 4.40571 18.6148 4.40789 18.6181C4.41657 18.6159 4.42418 18.6181 4.42852 18.6268C4.43721 18.6268 4.44372 18.6289 4.44807 18.6365C4.45024 18.6365 4.45241 18.6365 4.4535 18.6365C4.4535 18.6365 4.46327 18.6398 4.46653 18.6452C4.46653 18.6452 4.46761 18.6452 4.4687 18.6452C4.4687 18.6452 4.47087 18.6452 4.47196 18.6452C4.47196 18.6452 4.47413 18.6452 4.47522 18.6452H4.47739C4.47739 18.6452 4.47956 18.6463 4.48065 18.6474H4.48173C4.48173 18.6474 4.4839 18.6507 4.48499 18.6518C4.49585 18.6637 4.51105 18.667 4.52408 18.6724C4.80969 18.7994 5.0953 18.9254 5.3809 19.0514C5.52208 19.1144 5.66217 19.1795 5.81203 19.2208C5.9608 19.2621 6.11284 19.2892 6.26813 19.2957C6.29419 19.2957 6.31917 19.2957 6.34523 19.2957C6.42233 19.2957 6.49944 19.2957 6.57654 19.2957C6.65147 19.2936 6.72532 19.2838 6.79916 19.2729C7.09888 19.2284 7.38775 19.1393 7.66575 19.0199C8.17507 18.8005 8.63551 18.5019 9.06772 18.1555C9.1622 18.0795 9.25559 18.0013 9.34681 17.922C9.66717 17.9274 9.98752 17.9296 10.3079 17.9263C10.613 17.9231 10.9193 17.9176 11.2244 17.9057C11.2396 17.897 11.2548 17.897 11.2711 17.9035H11.2852C11.3037 17.8948 11.3222 17.8959 11.3417 17.9014H11.3558C11.3667 17.8948 11.3786 17.8938 11.3895 17.8959H11.3917C11.3917 17.8959 11.3993 17.8981 11.4025 17.8992H11.4166C11.4242 17.8948 11.4318 17.8927 11.4394 17.8927C11.447 17.8927 11.4557 17.8938 11.4633 17.897C11.4677 17.897 11.472 17.897 11.4775 17.897C11.4829 17.8938 11.4872 17.8927 11.4927 17.8916C11.5024 17.8894 11.5133 17.8916 11.5242 17.8948C11.5285 17.8948 11.5328 17.8948 11.5372 17.8948C11.5372 17.8948 11.5383 17.8948 11.5394 17.8948C11.5546 17.8872 11.5698 17.8872 11.585 17.8927C11.5893 17.8927 11.5937 17.8927 11.598 17.8927C11.6132 17.8829 11.6295 17.884 11.6447 17.8894H11.6577C11.6729 17.8796 11.6892 17.8807 11.7055 17.8872C11.7099 17.8872 11.7142 17.8872 11.7185 17.8872C11.7218 17.8851 11.7251 17.884 11.7272 17.8829C11.7327 17.8807 11.737 17.8807 11.7424 17.8807C11.7468 17.8807 11.7522 17.8818 11.7565 17.884C11.826 17.8807 11.8955 17.8786 11.965 17.8742C12.4983 17.8427 13.0315 17.8004 13.5625 17.7417C14.3694 17.6527 15.1719 17.531 15.9635 17.3508C16.5033 17.2281 17.0354 17.0804 17.5501 16.873C17.826 16.7611 18.0942 16.634 18.3418 16.4668C18.4916 16.3658 18.6296 16.2529 18.7403 16.1084C18.8098 16.0161 18.8663 15.9173 18.8891 15.8022C18.8978 15.7935 18.901 15.7816 18.9021 15.7707C18.9076 15.6882 18.9108 15.6056 18.9021 15.5231L18.9 15.522ZM8.43895 16.4722C8.41506 16.494 8.39117 16.5146 8.36728 16.5363C8.19896 16.684 8.0252 16.8252 7.84385 16.9555C7.66249 17.0858 7.47462 17.2063 7.27807 17.3149C7.24983 17.3301 7.2216 17.3453 7.19336 17.3606C7.1282 17.3953 7.06196 17.4279 6.99463 17.4583C6.9273 17.4887 6.85997 17.518 6.79047 17.5441C6.65256 17.5973 6.51247 17.6418 6.36804 17.6766C6.30505 17.6918 6.24207 17.7037 6.17908 17.7135C6.15736 17.7167 6.13456 17.7211 6.11284 17.7233C6.02705 17.7352 5.94126 17.7417 5.85546 17.7439C5.82614 17.7439 5.79791 17.7439 5.76859 17.7439C5.73927 17.7439 5.71103 17.7428 5.68171 17.7417C5.66868 17.7417 5.65674 17.7395 5.64479 17.7385C5.63284 17.7374 5.61981 17.7352 5.60787 17.7341C5.59266 17.733 5.57963 17.7265 5.56769 17.7157C5.53402 17.6842 5.50036 17.6527 5.46887 17.6201C5.42108 17.5712 5.37656 17.5191 5.33421 17.4659C5.30597 17.4301 5.27882 17.3931 5.25276 17.3562C5.23973 17.3377 5.2267 17.3182 5.21475 17.2997C5.21367 17.2987 5.21367 17.2965 5.21258 17.2943C5.21258 17.291 5.21149 17.2878 5.21041 17.2856C5.20498 17.2802 5.19846 17.2758 5.19412 17.2693C5.13548 17.1749 5.08226 17.0782 5.0334 16.9805C5.00951 16.9305 4.9867 16.8816 4.96498 16.8306C4.94326 16.7796 4.92263 16.7285 4.90417 16.6775C4.902 16.671 4.902 16.6645 4.902 16.6579C4.86942 16.596 4.85204 16.5287 4.8325 16.4636C4.78689 16.3169 4.75105 16.1671 4.72064 16.0172C4.71521 15.9901 4.70978 15.964 4.70544 15.938C4.70327 15.9271 4.70218 15.9173 4.70001 15.9065C4.69784 15.8934 4.69458 15.8804 4.69241 15.8674C4.69241 15.8641 4.69241 15.8608 4.69241 15.8576C4.69132 15.8456 4.69024 15.8348 4.68915 15.8228C4.6696 15.7381 4.66091 15.6523 4.65114 15.5676C4.61748 15.294 4.60553 15.0203 4.60444 14.7456C4.60444 14.6424 4.60553 14.5382 4.60879 14.4339C4.61096 14.372 4.61313 14.3112 4.61639 14.2493C4.84227 14.195 5.06923 14.1483 5.29837 14.1049C5.68823 14.031 6.08026 13.9713 6.47337 13.9224C6.47989 13.9224 6.4864 13.9202 6.49183 13.9202C6.49944 13.9202 6.50595 13.9181 6.51355 13.9192C6.5179 13.9192 6.52224 13.9192 6.52659 13.9213C6.58848 13.9083 6.65038 13.9018 6.71228 13.8953C6.74052 13.892 6.76875 13.8898 6.79699 13.8866C7.2292 13.8388 7.66141 13.8019 8.0947 13.7758C8.21633 13.7682 8.33796 13.7617 8.45959 13.7563C8.77017 13.7411 9.08184 13.7313 9.39242 13.7259C9.56292 13.7226 9.73341 13.7204 9.90282 13.7204C10.1461 13.7204 10.3882 13.7237 10.6315 13.7291C10.5794 13.8171 10.5251 13.904 10.4708 13.9908C10.4317 14.0538 10.3915 14.1168 10.3513 14.1798C10.2786 14.2916 10.2047 14.4013 10.1298 14.511C9.99078 14.713 9.84526 14.9117 9.6954 15.1061C9.64762 15.168 9.59984 15.2288 9.55097 15.2896C9.54228 15.3005 9.5336 15.3114 9.52491 15.3211C9.45432 15.4091 9.38156 15.496 9.30772 15.5807C9.185 15.7229 9.05903 15.8619 8.92872 15.9977C8.88962 16.0389 8.84944 16.0802 8.80926 16.1204C8.7061 16.2246 8.59967 16.3256 8.49216 16.4255C8.47479 16.4418 8.45741 16.4581 8.43895 16.4744V16.4722ZM17.3286 15.1061C17.3286 15.1061 17.3199 15.1148 17.3101 15.1224C17.2982 15.1322 17.2862 15.1409 17.2743 15.1495C17.2623 15.1582 17.2493 15.1669 17.2374 15.1756C17.2135 15.1919 17.1896 15.2082 17.1657 15.2234L17.157 15.2288C17.1375 15.2419 17.1168 15.2538 17.0962 15.2657C17.0658 15.2842 17.0365 15.3016 17.005 15.3179C16.7954 15.4341 16.576 15.5285 16.3512 15.6111C16.1395 15.6893 15.9244 15.7566 15.7083 15.8174C15.3978 15.9043 15.0828 15.976 14.7668 16.0389C14.4584 16.1008 14.15 16.153 13.8394 16.1986C13.5288 16.2442 13.2172 16.2811 12.9055 16.3137C12.8034 16.3245 12.7013 16.3343 12.5982 16.3441C12.3929 16.3626 12.1877 16.3788 11.9824 16.393C11.8793 16.3995 11.7772 16.406 11.674 16.4125C11.4438 16.4255 11.2136 16.4353 10.9833 16.4429C10.9421 16.444 10.8997 16.4462 10.8574 16.4473C10.8194 16.4483 10.7803 16.4494 10.7423 16.4505C10.8367 16.3343 10.9312 16.2181 11.017 16.0954C11.029 16.0802 11.042 16.065 11.0539 16.0487C11.2385 15.8 11.4156 15.547 11.5861 15.2885C11.5958 15.2744 11.6425 15.2017 11.6566 15.18C11.7641 15.0138 11.8695 14.8455 11.9716 14.675C12.1388 14.3959 12.2974 14.1125 12.4494 13.8258C12.7382 13.8507 13.0271 13.8801 13.316 13.9159C13.3377 13.9181 13.3583 13.9224 13.38 13.9257C13.5093 13.9354 13.6374 13.955 13.7645 13.9735C13.9285 13.9973 14.0924 14.0234 14.2564 14.0516C14.4769 14.0886 14.6973 14.1298 14.9167 14.1776C15.035 14.2037 15.1534 14.2297 15.2718 14.2558C15.2729 14.2558 15.274 14.2558 15.2761 14.2558C15.2772 14.2558 15.2783 14.2558 15.2794 14.2558C15.287 14.2569 15.2957 14.2569 15.3033 14.258C15.3141 14.258 15.3239 14.2612 15.3315 14.271C15.5845 14.3362 15.8365 14.4035 16.0841 14.486C16.1069 14.4936 16.1329 14.4958 16.1503 14.5153C16.2144 14.5262 16.2741 14.5534 16.3338 14.5762C16.3871 14.5957 16.4403 14.6163 16.4935 14.637C16.6433 14.6967 16.791 14.7629 16.9344 14.8379C16.9909 14.8672 17.0462 14.8987 17.1005 14.9324C17.1733 14.9769 17.2439 15.0225 17.3101 15.0757C17.3297 15.0909 17.3351 15.0974 17.3275 15.1061H17.3286Z" fill="#4E4E4E"/>
<path d="M18.9054 10.9858C18.8989 10.849 18.8468 10.7285 18.7675 10.6188C18.6557 10.4624 18.5112 10.3408 18.3538 10.2333C18.0866 10.0508 17.7945 9.91618 17.4959 9.79564C17.3297 9.72939 17.1603 9.66858 16.9909 9.61428C16.7313 9.53066 16.4685 9.45899 16.2036 9.39492C15.8724 9.31347 15.5401 9.24289 15.2045 9.18207C15.0003 9.14515 14.7962 9.10931 14.5909 9.07891C14.5844 9.07891 14.579 9.07891 14.5725 9.07782C14.5692 9.07782 14.5649 9.07782 14.5616 9.07782C14.554 9.07782 14.5464 9.07673 14.5388 9.07565C14.5214 9.07348 14.5041 9.07022 14.4867 9.06588C14.4259 9.0561 14.3651 9.04633 14.3042 9.03656C14.2684 9.03221 14.2337 9.02678 14.1978 9.02135C14.1837 9.01918 14.1707 9.01701 14.1565 9.01592C14.0154 8.99855 13.8731 8.98226 13.7319 8.9638C13.6907 8.95837 13.6494 8.95511 13.6081 8.95076C13.5669 8.94642 13.5256 8.94208 13.4854 8.93339C13.2107 8.90841 12.937 8.88018 12.6623 8.85737C12.6243 8.85411 12.5852 8.85086 12.5472 8.84868C12.3104 8.83022 12.0737 8.81393 11.8369 8.80199C11.7229 8.79656 11.6089 8.79113 11.4949 8.78461C11.408 8.78027 11.3222 8.77593 11.2353 8.77267C11.0377 8.76507 10.84 8.76072 10.6424 8.75638C10.5686 8.75529 10.4947 8.75312 10.4219 8.75203C10.4219 8.75203 10.5577 8.20689 10.612 7.93105C10.6533 7.72472 10.6891 7.5173 10.7206 7.3088C10.7412 7.1698 10.7597 7.02971 10.7749 6.88962C10.7912 6.74302 10.8042 6.59641 10.814 6.44872C10.8238 6.29126 10.8303 6.1338 10.8335 5.97633C10.8368 5.76566 10.8303 5.55498 10.8151 5.34431C10.8053 5.20531 10.7912 5.06739 10.7738 4.92839C10.7499 4.73943 10.7152 4.55156 10.6706 4.36695C10.6348 4.21817 10.5935 4.07157 10.5392 3.92822C10.536 3.92822 10.5338 3.92822 10.5305 3.92822C10.5273 3.92822 10.5251 3.92822 10.5219 3.93039C10.5132 3.93365 10.5045 3.938 10.4958 3.94125C10.2558 4.04225 10.0288 4.16713 9.80947 4.30613C9.79752 4.31374 9.7834 4.32025 9.77798 4.33654C9.8301 4.66884 9.85508 5.00223 9.85834 5.33888C9.86268 5.81996 9.82684 6.29778 9.76169 6.77342C9.71173 7.13179 9.64657 7.48798 9.56621 7.83983C9.49671 8.14607 9.41635 8.44905 9.3273 8.74986C9.1112 8.75203 8.89618 8.75855 8.68007 8.76615C8.39338 8.77593 8.10669 8.78896 7.82 8.80742C7.56697 8.82371 7.31394 8.84 7.062 8.86172C6.73404 8.88995 6.40608 8.92253 6.0803 8.96271C6.00211 9.12452 5.92609 9.2885 5.85333 9.45356C5.74474 9.69899 5.64157 9.94767 5.54492 10.1974C5.54927 10.1974 5.55361 10.1964 5.55795 10.1953C5.93912 10.141 6.32138 10.0964 6.70581 10.0584C6.81549 10.0476 6.92517 10.0345 7.03594 10.0248C7.30743 10.002 7.58109 9.98677 7.85366 9.96939C8.20768 9.94659 8.56279 9.93247 8.9179 9.92161C8.92224 9.92161 8.92659 9.92161 8.93093 9.92161C9.23391 9.91292 9.53581 9.90858 9.83879 9.90858C9.91481 9.90858 9.99082 9.90858 10.0668 9.90858C10.2395 9.90858 10.4122 9.91075 10.5848 9.91401C10.7803 9.91726 10.9769 9.92487 11.1723 9.93138C11.1734 9.93138 11.1756 9.93138 11.1778 9.93138C11.3656 9.9379 11.5524 9.94441 11.7403 9.95419C11.8847 9.9607 12.0292 9.97156 12.1725 9.98242C12.2029 9.98459 12.2344 9.98677 12.2648 9.98894C12.4809 10.0041 12.697 10.0204 12.912 10.0367C12.9653 10.0411 13.0174 10.0487 13.0706 10.053C13.3562 10.078 13.6418 10.1106 13.9263 10.1464C14.0534 10.1627 14.1804 10.179 14.3075 10.1964C14.5757 10.2333 14.8429 10.2778 15.11 10.3245C15.3663 10.369 15.6226 10.4201 15.8767 10.4776C16.1004 10.5287 16.3219 10.584 16.5435 10.6438C16.8334 10.722 17.1179 10.8143 17.3992 10.9185C17.6425 11.0086 17.877 11.1151 18.104 11.24C18.2604 11.3257 18.4091 11.4224 18.5449 11.5386C18.6676 11.645 18.7751 11.7634 18.8468 11.9111C18.875 11.9697 18.8881 12.0338 18.9076 12.0957C18.9076 11.973 18.9098 11.8503 18.9098 11.7276C18.9098 11.5451 18.9098 11.3627 18.9098 11.1802C18.9098 11.114 18.9119 11.0477 18.9098 10.9815L18.9054 10.9858Z" fill="#898C8D"/>
<path d="M11.6893 2.26698C11.6458 2.25286 11.6002 2.24309 11.5579 2.22245C11.5579 2.21702 11.5579 2.21051 11.5589 2.20508C11.6111 2.22137 11.661 2.24309 11.7077 2.27349C11.7012 2.27132 11.6958 2.26915 11.6893 2.26698Z" fill="#5A5A5A"/>
<path d="M11.5366 2.21362C11.5366 2.21362 11.5401 2.21598 11.5425 2.21715H11.5413C11.5413 2.21715 11.5331 2.21833 11.5295 2.21362C11.5319 2.21362 11.5342 2.21362 11.5366 2.21362Z" fill="#5A5A5A"/>
<path d="M6.22218 5.5376C6.22218 5.5376 6.221 5.5423 6.21865 5.54466H6.21747C6.21747 5.54466 6.21395 5.54819 6.21277 5.54819V5.54583C6.21277 5.54583 6.21512 5.53995 6.21747 5.53877C6.21747 5.53877 6.21983 5.53877 6.221 5.5376H6.22218Z" fill="#5A5A5A"/>
<path d="M6.45708 5.23794C6.45708 5.23794 6.45274 5.24229 6.45057 5.24337C6.4484 5.24555 6.44405 5.24663 6.4408 5.24772C6.4408 5.24555 6.4408 5.24446 6.4408 5.24229C6.4408 5.2412 6.4408 5.23903 6.4408 5.23794C6.4408 5.23794 6.44297 5.23251 6.44514 5.23034C6.44731 5.22817 6.44948 5.226 6.45166 5.22383C6.45383 5.22165 6.45709 5.22057 6.46034 5.21948C6.46034 5.22383 6.46034 5.22708 6.46034 5.23034C6.46034 5.23251 6.45926 5.23469 6.45708 5.23686V5.23903V5.23794Z" fill="#5A5A5A"/>
<path d="M7.94153 3.60756C7.94153 3.60756 7.94859 3.60167 7.95212 3.59814C7.95212 3.59814 7.95212 3.59932 7.95212 3.6005C7.95212 3.60285 7.95094 3.60403 7.94976 3.60638C7.94976 3.60638 7.94623 3.60873 7.94271 3.60756H7.94153Z" fill="#5A5A5A"/>
<path d="M8.00896 3.53939C8.00896 3.53939 8.01547 3.53722 8.01982 3.53613C8.01982 3.54156 8.01873 3.54373 8.01656 3.54591C8.0133 3.54808 8.00679 3.54591 8.00244 3.54699C8.00461 3.54373 8.00679 3.54156 8.01004 3.53939H8.00896Z" fill="#5A5A5A"/>
<path d="M8.05209 3.51154C8.05209 3.51154 8.05092 3.51625 8.04856 3.5186C8.04856 3.5186 8.04856 3.5186 8.04621 3.5186C8.04503 3.5186 8.04386 3.5186 8.0415 3.5186C8.04503 3.51507 8.04856 3.51037 8.05091 3.50684C8.05091 3.50684 8.05091 3.50919 8.05091 3.51037L8.05209 3.51154Z" fill="#5A5A5A"/>
<path d="M8.61899 3.06306C8.61899 3.06306 8.61781 3.06541 8.61663 3.06658C8.61546 3.06776 8.61193 3.06894 8.6084 3.06894C8.61193 3.06541 8.61546 3.06188 8.61899 3.05835C8.61899 3.05953 8.61899 3.06188 8.61899 3.06306Z" fill="#5A5A5A"/>
<path d="M8.60914 3.06812V3.07047C8.60914 3.07047 8.60797 3.074 8.60679 3.07517C8.60561 3.07635 8.60444 3.07517 8.60208 3.07517C8.60208 3.07517 8.60091 3.07517 8.59973 3.07517C8.60326 3.07282 8.60679 3.07164 8.61032 3.06929L8.60914 3.06812Z" fill="#5A5A5A"/>
<path d="M11.5556 2.20158C11.2732 2.07561 10.9898 1.95072 10.7075 1.82367C10.6966 1.81824 10.6846 1.82367 10.6749 1.81606C10.6651 1.81824 10.6553 1.82041 10.651 1.80738C10.639 1.81281 10.6282 1.80738 10.6173 1.80412C10.3697 1.72919 10.1167 1.70638 9.85932 1.7205C9.51833 1.73788 9.19037 1.82149 8.87327 1.94421C8.77336 1.98222 8.67563 2.02457 8.57898 2.07018C8.55509 2.08212 8.5312 2.09298 8.50731 2.10493C8.47907 2.11905 8.45192 2.13316 8.42369 2.14728C8.38676 2.16574 8.34984 2.18529 8.31292 2.20592C8.11962 2.31126 7.93392 2.42854 7.75257 2.55451C7.71456 2.58058 7.67764 2.60773 7.63963 2.63379L7.61791 2.65008C7.52886 2.71524 7.44198 2.78148 7.35511 2.84989C7.14009 3.02039 6.93376 3.20283 6.73503 3.39287C6.18119 3.92173 5.68925 4.50489 5.23858 5.12388C5.22664 5.14017 5.21578 5.15646 5.20383 5.17275C5.20383 5.17275 5.20383 5.1771 5.20166 5.17818C5.20057 5.17927 5.1984 5.18035 5.19623 5.18035C5.15605 5.23791 5.11587 5.29546 5.07569 5.35302C5.00836 5.44858 4.94212 5.54523 4.87696 5.64297C4.81506 5.73528 4.75425 5.82975 4.69343 5.92315C4.64565 5.99808 4.59895 6.07301 4.55226 6.14794C4.51099 6.21527 4.46973 6.2826 4.42954 6.34993C4.37199 6.44549 4.31552 6.54214 4.26014 6.63879C4.2319 6.68766 4.20475 6.73544 4.1776 6.78431C4.17435 6.78974 4.17109 6.79517 4.16674 6.8006C4.16674 6.80711 4.16457 6.81254 4.1624 6.81689C4.16023 6.82015 4.15806 6.82449 4.15588 6.82775C4.12982 6.87336 4.10484 6.92005 4.07987 6.96566C3.98539 7.13942 3.892 7.31425 3.80295 7.49018C3.76494 7.56511 3.72802 7.63896 3.6911 7.71389C3.49345 8.11895 3.30992 8.52944 3.1416 8.94645C3.05147 9.16798 2.96676 9.3906 2.88532 9.61539C2.84296 9.73485 2.80061 9.8543 2.75935 9.97376C2.68441 10.1953 2.616 10.419 2.54867 10.6427C2.52152 10.735 2.49437 10.8273 2.46831 10.9196C2.46831 10.9218 2.46722 10.924 2.46614 10.9261C2.42596 11.0717 2.38795 11.2172 2.35211 11.3638C2.31953 11.4952 2.28804 11.6277 2.25872 11.7602C2.23374 11.8731 2.21094 11.9871 2.18813 12.1011C2.1827 12.1283 2.17727 12.1554 2.17293 12.1826C2.17076 12.1935 2.16859 12.2043 2.16641 12.2152C2.16641 12.2195 2.16533 12.2239 2.16424 12.2271C2.1599 12.2488 2.15555 12.2706 2.15121 12.2923C2.11863 12.4704 2.08931 12.6485 2.06433 12.8276C2.03936 13.0003 2.01764 13.1741 2.00026 13.3478C1.99592 13.3869 1.99266 13.426 1.9894 13.464C1.9894 13.4673 1.9894 13.4694 1.9894 13.4727C1.98615 13.502 1.98506 13.5237 1.98289 13.5444C1.97529 13.641 1.96768 13.7377 1.96225 13.8343C1.95682 13.931 1.95248 14.0287 1.94922 14.1254C1.94922 14.1384 1.94922 14.1503 1.94814 14.1634C1.94271 14.3502 1.94162 14.5369 1.94705 14.7226C1.95248 14.8986 1.96225 15.0745 1.97854 15.2493C1.99483 15.4242 2.01655 15.599 2.04696 15.7728C2.06108 15.8575 2.07845 15.9422 2.09583 16.0258C2.15664 16.3092 2.23809 16.5872 2.34994 16.8555C2.35754 16.8739 2.36514 16.8924 2.37383 16.9119C2.38143 16.9304 2.39012 16.9488 2.39881 16.9673C2.41836 17.0107 2.43899 17.0542 2.45962 17.0965C2.49546 17.1671 2.53238 17.2366 2.57256 17.304C2.68224 17.4886 2.81147 17.6612 2.96459 17.8165C3.00477 17.8578 3.04604 17.8969 3.08948 17.9338C3.16984 18.0044 3.25563 18.0685 3.34685 18.126C3.36422 18.1369 3.38377 18.1434 3.3968 18.1597C3.39897 18.1619 3.40006 18.1651 3.40115 18.1673C3.40983 18.1651 3.41635 18.1673 3.41852 18.176C3.45436 18.1847 3.48259 18.2086 3.51517 18.2227C3.68892 18.2998 3.86268 18.3769 4.03534 18.454C4.13416 18.4974 4.23407 18.5409 4.33289 18.5843L4.34593 18.5734C4.31335 18.5539 4.28077 18.5343 4.24928 18.5137C4.2167 18.4909 4.1852 18.4681 4.1548 18.4442C3.89634 18.2433 3.69327 17.9925 3.52712 17.7079C3.42612 17.5353 3.34359 17.3539 3.273 17.1671C3.27083 17.1628 3.26974 17.1584 3.26757 17.1541C3.17309 16.9022 3.10359 16.6426 3.05147 16.3787C3.02323 16.2375 3.00151 16.0953 2.98197 15.9519C2.98088 15.9422 2.97871 15.9313 2.97762 15.9215C2.96785 15.8509 2.96025 15.7804 2.95265 15.7098C2.94179 15.6055 2.9331 15.5024 2.92767 15.3981C2.92658 15.372 2.92441 15.3471 2.92332 15.321C2.92332 15.3145 2.92332 15.308 2.92332 15.3015C2.9179 15.157 2.91247 15.0137 2.91355 14.8692C2.91355 14.8616 2.91355 14.853 2.91355 14.8454C2.91355 14.8193 2.91355 14.7943 2.91355 14.7683C2.91681 14.6553 2.92007 14.5424 2.92441 14.4294C2.92658 14.373 2.92984 14.3165 2.9331 14.26C2.93636 14.2036 2.93961 14.1471 2.94396 14.0906C2.95916 13.8941 2.97871 13.6975 3.0026 13.5009C3.01129 13.4293 3.02106 13.3587 3.03083 13.287C3.04169 13.2077 3.05364 13.1285 3.06667 13.0492C3.07644 12.9862 3.0873 12.9243 3.09708 12.8624C3.10902 12.7918 3.12205 12.7212 3.13509 12.6506C3.15138 12.5616 3.16984 12.4725 3.18721 12.3835C3.20785 12.2825 3.22956 12.1804 3.25237 12.0794C3.273 11.9893 3.29472 11.9002 3.31644 11.8101C3.34033 11.7113 3.36639 11.6125 3.39246 11.5136C3.39897 11.4908 3.40549 11.468 3.41309 11.4452C3.41961 11.4224 3.42721 11.3996 3.43264 11.3768C3.44458 11.329 3.45436 11.2802 3.47173 11.2335C3.47608 11.228 3.48151 11.2237 3.48259 11.2172C3.49671 11.1042 3.53689 10.9989 3.57164 10.8914C3.58684 10.8436 3.60205 10.7958 3.61725 10.748C3.63788 10.6807 3.65852 10.6145 3.67915 10.5471C3.69653 10.4918 3.7139 10.4375 3.73236 10.3832C3.73996 10.3614 3.74648 10.3397 3.75408 10.3191C3.76385 10.2919 3.77363 10.2637 3.7834 10.2366C3.82467 10.1225 3.86485 10.0074 3.90611 9.8934C3.92349 9.8467 3.94086 9.79892 3.95933 9.75222C4.02014 9.5915 4.08313 9.43187 4.14828 9.27332C4.16674 9.22771 4.1852 9.18318 4.20475 9.13866C4.21996 9.10282 4.23516 9.06699 4.25036 9.03115C4.28728 8.94645 4.32421 8.86174 4.36113 8.77704C4.39045 8.71079 4.41977 8.64455 4.45018 8.57831C4.47298 8.52727 4.49579 8.47731 4.51968 8.42736C4.58266 8.2927 4.64674 8.15804 4.71298 8.02556C4.72492 8.00275 4.73796 7.97995 4.75099 7.95714C4.76402 7.93434 4.77705 7.91262 4.789 7.88872C4.98338 7.47715 5.21143 7.08295 5.446 6.69309C5.46663 6.65834 5.48835 6.62359 5.50898 6.58884C5.55785 6.50739 5.60455 6.42486 5.66102 6.34884C5.69577 6.30214 5.72726 6.25328 5.75984 6.20441C5.79133 6.15554 5.82282 6.10667 5.85649 6.05889C5.92273 5.96224 5.98463 5.86342 6.05088 5.76677C6.05956 5.75482 6.06825 5.74179 6.07694 5.72876C6.12146 5.66578 6.16707 5.60279 6.2116 5.5398V5.53763C6.2116 5.53763 6.21377 5.5322 6.21594 5.53112C6.21594 5.53112 6.21811 5.53112 6.2192 5.53003C6.28327 5.44315 6.34843 5.35628 6.41358 5.2694C6.41684 5.26506 6.4201 5.2618 6.42336 5.25854C6.42444 5.25746 6.42662 5.25528 6.4277 5.2542C6.43205 5.24985 6.4353 5.24551 6.43965 5.24117C6.43965 5.23899 6.43965 5.23791 6.43965 5.23574C6.43965 5.23465 6.43965 5.23248 6.43965 5.23139C6.43965 5.23139 6.44182 5.22596 6.44399 5.22379C6.44616 5.22162 6.44834 5.21945 6.45051 5.21728C6.45268 5.2151 6.45594 5.21402 6.45919 5.21293C6.46028 5.21185 6.46245 5.20967 6.46354 5.2075C6.48852 5.17601 6.51458 5.14452 6.53956 5.11302C6.54281 5.10977 6.54499 5.10542 6.54824 5.10216C6.54824 5.09999 6.54933 5.09782 6.55041 5.09565C6.55041 5.09348 6.55259 5.09239 6.55259 5.09022C6.55476 5.08696 6.55802 5.0837 6.56127 5.08045C6.56127 5.08045 6.56236 5.07936 6.56345 5.07827C6.57431 5.0685 6.58842 5.05981 6.5906 5.04352C6.5906 5.04352 6.5906 5.04135 6.5906 5.04027C6.5906 5.03701 6.59277 5.03484 6.59494 5.03375C6.59602 5.03375 6.59711 5.03375 6.5982 5.03266C6.6058 5.02723 6.61231 5.02072 6.61883 5.0142C6.61992 5.01312 6.621 5.01094 6.62317 5.00986C6.62752 5.00443 6.63186 4.999 6.63512 4.99357C6.64055 4.98597 6.64598 4.97837 6.65032 4.97076C6.65467 4.96533 6.65792 4.95882 6.66227 4.95339C6.66553 4.94905 6.6677 4.94579 6.67096 4.94144C6.6905 4.91755 6.71005 4.89366 6.7296 4.86977C6.86643 4.70253 7.0076 4.53855 7.15312 4.37892C7.26715 4.25295 7.38443 4.13132 7.50388 4.01078C7.52452 3.99015 7.54515 3.96843 7.56578 3.94779C7.60488 3.9087 7.64506 3.87286 7.68524 3.83594C7.70153 3.82182 7.71673 3.80662 7.73302 3.79142C7.73628 3.78816 7.73954 3.7849 7.74279 3.78164C7.79275 3.73386 7.84379 3.68608 7.89374 3.6383C7.89374 3.6383 7.89591 3.63613 7.897 3.63504C7.91003 3.62309 7.92523 3.61223 7.93935 3.60137C7.94261 3.59812 7.94587 3.59595 7.94912 3.59269C7.94912 3.59269 7.9513 3.59052 7.95238 3.58943C7.96759 3.57314 7.98388 3.55794 7.99908 3.54165C8.00125 3.53839 8.00342 3.53622 8.00668 3.53405C8.00994 3.53187 8.0132 3.53187 8.01754 3.53079C8.02188 3.53079 8.02623 3.52862 8.02949 3.52536C8.03166 3.52319 8.03383 3.52101 8.036 3.51884C8.03817 3.51667 8.03926 3.5145 8.04035 3.51233C8.0436 3.50907 8.04686 3.50472 8.04903 3.50147C8.08921 3.46563 8.13048 3.42979 8.17175 3.39504C8.17826 3.38961 8.18369 3.38418 8.19021 3.37875C8.23039 3.34509 8.27057 3.31142 8.31183 3.27885C8.40414 3.205 8.49862 3.13333 8.59527 3.066C8.59853 3.06383 8.60178 3.06274 8.60504 3.06057C8.60504 3.06057 8.61156 3.05297 8.61482 3.04971C8.63653 3.03342 8.65825 3.01713 8.68106 3.00193C8.72558 2.97044 8.77011 2.93894 8.81463 2.90854C8.83744 2.89333 8.86024 2.87813 8.88196 2.86401C8.90477 2.84881 8.92757 2.83469 8.95038 2.82057C9.01988 2.77714 9.08938 2.73478 9.15997 2.6946C9.23707 2.65008 9.31526 2.60664 9.39453 2.56646C9.63236 2.44375 9.87778 2.34058 10.1352 2.26456C10.1547 2.25913 10.1742 2.2537 10.1938 2.24719C10.3306 2.20918 10.4685 2.17986 10.6086 2.16031C10.6879 2.14945 10.7683 2.14185 10.8486 2.13859C10.9094 2.13534 10.9703 2.13534 11.0311 2.13642C11.0517 2.13642 11.0712 2.13751 11.0919 2.13859C11.1527 2.14185 11.2135 2.14837 11.2743 2.15705C11.3579 2.169 11.4416 2.1842 11.5241 2.20592C11.5263 2.20592 11.5284 2.20592 11.5306 2.20592C11.5328 2.20592 11.5339 2.20809 11.536 2.20918C11.5382 2.20918 11.5393 2.21027 11.5415 2.21135C11.5447 2.21244 11.5491 2.21352 11.5523 2.2157C11.5523 2.21027 11.5523 2.20375 11.5534 2.19832C11.5523 2.19723 11.5512 2.19615 11.5491 2.19506L11.5556 2.20158Z" fill="#F4F4F4"/>
<path d="M10.651 1.80869C10.6466 1.79132 10.6304 1.78915 10.6173 1.78372C10.3741 1.67512 10.1297 1.56761 9.88539 1.4601C9.82024 1.43187 9.75725 1.3982 9.68992 1.3754C9.68232 1.37974 9.67472 1.37974 9.66603 1.37648C9.49879 1.3211 9.32504 1.29395 9.14912 1.28309C8.98839 1.27332 8.82767 1.28309 8.66804 1.30481C8.53664 1.32327 8.40741 1.35042 8.27927 1.38408C8.03058 1.45033 7.79167 1.54155 7.56145 1.65557C7.4724 1.69901 7.38661 1.74896 7.29973 1.79566C7.27041 1.81086 7.24001 1.82498 7.21177 1.84127C6.96092 1.99005 6.71875 2.15077 6.48853 2.32995C6.43097 2.37448 6.37124 2.41791 6.31803 2.46678C6.28328 2.49827 6.24962 2.52977 6.21161 2.55692C6.20401 2.56235 6.19749 2.56669 6.1888 2.57212C6.18229 2.57755 6.17577 2.58298 6.17034 2.58841C6.16817 2.5971 6.16491 2.60361 6.16057 2.60796C6.1584 2.61013 6.15514 2.61121 6.15188 2.6123C6.14971 2.6123 6.14862 2.6123 6.14645 2.6123H6.14536C6.14536 2.6123 6.14211 2.6123 6.13993 2.61121C6.13776 2.61121 6.13668 2.61339 6.13559 2.61447C6.11604 2.62859 6.1041 2.65357 6.08672 2.66768C6.08346 2.66985 6.08129 2.67203 6.07803 2.67311C6.03025 2.69809 6.00093 2.7437 5.95858 2.77411C5.91731 2.80343 5.88365 2.84361 5.84564 2.87836C5.65886 3.04994 5.48185 3.23238 5.30701 3.41699C5.25379 3.47346 5.20493 3.53428 5.15389 3.59292C5.12457 3.62658 5.0909 3.6559 5.06158 3.68957C4.98231 3.78079 4.9052 3.87309 4.82701 3.9654C4.76946 4.03381 4.71408 4.10332 4.66195 4.17607C4.62068 4.23363 4.57181 4.28467 4.52838 4.34114C4.3948 4.51163 4.26883 4.68756 4.14286 4.86348C4.01798 5.03724 3.90395 5.21642 3.78558 5.39452C3.67916 5.55415 3.58142 5.71922 3.48043 5.88211C3.44351 5.94292 3.40984 6.00591 3.37292 6.06564C3.30776 6.16989 3.24804 6.27631 3.19157 6.38491C3.15573 6.42726 3.1351 6.4783 3.10795 6.52608C3.05148 6.6249 2.99827 6.7259 2.9494 6.82906C2.93419 6.86164 2.91139 6.89096 2.8951 6.92354C2.84949 7.01585 2.80388 7.10815 2.75718 7.19937C2.63881 7.42851 2.53456 7.66525 2.42705 7.89981C2.30977 8.15393 2.2066 8.41347 2.10344 8.6741C2.03394 8.85002 1.96335 9.02704 1.90797 9.20839C1.89928 9.23771 1.8819 9.26486 1.87104 9.29418C1.81783 9.45056 1.76353 9.60694 1.71249 9.7644C1.66471 9.90883 1.62019 10.0543 1.57784 10.201C1.53657 10.341 1.49748 10.4822 1.45947 10.6234C1.38562 10.897 1.31829 11.1729 1.26074 11.4498C1.24553 11.5236 1.23142 11.5975 1.21621 11.6713C1.16735 11.9222 1.12391 12.1752 1.08807 12.4282C1.05441 12.6693 1.02726 12.9115 1.00554 13.1537C1.00337 13.1765 1.00228 13.1982 1.00011 13.221C0.989248 13.3535 0.981647 13.4871 0.976217 13.6206C0.969701 13.7737 0.968615 13.9258 0.967529 14.0789C0.967529 14.1517 0.975131 14.2244 0.974045 14.2972C0.974045 14.409 0.982733 14.5198 0.989248 14.6306C0.99142 14.6718 0.993592 14.712 0.997936 14.7533C0.997936 14.7609 0.999022 14.7674 1.00011 14.775C1.01314 14.8814 1.02183 14.9889 1.03703 15.0954C1.05115 15.1985 1.06527 15.3017 1.08481 15.4048C1.11196 15.5471 1.13802 15.6905 1.18255 15.8295C1.19667 15.8729 1.20427 15.9185 1.21621 15.963C1.24228 16.0608 1.27377 16.1563 1.30852 16.2508C1.35847 16.3866 1.41494 16.519 1.47793 16.6494C1.57349 16.8492 1.69186 17.036 1.83086 17.2086C1.96226 17.3726 2.11213 17.517 2.28479 17.6387C2.29239 17.643 2.29891 17.6484 2.30651 17.6528C2.31846 17.6615 2.33149 17.6691 2.34452 17.6767C2.35104 17.681 2.35864 17.6854 2.36624 17.6897C2.39013 17.7049 2.41402 17.7201 2.43683 17.7364C2.44334 17.7429 2.45094 17.7473 2.45746 17.7527C2.45746 17.7538 2.45855 17.7549 2.45963 17.7559C2.46398 17.7614 2.47158 17.7625 2.47809 17.7646C2.77456 17.896 3.07211 18.0274 3.36966 18.1588C3.38161 18.1643 3.39247 18.1719 3.40767 18.1686C3.40658 18.1653 3.40441 18.1632 3.40333 18.161C3.3903 18.1447 3.37075 18.1382 3.35337 18.1273C3.26215 18.0698 3.17636 18.0046 3.096 17.9351C3.05256 17.8982 3.0113 17.8591 2.97112 17.8178C2.818 17.6625 2.68877 17.4899 2.57909 17.3053C2.53891 17.2379 2.5009 17.1684 2.46615 17.0979C2.44443 17.0555 2.42488 17.0131 2.40425 16.9697C2.39556 16.9512 2.38796 16.9328 2.37927 16.9143C2.37167 16.8959 2.36298 16.8774 2.35538 16.8579C2.24353 16.5896 2.16208 16.3116 2.10127 16.0282C2.08281 15.9446 2.06652 15.8599 2.0524 15.7752C2.02199 15.6014 2.00027 15.4266 1.98398 15.2517C1.96769 15.0769 1.95792 14.901 1.95249 14.725C1.94706 14.5383 1.94815 14.3515 1.95358 14.1658C1.95358 14.1527 1.95358 14.1408 1.95466 14.1278C1.95792 14.0311 1.96226 13.9334 1.96769 13.8367C1.97312 13.7401 1.98073 13.6434 1.98833 13.5468C1.9905 13.5261 1.99267 13.5044 1.99484 13.4751C1.99484 13.4718 1.99484 13.4697 1.99484 13.4664C1.9981 13.4273 2.00244 13.3882 2.0057 13.3502C2.02416 13.1765 2.04588 13.0038 2.06977 12.83C2.09584 12.6509 2.12407 12.4728 2.15665 12.2947C2.16099 12.273 2.16534 12.2512 2.16968 12.2295C2.16968 12.2252 2.17077 12.2208 2.17185 12.2176C2.17403 12.2067 2.1762 12.1959 2.17837 12.185C2.1838 12.1578 2.18814 12.1307 2.19357 12.1035C2.21638 11.9895 2.23918 11.8766 2.26416 11.7626C2.29348 11.6301 2.32497 11.4976 2.35755 11.3662C2.39339 11.2196 2.4314 11.0741 2.47158 10.9285C2.47158 10.9264 2.47158 10.9242 2.47375 10.922C2.49981 10.8297 2.52588 10.7374 2.55411 10.6451C2.62144 10.4203 2.68985 10.1977 2.76479 9.97616C2.80497 9.8567 2.84732 9.73725 2.89076 9.6178C2.9722 9.393 3.05691 9.17038 3.14704 8.94885C3.31536 8.53184 3.49889 8.12135 3.69654 7.71629C3.73346 7.64136 3.77038 7.56643 3.80839 7.49258C3.89744 7.31666 3.98974 7.14182 4.08531 6.96806C4.11028 6.92137 4.13635 6.87576 4.16132 6.83015C4.1635 6.82689 4.16567 6.82255 4.16784 6.81929C4.1711 6.81386 4.17327 6.80952 4.17218 6.803C4.17544 6.79757 4.17979 6.79214 4.18304 6.78671C4.21019 6.73784 4.23843 6.69006 4.26558 6.64119C4.32096 6.54454 4.37743 6.44789 4.43498 6.35233C4.47516 6.285 4.51643 6.21767 4.5577 6.15034C4.60439 6.07541 4.65109 6.00048 4.69887 5.92555C4.7586 5.83107 4.8205 5.73768 4.8824 5.64537C4.94756 5.54764 5.0138 5.45207 5.08113 5.35542C5.12131 5.29787 5.16149 5.24031 5.20167 5.18275C5.20167 5.18167 5.20167 5.18058 5.20167 5.1795C5.20167 5.1795 5.20167 5.17841 5.20275 5.17732C5.20384 5.17624 5.20601 5.17515 5.20818 5.17515C5.22013 5.15886 5.23099 5.14257 5.24294 5.12629C5.69361 4.50729 6.18554 3.92413 6.73938 3.39527C6.93811 3.20523 7.14444 3.02279 7.35946 2.8523C7.44525 2.78388 7.53322 2.71764 7.62226 2.65248L7.64398 2.63619C7.6809 2.60904 7.71891 2.58298 7.75692 2.55692C7.93828 2.43094 8.12506 2.31366 8.31727 2.20832C8.3542 2.18878 8.39112 2.16923 8.42804 2.14968C8.45628 2.13556 8.48343 2.12145 8.51166 2.10733C8.53555 2.09538 8.55944 2.08453 8.58333 2.07258C8.67998 2.02697 8.77772 1.98462 8.87763 1.94661C9.19581 1.8239 9.52268 1.74028 9.86367 1.7229C10.121 1.70878 10.3741 1.73159 10.6217 1.80652C10.6325 1.80978 10.6434 1.81521 10.6553 1.80978L10.651 1.80869ZM0.993592 14.4405C0.993592 14.4405 0.993592 14.4514 0.993592 14.4568C0.993592 14.4514 0.993592 14.446 0.993592 14.4405Z" fill="#B0B0B0"/>
<path d="M9.63677 1.35226C9.41632 1.25344 9.1937 1.15788 8.97325 1.05688C8.72131 0.941773 8.45959 0.871186 8.18267 0.858154C8.11317 0.858154 8.04258 0.858154 7.97308 0.858154C7.94593 0.858154 7.91879 0.858154 7.89164 0.858154C7.75263 0.865756 7.61472 0.886389 7.47789 0.91571C7.075 1.0015 6.70034 1.15896 6.34089 1.35661C5.97927 1.55534 5.64262 1.79316 5.32335 2.05379C5.28209 2.08746 5.23865 2.11786 5.2039 2.15696C5.20064 2.15804 5.19847 2.16021 5.1963 2.16347V2.16673H5.19195C5.18326 2.17433 5.17349 2.18085 5.1648 2.18845C4.81078 2.49143 4.48174 2.82048 4.17115 3.16689C3.80193 3.57956 3.46094 4.01503 3.14275 4.46787C2.66819 5.14225 2.24793 5.85029 1.87436 6.5844C1.62242 7.07959 1.39219 7.58456 1.18478 8.10148C0.968672 8.64011 0.772114 9.18526 0.612479 9.74344C0.595103 9.80534 0.573384 9.86615 0.554923 9.92805C0.424608 10.3885 0.311669 10.8522 0.223707 11.3224C0.148776 11.721 0.0879624 12.1206 0.048868 12.5246C0.0195472 12.8178 0 13.111 0 13.4053C0 13.5389 0 13.6724 0.00108596 13.8071C0.00325787 13.8255 0.00325787 13.844 0.00434382 13.8625C0.00434382 13.8907 0.00434382 13.9189 0.00325787 13.9472C0.00434382 14.1101 0.0184612 14.2719 0.0336646 14.4337C0.0597275 14.6976 0.0999079 14.9604 0.157464 15.2188C0.230223 15.5435 0.33013 15.8585 0.473476 16.1603C0.626596 16.4829 0.819896 16.7761 1.08161 17.0215C1.23365 17.1649 1.40197 17.2854 1.59092 17.3734C1.75925 17.4526 1.92974 17.5265 2.09915 17.6014C2.21535 17.6524 2.33046 17.7078 2.44991 17.7545C2.4434 17.7491 2.4358 17.7437 2.42928 17.7382C2.40648 17.7209 2.38259 17.7057 2.35869 17.6905C2.35109 17.6861 2.34458 17.6818 2.33698 17.6774C2.32394 17.6698 2.312 17.6622 2.29897 17.6535C2.29137 17.6492 2.28485 17.6438 2.27725 17.6394C2.10458 17.5178 1.95472 17.3734 1.82332 17.2094C1.68432 17.0367 1.56595 16.8499 1.47038 16.6501C1.40848 16.5198 1.35093 16.3873 1.30097 16.2516C1.28794 16.2396 1.27491 16.2266 1.26297 16.2146C1.276 16.2277 1.28794 16.2396 1.30097 16.2516C1.26622 16.1571 1.23473 16.0615 1.20867 15.9638C1.19672 15.9193 1.18912 15.8737 1.175 15.8302C1.13048 15.6912 1.1055 15.5479 1.07727 15.4056C1.05772 15.3035 1.0436 15.1993 1.02949 15.0961C1.01428 14.9897 1.00559 14.8822 0.992563 14.7758C0.992563 14.7682 0.991477 14.7616 0.990391 14.754C0.990391 14.8909 0.990391 15.0277 0.990391 15.1634C0.990391 15.0266 0.990391 14.8898 0.990391 14.754C0.986047 14.7139 0.984961 14.6726 0.981703 14.6313C0.976274 14.5206 0.9665 14.4098 0.9665 14.2979C0.9665 14.2252 0.958898 14.1524 0.959984 14.0797C0.96107 13.9265 0.962156 13.7745 0.968672 13.6214C0.974102 13.4878 0.981704 13.3553 0.992563 13.2218C0.994735 13.1989 0.995821 13.1772 0.997993 13.1544C1.01971 12.9123 1.04686 12.6701 1.08053 12.429C1.11528 12.1749 1.1598 11.923 1.20867 11.6721C1.22279 11.5982 1.23799 11.5244 1.25319 11.4506C1.31075 11.1726 1.37808 10.8978 1.45192 10.6241C1.48993 10.483 1.52902 10.3418 1.57029 10.2017C1.61264 10.0551 1.65825 9.90959 1.70495 9.76516C1.75599 9.60769 1.81029 9.45132 1.8635 9.29494C1.87327 9.26562 1.89065 9.23847 1.90042 9.20915C1.95689 9.02779 2.02639 8.85078 2.09589 8.67486C2.19906 8.41532 2.30223 8.15469 2.41951 7.90057C2.52702 7.66601 2.63127 7.42927 2.74964 7.20013C2.79633 7.10891 2.84303 7.01661 2.88755 6.9243C2.90384 6.89172 2.92665 6.86349 2.94185 6.82982C2.99072 6.72666 3.04393 6.62566 3.1004 6.52684C3.12755 6.47906 3.14818 6.42802 3.18402 6.38567C3.24049 6.27707 3.30022 6.17065 3.36538 6.0664C3.40338 6.00667 3.43596 5.9426 3.47288 5.88287C3.57388 5.71998 3.67161 5.55491 3.77804 5.39527C3.89641 5.21718 4.01043 5.038 4.13532 4.86424C4.26129 4.68832 4.38835 4.51239 4.52083 4.3419C4.56427 4.28651 4.61314 4.23547 4.6544 4.17683C4.70653 4.10407 4.76083 4.03349 4.81947 3.96616C4.89766 3.87385 4.97476 3.78155 5.05404 3.69033C5.08336 3.65666 5.11593 3.62734 5.14634 3.59368C5.19738 3.53503 5.24625 3.47422 5.29946 3.41775C5.4743 3.23314 5.65131 3.0507 5.83809 2.87912C5.8761 2.84437 5.90977 2.80527 5.95103 2.77486C5.99339 2.74446 6.02271 2.69885 6.07049 2.67387C6.07375 2.6717 6.07701 2.67061 6.07918 2.66844C6.09764 2.65432 6.1085 2.62935 6.12805 2.61523C6.12913 2.61414 6.1313 2.61306 6.13239 2.61197C6.13348 2.60546 6.13565 2.60003 6.1389 2.59568C6.14216 2.59134 6.14651 2.58917 6.15194 2.58917C6.15519 2.58917 6.15954 2.58917 6.16388 2.59025C6.1704 2.58482 6.17691 2.57939 6.18234 2.57396C6.19103 2.56853 6.19755 2.5631 6.20515 2.55876C6.24316 2.53161 6.27682 2.50012 6.31157 2.46863C6.36587 2.41976 6.42451 2.37632 6.48207 2.3318C6.71229 2.15261 6.95554 1.99189 7.20531 1.84312C7.23355 1.82574 7.26395 1.81271 7.29328 1.79751C7.38015 1.75081 7.46594 1.70086 7.55499 1.65742C7.78521 1.54339 8.02412 1.45217 8.27281 1.38593C8.40095 1.35226 8.53018 1.32511 8.66158 1.30665C8.82121 1.28493 8.98194 1.27625 9.14266 1.28493C9.3175 1.29579 9.49125 1.32294 9.65957 1.37833C9.66826 1.3805 9.67586 1.38158 9.68346 1.37724C9.66934 1.36204 9.64763 1.36204 9.63025 1.35335L9.63677 1.35226Z" fill="#898C8D"/>
<path d="M6.15119 2.53112C6.15119 2.53112 6.14766 2.52876 6.14648 2.52759C6.14766 2.52759 6.15001 2.52994 6.15119 2.53112Z" fill="#898C8D"/>
<path d="M6.12048 2.51221C6.127 2.51546 6.13243 2.51872 6.13786 2.52198C6.13243 2.51872 6.12591 2.51546 6.12048 2.51221Z" fill="#898C8D"/>
<path opacity="0.48" d="M17.3209 15.1137C17.3492 15.092 17.3492 15.0899 17.3209 15.0671C17.2547 15.0138 17.1841 14.9671 17.1114 14.9237C16.8692 14.7771 16.6107 14.6652 16.3447 14.5675C16.2839 14.5458 16.2252 14.5186 16.1611 14.5067C16.1438 14.4872 16.1177 14.485 16.0949 14.4774C15.8473 14.3948 15.5954 14.3275 15.3423 14.2624C15.3217 14.2602 15.3011 14.2558 15.2826 14.2461C15.1642 14.22 15.0459 14.1939 14.9275 14.169C14.7081 14.1212 14.4888 14.0799 14.2672 14.043C14.1033 14.0158 13.9393 13.9898 13.7753 13.9659C13.6472 13.9474 13.519 13.9279 13.3898 13.9181C13.3681 13.9149 13.3474 13.9105 13.3257 13.9083C12.874 13.853 12.4211 13.8106 11.9661 13.7802C11.6696 13.7596 11.3721 13.7444 11.0756 13.7324C10.6868 13.7172 10.2992 13.7107 9.91039 13.7107C9.42822 13.7107 8.94714 13.7226 8.46606 13.7454C7.91006 13.7726 7.35622 13.8149 6.80347 13.8768C6.71333 13.8866 6.62211 13.8931 6.53198 13.9116C6.51352 13.9073 6.49614 13.9116 6.47768 13.9138C6.08348 13.9626 5.69145 14.0224 5.30159 14.0962C5.07137 14.1396 4.84223 14.1874 4.61418 14.2417L4.60984 14.2493C4.60984 14.2493 4.5512 15.0964 4.68151 15.9239C4.9063 15.9771 5.13218 16.0249 5.35806 16.0672C5.56005 16.1052 5.76312 16.1411 5.96728 16.1704C6.25289 16.2116 6.53958 16.2529 6.82736 16.2833C7.10645 16.3126 7.38554 16.343 7.66572 16.3626C7.83187 16.3745 7.99693 16.3887 8.16308 16.3984C8.40851 16.4125 8.65393 16.4245 8.89936 16.4332C9.12307 16.4408 9.34786 16.4473 9.57157 16.4506C9.92993 16.4549 10.2883 16.4538 10.6477 16.4462C10.9931 16.4386 11.3384 16.4256 11.6827 16.406C12.0942 16.3832 12.5036 16.3506 12.9141 16.3083C13.5386 16.2431 14.1597 16.1573 14.7755 16.0336C15.313 15.926 15.8451 15.7946 16.361 15.6046C16.5858 15.5221 16.8051 15.4287 17.0147 15.3114C17.1211 15.2527 17.2232 15.1887 17.3199 15.1137H17.3209Z" fill="url(#paint0_linear_2744_86466)"/>
<path d="M25.1789 7.49121L27.8938 14.425L30.5903 7.49121H32.2594L28.6095 16.6816H27.0685L23.4001 7.49121H25.18H25.1789Z" fill="#9E9DA0"/>
<path d="M35.7627 14.9029C36.2764 15.2331 36.8997 15.435 37.56 15.435C39.4126 15.435 40.8623 13.9495 40.8623 12.0784H42.4402C42.4402 14.7563 40.2759 16.8663 37.5241 16.8663C34.7723 16.8663 32.6992 14.7748 32.6992 12.1337C32.6992 9.49269 34.8635 7.30884 37.6153 7.30884C38.9728 7.30884 40.5138 7.82249 41.5226 9.16148L35.7627 14.9029ZM34.7723 13.8756L39.3583 9.27116C38.8262 8.92257 38.2213 8.73904 37.561 8.73904C35.7269 8.73904 34.2771 10.2246 34.2771 12.0773C34.2771 12.7375 34.4606 13.3609 34.7723 13.8745V13.8756Z" fill="#9E9DA0"/>
<path d="M44.2017 3.29077H45.9262V16.6817H44.2017V3.29077Z" fill="#9E9DA0"/>
<path d="M47.87 12.0774C47.87 9.36249 49.9615 7.30786 52.7307 7.30786C55.4999 7.30786 57.6099 9.36249 57.6099 12.0774C57.6099 14.7923 55.5184 16.8654 52.7307 16.8654C49.9431 16.8654 47.87 14.8107 47.87 12.0774ZM52.7307 15.3244C54.5649 15.3244 55.9408 13.93 55.9408 12.0774C55.9408 10.2247 54.5649 8.83037 52.7307 8.83037C50.8966 8.83037 49.5391 10.2432 49.5391 12.0774C49.5391 13.9116 50.915 15.3244 52.7307 15.3244Z" fill="#9E9DA0"/>
<path d="M63.9204 16.6817C60.9493 16.6817 58.9674 14.8475 58.9674 12.0772C58.9674 9.30696 60.9482 7.49125 63.9204 7.49125H65.4614V3.29077H67.1859V16.6817H63.9204ZM63.9204 15.1407H65.4614V9.01375H63.9204C61.9755 9.01375 60.6919 10.2431 60.6919 12.0772C60.6919 13.9114 61.9755 15.1407 63.9204 15.1407Z" fill="#9E9DA0"/>
<path d="M69.7173 7.49139H71.4418V10.1509L74.2848 7.30786L75.3675 8.39056L71.4418 12.2978V16.6818H69.7173V7.49139Z" fill="#9E9DA0"/>
<path d="M75.4772 12.0774C75.4772 9.36249 77.5687 7.30786 80.3379 7.30786C83.1071 7.30786 85.2171 9.36249 85.2171 12.0774C85.2171 14.7923 83.1255 16.8654 80.3379 16.8654C77.5503 16.8654 75.4772 14.8107 75.4772 12.0774ZM80.3379 15.3244C82.1721 15.3244 83.548 13.93 83.548 12.0774C83.548 10.2247 82.1721 8.83037 80.3379 8.83037C78.5037 8.83037 77.1463 10.2432 77.1463 12.0774C77.1463 13.9116 78.5222 15.3244 80.3379 15.3244Z" fill="#9E9DA0"/>
<path d="M87.162 7.49139H88.8495V8.59146C90.3351 7.47293 90.9769 7.30786 91.8207 7.30786C92.9219 7.30786 93.8753 7.8769 94.3336 8.79345C96.0212 7.49139 96.6999 7.30786 97.5806 7.30786C99.1585 7.30786 100.405 8.44486 100.405 10.1694V16.6818H98.6807V10.3529C98.6807 9.50909 98.0758 8.88575 97.3048 8.88575C96.7173 8.88575 96.2775 9.0139 94.6453 10.3713V16.6818H92.9208V10.3529C92.9208 9.50909 92.3159 8.88575 91.5449 8.88575C90.9585 8.88575 90.5176 9.0139 88.8854 10.3713V16.6818H87.1609V7.49139H87.162Z" fill="#9E9DA0"/>
<path d="M105.322 14.9029C105.836 15.2331 106.459 15.435 107.12 15.435C108.972 15.435 110.422 13.9495 110.422 12.0784H112C112 14.7563 109.836 16.8663 107.084 16.8663C104.332 16.8663 102.259 14.7748 102.259 12.1337C102.259 9.49269 104.423 7.30884 107.175 7.30884C108.532 7.30884 110.073 7.82249 111.082 9.16148L105.322 14.9029ZM104.332 13.8756L108.918 9.27116C108.386 8.92257 107.781 8.73904 107.121 8.73904C105.287 8.73904 103.837 10.2246 103.837 12.0773C103.837 12.7375 104.02 13.3609 104.332 13.8745V13.8756Z" fill="#9E9DA0"/>
<defs>
<linearGradient id="paint0_linear_2744_86466" x1="10.9939" y1="14.0285" x2="10.9147" y2="16.0788" gradientUnits="userSpaceOnUse">
<stop offset="0.16" stop-color="#191919"/>
<stop offset="0.97" stop-color="#191919" stop-opacity="0"/>
</linearGradient>
</defs>
</svg>
