<svg width="72" height="28" viewBox="0 0 72 28" fill="none" xmlns="http://www.w3.org/2000/svg">
<g clip-path="url(#clip0_511_5205)">
<path d="M31.7619 7.73307H34.4286V18.3997H37.0952V5.06641H34.4286C32.9619 5.06641 31.7619 6.26641 31.7619 7.73307Z" fill="#999999"/>
<path d="M39.7619 18.4004H42.4286V13.0671C42.4286 11.6004 41.2286 10.4004 39.7619 10.4004V18.4004Z" fill="#999999"/>
<path d="M45.0953 10.4004V18.4004H47.7619V13.0671H50.4286V15.7337C50.4286 17.2004 51.6286 18.4004 53.0953 18.4004V13.0671C53.0953 11.6004 51.8953 10.4004 50.4286 10.4004H45.0953Z" fill="#999999"/>
<path d="M69.0952 10.3997H66.4286V7.73307C66.4286 6.26641 65.2286 5.06641 63.7619 5.06641V15.7331H58.4286V13.0664H61.0952V10.3997H58.4286C56.9619 10.3997 55.7619 11.5997 55.7619 13.0664V15.7331C55.7619 17.1997 56.9619 18.3997 58.4286 18.3997H66.4286V13.0664H69.0952V15.7331C69.0952 17.1997 70.2952 18.3997 71.7619 18.3997V13.0664C71.7619 11.5997 70.5619 10.3997 69.0952 10.3997Z" fill="#999999"/>
<path d="M39.7619 7.73307H42.4286C42.4286 6.26641 41.2286 5.06641 39.7619 5.06641V7.73307Z" fill="#999999"/>
<path d="M35.9195 21.0664V22.8115H35.6751L34.7153 21.6024V22.8115H34.4286V21.0664H34.6729L35.6327 22.2805V21.0664H35.9195Z" fill="#999999" fill-opacity="0.7"/>
<path d="M41.3439 22.8115H40.3093V21.0664H41.3189V21.3531H40.6159V21.7869H41.2442V22.0736H40.6159V22.5249H41.3439V22.8115Z" fill="#999999" fill-opacity="0.7"/>
<path d="M46.2996 21.3531H45.7337V21.0664H47.1722V21.3531H46.6062V22.8115H46.2996V21.3531Z" fill="#999999" fill-opacity="0.7"/>
<path d="M53.6986 21.0664H53.9928L53.4941 22.8115H53.2075L52.7861 21.5501L52.3723 22.8115H52.0831L51.562 21.0664H51.9061L52.2576 22.3105L52.6465 21.0664H52.9507L53.3495 22.3129L53.6986 21.0664Z" fill="#999999" fill-opacity="0.7"/>
<path d="M58.3826 21.9664C58.3826 21.7121 58.4673 21.4985 58.6368 21.3257C58.8097 21.1528 59.0274 21.0664 59.29 21.0664C59.5526 21.0664 59.7695 21.1495 59.9407 21.3157C60.1136 21.4836 60.2 21.7005 60.2 21.9664C60.2 22.2273 60.1136 22.4426 59.9407 22.6121C59.7678 22.7817 59.551 22.8664 59.29 22.8664C59.0274 22.8664 58.8105 22.7833 58.6393 22.6171C58.4681 22.4509 58.3826 22.234 58.3826 21.9664ZM58.7066 21.9664C58.7066 22.1426 58.7623 22.2889 58.8737 22.4052C58.985 22.5215 59.1238 22.5797 59.29 22.5797C59.4695 22.5797 59.6116 22.5215 59.7163 22.4052C59.8227 22.2889 59.8759 22.1426 59.8759 21.9664C59.8759 21.7885 59.8194 21.6415 59.7064 21.5251C59.5934 21.4105 59.4546 21.3531 59.29 21.3531C59.1222 21.3531 58.9826 21.4105 58.8712 21.5251C58.7615 21.6398 58.7066 21.7869 58.7066 21.9664Z" fill="#999999" fill-opacity="0.7"/>
<path d="M64.8965 22.1633V22.8165H64.5898V21.0714C64.6762 21.0714 64.7702 21.0705 64.8716 21.0689C64.9729 21.0672 65.056 21.0664 65.1208 21.0664C65.543 21.0664 65.7541 21.2459 65.7541 21.6049C65.7541 21.7379 65.72 21.8475 65.6519 21.934C65.5838 22.0171 65.5056 22.0736 65.4175 22.1035L65.9635 22.8165H65.592L65.1109 22.1633H64.8965ZM65.1059 21.3531C65.0976 21.3531 65.0843 21.3539 65.066 21.3556C65.0477 21.3556 65.022 21.3564 64.9887 21.3581C64.9555 21.3581 64.9247 21.3581 64.8965 21.3581V21.8767H65.0959C65.194 21.8767 65.2738 21.8525 65.3352 21.8043C65.3984 21.7561 65.43 21.6905 65.43 21.6074C65.43 21.4379 65.322 21.3531 65.1059 21.3531Z" fill="#999999" fill-opacity="0.7"/>
<path d="M70.6599 22.8115H70.3533V21.0664H70.6599V21.8941L71.3479 21.0664H71.7173L70.9993 21.8791L71.7619 22.8115H71.3733L70.6599 21.9115V22.8115Z" fill="#999999" fill-opacity="0.7"/>
<mask id="mask0_511_5205" style="mask-type:luminance" maskUnits="userSpaceOnUse" x="0" y="0" width="29" height="28">
<path d="M28.4286 0H0.428589V28H28.4286V0Z" fill="white"/>
</mask>
<g mask="url(#mask0_511_5205)">
<path fill-rule="evenodd" clip-rule="evenodd" d="M22.4217 4.90417C21.603 4.3729 21.02 4.14279 21.02 4.14279C21.02 4.14279 21.4028 4.1581 21.951 4.19779C22.1616 4.21303 22.3966 4.23187 22.6436 4.25483C22.8406 4.27311 23.0452 4.29402 23.2512 4.31779C22.8887 4.03273 22.5288 3.77619 22.1724 3.54582C20.0132 2.14982 17.9848 1.71467 16.295 1.71467C14.8036 1.71467 13.5768 2.0519 12.7562 2.36645C12.095 2.61993 11.6976 2.85869 11.6382 2.89435L11.6356 2.89591L12.4887 1.53967L12.5525 0.876061C12.7827 0.898201 12.985 1.03808 13.087 1.24566C13.1303 1.33365 13.1528 1.42848 13.1552 1.52345C13.9841 1.26668 15.054 1.048 16.295 1.048C18.4083 1.048 20.9826 1.68588 23.6633 3.79373C23.8978 3.97811 23.9812 4.29581 23.8676 4.57163C23.8083 4.71575 23.7027 4.83012 23.5731 4.90159C24.0559 5.27127 24.574 5.72385 25.0834 6.2687C26.9301 8.24357 28.6388 11.4079 28.1804 16.1291C28.1542 16.3982 27.9681 16.6249 27.7092 16.703C27.5908 16.7387 27.4678 16.74 27.353 16.7109C27.2034 18.729 26.3236 22.0657 22.5359 24.9102C22.3088 25.0808 21.9987 25.0888 21.7632 24.9301C21.6678 24.8658 21.5931 24.78 21.5428 24.6823C21.5047 24.7179 21.4659 24.7536 21.4263 24.7894C20.3492 25.7643 18.7102 26.8296 16.4961 27.1375C16.4657 27.1417 16.435 27.1438 16.4043 27.1438H16.3824C16.1072 27.1438 15.8602 26.9747 15.7608 26.718C15.7444 26.6757 15.7326 26.6324 15.7252 26.5888C15.1788 26.6975 14.5362 26.772 13.8012 26.772C12.5642 26.772 11.0679 26.5616 9.31497 25.9469C8.97997 25.8294 8.79577 25.47 8.89604 25.1294C8.99637 24.7889 9.34597 24.5867 9.69117 24.6695C10.1875 24.7886 10.6822 24.848 11.1981 24.848C14.5532 24.848 17.1814 22.3437 17.1814 19.3459C17.1814 17.8682 16.5547 16.5129 15.4993 15.5126C15.4964 15.5163 15.4934 15.5201 15.4905 15.5238C15.2496 15.8352 14.9592 16.2116 14.7536 16.482C14.421 16.9488 14.3043 17.2069 14.3306 17.4407C14.4441 18.2012 14.2098 18.949 13.7776 19.4965C13.772 19.5036 13.7663 19.5105 13.7605 19.5173C13.5894 19.7168 13.2643 20.0004 12.9746 20.2529C12.9614 20.2644 12.9483 20.2759 12.9352 20.2873C12.6436 20.5418 12.3581 20.7912 12.1507 20.9986C12.1453 21.004 12.1398 21.0093 12.1342 21.0146C11.6176 21.4966 10.9435 21.5657 10.5418 21.5657C10.4306 21.5657 10.3305 21.5573 10.2628 21.5516L10.2591 21.5513C10.2582 21.5512 10.2572 21.5512 10.2563 21.551C10.1899 21.5455 10.1648 21.5438 10.1481 21.5438H10.0824C10.0714 21.5438 10.0631 21.544 10.057 21.5443C10.0445 21.5521 10.0223 21.5673 9.98644 21.5954C9.9375 21.6338 9.8757 21.6863 9.78997 21.7618C9.6259 21.9158 9.42944 21.9832 9.29804 22.0161C9.14557 22.0542 8.98544 22.0688 8.83557 22.0688C8.4463 22.0688 8.00004 21.9816 7.63324 21.8906C7.25597 21.797 6.91254 21.6865 6.71057 21.6152C6.70351 21.6127 6.69649 21.6101 6.68952 21.6074C6.49731 21.5322 6.35344 21.4052 6.25528 21.3004C6.1521 21.1902 6.06262 21.0646 5.98616 20.9418C5.83328 20.6964 5.69717 20.4048 5.58451 20.1268C5.36709 19.5903 5.18562 18.9741 5.15382 18.672C5.13271 18.4714 5.18161 18.2812 5.21798 18.1622C5.25984 18.0254 5.31805 17.8826 5.3787 17.7475C5.49811 17.4816 5.65493 17.185 5.78997 16.9297L5.79572 16.9188C5.89142 16.7378 5.97538 16.5789 6.04012 16.446C6.07222 16.38 6.09614 16.3274 6.11268 16.2872C6.12415 16.2593 6.12879 16.2452 6.12986 16.242C6.16647 16.0691 6.28046 15.2219 6.39693 14.3096C6.51159 13.4114 6.62068 12.5168 6.64222 12.3336C6.6603 12.18 6.65764 12.1054 6.64212 12.0345C6.6253 11.9576 6.58208 11.8368 6.45048 11.6207C6.44922 11.6186 6.44796 11.6165 6.44671 11.6144C6.44625 11.6136 6.44578 11.6128 6.44532 11.612C6.15394 11.1167 6.13926 10.6296 6.26194 10.0338C4.77354 8.9999 0.991233 6.20653 0.757163 6.01501C0.755614 6.01375 0.75407 6.01247 0.752532 6.01119C0.614041 5.89578 0.473178 5.72485 0.43044 5.48978C0.409261 5.3733 0.416983 5.26346 0.441958 5.16772C0.454118 5.12111 0.4698 5.07992 0.486404 5.04445C0.494705 5.02671 0.503263 5.01035 0.511784 4.99536C0.516047 4.98786 0.52031 4.98069 0.52454 4.97384C0.526655 4.97042 0.528764 4.96707 0.530862 4.96381C0.531911 4.96217 0.532957 4.96056 0.534 4.95897L0.535563 4.95659L0.536343 4.95541C0.536731 4.95483 0.537121 4.95424 1.09182 5.32404C1.09182 5.32404 1.04807 5.38967 1.17932 5.49904C1.18996 5.50775 1.20911 5.52269 1.23608 5.54337C1.2404 5.54668 1.24492 5.55014 1.24964 5.55374C1.31724 5.60538 1.42548 5.68677 1.56605 5.79173C1.75577 5.93337 2.00438 6.11793 2.29148 6.33018C3.78056 7.43103 6.30522 9.27663 7.01995 9.74277C6.8012 10.5303 6.8012 10.9022 7.01995 11.274C7.32617 11.7772 7.3481 12.0396 7.3043 12.4116C7.26057 12.7834 6.86682 15.999 6.77932 16.3928C6.744 16.5517 6.57326 16.8746 6.38505 17.2305C6.10696 17.7563 5.79073 18.3543 5.81682 18.6022C5.86057 19.0178 6.42932 20.7896 6.93245 20.9866C7.3043 21.1178 8.2231 21.4022 8.83557 21.4022C9.0543 21.4022 9.25117 21.3584 9.3387 21.2709C9.71057 20.9428 9.81997 20.8772 10.0824 20.8772H10.1481C10.1982 20.8772 10.2528 20.8818 10.312 20.8867H10.3121C10.3823 20.8926 10.4588 20.899 10.5418 20.899C10.8918 20.899 11.3512 20.8334 11.6793 20.5272C11.9062 20.3003 12.2108 20.0346 12.497 19.785C12.8178 19.505 13.1156 19.2453 13.2543 19.0834C13.5824 18.6678 13.7574 18.099 13.67 17.5303C13.6043 17.0053 13.8887 16.5459 14.2168 16.0866C14.6324 15.5396 15.3981 14.5553 15.3981 14.5553C15.4514 14.5955 15.504 14.6364 15.5559 14.6781C15.6779 14.776 15.7959 14.8778 15.9096 14.9835C17.117 16.1047 17.8481 17.6488 17.8481 19.3459C17.8481 22.3001 15.6185 24.7625 12.6353 25.3706C12.1725 25.465 11.6916 25.5146 11.1981 25.5146C10.6293 25.5146 10.0824 25.449 9.53557 25.3178C10.1215 25.5232 10.6757 25.681 11.1981 25.7995C11.7173 25.9172 12.2052 25.9961 12.6616 26.0442C13.0661 26.0868 13.446 26.1053 13.8012 26.1053C14.7453 26.1053 15.5202 25.9744 16.1176 25.8128C17.0842 25.551 17.5856 25.2084 17.5856 25.2084C17.5856 25.2084 17.456 25.3751 17.223 25.633C17.0318 25.8445 16.7712 26.1174 16.4554 26.4101C16.4385 26.4258 16.4215 26.4414 16.4043 26.4572C16.4035 26.4579 16.4027 26.4587 16.4018 26.4594C16.3954 26.4654 16.389 26.4712 16.3824 26.4772H16.4043C16.8197 26.4194 17.2134 26.3328 17.5856 26.2238C19.4852 25.6672 20.8237 24.5269 21.6164 23.6615C22.1978 23.0266 22.4856 22.5396 22.4856 22.5396C22.4856 22.5396 22.4349 22.9017 22.3544 23.3508C22.3187 23.5495 22.2772 23.7652 22.2318 23.9741C22.2013 24.1138 22.1691 24.2506 22.1356 24.3772C22.4311 24.1552 22.7079 23.9302 22.9672 23.7032C26.1715 20.8965 26.6894 17.773 26.7123 16.1347C26.7134 16.0596 26.7134 15.9875 26.7126 15.9187C26.7126 15.9184 26.7125 15.918 26.7125 15.9177C26.7125 15.9177 26.7125 15.9176 26.7125 15.9176C26.7125 15.9176 26.7125 15.9175 26.7125 15.9174C26.7125 15.9173 26.7125 15.9172 26.7125 15.9171C26.7125 15.9168 26.7125 15.9164 26.7125 15.916V15.916C26.7125 15.9159 26.7125 15.9158 26.7125 15.9158C26.7125 15.9146 26.7125 15.9134 26.7124 15.9123C26.7124 15.9122 26.7124 15.9122 26.7124 15.9122C26.7062 15.4272 26.6588 15.1078 26.6451 15.0156L26.6434 15.0039C26.6427 14.9991 26.6422 14.9954 26.6418 14.9928C26.6435 14.9954 26.646 14.9988 26.6492 15.003C26.6515 15.0062 26.6542 15.0098 26.6573 15.0138C26.6952 15.0633 26.7883 15.1776 26.9039 15.3185C26.9704 15.3995 27.0444 15.4893 27.1195 15.5805L27.1196 15.5806L27.1196 15.5806L27.1197 15.5807L27.1205 15.5817C27.2082 15.6881 27.2974 15.7964 27.3783 15.8951C27.4284 15.9562 27.4754 16.0137 27.5168 16.0646C27.5452 15.7728 27.5648 15.4874 27.5764 15.2084C27.5764 15.2083 27.5764 15.2082 27.5764 15.2082C27.5764 15.2075 27.5765 15.2068 27.5765 15.2061C27.5765 15.2058 27.5765 15.2054 27.5766 15.205C27.5766 15.2048 27.5766 15.2046 27.5766 15.2045C27.5766 15.2044 27.5766 15.2044 27.5766 15.2044C27.5766 15.2042 27.5766 15.2042 27.5766 15.204C27.5766 15.2038 27.5766 15.2035 27.5766 15.2032C27.5766 15.203 27.5766 15.2027 27.5766 15.2024C27.5766 15.2024 27.5766 15.2024 27.5766 15.2023C27.5782 15.1654 27.5796 15.1286 27.5808 15.0919C27.777 9.25063 24.4067 6.19225 22.4217 4.90417ZM7.49324 3.69607C7.5089 3.74882 7.52524 3.80302 7.5421 3.85821C7.63897 4.17479 7.75437 4.52415 7.8731 4.82091C7.98437 4.48701 8.11457 4.18681 8.25924 3.91692C9.19664 2.16822 10.7409 1.69246 11.6814 1.57097C12.1648 1.50852 12.4887 1.53967 12.4887 1.53967C12.5525 0.876061 12.5522 0.876027 12.5518 0.875987L12.551 0.875914L12.549 0.875734L12.5444 0.875314C12.5424 0.875147 12.5403 0.874967 12.5379 0.874767C12.5358 0.874594 12.5336 0.874414 12.5312 0.874221C12.5207 0.873401 12.507 0.872414 12.4901 0.8714C12.4565 0.869374 12.4104 0.867234 12.3531 0.866087C12.2388 0.863787 12.0794 0.865421 11.8864 0.880027C11.502 0.909121 10.9747 0.990407 10.4019 1.2011C9.58657 1.50103 8.69637 2.05875 8.00397 3.05751C7.99344 3.01919 7.98384 2.98395 7.9753 2.95229C7.9601 2.89579 7.94817 2.85085 7.94024 2.82033C7.93624 2.80507 7.93317 2.79342 7.93124 2.78575L7.92904 2.77726L7.92844 2.775C7.87117 2.55039 7.7013 2.37159 7.47997 2.30293C7.2585 2.23425 7.01734 2.28553 6.84301 2.43833L7.28244 2.93967C6.84301 2.43833 6.84274 2.43857 6.84247 2.43881L6.84189 2.43931L6.8406 2.44045L6.83756 2.44315C6.8353 2.44516 6.83262 2.44757 6.82954 2.45037C6.82336 2.45597 6.81553 2.46317 6.8062 2.47194C6.78754 2.48947 6.7628 2.51335 6.73313 2.54347C6.67384 2.60362 6.59439 2.68907 6.50396 2.79887C6.3237 3.01777 6.09608 3.338 5.89868 3.7519C5.61657 4.34343 5.40005 5.12038 5.46466 6.0464C4.73122 5.78175 3.97146 5.51035 3.31608 5.27809C2.81772 5.10147 2.37876 4.94715 2.05698 4.83542C1.89632 4.77964 1.76349 4.73399 1.66658 4.70135C1.61842 4.68513 1.57698 4.67139 1.54458 4.66101C1.5437 4.66073 1.5426 4.66037 1.54128 4.65995C1.52379 4.65429 1.46834 4.63635 1.41944 4.62657C1.40735 4.62415 1.39519 4.62207 1.38298 4.62033C1.20235 4.59452 1.02142 4.6123 0.85697 4.68705C0.777157 4.72333 0.71056 4.76895 0.656521 4.8173C0.629803 4.84121 0.606739 4.86525 0.586959 4.88842C0.577076 4.9 0.56802 4.91135 0.559737 4.92235C0.555595 4.92785 0.551645 4.93327 0.547879 4.93859C0.545995 4.94125 0.544159 4.94388 0.542366 4.94649L0.539711 4.95039L0.538409 4.95232L0.537763 4.95328C0.537443 4.95376 0.537122 4.95424 1.09182 5.32404C1.09182 5.32404 1.13557 5.25841 1.2887 5.28029C1.29582 5.28171 1.3148 5.2874 1.34463 5.29699C1.34543 5.29725 1.34624 5.29751 1.34704 5.29777C1.42098 5.32161 1.55886 5.36847 1.74614 5.43326C1.97062 5.51091 2.26607 5.61432 2.60742 5.73467C3.44402 6.02962 4.5563 6.42634 5.57516 6.79523C5.83912 6.89077 6.09682 6.9845 6.34182 7.07403C6.25491 6.80417 6.19646 6.54552 6.16146 6.29872C5.98766 5.07309 6.3923 4.13943 6.76302 3.57123C7.03164 3.15951 7.28244 2.93967 7.28244 2.93967C7.28244 2.93967 7.36684 3.27081 7.49324 3.69607ZM1.11482 5.92363C1.1148 5.92362 1.11527 5.92375 1.11626 5.92405C1.11534 5.92379 1.11484 5.92363 1.11482 5.92363Z" fill="#999999"/>
<path d="M12.6418 18.5359C12.5744 18.6201 12.3384 18.8341 12.1134 19.0379C12.0464 19.0988 11.9802 19.1587 11.92 19.214C11.8288 19.2976 11.7349 19.3812 11.6421 19.4639L11.642 19.4639C11.4677 19.6192 11.297 19.7713 11.1543 19.914C11.0668 20.0015 10.8918 20.0452 10.6293 20.0452H9.97304C10.1046 19.8699 10.3381 19.6031 10.5918 19.3322C10.7317 19.2027 10.873 19.0789 11.0012 18.9733C11.2255 18.7877 11.4498 18.6623 11.646 18.5525C12.0048 18.3518 12.27 18.2035 12.27 17.8358C12.2838 17.0903 11.7836 16.946 11.4126 16.941C11.5232 16.9153 11.6479 16.8952 11.7668 16.8952C11.3512 16.7859 10.8262 16.8952 10.5856 17.1359C10.4106 17.2963 10.3717 17.7289 10.3328 18.1615C10.3134 18.3779 10.2939 18.5942 10.2574 18.7765C10.1595 19.2858 9.85104 19.5671 9.37917 19.9973L9.3785 19.9979L9.3771 19.9992C9.3227 20.0489 9.2661 20.1005 9.20744 20.1546C9.1937 20.1674 9.1801 20.1797 9.1667 20.1917L7.71997 19.8702C7.71997 19.8702 8.68244 19.3671 8.83557 18.7983C8.9727 18.3085 8.6185 16.8009 8.52737 16.4131C8.51677 16.3679 8.5097 16.3379 8.50744 16.3265C8.50877 16.3278 8.5117 16.3305 8.51604 16.3345C8.5823 16.3951 8.97897 16.7579 9.1637 17.3327C9.5137 16.3702 9.97304 15.4515 10.1043 15.3639C10.2171 15.2888 11.541 14.5838 11.9116 14.3867C11.7496 14.8265 11.5944 15.2619 11.4824 15.5827C11.0887 15.6921 10.695 15.9109 10.4106 16.3483C10.5637 16.239 11.045 16.1733 11.395 16.1296C11.7012 16.1077 12.6418 16.6109 12.8824 17.5515V17.5952C12.9262 17.9452 12.8168 18.2733 12.6418 18.5359Z" fill="#999999" fill-opacity="0.7"/>
<path d="M11.8991 15.5391C12.348 15.4982 12.7199 15.5886 12.8168 15.6273C13.67 14.0086 14.3481 13.1336 14.5231 13.1336C14.5416 13.1312 14.5817 13.1326 14.6395 13.1346C15.1253 13.1513 16.8622 13.2111 17.5856 11.471C18.3613 9.57491 17.2692 7.95464 17.1945 7.84384L17.1918 7.83984C18.1106 10.8586 16.0762 12.5429 14.698 12.5648C13.9324 12.5648 12.9043 13.0679 12.9043 13.0679L11.8991 15.5391Z" fill="#999999" fill-opacity="0.7"/>
<path d="M17.1918 7.83984C17.1926 7.84018 17.1937 7.84071 17.1952 7.84151C17.2898 7.88738 18.924 8.68018 19.3952 11.1405C20.4822 12.4091 21.1637 13.9934 21.348 15.671C21.348 15.7804 21.5012 15.9336 21.6543 16.0648C21.8512 16.2616 22.048 16.4586 22.048 16.6554C22.048 17.1804 22.0043 17.7054 21.9168 18.2086C21.8781 18.3634 21.7022 18.4669 21.5106 18.5797L21.4922 18.5906C21.4847 18.595 21.4773 18.5994 21.4698 18.6038C21.4584 18.6105 21.447 18.6173 21.4356 18.6242C21.4058 18.644 21.3727 18.665 21.339 18.6862L21.339 18.6863C21.224 18.759 21.1025 18.8359 21.0856 18.8866C20.6402 20.4657 19.7078 21.8761 18.4616 22.9445C20.5187 21.7869 22.0698 19.8408 22.7103 17.5264C22.9228 16.6146 22.9591 15.6594 22.7918 14.6866C22.0043 10.2242 17.4543 7.94924 17.1918 7.83984Z" fill="#999999" fill-opacity="0.7"/>
<path d="M11.935 8.05905C12.3389 8.07945 13.2029 8.03811 14.02 7.44531C14.103 7.63911 14.1853 7.83425 14.2646 8.02491C13.2597 8.29451 12.3586 8.15558 11.935 8.05905Z" fill="#999999" fill-opacity="0.7"/>
<path d="M14.9515 7.77708C15.4958 7.52655 16.0458 7.13441 16.5467 6.5347C16.0626 6.39608 15.5618 6.29731 15.048 6.24219C14.895 6.48281 14.7418 6.70155 14.5887 6.87655C14.6793 7.10001 14.8099 7.42348 14.9515 7.77708Z" fill="#999999" fill-opacity="0.7"/>
<path d="M19.3137 14.6215C19.5325 13.5059 19.5543 12.5434 19.4887 11.7559C20.3419 12.8934 20.8669 14.2715 21.02 15.6934C21.0419 15.8684 21.2169 16.0434 21.3919 16.2184C21.545 16.3496 21.72 16.5246 21.72 16.634C21.72 17.1371 21.6762 17.6403 21.5887 18.1434C21.568 18.2056 21.39 18.3071 21.2411 18.392L21.2169 18.4059C20.9981 18.5153 20.8012 18.6246 20.7575 18.7996C20.2762 20.484 19.2481 21.9715 17.87 23.0215C19.9043 20.8996 20.8887 17.3996 19.3137 14.6215Z" fill="#999999" fill-opacity="0.7"/>
<path fill-rule="evenodd" clip-rule="evenodd" d="M9.62305 6.30781C9.62305 6.30781 9.22932 3.48594 11.1981 2.30469C11.1911 2.30766 11.1777 2.3127 11.1587 2.31988C10.7561 2.47122 7.82719 3.57217 9.62305 6.30781ZM13.8669 3.72659C15.3762 3.15785 17.4762 2.85159 20.7356 3.46409C19.2919 2.74222 17.7825 2.37035 16.2731 2.34847C15.7043 2.34847 15.1793 2.39222 14.6981 2.47972C12.9919 2.78597 11.5919 4.01097 11.1106 5.65159C11.1106 5.65159 11.4606 5.10472 12.2919 4.53597L12.3265 4.48888C12.6337 4.07195 13.0963 3.44387 13.5387 2.91722C13.6699 3.20159 13.8231 3.55159 13.8669 3.72659ZM21.4356 7.3578C24.5199 9.39213 25.9199 11.6453 26.9043 14.2921C26.8606 11.4921 25.9199 9.08593 24.1043 7.16093L24.0606 7.11713C22.4637 5.43279 20.1231 4.64529 17.8043 4.97341C16.9293 5.08279 16.0543 5.25779 15.3762 5.47654C15.2669 5.49841 15.1575 5.52029 15.0481 5.56404H15.0919C15.2669 5.54217 18.4606 5.38904 21.4356 7.3578ZM24.2793 21.2703C23.9512 21.7078 23.5793 22.1672 23.1419 22.6047C25.9637 17.1797 23.2731 12.2141 23.1637 12.0172C23.3606 12.2141 23.5575 12.4328 23.7325 12.6297C25.8981 15.0359 26.1606 18.6453 24.2793 21.2703ZM7.01454 4.44749C6.93151 4.76439 6.19406 7.579 8.68245 7.66407C7.19498 6.7672 7.01996 4.44847 7.01996 4.42659L7.01875 4.43135L7.01731 4.43693L7.01454 4.44749ZM11.3512 10.311L10.2137 12.2579C10.2137 12.2579 11.2637 11.7766 11.6793 11.1641C12.0075 10.6391 11.3512 10.311 11.3512 10.311ZM10.5919 19.3323C10.7317 19.2028 10.873 19.079 11.0012 18.9734C11.2255 18.7878 11.4498 18.6623 11.6461 18.5525C12.0049 18.3519 12.2699 18.2035 12.2699 17.8359C12.2837 17.0905 11.7835 16.9461 11.4126 16.9411C11.4183 16.9397 11.4241 16.9385 11.4298 16.9371C11.227 16.9825 11.0668 17.0485 11.0668 17.0485C11.0668 17.0485 11.7012 16.9391 11.9418 17.3985C12.1825 17.8578 11.9856 18.1203 11.5919 18.3828C11.3953 18.5139 10.971 18.9276 10.5919 19.3323ZM12.6637 12.5859C12.5628 12.6724 12.2245 13.5376 11.9116 14.3869C11.541 14.5839 10.2171 15.2889 10.1043 15.3641C9.97305 15.4515 9.51372 16.3703 9.16372 17.3328C8.97892 16.758 8.58232 16.3951 8.51605 16.3345C8.51172 16.3305 8.50879 16.3279 8.50745 16.3265C8.50972 16.3379 8.51679 16.3679 8.52739 16.4131C8.61852 16.801 8.97272 18.3086 8.83559 18.7984C8.68245 19.3671 7.71992 19.8703 7.71992 19.8703L9.16672 20.1918C8.88165 20.4467 8.67459 20.5265 8.50745 20.5265C8.13559 20.4609 7.69805 20.3515 7.39179 20.2422C7.17305 19.9578 6.84495 19.0172 6.75745 18.6235C6.80466 18.4661 6.95381 18.1841 7.08265 17.9405L7.08271 17.9404L7.08275 17.9403L7.08286 17.9401C7.13299 17.8453 7.18005 17.7563 7.21679 17.6828L7.25325 17.6129C7.49352 17.1529 7.63452 16.8829 7.67619 16.6328C7.76372 16.2609 8.04805 13.9641 8.15745 13.0015C8.44179 13.3735 8.83559 13.9859 8.74805 14.3797C9.38245 13.4828 8.92305 12.6078 8.70432 12.2578C8.50745 11.9078 8.24492 11.2078 8.46372 10.4641C8.68245 9.72033 9.46992 7.66407 9.46992 7.66407C9.46992 7.66407 9.73245 8.12347 10.1043 8.03593C10.4762 7.94847 13.4731 3.44219 13.4731 3.44219C13.4731 3.44219 14.2825 5.21406 13.4293 6.50469C12.5543 7.79533 11.7012 8.03593 11.7012 8.03593C11.7012 8.03593 11.7874 8.0516 11.9349 8.05907C12.3586 8.15553 13.2597 8.29447 14.2646 8.02487C14.6239 8.88907 14.9208 9.66047 14.9387 9.78593C14.9276 9.8118 14.8935 9.89313 14.8439 10.0111L14.8437 10.0117L14.8436 10.0119L14.8435 10.0121L14.8435 10.0123C14.5992 10.5941 13.9833 12.0613 13.9106 12.1703C13.8668 12.2141 13.5606 12.3015 13.3419 12.3453C12.9699 12.4547 12.7512 12.5203 12.6637 12.5859ZM13.2543 4.75466C13.2543 4.75466 13.4512 5.62966 12.9481 6.22029C12.3137 6.94213 11.7669 6.92027 11.7887 6.92027L13.2543 4.75466ZM8.20119 17.1797L8.02619 18.0547C8.02619 18.0547 8.37619 18.0109 8.37619 18.4047C8.37619 18.7109 8.02619 19.1266 7.74185 19.1485C7.45745 19.1703 7.34805 18.8203 7.41372 18.6235C7.47932 18.4485 8.20119 17.1797 8.20119 17.1797ZM11.5481 9.8734C12.3137 10.0265 12.5325 10.9234 12.1169 11.4047C11.7012 11.8641 10.6512 12.5203 10.0387 12.6734C9.90745 13.1765 8.79185 12.9578 9.20745 11.3609C9.20745 11.3609 9.40432 12.1265 9.60119 12.0609C9.79805 11.9953 12.0293 8.49533 12.0293 8.49533C12.0293 8.49533 11.7449 9.41407 11.5481 9.8734ZM10.7719 18.0171C10.76 18.2289 10.7405 18.5747 10.5856 18.7985C10.6008 18.7832 10.6479 18.7335 10.7093 18.6686L10.7094 18.6685C10.8242 18.5473 10.9889 18.3732 11.0887 18.2735C11.1568 18.2121 11.2334 18.1635 11.3066 18.1171C11.4685 18.0145 11.6137 17.9224 11.6137 17.7265C11.6137 17.4203 11.1981 17.3547 11.0231 17.3985C10.8481 17.4422 10.8043 17.7265 10.7825 17.8797C10.7778 17.9123 10.7751 17.9598 10.7719 18.0171ZM20.9325 18.8641C20.4512 20.5922 19.3575 22.1235 17.9356 23.2172C18.1143 23.1317 18.2897 23.0405 18.4616 22.9438C19.7077 21.8753 20.6402 20.4649 21.0856 18.8859C21.1025 18.8352 21.224 18.7583 21.3389 18.6855L21.3391 18.6855C21.3727 18.6642 21.4059 18.6432 21.4356 18.6234C21.4423 18.6194 21.449 18.6154 21.4557 18.6114L21.4699 18.603C21.4773 18.5986 21.4847 18.5942 21.4922 18.5898L21.5107 18.5789C21.7023 18.4662 21.8781 18.3627 21.9168 18.2078C22.0043 17.7047 22.0481 17.1797 22.0481 16.6547C22.0481 16.4578 21.8512 16.2609 21.6543 16.0641C21.5012 15.9328 21.3481 15.7797 21.3481 15.6703C21.1637 13.9927 20.4823 12.4083 19.3953 11.1398C19.4051 11.1909 19.4143 11.2427 19.4231 11.2953C20.4075 12.5422 21.0418 14.0515 21.2168 15.6485C21.2168 15.7302 21.3146 15.8364 21.4097 15.9397C21.4418 15.9745 21.4736 16.0091 21.5012 16.0422C21.6981 16.2391 21.8949 16.4359 21.8949 16.6328C21.8949 17.1578 21.8512 17.6828 21.7637 18.1859C21.7199 18.3609 21.5012 18.4922 21.2825 18.6015C21.2529 18.6213 21.2199 18.6421 21.1865 18.6633L21.1859 18.6637L21.1858 18.6637C21.0709 18.7364 20.9494 18.8133 20.9325 18.8641ZM17.1919 7.83907L17.192 7.83913C17.4561 7.94933 22.0045 10.2243 22.7918 14.6859C22.9591 15.6586 22.9229 16.6138 22.7103 17.5255C22.9203 16.7668 23.0325 15.9685 23.0325 15.1453C23.0325 11.0585 20.2884 7.60613 16.5467 6.5347C16.0458 7.1344 15.4959 7.52653 14.9515 7.77707C15.3229 8.70413 15.7699 9.838 15.7699 9.9172C15.7699 10.0485 15.3543 11.1203 15.3106 11.1641C15.2668 11.1859 14.7637 11.2297 14.5668 11.2297C14.3481 11.7547 14.1293 12.2578 14.0856 12.3235C14.0199 12.4109 13.8231 12.4765 13.4075 12.5859C13.363 12.5993 13.3141 12.6135 13.2639 12.6281C13.0671 12.6853 12.8517 12.7479 12.8168 12.7828C12.7075 12.9141 12.1168 14.4672 11.7231 15.5609C11.7827 15.551 11.8415 15.5436 11.8991 15.5383L12.9043 13.0671C12.9043 13.0671 13.9325 12.5641 14.6981 12.5641C16.0762 12.5421 18.1105 10.8578 17.1919 7.83907ZM8.06999 9.0422C8.22305 8.7578 8.09185 8.56093 7.96059 8.45153L7.91685 8.4078C7.65432 8.27653 6.01371 7.66407 4.39496 7.09533C5.81683 8.03593 7.39185 8.95467 7.65432 9.08593C7.85119 9.17347 7.98245 9.19533 8.06999 9.0422Z" fill="#999999"/>
</g>
</g>
<defs>
<clipPath id="clip0_511_5205">
<rect width="71.3333" height="28" fill="white" transform="translate(0.428589)"/>
</clipPath>
</defs>
</svg>
