<svg width="105" height="18" viewBox="0 0 105 18" fill="none" xmlns="http://www.w3.org/2000/svg">
<g clip-path="url(#clip0_2744_86393)">
<path d="M7.58178 5.51569L6.26127 4.24292C5.31806 4.67155 4.52703 5.37238 3.98375 6.24209L2.17139 3.68476C3.67933 1.91877 5.92427 0.798828 8.4318 0.798828C9.9453 0.798828 11.363 1.20679 12.5813 1.91877L9.72294 3.93334L7.58178 5.51569Z" fill="#9E9DA0"/>
<path d="M4.94054 9.84502L3.66421 11.162C4.09416 12.1026 4.7969 12.8916 5.66898 13.4334L3.10479 15.2407C1.33361 13.737 0.210815 11.4981 0.210815 8.99724C0.210815 7.4877 0.620005 6.0736 1.33361 4.85889L3.35386 7.70971L4.94054 9.84502Z" fill="#9E9DA0"/>
<path d="M13.5094 10.2849L11.9227 8.1496L13.1991 6.83259C12.7691 5.89203 12.0664 5.10299 11.1943 4.56122L13.7585 2.75391C15.5297 4.25754 16.6524 6.49643 16.6524 8.99738C16.6524 10.5069 16.2433 11.921 15.5297 13.1357L13.5094 10.2849Z" fill="#9E9DA0"/>
<path d="M12.8791 11.7527L14.6915 14.31L14.6908 14.3103C13.1832 16.0763 10.9382 17.1963 8.43071 17.1963C6.91716 17.1963 5.49951 16.7879 4.28149 16.0763L7.13987 14.0614L9.28103 12.4791L10.6015 13.7518C11.5447 13.3232 12.3358 12.6227 12.8791 11.7527Z" fill="#9E9DA0"/>
<path d="M104.211 2.75098V14.9717H102.568V2.75098H104.211Z" fill="#9E9DA0"/>
<path fill-rule="evenodd" clip-rule="evenodd" d="M25.1143 2.76636C26.2002 2.76636 27.1335 3.03762 27.914 3.58014C28.6945 4.11136 29.2828 4.84603 29.6787 5.78414C30.0746 6.72222 30.2726 7.79596 30.2726 9.00538C30.2726 10.2147 30.0746 11.2885 29.6787 12.2266C29.2828 13.1647 28.6945 13.905 27.914 14.4475C27.1335 14.9788 26.2002 15.2444 25.1143 15.2444C24.0283 15.2444 23.0951 14.9788 22.3145 14.4475C21.534 13.905 20.9458 13.1647 20.5499 12.2266C20.1539 11.2885 19.9559 10.2147 19.9559 9.00538C19.9559 7.79596 20.1539 6.72222 20.5499 5.78414C20.9458 4.84603 21.534 4.11136 22.3145 3.58014C23.0951 3.03762 24.0283 2.76636 25.1143 2.76636ZM25.1143 5.07208C25.7149 5.07208 26.2049 5.27123 26.5841 5.66952L22.9116 10.9744C22.7511 10.4138 22.6709 9.75748 22.6709 9.00538C22.6709 7.80731 22.8745 6.85222 23.2817 6.14017C23.7002 5.42811 24.3111 5.07208 25.1143 5.07208ZM25.1143 12.9386C24.5129 12.9386 24.0193 12.739 23.6336 12.3399L27.3087 7.03121C27.4747 7.59293 27.5577 8.25096 27.5577 9.00538C27.5577 10.2034 27.3484 11.1585 26.9298 11.8706C26.5226 12.5826 25.9174 12.9386 25.1143 12.9386Z" fill="#9E9DA0"/>
<path d="M30.3043 14.9731L33.4943 10.2938L30.5758 6.02148H33.6301L34.8518 8.24245C34.9876 8.47981 35.0554 8.71712 35.0554 8.95449C35.0554 9.05625 35.0724 9.14098 35.1063 9.20882C35.1516 9.2766 35.2251 9.31051 35.3269 9.31051C35.4287 9.31051 35.4966 9.2766 35.5306 9.20882C35.5758 9.14098 35.5984 9.05625 35.5984 8.95449C35.5984 8.71712 35.6663 8.47981 35.802 8.24245L37.0237 6.02148H40.078L37.1595 10.2938L40.3495 14.9731H37.2952L35.802 12.3283C35.6889 12.1475 35.621 11.9101 35.5984 11.6162V11.5654C35.5758 11.3619 35.4853 11.2602 35.3269 11.2602C35.2251 11.2602 35.1572 11.2941 35.1233 11.3619C35.0894 11.4185 35.0668 11.5032 35.0554 11.6162C35.0328 11.9101 34.9649 12.1475 34.8518 12.3283L33.3586 14.9731H30.3043Z" fill="#9E9DA0"/>
<path fill-rule="evenodd" clip-rule="evenodd" d="M48.3151 3.02246C49.9234 3.02246 51.0811 3.35627 51.7883 4.02388C52.5069 4.69149 52.8663 5.60239 52.8663 6.75656C52.8663 7.48077 52.7066 8.12575 52.3872 8.69149C52.0792 9.25728 51.6059 9.69857 50.9671 10.0154C50.3283 10.3323 49.5356 10.4907 48.5889 10.4907H45.6118V14.9716H43.8324V3.02246H48.3151ZM48.5718 8.99705C49.3702 8.99705 49.9862 8.79336 50.4196 8.38599C50.8645 7.96733 51.0869 7.42417 51.0869 6.75656C51.0869 6.04369 50.8701 5.49489 50.4367 5.11016C50.0147 4.71412 49.393 4.5161 48.5718 4.5161H45.6118V8.99705H48.5718Z" fill="#9E9DA0"/>
<path d="M55.9464 8.28416C55.9236 8.30679 55.8894 8.3124 55.8438 8.30111C55.7868 8.28977 55.7582 8.25585 55.7582 8.19924C55.7582 8.14269 55.7639 8.08608 55.7753 8.02953H55.7924V7.99561C55.9179 7.5769 55.9806 7.19783 55.9806 6.85841V6.28129H54.3381V14.9716H55.9806V10.8131C55.9806 10.0324 56.0776 9.41569 56.2715 8.96305C56.4768 8.51041 56.8133 8.19363 57.2809 8.01257C57.76 7.82017 58.4216 7.75228 59.2657 7.80889V6.14551C58.5471 6.14551 57.9825 6.2134 57.5718 6.34919C57.1726 6.48497 56.8646 6.69431 56.6479 6.97718C56.4312 7.24876 56.2202 7.63912 56.0148 8.14836L55.9978 8.16532C55.9863 8.21059 55.9692 8.25018 55.9464 8.28416Z" fill="#9E9DA0"/>
<path fill-rule="evenodd" clip-rule="evenodd" d="M65.8521 6.73958C65.2133 6.34353 64.4658 6.14551 63.6107 6.14551C62.7551 6.14551 62.0023 6.34353 61.3523 6.73958C60.7135 7.13561 60.2231 7.67877 59.8803 8.36901C59.5382 9.04791 59.3674 9.80043 59.3674 10.6264C59.3674 11.4524 59.5382 12.2106 59.8803 12.9008C60.2231 13.5798 60.7135 14.1173 61.3523 14.5133C62.0023 14.9093 62.7551 15.1073 63.6107 15.1073C64.4658 15.1073 65.2133 14.9093 65.8521 14.5133C66.5021 14.1173 66.9984 13.5798 67.3406 12.9008C67.6827 12.2106 67.8535 11.4524 67.8535 10.6264C67.8535 9.80043 67.6827 9.04791 67.3406 8.36901C66.9984 7.67877 66.5021 7.13561 65.8521 6.73958ZM64.9964 13.2233C64.6088 13.4836 64.1467 13.6137 63.6107 13.6137C63.0742 13.6137 62.6068 13.4836 62.2073 13.2233C61.8197 12.9517 61.5231 12.5896 61.318 12.1371C61.1124 11.6844 61.0096 11.1809 61.0096 10.6264C61.0096 10.072 61.1124 9.56844 61.318 9.1158C61.5231 8.66322 61.8197 8.30679 62.2073 8.04649C62.6068 7.77491 63.0742 7.63918 63.6107 7.63918C64.1467 7.63918 64.6088 7.77491 64.9964 8.04649C65.3953 8.30679 65.6978 8.66322 65.9029 9.1158C66.1085 9.56844 66.2113 10.072 66.2113 10.6264C66.2113 11.1809 66.1085 11.6844 65.9029 12.1371C65.6978 12.5896 65.3953 12.9517 64.9964 13.2233Z" fill="#9E9DA0"/>
<path d="M67.9449 6.28105V7.70677H69.5877V12.4254C69.5877 13.0477 69.6846 13.5455 69.8784 13.919C70.0722 14.2924 70.3629 14.564 70.7512 14.7337C71.1388 14.8921 71.6405 14.9713 72.2568 14.9713H73.6939V13.5455H72.3933C72.0742 13.5455 71.829 13.506 71.6576 13.4268C71.4981 13.3475 71.384 13.2174 71.3155 13.0364C71.2588 12.8553 71.2298 12.5951 71.2298 12.2556V7.70677H73.6939V6.28105H71.2298V3.83691H69.5877V6.28105H67.9449Z" fill="#9E9DA0"/>
<path fill-rule="evenodd" clip-rule="evenodd" d="M80.8316 6.73958C80.1928 6.34353 79.4453 6.14551 78.5902 6.14551C77.7346 6.14551 76.9818 6.34353 76.3318 6.73958C75.693 7.13561 75.2026 7.67877 74.8598 8.36901C74.5177 9.04791 74.3469 9.80043 74.3469 10.6264C74.3469 11.4524 74.5177 12.2106 74.8598 12.9008C75.2026 13.5798 75.693 14.1173 76.3318 14.5133C76.9818 14.9093 77.7346 15.1073 78.5902 15.1073C79.4453 15.1073 80.1928 14.9093 80.8316 14.5133C81.4816 14.1173 81.9779 13.5798 82.3201 12.9008C82.6622 12.2106 82.833 11.4524 82.833 10.6264C82.833 9.80043 82.6622 9.04791 82.3201 8.36901C81.9779 7.67877 81.4816 7.13561 80.8316 6.73958ZM79.9759 13.2233C79.5883 13.4836 79.1262 13.6137 78.5902 13.6137C78.0537 13.6137 77.5863 13.4836 77.1868 13.2233C76.7992 12.9517 76.5026 12.5896 76.2975 12.1371C76.0919 11.6844 75.9891 11.1809 75.9891 10.6264C75.9891 10.072 76.0919 9.56844 76.2975 9.1158C76.5026 8.66322 76.7992 8.30679 77.1868 8.04649C77.5863 7.77491 78.0537 7.63918 78.5902 7.63918C79.1262 7.63918 79.5883 7.77491 79.9759 8.04649C80.3754 8.30679 80.6773 8.66322 80.8824 9.1158C81.088 9.56844 81.1908 10.072 81.1908 10.6264C81.1908 11.1809 81.088 11.6844 80.8824 12.1371C80.6773 12.5896 80.3754 12.9517 79.9759 13.2233Z" fill="#9E9DA0"/>
<path d="M84.263 8.36901C83.9209 9.04791 83.7495 9.80043 83.7495 10.6264C83.7495 11.4524 83.9209 12.2106 84.263 12.9008C84.6164 13.5798 85.1186 14.1173 85.7686 14.5133C86.4186 14.9093 87.1774 15.1073 88.0442 15.1073C88.8201 15.1073 89.4931 14.9546 90.0634 14.6491C90.6336 14.3322 91.0786 13.9192 91.3976 13.4101C91.7173 12.8895 91.9052 12.3237 91.9626 11.7127H90.3541C90.2743 12.2445 90.0344 12.6972 89.6356 13.0706C89.2361 13.4327 88.7114 13.6137 88.0614 13.6137C87.5254 13.6137 87.0521 13.478 86.6414 13.2064C86.242 12.9348 85.9341 12.5727 85.7172 12.12C85.5004 11.6675 85.3922 11.1696 85.3922 10.6264C85.3922 10.0833 85.5004 9.5854 85.7172 9.13276C85.9341 8.68018 86.242 8.31807 86.6414 8.04649C87.0521 7.77491 87.5254 7.63918 88.0614 7.63918C88.7114 7.63918 89.2361 7.82585 89.6356 8.19924C90.0344 8.56135 90.2743 9.00831 90.3541 9.54013H91.9626C91.9052 8.92913 91.7173 8.36901 91.3976 7.85982C91.0786 7.33929 90.6277 6.92625 90.0462 6.62076C89.476 6.30392 88.8083 6.14551 88.0442 6.14551C87.1543 6.14551 86.3844 6.34353 85.7344 6.73958C85.0956 7.13561 84.6051 7.67877 84.263 8.36901Z" fill="#9E9DA0"/>
<path fill-rule="evenodd" clip-rule="evenodd" d="M99.3695 6.73958C98.7308 6.34353 97.9839 6.14551 97.1282 6.14551C96.2732 6.14551 95.5204 6.34353 94.8698 6.73958C94.231 7.13561 93.7405 7.67877 93.3984 8.36901C93.0563 9.04791 92.8855 9.80043 92.8855 10.6264C92.8855 11.4524 93.0563 12.2106 93.3984 12.9008C93.7405 13.5798 94.231 14.1173 94.8698 14.5133C95.5204 14.9093 96.2732 15.1073 97.1282 15.1073C97.9839 15.1073 98.7308 14.9093 99.3695 14.5133C100.02 14.1173 100.516 13.5798 100.858 12.9008C101.201 12.2106 101.372 11.4524 101.372 10.6264C101.372 9.80043 101.201 9.04791 100.858 8.36901C100.516 7.67877 100.02 7.13561 99.3695 6.73958ZM98.5145 13.2233C98.1263 13.4836 97.6648 13.6137 97.1282 13.6137C96.5923 13.6137 96.1249 13.4836 95.7254 13.2233C95.3378 12.9517 95.0411 12.5896 94.8355 12.1371C94.6305 11.6844 94.5276 11.1809 94.5276 10.6264C94.5276 10.072 94.6305 9.56844 94.8355 9.1158C95.0411 8.66322 95.3378 8.30679 95.7254 8.04649C96.1249 7.77491 96.5923 7.63918 97.1282 7.63918C97.6648 7.63918 98.1263 7.77491 98.5145 8.04649C98.9134 8.30679 99.2159 8.66322 99.421 9.1158C99.6266 9.56844 99.7288 10.072 99.7288 10.6264C99.7288 11.1809 99.6266 11.6844 99.421 12.1371C99.2159 12.5896 98.9134 12.9517 98.5145 13.2233Z" fill="#9E9DA0"/>
</g>
<defs>
<clipPath id="clip0_2744_86393">
<rect width="104" height="16.5455" fill="white" transform="translate(0.210815 0.798828)"/>
</clipPath>
</defs>
</svg>
