<svg width="13" height="13" viewBox="0 0 13 13" fill="none" xmlns="http://www.w3.org/2000/svg">
<path fill-rule="evenodd" clip-rule="evenodd" d="M0.722222 2.16667H5.14657C5.46727 0.920669 6.59834 0 7.94444 0C9.29055 0 10.4216 0.920669 10.7423 2.16667H12.2778C12.6766 2.16667 13 2.49002 13 2.88889C13 3.28776 12.6766 3.61111 12.2778 3.61111H10.7423C10.4216 4.85711 9.29055 5.77778 7.94444 5.77778C6.59834 5.77778 5.46727 4.85711 5.14657 3.61111H0.722222C0.32335 3.61111 0 3.28776 0 2.88889C0 2.49002 0.32335 2.16667 0.722222 2.16667ZM7.94444 1.44444C7.1467 1.44444 6.5 2.09114 6.5 2.88889C6.5 3.68663 7.1467 4.33333 7.94444 4.33333C8.74219 4.33333 9.38889 3.68663 9.38889 2.88889C9.38889 2.09114 8.74219 1.44444 7.94444 1.44444Z" fill="#8780BF"/>
<path fill-rule="evenodd" clip-rule="evenodd" d="M2.25768 9.38889H0.722222C0.32335 9.38889 0 9.71224 0 10.1111C0 10.51 0.32335 10.8333 0.722222 10.8333H2.25768C2.57838 12.0793 3.70945 13 5.05556 13C6.40166 13 7.53273 12.0793 7.85343 10.8333H12.2778C12.6766 10.8333 13 10.51 13 10.1111C13 9.71224 12.6766 9.38889 12.2778 9.38889H7.85343C7.53273 8.14289 6.40166 7.22222 5.05556 7.22222C3.70945 7.22222 2.57838 8.14289 2.25768 9.38889ZM6.5 10.1111C6.5 9.31337 5.8533 8.66667 5.05556 8.66667C4.25781 8.66667 3.61111 9.31337 3.61111 10.1111C3.61111 10.9089 4.25781 11.5556 5.05556 11.5556C5.8533 11.5556 6.5 10.9089 6.5 10.1111Z" fill="#8780BF"/>
</svg>
