<svg xmlns="http://www.w3.org/2000/svg" width="257" height="264" viewBox="0 0 257 264" fill="none">
<path d="M128.726 264L125.546 262.497C121.325 260.502 117.191 258.623 113.173 256.773C40.6391 223.296 0.686401 204.852 0.686401 28.7937V22.4915L128.726 0L256.765 22.4915V28.7937C256.765 204.852 216.813 223.296 144.279 256.773C140.261 258.623 136.156 260.531 131.906 262.497L128.726 264ZM15.6903 35.0959C16.4998 195.629 49.1095 210.691 119.446 243.156C122.481 244.544 125.546 245.989 128.697 247.435C131.848 245.961 134.941 244.544 137.948 243.156C208.284 210.691 240.894 195.629 241.703 35.0959L128.668 15.2352L15.6325 35.0959H15.6903Z" fill="#F0F0F0"/>
<mask id="mask0_7251_5532" style="mask-type:luminance" maskUnits="userSpaceOnUse" x="8" y="7" width="242" height="249">
<path d="M128.726 7.60083L8.20291 28.7914C8.20291 209.619 48.7049 218.205 128.726 255.701C208.747 218.205 249.249 209.619 249.249 28.7914L128.726 7.60083Z" fill="white"/>
</mask>
<g mask="url(#mask0_7251_5532)">
<path fill-rule="evenodd" clip-rule="evenodd" d="M258.386 45.2392H-0.930847V7.59924H258.386V45.2392Z" fill="#F0F0F0"/>
<path fill-rule="evenodd" clip-rule="evenodd" d="M258.386 87.1627H-0.930847V57.0392H258.386V87.1627Z" fill="#F0F0F0"/>
<path fill-rule="evenodd" clip-rule="evenodd" d="M258.386 125.868H-0.930847V100.572H258.386V125.868Z" fill="#F0F0F0"/>
<path fill-rule="evenodd" clip-rule="evenodd" d="M258.386 165.906H-0.930847V146.219H258.386V165.906Z" fill="#F0F0F0"/>
<path fill-rule="evenodd" clip-rule="evenodd" d="M258.386 208.311H-0.930847V193.25H258.386V208.311Z" fill="#F0F0F0"/>
</g>
</svg>