<svg xmlns="http://www.w3.org/2000/svg" width="115" height="64" fill="none"><path fill="#122404" d="M99.49 17.19c-2.043-7.322-3.065-10.983-5.534-13.422a13.062 13.062 0 0 0-2.694-2.045C88.249 0 84.448 0 76.846 0h-30.65c-.448 0-.672 0-.861.01a6.53 6.53 0 0 0-6.14 6.141c-.012.19-.012.414-.012.862l.001.382a16.329 16.329 0 0 0 .86 5.046L62.04 80h43.629a8.616 8.616 0 0 0 8.299-10.932L99.49 17.19Z"/><path fill="#fff" d="M78.957 23.49c-1.305-3.077-1.958-4.616-3.147-5.62a6.53 6.53 0 0 0-1.27-.842c-1.39-.702-3.061-.702-6.404-.702H30.204l-6.53 9.796L46.53 80h52.245v-3.82c0-2.646 0-3.969-.21-5.265-.07-.431-.157-.86-.26-1.284-.314-1.275-.83-2.493-1.864-4.928L78.957 23.49Z"/><path fill="#6EB436" d="M70.204 16.326h-45.75a6.494 6.494 0 0 0-6.495 6.495c0 2.178.439 4.335 1.29 6.34L40.816 80h52.245v-3.82c0-2.646 0-3.969-.21-5.265-.07-.431-.157-.86-.261-1.284-.313-1.275-.83-2.493-1.863-4.928L70.204 16.325Z"/><path fill="#fff" d="M61.334 38.624c-1.46-2.582-2.19-3.873-3.318-4.703a6.525 6.525 0 0 0-1.19-.694c-1.277-.574-2.76-.574-5.726-.574H25.306v9.796l21.224 37.55h32.653v-2.064c0-3.415 0-5.122-.344-6.772a16.326 16.326 0 0 0-.427-1.624c-.513-1.606-1.353-3.093-3.033-6.065l-14.045-24.85Z"/><path fill="#C7F79E" d="M52.245 32.653H5.91A5.91 5.91 0 0 0 0 38.563c0 2.547.659 5.051 1.912 7.27l5.813 10.283c5.838 10.328 8.756 15.492 13.27 18.81a26.12 26.12 0 0 0 4.759 2.776C30.864 80 36.795 80 48.659 80h24.81v-2.066c0-3.414 0-5.121-.344-6.771a16.325 16.325 0 0 0-.428-1.624c-.512-1.606-1.352-3.093-3.032-6.065l-17.42-30.821Z"/></svg>