<svg xmlns="http://www.w3.org/2000/svg" width="56" height="57" fill="none"><path fill="#060D00" fill-rule="evenodd" d="M41.871.14c7.316.648 12.492 2.618 13.552 5.156 1.287 3.083-3.787 5.9-12.502 6.942-2.493.299-8.388.281-11.435-.033-4.076-.421-7.326-1.293-9.7-2.604-2.39-1.32-3.26-2.806-2.599-4.443.484-1.2 2.608-2.596 5.25-3.453 2.155-.698 5.605-1.347 8.387-1.578C34.58-.018 40.18-.01 41.87.14Zm-2.047 5.622 1.32 1.324-1.416.081c-.778.045-1.823.082-2.321.082l-.906.001-1.376-1.329c-.756-.73-1.375-1.379-1.375-1.44 0-.063 1.038-.097 2.377-.078l2.377.034 1.32 1.325Zm15.801 8.198c0 2.498-.085 2.748-1.326 3.909-.852.797-2.794 1.849-4.38 2.372-6.493 2.14-16.503 2.352-23.544.496-3.056-.805-5.638-2.092-6.68-3.33-.619-.736-.695-1.108-.695-3.402v-2.128l.833.57c3.739 2.56 9.843 3.846 17.98 3.79 7.649-.053 13.888-1.467 17.033-3.86.363-.276.686-.502.719-.502.033 0 .06.938.06 2.085Zm-.023 11.009c-.046 4.323-.023 4.234-1.378 5.465-1.836 1.669-5.741 2.975-10.86 3.632-1.808.232-7.686.386-9.64.252l-1.339-.091-.34-.582c-1.38-2.352-5.508-4.242-11.108-5.082a71.657 71.657 0 0 1-1.656-.262L19 28.245V24.74c0-2.77.033-3.485.156-3.412.086.052.438.305.782.562 1.785 1.337 5.438 2.6 9.5 3.285 4.808.812 10.439.858 15 .124 4.762-.767 8.37-1.996 10.408-3.548.363-.275.69-.501.727-.501.038 0 .05 1.673.03 3.719Zm-37.414 5.734c3.78.388 6.853 1.289 8.741 2.562 1.44.971 1.888 1.999 1.34 3.074-.827 1.62-4.738 3.181-9.331 3.724-2.157.255-6.508.251-8.5-.008-3.977-.516-7.002-1.536-8.535-2.878-1.029-.9-1.258-1.591-.829-2.497.697-1.468 3.95-2.977 7.937-3.683 1.31-.232 2.107-.28 5.114-.31 1.96-.02 3.788-.012 4.063.016Zm37.416 5.453c-.047 2.594-.109 2.813-1.047 3.738-1.935 1.907-6.404 3.383-12.307 4.064-2.09.241-7.11.314-8.656.125l-.844-.103V38.187l4.281-.008c3.685-.008 4.565-.048 6.317-.285 5.212-.707 8.97-1.87 11.426-3.536.392-.266.748-.483.792-.483.043 0 .06 1.026.038 2.281Zm-38.419-.918 1.373 1.387-2.123-.006-2.122-.007-1.308-1.238c-.719-.681-1.27-1.276-1.223-1.323.046-.046.972-.11 2.057-.142l1.973-.058 1.373 1.387Zm11.19 7.239v2.629l-.49.418c-1.413 1.21-4.767 2.31-8.76 2.871-1.812.255-7.42.215-9.25-.067-4.07-.625-7.08-1.655-8.416-2.879L1 45.03v-2.577c0-2.031.034-2.577.163-2.577.089 0 .216.051.28.114.066.063.656.342 1.31.62 1.322.561 3.452 1.116 5.588 1.456l1.404.223.034 2.262.034 2.263 1.374.162c1.421.169 6.778.121 7.938-.07l.563-.093.034-2.255.034-2.255 1.09-.164c2.242-.337 4.878-1.131 7.373-2.221.122-.054.156.504.156 2.56Zm27.25 3.035c0 2.31-.063 2.53-.987 3.456-2.94 2.944-11.225 4.622-20.438 4.14-1.094-.058-2.009-.125-2.033-.15-.025-.024.096-.364.269-.755.288-.65.314-.86.314-2.504v-1.794l2.969.064c5.834.125 11.464-.633 15.281-2.057 1.505-.562 2.45-1.036 3.596-1.803.5-.335.936-.609.969-.609.033 0 .06.906.06 2.012ZM28.25 50.17c0 .99.036 1.979.08 2.197.07.356.016.458-.536.99-.338.325-.866.732-1.173.904-1.674.935-4.434 1.72-7.489 2.128-2.585.346-7.32.287-9.757-.121-3.668-.614-6.294-1.562-7.656-2.765l-.594-.523v-2.316c0-1.805.034-2.3.156-2.247l1.157.507c1.672.733 4.03 1.316 6.653 1.643l.653.082.034 2.207.034 2.208.813.114c.994.14 7.572.13 8.438-.014l.625-.103.034-2.198.034-2.198 1.09-.155c2.45-.349 5.567-1.202 6.93-1.898l.474-.241v1.8Z" clip-rule="evenodd"/></svg>