<svg xmlns="http://www.w3.org/2000/svg" width="22" height="22" fill="none">
  <g clip-path="url(#a)">
    <path fill="url(#b)" d="m4.636 2.438 16.429 11.286-4.094 5.995L.543 8.433l4.093-5.995Z" />
    <path fill="url(#c)"
      d="M21.068 13.72c-1.405 2.058-6.222 1.2-10.759-1.917-4.536-3.116-7.075-7.311-5.67-9.37C6.046.375 10.863 1.233 15.4 4.35c4.536 3.117 7.074 7.312 5.669 9.37Z" />
    <path fill="url(#d)"
      d="M16.975 19.714c-1.406 2.058-6.223 1.2-10.76-1.916C1.68 14.68-.858 10.486.547 8.428c1.406-2.058 6.223-1.2 10.76 1.916 4.536 3.117 7.074 7.312 5.669 9.37Z" />
    <path fill="#fff" fill-rule="evenodd"
      d="M20.436 13.36c-1.203 1.762-5.588.847-9.795-2.043S4 4.656 5.201 2.895c1.203-1.762 5.588-.847 9.795 2.044 4.207 2.89 6.643 6.66 5.44 8.422Zm-3.838-2.643c-.594.87-2.762.417-4.843-1.012-2.08-1.429-3.285-3.293-2.69-4.163.594-.87 2.762-.418 4.842 1.012 2.08 1.429 3.285 3.293 2.691 4.163Z"
      clip-rule="evenodd" />
    <path fill="#fff"
      d="M4.257 4.548a.17.17 0 1 0-.329.084c.051.2.11.4.18.602a.17.17 0 1 0 .32-.11 7.907 7.907 0 0 1-.171-.576Zm.662 1.303a.17.17 0 1 0-.31.138c.988 2.238 2.976 4.571 5.674 6.425a.17.17 0 0 0 .236-.044.17.17 0 0 0-.044-.237c-2.657-1.825-4.598-4.112-5.556-6.282Zm10.509 8.785a.17.17 0 0 0-.092.327c.309.087.614.162.915.226a.17.17 0 0 0 .07-.333 13.71 13.71 0 0 1-.893-.22Zm1.585.346a.17.17 0 0 0-.051.336c.746.114 1.464.153 2.137.113a.17.17 0 0 0-.02-.34 9.913 9.913 0 0 1-2.066-.109Z" />
  </g>
  <defs>
    <linearGradient id="b" x1="5.935" x2="9.208" y1="1.416" y2="12.655" gradientUnits="userSpaceOnUse">
      <stop stop-color="#03B8FF" />
      <stop offset="1" stop-color="#FA52A0" />
    </linearGradient>
    <linearGradient id="c" x1="5.935" x2="9.208" y1="1.416" y2="12.655" gradientUnits="userSpaceOnUse">
      <stop stop-color="#03B8FF" />
      <stop offset="1" stop-color="#FA52A0" />
    </linearGradient>
    <linearGradient id="d" x1="5.935" x2="9.208" y1="1.416" y2="12.655" gradientUnits="userSpaceOnUse">
      <stop stop-color="#03B8FF" />
      <stop offset="1" stop-color="#FA52A0" />
    </linearGradient>
    <clipPath id="a">
      <path fill="#fff" d="M.157.426h21.296v21.296H.157z" />
    </clipPath>
  </defs>
</svg>