<svg width="76" height="76" fill="none" xmlns="http://www.w3.org/2000/svg"><g filter="url(#a)"><rect x=".213" y=".213" width="75.575" height="75.575" rx="37.787" fill="#000" fill-opacity=".32"/><rect x=".24" y=".24" width="75.519" height="75.519" rx="37.76" stroke="#fff" stroke-opacity=".24" stroke-width=".055"/><path fill-rule="evenodd" clip-rule="evenodd" d="M7.77 48.513V38.002c0-16.696 13.535-30.23 30.23-30.23 8.235 0 15.701 3.293 21.153 8.634l-6.426 4.015A22.84 22.84 0 0 0 38 15.07c-12.666 0-22.933 10.267-22.933 22.933h7.296L7.771 48.513Zm15.394 6.976c3.999 3.397 9.179 5.446 14.837 5.446 12.665 0 22.933-10.268 22.933-22.933h-7.297L68.23 27.317v10.685c0 16.695-13.534 30.23-30.23 30.23-8.285 0-15.793-3.334-21.253-8.733l6.417-4.01Zm26.433-7.454h-8.339l-3.257-4.4-3.257 4.4h-8.34l7.555-9.86-7.555-10.206h7.818L38 32.9l3.779-4.932h7.818l-7.556 10.206 7.555 9.86Z" fill="#fff"/></g><defs><filter id="a" x="-10.796" y="-10.796" width="97.593" height="97.593" filterUnits="userSpaceOnUse" color-interpolation-filters="sRGB"><feFlood flood-opacity="0" result="BackgroundImageFix"/><feGaussianBlur in="BackgroundImageFix" stdDeviation="5.505"/><feComposite in2="SourceAlpha" operator="in" result="effect1_backgroundBlur_2820_17746"/><feBlend in="SourceGraphic" in2="effect1_backgroundBlur_2820_17746" result="shape"/></filter></defs></svg>