<svg width="80" height="80" viewBox="0 0 80 80" fill="none" xmlns="http://www.w3.org/2000/svg">
  <rect width="80" height="80" rx="40" fill="white"/>
  <path fill-rule="evenodd" clip-rule="evenodd" d="M8 51.1267V40C8 22.3269 22.3269 8 40 8C48.7171 8 56.6202 11.4856 62.3915 17.1392L55.5887 21.39C51.3714 17.8536 45.9344 15.7241 40 15.7241C26.5928 15.7241 15.7241 26.5928 15.7241 40H23.4482L8 51.1267ZM24.2942 58.511C28.5278 62.1067 34.0107 64.2759 40.0004 64.2759C53.4075 64.2759 64.2762 53.4072 64.2762 40H56.5521L71.9997 28.6898L72.0003 40C72.0003 57.6731 57.6735 72 40.0004 72C31.2291 72 23.2821 68.471 17.5017 62.7554L24.2942 58.511ZM52.2759 50.6207H43.4483L40.0004 45.963L36.5524 50.6207H27.7249L35.7221 40.1836L27.7242 29.3794H36L40.0004 34.6002L44.0007 29.3794H52.2766L44.2786 40.1836L52.2759 50.6207Z" fill="black"/>
</svg>
