<svg xmlns="http://www.w3.org/2000/svg" width="88" height="88" fill="none">
  <rect width="88" height="88" rx="44" fill="url(#a)"/>
  <rect x=".126" y=".126" width="87.748" height="87.748" rx="43.874" stroke="#fff" stroke-opacity=".16" stroke-width=".252"/>
  <g filter="url(#b)">
    <rect x="9.362" y="9.362" width="69.277" height="69.277" rx="34.638" fill="#000" fill-opacity=".32"/>
    <rect x="9.387" y="9.387" width="69.226" height="69.226" rx="34.613" stroke="#fff" stroke-opacity=".24" stroke-width=".05"/>
    <path fill-rule="evenodd" clip-rule="evenodd" d="M16.29 53.637v-9.635c0-15.304 12.406-27.71 27.71-27.71a27.62 27.62 0 0 1 19.39 7.913l-5.89 3.681A20.937 20.937 0 0 0 44 22.98c-11.61 0-21.021 9.412-21.021 21.022h6.688L16.29 53.637Zm14.11 6.395A20.938 20.938 0 0 0 44 65.023c11.61 0 21.023-9.412 21.023-21.022h-6.689l13.377-9.794v9.794c0 15.304-12.406 27.71-27.71 27.71a27.622 27.622 0 0 1-19.483-8.005l5.882-3.675Zm24.23-6.833h-7.643L44 49.166l-2.986 4.033h-7.644l6.925-9.038-6.926-9.356h7.167L44 39.325l3.464-4.52h7.167l-6.926 9.356 6.925 9.038Z" fill="#fff"/>
  </g>
  <defs>
    <linearGradient id="a" x1="44" y1="0" x2="44" y2="88" gradientUnits="userSpaceOnUse">
      <stop/>
      <stop offset="1" stop-opacity="0"/>
    </linearGradient>
    <filter id="b" x="-.73" y="-.73" width="89.46" height="89.46" filterUnits="userSpaceOnUse" color-interpolation-filters="sRGB">
      <feFlood flood-opacity="0" result="BackgroundImageFix"/>
      <feGaussianBlur in="BackgroundImageFix" stdDeviation="5.046"/>
      <feComposite in2="SourceAlpha" operator="in" result="effect1_backgroundBlur_2820_17745"/>
      <feBlend in="SourceGraphic" in2="effect1_backgroundBlur_2820_17745" result="shape"/>
    </filter>
  </defs>
</svg>