<svg xmlns="http://www.w3.org/2000/svg" width="18" height="17" fill="none">
  <path fill="#F1ECE2"
    d="m15.822 13.322-.031.024-.032.022-.062.041-.008.005-.053.032a4.02 4.02 0 0 1-.646.3c-.183.067-.37.126-.557.178-.27.076-.543.138-.817.192-.267.054-.534.1-.804.139a19.406 19.406 0 0 1-1.076.126c-.178.016-.356.03-.534.042l-.268.017c-.2.011-.399.02-.598.027l-.11.003-.1.003c.082-.1.164-.201.239-.308l.032-.04c.168-.227.33-.459.485-.695.016 0 .03-.002.047-.003a15.818 15.818 0 0 0 .518-.034 20.113 20.113 0 0 0 2.002-.256 11.082 11.082 0 0 0 1.256-.305l.111-.036c.056.01.107.033.16.053l.138.052c.13.052.258.11.382.174a2.16 2.16 0 0 1 .326.207c.017.013.022.018.015.026a.087.087 0 0 1-.016.014Z" />
  <path fill="#5E93FF"
    d="M11.003 15.716a.037.037 0 0 1-.033.003l.008-.004c.004-.002.008-.002.013-.002.004 0 .008 0 .012.003ZM10.959 15.718a.057.057 0 0 1-.042.002c.014-.008.028-.007.042-.002ZM10.906 15.72a.06.06 0 0 1-.04.003c.013-.008.027-.007.04-.003ZM10.854 15.723a.051.051 0 0 1-.04.002h.002a.048.048 0 0 1 .04-.002h-.002ZM10.774 15.722a.056.056 0 0 1 .028.003.053.053 0 0 1-.042.002.039.039 0 0 1 .013-.005h.001ZM10.728 15.724c.007 0 .014 0 .02.003a.055.055 0 0 1-.04.002.04.04 0 0 1 .02-.005ZM10.687 15.726l.01.003a.05.05 0 0 1-.041.002.04.04 0 0 1 .029-.005h.002ZM10.643 15.731a.073.073 0 0 1-.049.002.067.067 0 0 1 .05-.002ZM10.583 15.733a.054.054 0 0 1-.04.002.044.044 0 0 1 .04-.002ZM14.06 12.572l.022.002c.009 0 .018.003.024.011a.141.141 0 0 1-.052-.014h.007v.001Z" />
  <path fill="#3180F4" d="m6.511 16.94.004.009h-.277l.005-.009h.268Z" />
  <path fill="#FDBF41"
    d="M14.816 12.796a6.746 6.746 0 0 1-.334.103c-.34.096-.686.174-1.033.239a19.957 19.957 0 0 1-2.225.271c-.098.006-.196.013-.295.018-.016 0-.031.002-.047.003a15.546 15.546 0 0 0 .725-1.23c.25.02.5.046.751.077.02.002.037.006.056.009.112.008.223.025.333.041a16.573 16.573 0 0 1 1 .177l.307.068a9.791 9.791 0 0 1 .704.2c.02.007.043.009.058.026v-.002Z" />
  <path fill="#F1ECE2" d="m7.528 14.41.266.019-.266-.02Z" />
  <path fill="#404A5A"
    d="M4.698 16.384a.02.02 0 0 1-.017-.008h.01s.002 0 .003.002l.003.004.001.002ZM4.681 16.376c-.006 0-.013-.001-.017-.008h.005s.009.003.012.008ZM4.664 16.367h-.001ZM4.664 16.368c-.008 0-.015 0-.018-.009.007 0 .013.001.017.008Z" />
  <path fill="#404A5A" d="M4.647 16.36h-.001v-.002.001Z" />
  <path fill="#404A5A" d="m4.647 16.36-.001-.002v.001Z" />
  <path fill="#404A5A"
    d="M4.647 16.358c-.008 0-.015.002-.017-.008.007-.002.014 0 .018.008h-.001ZM4.578 16.314a.25.25 0 0 0 .016.009l.012.006a.05.05 0 0 1 .018.014l.005.007a.106.106 0 0 1-.061-.026l.01-.01Z" />
  <path fill="#F1ECE2"
    d="m6.167 15.568-.057.009c-.074.01-.149.016-.223.018H5.81l-.075-.002c-.011 0-.022-.002-.032-.003l-.032-.004a.057.057 0 0 1-.035-.016c-.029-.027-.058-.055-.085-.083.205.03.41.057.615.081Z" />
  <path fill="#F1ECE2"
    d="M9.397 12.105c-.148 0-.296.002-.443.005a11.557 11.557 0 0 1-.986 1.316c-.16.18-.324.355-.498.521a6.661 6.661 0 0 1-.871.707 3.92 3.92 0 0 1-.803.417 2.526 2.526 0 0 1-.445.122.178.178 0 0 0-.024.007l.001.008.002.004.033.05.07.094c.038.046.077.09.118.134.205.03.41.056.616.08.054-.008.109-.018.163-.031a2.853 2.853 0 0 0 .544-.19c.058-.026.116-.055.172-.084l.074-.04c.17-.094.334-.198.49-.311a5.98 5.98 0 0 0 .454-.363c.02-.02.042-.037.062-.056l.046-.042c.095-.086.186-.174.275-.265l.104-.106a9.925 9.925 0 0 0 .517-.586 10.07 10.07 0 0 0 .148-.186 11.815 11.815 0 0 0 .812-1.194 28.32 28.32 0 0 0-.632-.008v-.003Z" />
  <path fill="#C18B00" d="M3.774 15.971c-.007.001-.013 0-.015-.007.007-.002.013 0 .015.007Z" />
  <path fill="#FDBF41"
    d="M8.145 12.136c-.105.004-.21.01-.316.017a11.23 11.23 0 0 1-.74.934 7.083 7.083 0 0 1-1.113 1.037 4.61 4.61 0 0 1-.574.367 3.83 3.83 0 0 1-.343.163c0 .006 0 .012.002.017a3.185 3.185 0 0 0 .112.263c.041.085.088.168.14.25.003.006.009.01.014.014l.024-.007c.153-.026.3-.069.444-.122.286-.104.551-.25.804-.417.137-.09.27-.188.397-.29.164-.131.321-.27.474-.416a8.406 8.406 0 0 0 .684-.74c.289-.348.554-.716.8-1.098-.27.005-.54.014-.809.027Z" />
  <path fill="#E7AA24"
    d="M13.447 8.08c.008 0 .018 0 .012-.013l.012.002c-.002 0-.004 0-.005.002-.004.003-.004.009-.003.014H13.437l-.02-.003a.384.384 0 0 1-.045-.008c.026-.002.05.008.075.008v-.001Z" />
  <path fill="#F1ECE2"
    d="m5.756 13.187.032.006a6.62 6.62 0 0 1-.655.558c-.085.062-.17.125-.26.178-.017-.074-.025-.148-.033-.221a6.014 6.014 0 0 1-.04-.713l.172.04a13.125 13.125 0 0 0 .784.153Z" />
  <path fill="#F10"
    d="m6.702 12.25-.073.008c-.244.31-.505.605-.786.883l-.055.052.024.005c-.008 0-.017-.003-.025-.004-.207.2-.424.387-.655.558-.085.063-.169.125-.26.178 0 .01 0 .02.002.03v.009l.007.034.005.027.013.069c.026.13.057.26.097.386.018.058.032.116.06.169.117-.049.232-.103.343-.163.154-.083.302-.175.445-.275a6.816 6.816 0 0 0 1.015-.882 9.614 9.614 0 0 0 .606-.7c.125-.157.245-.318.36-.482a22.51 22.51 0 0 0-1.125.096l.002.002Z" />
  <path fill="#F1ECE2" d="M5.812 13.197c-.008 0-.017-.003-.025-.004l.024.004h.001Z" />
  <path fill="#F10" d="m5.788 13.192-.032-.005.032.005ZM5.481 13.14Z" />
  <path fill="#FDBF41"
    d="M6.468 12.28c.054-.01.107-.016.16-.022a9.425 9.425 0 0 1-.84.935l-.032-.005a14.634 14.634 0 0 1-.784-.153l-.173-.04a8.671 8.671 0 0 1 .01-.43 16.279 16.279 0 0 1 1.61-.283l.017-.002.019-.002c.003 0 .007 0 .011.002h.002Z" />
  <path fill="#007FFF"
    d="m12.498 7.95.592.073-.005.005c-.122-.015-.246-.029-.368-.045-.036-.005-.072-.007-.107-.011-.036-.004-.072-.008-.107-.015l-.006-.007Z" />
  <path fill="#F1ECE2"
    d="m11.53 8.563.022-.084-.021.084ZM17.201 12.526v-.814a.682.682 0 0 0-.082-.216 1.076 1.076 0 0 0-.25-.28 2.619 2.619 0 0 0-.33-.224 6.459 6.459 0 0 0-.494-.241c-.03-.013-.06-.02-.09-.032a8.915 8.915 0 0 0-1.16-.354 14.952 14.952 0 0 0-.761-.162c-.287-.053-.574-.1-.862-.14a25.424 25.424 0 0 0-.597-.074c-.089-.009-.177-.02-.267-.028a28.995 28.995 0 0 0-2.173-.132l-.043-.001a34.902 34.902 0 0 0-.942-.007h-.015c-.323.003-.646.01-.97.024l-.057.002c-.382.016-.763.04-1.144.073-.56.047-1.117.11-1.672.198l-.04.007c-.022.075-.04.152-.068.225l-.056.226c-.051.2-.097.4-.138.602l.085-.014.111-.019c.055-.01.11-.018.165-.026a21.045 21.045 0 0 1 1.198-.152 27.148 27.148 0 0 1 1.582-.11l.147-.006.22-.008c.046 0 .093-.003.14-.004l.517-.008.194-.001h.332c.04 0 .08 0 .12.002a21.785 21.785 0 0 1 .834.023l.06.002c.125.006.25.011.377.02a31.346 31.346 0 0 1 1.14.087l.287.028c.153.015.306.034.46.053.152.02.304.043.457.065l.19.03a16.666 16.666 0 0 1 1.23.246c.168.042.334.085.498.134.22.065.436.136.649.221.053.02.106.043.159.066.08.035.16.072.237.11l.058.03.045.023a.89.89 0 0 1 .132.074c.088.061.179.119.26.188.02.016.038.033.056.05a.884.884 0 0 1 .213.266.84.84 0 0 1 .043.107l.013.04v.001-.002c.01-.054.003-.11.004-.165l-.002-.003Z" />
  <path fill="#FDBF41"
    d="M17.204 11.604v-.617c0-.095 0-.19-.002-.284-.016-.053-.027-.108-.052-.16a.999.999 0 0 0-.262-.323 2.204 2.204 0 0 0-.383-.259 4.58 4.58 0 0 0-.61-.278 8.623 8.623 0 0 0-.743-.238 13.389 13.389 0 0 0-1.243-.277 19.144 19.144 0 0 0-1.026-.154c-.247-.032-.495-.06-.742-.081-.046-.004-.092-.011-.138-.014a121.2 121.2 0 0 0-.561-.042l-.08-.005a16.75 16.75 0 0 0-.863-.045h-.004c-.17-.005-.34-.012-.51-.015l-.45-.004h-.197c-.263 0-.524.003-.787.01H8.54c-.308.01-.616.023-.923.042-.237.015-.473.029-.71.048l-.286.03a23.704 23.704 0 0 0-1.006.12 13.7 13.7 0 0 0-.356 1.042l-.008.026.04-.006a23.17 23.17 0 0 1 1.672-.199c.382-.032.763-.055 1.144-.072.02 0 .039-.002.058-.003.323-.013.646-.021.969-.024h.015a31.397 31.397 0 0 1 1.581.028l.379.02a28.695 28.695 0 0 1 1.465.121 17.985 17.985 0 0 1 1.459.214c.255.047.508.1.76.161.394.096.783.207 1.16.354.03.011.06.019.091.032.167.075.333.15.494.241.116.065.224.142.33.224.1.078.182.174.25.28a.67.67 0 0 1 .083.216c.006-.036.002-.071.002-.107l.001-.002Z" />
  <path fill="#F1ECE2"
    d="M11.377 3.838c.136.214.235.444.31.686a3.967 3.967 0 0 1 .14.61l.015.112c.01.075.018.152.025.228l.008.114c.014.207.02.414.014.62a8.889 8.889 0 0 1-.128 1.293c-.021.128-.045.255-.07.382a22.566 22.566 0 0 0-.913-.055c.067-.287.123-.577.168-.869a8.95 8.95 0 0 0 .096-.974c.01-.278.01-.555-.014-.833a5.114 5.114 0 0 0-.1-.687 3.357 3.357 0 0 0-.247-.739 3.161 3.161 0 0 0-.15-.272c.044-.014.089-.015.132-.02a.879.879 0 0 1 .07-.005l.06-.003h.095c.023 0 .045.002.068.003l.052.002.008.001.015.005a.103.103 0 0 1 .033.023l.045.042a1.888 1.888 0 0 1 .269.335l-.001.001Z" />
  <path fill="#FDBF41"
    d="M10.927 4.466c.05.227.08.455.1.687.022.277.024.555.013.833a8.64 8.64 0 0 1-.096.974c-.045.293-.101.581-.168.869-.075-.004-.15-.008-.225-.01-.171-.007-.343-.011-.514-.015-.064 0-.128-.003-.191-.004a11.473 11.473 0 0 0 .306-1.614 8.666 8.666 0 0 0 .05-.791 6.301 6.301 0 0 0-.051-.909A4.466 4.466 0 0 0 10.06 4a3.156 3.156 0 0 0-.114-.38c.033-.021.071-.031.107-.045a2.766 2.766 0 0 1 .451-.122c.006 0 .01-.002.016-.003l.01.001c.052.09.105.179.15.272.112.236.191.484.247.739l-.001.004Z" />
  <path fill="#3180F4" d="m13.081 4.045-.001-.002V4.04l.002.002v.002Z" />
  <path fill="#007FFF"
    d="m17.2 13.669.002-.039v-.636l-.002-.275c0-.006.003-.011.002-.017l-.004-.01-.013-.039a.515.515 0 0 0-.02-.054c-.007-.018-.014-.036-.023-.053a.883.883 0 0 0-.063-.105.836.836 0 0 0-.15-.16.694.694 0 0 0-.055-.05c-.082-.07-.173-.127-.261-.189A.706.706 0 0 0 16.54 12l-.059-.031a9.517 9.517 0 0 1-.045-.023c-.019-.009-.039-.018-.058-.029a5.443 5.443 0 0 0-.396-.177 7.214 7.214 0 0 0-.649-.22 11.46 11.46 0 0 0-.828-.21 17.94 17.94 0 0 0-2.007-.319l-.288-.028-.014-.001a28.468 28.468 0 0 0-1.125-.087l-.378-.018c-.02 0-.038-.002-.058-.003-.118-.005-.235-.01-.352-.012a21.783 21.783 0 0 0-.482-.01c-.04 0-.08 0-.121-.002h-.526a23.37 23.37 0 0 0-1.024.027 26.46 26.46 0 0 0-2.182.178c-.2.025-.4.052-.598.083l-.165.027a4.295 4.295 0 0 0-.11.018l-.086.014c.04-.202.087-.402.138-.602l.056-.226c.028-.073.047-.15.068-.225l.008-.026a13.989 13.989 0 0 1 1.57-3.465c.259-.409.54-.801.848-1.175.007-.008.011-.016.017-.025.092-.106.184-.213.279-.317.309-.341.64-.657 1.008-.934.09-.068.185-.133.277-.199a.061.061 0 0 1 .03-.007c.004-.014.016-.02.027-.027.19-.121.387-.23.595-.316l.022-.01.008-.001h.007c.033-.021.071-.031.107-.045a2.766 2.766 0 0 1 .451-.122c.006 0 .01-.002.016-.003l.01.001c.043-.014.088-.015.131-.02a.874.874 0 0 1 .07-.005l.06-.003h.095c.023 0 .045.002.068.003l.052.003h.008a.102.102 0 0 1 .048.027 1.787 1.787 0 0 1 .13.133c.067.077.128.159.184.245.136.214.235.445.31.686a3.967 3.967 0 0 1 .14.61l.015.112c.01.076.018.152.025.228l.008.114c.014.207.02.414.014.621a8.889 8.889 0 0 1-.128 1.292c-.021.128-.045.255-.07.382l.1.008c.238.02.476.043.713.066l-.006-.007.592.073-.005.005.036.005a12.385 12.385 0 0 0 .174-1.118c.018-.166.033-.332.04-.499l.014-.24c0-.011-.005-.025.011-.03v-.449c-.01-.003-.01-.01-.01-.018-.002-.03-.006-.06-.007-.09a5.994 5.994 0 0 0-.055-.649 4.97 4.97 0 0 0-.146-.704c-.016-.057-.03-.116-.056-.17l-.005-.02-.002-.003v-.002l-.005-.021a2.974 2.974 0 0 0-.393-.776 1.976 1.976 0 0 0-.61-.563c-.093-.054-.193-.092-.288-.14-.009-.003-.02-.003-.03-.005-.008-.012-.021-.014-.032-.02l-.67-.296c-.03-.012-.055-.032-.088-.035l-.016-.006c-.038-.012-.078-.02-.114-.039-.003 0-.007-.001-.01-.003l-.005-.002s-.007 0-.01-.003a2.148 2.148 0 0 0-.375-.058l-.052-.002a2.195 2.195 0 0 0-.366.02 2.778 2.778 0 0 0-.411.09 3.705 3.705 0 0 0-.643.262 5.31 5.31 0 0 0-.385.22l-.059.038-.058.039a2.53 2.53 0 0 0-.116.08c-.019.015-.038.028-.058.042v.004c0 .001 0 .002-.002.003l-.006.002v.003l-.002.003h-.006a4.643 4.643 0 0 0-.473.378v.003l-.003.005h-.006c0 .002-.003.004-.004.006a3.007 3.007 0 0 1-.005.005.035.035 0 0 1-.01.005c0 .005-.002.007-.003.009-.003.002-.009 0-.013 0l-.04.042-.003.003v.002c0 .002 0 .003-.002.004 0 0-.003.002-.006.001l-.036.03-.003.002-.131.125-.008.008a.805.805 0 0 1-.042.039c-.035.032-.07.063-.103.097l-.054.054a9.728 9.728 0 0 0-.672.745l-.05.062a.042.042 0 0 0-.008.01l-.01.015-.013.02-.01.014-.005.004c-.005.005-.01.011-.018.016v.003l-.001.002-.002.002-.004.002c-.003.014-.014.021-.024.03l-.001.002-.008.009-.002.004-.002.006v.003c0 .003 0 .004-.003.006H6.49l-.002.001-.066.082-.004.005v.01c0 .001 0 .003-.003.005v.002l-.006.005c-.002.002-.006.002-.009.003l-.01.012-.004.003-.008.01-.169.226c0 .002-.001.004-.003.005L6.2 5.02c-.038.055-.078.108-.116.164l-.023.033c-.057.084-.11.17-.169.253l-.083.126a2.258 2.258 0 0 1-.086.125c-.048.066-.09.138-.132.208l-.054.09c-.204.339-.402.68-.57 1.037-.01.02-.02.04-.033.06-.011.02-.024.038-.033.059-.058.115-.114.231-.168.348l-.06.13-.077.173-.096.22-.04.093a15.816 15.816 0 0 0-.213.532l-.046.122c-.037.1-.071.199-.106.298a6.1 6.1 0 0 0-.026.071l-.018.056a4.14 4.14 0 0 0-.047.142l-.053.174-.04.124c-.03.093-.066.185-.077.283 0 .004-.007.01-.01.014-.015.04-.023.082-.033.124l-.017.06c-.006.02-.013.039-.018.059a12.808 12.808 0 0 0-.223.985c-.012.061-.023.122-.033.184-.01.053-.018.108-.027.161a7.79 7.79 0 0 0-.03.207 11.465 11.465 0 0 0-.075.697c-.005.048-.008.097-.01.146l-.008.147-.01.293V13.105c0 .126.005.251.009.375v.017c0 .023.002.045.004.067a5.124 5.124 0 0 0 .043.454l.004.026c.017.124.036.247.06.37a4.257 4.257 0 0 0 .192.683c.061.162.133.32.22.47a2.194 2.194 0 0 0 .627.698c.027.018.055.034.084.051l.016.009.012.005a.05.05 0 0 1 .018.015c.002.001.003.004.004.007.008-.002.015 0 .018.008.008 0 .013.001.017.008h.005s.008.003.011.008h.01l.003.001.003.004c.01.01.023.013.034.018l.743.329c.123.054.244.11.374.146.13.036.26.06.396.065h.267c.065-.002.129-.01.193-.02.26-.038.51-.115.752-.219.441-.19.84-.449 1.215-.749.082-.066.163-.134.242-.202a30.872 30.872 0 0 0 1.628-.014.044.044 0 0 1 .041-.002h.012a.068.068 0 0 1 .05-.002h.011a.041.041 0 0 1 .03-.005h.002l.009.003h.012a.04.04 0 0 1 .02-.006c.007 0 .014.001.02.004h.013a.037.037 0 0 1 .013-.005.056.056 0 0 1 .027.003h.014a.048.048 0 0 1 .04-.002h.01c.014-.008.028-.007.04-.003h.012c.013-.008.028-.007.042-.001h.011l.007-.004c.005-.002.009-.002.014-.002.004 0 .008 0 .012.003l.18-.009c.463-.027.925-.064 1.386-.115.7-.077 1.396-.182 2.082-.338.468-.107.93-.235 1.376-.414.24-.097.472-.207.686-.352.13-.088.25-.186.346-.311.06-.08.11-.166.13-.265a.045.045 0 0 0 .01-.028 1.26 1.26 0 0 0 0-.214l-.002-.001Zm-6.213-1.516c-.129-.007-.257-.015-.386-.02.129.005.257.013.386.02Zm-2.858 2.34-.062.055c-.146.128-.297.25-.454.363-.157.113-.32.218-.49.312l-.074.04a2.837 2.837 0 0 1-.35.158 2.9 2.9 0 0 1-.366.115c-.054.013-.109.024-.164.032-.018.003-.038.007-.057.008-.075.01-.149.016-.223.018h-.076c-.025 0-.05 0-.075-.002l-.032-.002-.032-.004a.057.057 0 0 1-.035-.016 1.74 1.74 0 0 1-.306-.36c0-.002 0-.003-.002-.005 0-.003 0-.006-.002-.008-.004-.004-.01-.008-.014-.014a3.126 3.126 0 0 1-.198-.38 2.549 2.549 0 0 1-.053-.133c-.002-.005-.002-.011-.002-.017-.028-.053-.043-.112-.06-.168a3.932 3.932 0 0 1-.097-.387l-.014-.069-.004-.027-.007-.034v-.008l-.003-.03c-.017-.074-.024-.148-.033-.222a6.016 6.016 0 0 1-.04-.712 8.665 8.665 0 0 1 .01-.43c.196-.047.393-.088.592-.126.338-.063.678-.115 1.019-.158l.016-.002h.018l.012.001c.053-.01.107-.017.16-.022l.074-.008a22.606 22.606 0 0 1 1.442-.113 25.704 25.704 0 0 1 1.883-.023c-.045.076-.092.151-.139.227l-.104.163a11.827 11.827 0 0 1-.717.99 9.277 9.277 0 0 1-.896.957c.03 0 .059.003.088.004l-.087-.004-.046.042v-.002Zm.501-.024Zm7.208-1.16-.016.013a.65.65 0 0 1-.031.024l-.032.022a2.48 2.48 0 0 1-.062.042l-.008.005a4.02 4.02 0 0 1-.699.331c-.183.068-.37.126-.557.179-.27.075-.543.137-.817.192-.267.053-.534.099-.804.138-.27.04-.54.072-.81.1a25.934 25.934 0 0 1-1.667.112c-.035 0-.072.003-.109.004l-.1.002c.082-.1.164-.201.239-.307l.032-.04c.16-.216.313-.436.461-.66a14.79 14.79 0 0 0 .749-1.268c.25.022.5.048.751.079l.056.008c.112.009.223.026.333.042a16.635 16.635 0 0 1 1.307.244h.007l.02.002c.01 0 .018.003.025.011.22.057.438.115.653.187.02.006.042.008.057.025.056.01.107.033.16.053l.138.053c.13.051.258.109.382.174a2.16 2.16 0 0 1 .326.206c.017.013.022.019.015.026Z" />
  <path fill="#F10"
    d="M17.205 9.737a.585.585 0 0 0-.12-.318 1.394 1.394 0 0 0-.358-.334 3.875 3.875 0 0 0-.744-.38 6.753 6.753 0 0 0-.438-.157 9.529 9.529 0 0 0-.683-.19 16.963 16.963 0 0 0-1.398-.274H13.438l-.02-.003a.38.38 0 0 1-.045-.008l-.158-.026c-.03-.003-.061-.008-.092-.013-.012-.002-.024-.004-.036-.004l-.368-.046-.107-.01c-.036-.005-.072-.008-.107-.016-.238-.022-.475-.046-.714-.066a22.526 22.526 0 0 0-.716-.048l-.296-.015-.225-.01c-.171-.007-.343-.01-.514-.014L9.849 7.8c-.108-.002 0 0 0 0s.117-.473.164-.712a11.618 11.618 0 0 0 .142-.902 8.372 8.372 0 0 0 .05-.792 6.262 6.262 0 0 0-.051-.908 4.466 4.466 0 0 0-.09-.487 3.137 3.137 0 0 0-.114-.38h-.007c-.003 0-.005 0-.008.002l-.022.01a4.046 4.046 0 0 0-.596.316c-.01.006-.022.012-.027.026.045.288.067.577.07.869.004.417-.027.83-.084 1.243-.043.31-.1.62-.17.924-.06.266-.13.528-.207.789a24.71 24.71 0 0 0-1.307.05 23.276 23.276 0 0 0-1.509.135 13.395 13.395 0 0 0-.464 1.07l.012-.002c.33-.047.662-.086.995-.119l.286-.03c.236-.019.473-.032.71-.047.306-.02.614-.032.922-.042h.012c.262-.007.524-.01.787-.01h.198c.15 0 .3.001.449.004.17.003.34.01.51.015h.004c.163.006.325.011.488.02.125.005.25.015.375.024l.08.006.56.041.138.014c.248.022.496.05.742.081l.331.044a19.427 19.427 0 0 1 1.36.243c.195.045.387.093.579.144.251.068.498.148.742.238.211.079.414.17.611.28.136.073.265.157.382.258.107.092.2.195.262.323.025.05.036.106.053.16l.002-.32v-.474c0-.057.002-.115 0-.172l-.004.004Z" />
  <path fill="#404A5A"
    d="M10.948 2.18c-.038-.012-.078-.02-.114-.038v-.015a.516.516 0 0 1 .13.06c-.006-.003-.01-.005-.016-.006ZM10.815 2.134l.005.003h-.001s-.007 0-.01-.003h.006ZM6.206 5.015s0 .003-.003.005l-.004.003v-.002s.001-.004.003-.005l.003-.001h.001ZM6.41 4.755l-.005.005c-.002.002-.006.003-.009.004V4.755L6.4 4.75l.006-.006.007-.004v.01c0 .002 0 .003-.003.005v.002Z" />
  <path fill="#215CB5"
    d="M6.489 4.65h-.003l-.002.002.007-.01v.003c0 .003 0 .004-.002.006ZM6.528 4.59s.002-.005.004-.006l.003-.001-.001.003-.001.003-.002.002-.004.001V4.59h.001Z" />
  <path fill="#FEC35E" d="M10.047 1.783c.01-.004.016 0 .021.007-.008.002-.017.004-.02-.007Z" />
  <path fill="#404A5A"
    d="m7.698 3.342.008-.008v.002c0 .002 0 .003-.002.005h-.006ZM7.756 3.283l.01-.003c0 .005-.001.007-.003.009-.003.002-.009 0-.013 0a.022.022 0 0 1 .007-.006ZM7.793 3.259l-.003.005h-.006a.066.066 0 0 0 .008-.01v.004ZM8.284 2.87l-.001.003-.007.002.008-.009v.004ZM8.276 2.875v.002l-.002.004h-.006l.009-.005-.001-.001Z" />
  <path fill="#F1ECE2"
    d="m10.832 2.123-.736-.327c-.01-.005-.02 0-.028-.007-.008.002-.017.004-.02-.007-.011.005-.02 0-.03-.003a1.892 1.892 0 0 0-.657-.072c-.296.015-.58.087-.855.193-.087.033-.172.07-.256.11l-.062.03-.072.036a5.289 5.289 0 0 0-.582.353l-.098.07-.019.013a7.721 7.721 0 0 0-.766.644c-.48.458-.906.964-1.297 1.5l-.03.043s0 .003-.002.004l-.005.002-.104.15c-.059.083-.116.166-.173.251l-.159.243-.122.195a17.531 17.531 0 0 0-.325.551l-.01.014c0 .006-.002.01-.003.014l-.006.01-.066.12a17.503 17.503 0 0 0-.337.648 16.628 16.628 0 0 0-.99 2.538c-.024.08-.048.16-.07.24l-.002.006a13.207 13.207 0 0 0-.241 1.018l-.014.07-.005.03-.002.01-.011.056a11.063 11.063 0 0 0-.131.915l-.01.1v.008l-.005.062a11.24 11.24 0 0 0-.03.504v.033a8.329 8.329 0 0 0 .026.94 5.692 5.692 0 0 0 .102.674 4.09 4.09 0 0 0 .24.768l.022.048.053.112a2.309 2.309 0 0 0 .546.726c.07.06.144.116.223.166.015.01.032.015.044.03.002.001.002.004.003.006.008-.002.014 0 .016.007.03.008.055.028.083.04l.451.201.258.113.012-.01c-.029-.016-.057-.033-.084-.051a2.194 2.194 0 0 1-.626-.698 3.078 3.078 0 0 1-.22-.47c-.003-.003-.004-.007-.005-.01a4.254 4.254 0 0 1-.188-.672 6.041 6.041 0 0 1-.06-.37l-.004-.027a6.128 6.128 0 0 1-.043-.453l-.004-.067v-.017c-.005-.125-.01-.25-.008-.375V13.015l.009-.294.008-.147a11.722 11.722 0 0 1 .06-.658c.007-.062.016-.123.024-.185l.031-.206.027-.162.033-.183c.014-.078.03-.155.045-.232l.056-.264.056-.233a12.808 12.808 0 0 1 .084-.316l.017-.06c.01-.04.019-.083.034-.124.003-.004.008-.008.01-.014.011-.098.046-.189.076-.282l.04-.124.054-.175.046-.142.018-.055.026-.072.106-.297.046-.123a15.802 15.802 0 0 1 .213-.531l.04-.093a4813.649 4813.649 0 0 1 .173-.393l.06-.13c.055-.117.11-.234.168-.349l.033-.06c.011-.019.023-.038.033-.059.168-.356.366-.698.57-1.036l.054-.09c.043-.07.083-.142.132-.208.03-.04.058-.083.086-.125.027-.043.054-.085.084-.126.057-.084.11-.17.168-.254a1 1 0 0 0 .023-.033l.117-.163v-.002s.001-.005.003-.006h.003l.169-.227a.085.085 0 0 1 .008-.01l.004-.003.01-.011V4.749l.004-.006.006-.006.007-.004.004-.004.066-.082.007-.01.002-.005.002-.005.008-.008.002-.002c.01-.009.021-.016.023-.03v-.003c0-.003.002-.005.004-.006h.003l.018-.017.003-.004a.135.135 0 0 0 .01-.014c.006-.006.01-.013.014-.02.004-.004.007-.01.01-.015l.008-.01.05-.062a10.516 10.516 0 0 1 .672-.745l.054-.054c.034-.034.069-.065.103-.097.015-.012.028-.025.042-.039l.008-.008.131-.124.003-.003.037-.03.008-.007.003-.003.04-.041a.022.022 0 0 1 .007-.007c.003-.002.006-.002.01-.003a.015.015 0 0 0 .01-.004l.006-.006.003-.006a4.986 4.986 0 0 1 .114-.102l.016-.013a4.653 4.653 0 0 1 .351-.271l.01-.005.008-.01a8.731 8.731 0 0 1 .173-.122l.058-.038c.02-.014.04-.026.06-.038a5.165 5.165 0 0 1 .385-.22 3.662 3.662 0 0 1 .693-.277c.118-.033.238-.058.36-.075a2.194 2.194 0 0 1 .366-.021l.053.002a1.915 1.915 0 0 1 .375.058h.005c.002 0 .003.002.005.003l.005.002.009.004V2.12l-.003-.003.006.005Z" />
  <path fill="#FDBF41"
    d="M10.047 1.783c-.004-.015-.018-.017-.029-.022-.21-.094-.423-.187-.635-.28-.056-.025-.11-.054-.17-.073-.006.003-.012.003-.02 0a1.767 1.767 0 0 0-.448-.08c-.14-.009-.279 0-.417.018a2.93 2.93 0 0 0-.337.069 3.333 3.333 0 0 0-.623.235c-.077.038-.151.081-.227.122-.025.013-.052.025-.076.04a6 6 0 0 0-.627.423c-.05.038-.102.076-.148.118-.03.028-.06.055-.092.079a.36.36 0 0 1-.02.013l-.016.014a.036.036 0 0 1-.009.017.019.019 0 0 1-.007.004H6.14l-.006-.001-.003.002c-.017.013-.028.034-.043.047l-.007.004c-.042.022-.067.061-.104.088-.036.025-.065.06-.098.09a9.498 9.498 0 0 0-.467.467c-.046.049-.088.102-.133.152-.025.03-.054.055-.08.084l-.203.24c-.05.059-.098.119-.143.182-.036.05-.078.094-.116.143-.116.148-.225.3-.334.453-.109.15-.208.305-.31.46-.092.138-.177.281-.265.422-.032.053-.061.108-.093.16-.057.09-.108.182-.157.276-.031.037-.05.081-.073.123a3.86 3.86 0 0 0-.137.262c-.013.028-.033.054-.047.082l-.12.239c-.103.199-.193.404-.286.607-.102.22-.191.445-.28.671-.061.153-.122.306-.17.463-.008.026-.023.05-.032.075-.047.135-.094.27-.138.407a16.218 16.218 0 0 0-.392 1.46l-.038.193a12.827 12.827 0 0 0-.183 1.285l-.005.058v.053-.053a8.427 8.427 0 0 0-.028.743c0 .063.007.127.006.19 0 .097.007.193.013.289l.007.106.002.019c.012.092.02.185.032.277.013.09.025.18.042.269.023.123.046.247.085.368.012.037.018.077.029.115a3.841 3.841 0 0 0 .227.595c.083.173.185.335.306.485.114.142.244.267.393.373.007.003.013.008.02.012.01.007.02.014.032.02l.019.012.061.04c.006.006.012.01.018.014l.002.003c.004.005.01.006.016.008l.773.341c.01.005.02.012.033.009 0-.003-.003-.005-.004-.007-.011-.014-.028-.02-.043-.029a1.864 1.864 0 0 1-.331-.268 2.309 2.309 0 0 1-.438-.624c-.02-.037-.036-.074-.054-.111l-.022-.048c-.006-.016-.014-.032-.02-.05a4.093 4.093 0 0 1-.22-.718 5.695 5.695 0 0 1-.102-.673 7.381 7.381 0 0 1-.027-.941l.001-.033.011-.253.018-.25.006-.063v-.007l.01-.101a12.875 12.875 0 0 1 .144-.982l.005-.028.013-.07.061-.296a13.967 13.967 0 0 1 .18-.723c0-.002 0-.004.002-.006.023-.08.045-.16.07-.24a17.246 17.246 0 0 1 .292-.89 16.622 16.622 0 0 1 1.036-2.296l.066-.12.005-.01c.003-.004.005-.008.004-.013l.01-.015c.023-.042.048-.083.071-.126.048-.083.097-.167.147-.25l.106-.175.123-.195a10.772 10.772 0 0 1 .331-.494l.105-.15v-.004l.005-.002.03-.043c.391-.536.818-1.042 1.298-1.5a7.724 7.724 0 0 1 .766-.644L7.44 2.5l.098-.068c.157-.11.319-.211.486-.303l.096-.05.072-.037.062-.03c.084-.04.169-.076.255-.11a2.76 2.76 0 0 1 .856-.193c.223-.013.442.007.657.072.01.003.019.008.029.003l-.004-.001ZM1.673 12.731v.014-.014Z" />
  <path fill="#C18B00"
    d="m5.317 4.701.005-.002c0 .002 0 .004-.002.005l-.005.002v-.003l.001-.002h.001ZM6.14 2.465s.006-.006.01-.006h.01a.036.036 0 0 1-.008.018.019.019 0 0 1-.007.004H6.14l-.005-.001c0-.006.002-.01.005-.014v-.001Z" />
  <path fill="#F10"
    d="M9.168 1.388c-.191-.085-.384-.168-.576-.256-.218-.1-.445-.16-.685-.172h-.252c-.121.007-.24.024-.36.05-.349.074-.674.21-.985.382a5.876 5.876 0 0 0-.883.604c-.036.03-.073.056-.103.09-.003 0-.005.002-.007.005v.003h-.004l-.023.019a9.158 9.158 0 0 0-.862.848c-.32.358-.616.735-.892 1.127a15.01 15.01 0 0 0-1.1 1.835A16.202 16.202 0 0 0 1.342 8.66c-.015.053-.034.106-.05.16-.113.399-.21.8-.287 1.208-.065.345-.118.692-.152 1.042a7.663 7.663 0 0 0-.042.763l.001.348.003.048-.001.074c0 .141.013.281.026.422.023.228.058.456.108.68.063.281.15.554.274.816.132.28.3.534.527.746.132.125.278.23.442.305.146.07.293.133.44.198.101.044.2.092.305.133l-.018-.014c-.02-.015-.04-.029-.062-.042l-.018-.011a.663.663 0 0 1-.033-.02c-.007-.005-.013-.01-.02-.013-.149-.105-.279-.23-.393-.373a2.476 2.476 0 0 1-.306-.485 4.12 4.12 0 0 1-.147-.345.968.968 0 0 1-.033-.032l.033.032a2.837 2.837 0 0 1-.08-.25c-.01-.038-.017-.077-.029-.115-.039-.12-.06-.245-.085-.368-.017-.088-.029-.179-.041-.268-.013-.093-.021-.186-.032-.278l-.002-.019v.355-.355c-.004-.035-.005-.07-.008-.106-.004-.096-.013-.192-.013-.289 0-.063-.006-.126-.006-.19.001-.132.002-.264.008-.396a8.54 8.54 0 0 1 .02-.347 12.839 12.839 0 0 1 .076-.687c.031-.22.07-.438.112-.656l.039-.192a16.247 16.247 0 0 1 .392-1.46c.044-.137.09-.273.137-.408.008-.025.024-.049.032-.074.049-.158.11-.311.17-.463.089-.225.178-.451.28-.672.093-.203.184-.408.286-.607.04-.079.081-.159.12-.239.014-.028.034-.052.047-.082.042-.089.089-.176.138-.262.023-.042.041-.086.072-.122.05-.095.1-.187.157-.277.033-.052.062-.107.094-.16.087-.14.172-.283.264-.422.103-.154.202-.31.31-.46.11-.153.22-.305.334-.453.038-.048.08-.092.116-.143.045-.063.092-.124.143-.182l.204-.24c.025-.029.053-.054.08-.083.044-.051.086-.104.133-.153.151-.16.305-.318.467-.467.033-.03.062-.064.098-.09.036-.026.062-.066.103-.087l.008-.005c.016-.012.025-.034.042-.046l.004-.003c0-.006.003-.01.006-.014a.013.013 0 0 1 .01-.006l.011.001.016-.014c.008-.005.013-.01.02-.013.033-.024.062-.051.092-.078.047-.043.098-.08.148-.119.2-.155.41-.294.627-.423.025-.015.051-.027.077-.04.075-.04.15-.084.226-.121.2-.1.407-.178.623-.236.111-.029.223-.052.337-.068.139-.02.278-.027.417-.02.152.01.303.034.449.082.007.002.014.003.02-.001-.012-.013-.03-.013-.046-.02l.006-.002ZM6.145 2.409l-.004-.003.004.003ZM6.118 2.393l.016.008-.016-.008Z" />
  <path fill="#FEC35E" d="M7.907.96h-.252L7.65.95h.259l-.003.01Z" />
  <path fill="#C18B00" d="M5.314 2.094h-.002v-.003h.004v.002h-.002v.001Z" />
  <path fill="url(#a)"
    d="M15.831 13.315c.025-.02.025-.021 0-.04a1.59 1.59 0 0 0-.181-.125 3.812 3.812 0 0 0-.665-.309c-.053-.019-.104-.042-.16-.052-.015-.017-.037-.02-.057-.026a9.714 9.714 0 0 0-1.012-.267 11.81 11.81 0 0 0-.573-.11 22.467 22.467 0 0 0-.426-.066c-.111-.016-.223-.033-.335-.042l-.055-.008a21.372 21.372 0 0 0-1.18-.111 26.267 26.267 0 0 0-3.034-.03c-.483.023-.963.06-1.442.114-.078.008-.157.014-.236.03-.016-.004-.03 0-.047.002a16.2 16.2 0 0 0-1.616.284l-.003.007s-.051.734.062 1.45a12.767 12.767 0 0 0 1.115.214c.247.036.496.072.746.098.242.026.484.052.727.069.144.01.287.023.43.031a29.01 29.01 0 0 0 1.222.045 28.2 28.2 0 0 0 1.83-.038c.358-.02.713-.048 1.069-.085.541-.056 1.08-.13 1.614-.238a9.149 9.149 0 0 0 1.375-.372c.195-.072.385-.152.567-.254.092-.05.18-.106.264-.171h.001Z"
    opacity=".48" />
  <defs>
    <linearGradient id="a" x1="10.345" x2="10.276" y1="12.374" y2="14.151" gradientUnits="userSpaceOnUse">
      <stop offset=".16" stop-color="#191919" />
      <stop offset=".97" stop-color="#191919" stop-opacity="0" />
    </linearGradient>
  </defs>
</svg>