<svg width="18" height="17" viewBox="0 0 18 17" fill="none" xmlns="http://www.w3.org/2000/svg">
<path d="M15.8218 13.322C15.8115 13.3305 15.8011 13.338 15.7908 13.3455C15.7804 13.3531 15.7691 13.3606 15.7587 13.3681C15.738 13.3823 15.7173 13.3964 15.6966 13.4095L15.6891 13.4143C15.6721 13.4255 15.6542 13.4359 15.6363 13.4463C15.61 13.4623 15.5845 13.4773 15.5572 13.4914C15.3755 13.5921 15.1852 13.674 14.9903 13.7455C14.8067 13.8133 14.6202 13.8717 14.4328 13.9244C14.1635 13.9997 13.8904 14.0618 13.6164 14.1164C13.3489 14.17 13.0815 14.2152 12.8121 14.2547C12.5428 14.2943 12.2726 14.3263 12.0023 14.3545C11.9138 14.3639 11.8252 14.3724 11.7358 14.3808C11.5578 14.3968 11.3798 14.411 11.2018 14.4232C11.1124 14.4288 11.0238 14.4345 10.9344 14.4401C10.7347 14.4514 10.5351 14.4599 10.3355 14.4665C10.2997 14.4674 10.263 14.4693 10.2262 14.4703C10.1933 14.4712 10.1594 14.4721 10.1264 14.4731C10.2083 14.3724 10.2903 14.2717 10.3647 14.1653C10.375 14.1521 10.3863 14.139 10.3967 14.1248C10.5652 13.898 10.7272 13.6665 10.8817 13.4303C10.8977 13.4303 10.9127 13.4284 10.9287 13.4274C11.0267 13.4218 11.1246 13.4161 11.2235 13.4086C11.2979 13.4039 11.3723 13.3983 11.4467 13.3926C11.9665 13.3521 12.4844 13.2947 13.0005 13.2138C13.1502 13.1903 13.3 13.1648 13.4487 13.1375C13.7962 13.0726 14.1418 12.9964 14.4818 12.8985C14.5562 12.8768 14.6306 12.8543 14.705 12.8317C14.7426 12.8204 14.7794 12.8081 14.8161 12.7959C14.8717 12.8053 14.9235 12.8288 14.9752 12.8486C15.0214 12.8655 15.0675 12.8834 15.1137 12.9013C15.2436 12.9531 15.3717 13.0105 15.496 13.0754C15.545 13.1008 15.593 13.1281 15.6401 13.1573C15.7032 13.1959 15.7644 13.2354 15.8218 13.2815C15.8388 13.2947 15.8435 13.3004 15.8369 13.3079C15.8341 13.3117 15.8294 13.3154 15.8209 13.322H15.8218Z" fill="#F1ECE2"/>
<path d="M11.0031 15.7157C10.9928 15.7223 10.9815 15.7223 10.9702 15.7185C10.973 15.7167 10.9758 15.7157 10.9777 15.7148C10.9824 15.7129 10.9862 15.7129 10.9909 15.7129C10.9946 15.7129 10.9993 15.7138 11.0031 15.7157Z" fill="#5E93FF"/>
<path d="M10.9589 15.7182C10.9457 15.7239 10.9315 15.7248 10.9174 15.7201C10.9306 15.7116 10.9447 15.7126 10.9589 15.7182Z" fill="#5E93FF"/>
<path d="M10.9061 15.7204C10.8929 15.726 10.8788 15.7269 10.8656 15.7232C10.8788 15.7147 10.8929 15.7156 10.9061 15.7204Z" fill="#5E93FF"/>
<path d="M10.8543 15.7231C10.8412 15.7296 10.827 15.7296 10.8138 15.7249C10.8138 15.7249 10.8148 15.7249 10.8157 15.7249C10.8289 15.7183 10.8421 15.7183 10.8553 15.7231H10.8543Z" fill="#5E93FF"/>
<path d="M10.7743 15.7224C10.7827 15.7206 10.7921 15.7224 10.8016 15.7253C10.7884 15.7318 10.7743 15.7318 10.7601 15.7271C10.7648 15.7243 10.7686 15.7234 10.7733 15.7224H10.7743Z" fill="#5E93FF"/>
<path d="M10.7281 15.7236C10.7347 15.7236 10.7423 15.7246 10.7489 15.7274C10.7357 15.733 10.7225 15.734 10.7084 15.7293C10.715 15.7255 10.7216 15.7236 10.7281 15.7236V15.7236Z" fill="#5E93FF"/>
<path d="M10.6867 15.7265C10.6867 15.7265 10.6933 15.7283 10.6961 15.7293C10.6829 15.7359 10.6698 15.7359 10.6556 15.7312C10.6651 15.7255 10.6754 15.7246 10.6848 15.7265H10.6867V15.7265Z" fill="#5E93FF"/>
<path d="M10.6434 15.7312C10.6274 15.7378 10.6114 15.7378 10.5944 15.7331C10.6104 15.7255 10.6264 15.7265 10.6434 15.7312Z" fill="#5E93FF"/>
<path d="M10.5831 15.7335C10.5699 15.7401 10.5567 15.7392 10.5426 15.7354C10.5558 15.7279 10.569 15.7279 10.5831 15.7335Z" fill="#5E93FF"/>
<path d="M14.0609 12.5722C14.0674 12.5732 14.075 12.5732 14.0816 12.5741C14.091 12.5741 14.0995 12.5769 14.1061 12.5854C14.0882 12.5835 14.0703 12.5798 14.0543 12.5713C14.0552 12.5713 14.0561 12.5713 14.058 12.5713C14.059 12.5713 14.0599 12.5713 14.0609 12.5713V12.5722Z" fill="#5E93FF"/>
<path d="M6.51119 16.9404C6.51119 16.9404 6.51402 16.9461 6.51496 16.9489H6.2381C6.2381 16.9489 6.24092 16.9442 6.24281 16.9404C6.26541 16.9404 6.28707 16.9404 6.30967 16.9404C6.37653 16.9404 6.44339 16.9404 6.51025 16.9404H6.51119Z" fill="#3180F4"/>
<path d="M14.8161 12.7959C14.7794 12.8082 14.7417 12.8204 14.705 12.8317C14.6306 12.8552 14.5562 12.8778 14.4818 12.8985C14.1418 12.9955 13.7962 13.0726 13.4487 13.1376C13.3 13.1649 13.1502 13.1903 13.0005 13.2138C12.4854 13.2947 11.9674 13.3522 11.4467 13.3926C11.3723 13.3983 11.2979 13.4039 11.2235 13.4086C11.1256 13.4152 11.0276 13.4218 10.9287 13.4275C10.9127 13.4275 10.8977 13.4293 10.8817 13.4303C10.9881 13.2675 11.0917 13.1027 11.1924 12.9352C11.3374 12.6933 11.4749 12.4477 11.6068 12.1992C11.8573 12.2209 12.1078 12.2463 12.3582 12.2773C12.3771 12.2792 12.395 12.283 12.4138 12.2858C12.5259 12.2943 12.637 12.3112 12.7472 12.3272C12.8894 12.3479 13.0316 12.3705 13.1738 12.395C13.3649 12.427 13.5561 12.4627 13.7463 12.5042C13.849 12.5267 13.9516 12.5493 14.0543 12.5719C14.0703 12.5804 14.0882 12.5842 14.1061 12.586C14.3255 12.6425 14.5439 12.7009 14.7587 12.7724C14.7784 12.779 14.801 12.7809 14.8161 12.7978V12.7959Z" fill="#FDBF41"/>
<path d="M7.5282 14.4092C7.61672 14.4158 7.70524 14.4233 7.79376 14.4289C7.70524 14.4233 7.61672 14.4158 7.5282 14.4092Z" fill="#F1ECE2"/>
<path d="M4.69841 16.3835C4.69182 16.3835 4.68617 16.3816 4.68146 16.376C4.68146 16.376 4.6824 16.376 4.68334 16.376C4.68334 16.376 4.68522 16.376 4.68617 16.376C4.68617 16.376 4.68805 16.376 4.68899 16.376H4.69087C4.69087 16.376 4.69276 16.3769 4.6937 16.3779H4.69464C4.69464 16.3779 4.69652 16.3807 4.69747 16.3816L4.69841 16.3835Z" fill="#404A5A"/>
<path d="M4.68144 16.3757C4.67485 16.3757 4.66826 16.3748 4.66449 16.3682C4.66449 16.3682 4.66826 16.3682 4.6692 16.3682C4.6692 16.3682 4.67767 16.371 4.6805 16.3757H4.68144Z" fill="#404A5A"/>
<path d="M4.66354 16.3672L4.6626 16.3662L4.66354 16.3672Z" fill="#404A5A"/>
<path d="M4.66358 16.3678C4.65605 16.3678 4.64946 16.3678 4.64569 16.3594C4.65322 16.3594 4.65887 16.3603 4.66264 16.3669L4.66358 16.3678Z" fill="#404A5A"/>
<path d="M4.64663 16.3593H4.64569V16.3584L4.64663 16.3593Z" fill="#404A5A"/>
<path d="M4.64663 16.3593L4.64569 16.3584H4.64663V16.3593Z" fill="#404A5A"/>
<path d="M4.64659 16.3578C4.63906 16.3578 4.63152 16.3597 4.62964 16.3503C4.63717 16.3484 4.64376 16.3503 4.64753 16.3578H4.64659Z" fill="#404A5A"/>
<path d="M4.57786 16.3145C4.58257 16.3173 4.58822 16.3201 4.59387 16.3229C4.59764 16.3248 4.60235 16.3267 4.60611 16.3286C4.61271 16.3323 4.6193 16.3361 4.62401 16.3427C4.62589 16.3446 4.62683 16.3474 4.62872 16.3502C4.60517 16.3483 4.5854 16.3389 4.5675 16.3239L4.57881 16.3145H4.57786Z" fill="#404A5A"/>
<path d="M6.16745 15.5682C6.14862 15.5711 6.12884 15.5748 6.11001 15.5767C6.03561 15.5871 5.96122 15.5927 5.88682 15.5946C5.8614 15.5946 5.83691 15.5946 5.81149 15.5946C5.78606 15.5946 5.76157 15.5937 5.73615 15.5927C5.72485 15.5927 5.71449 15.5908 5.70413 15.5899C5.69377 15.589 5.68247 15.5871 5.67211 15.5861C5.65893 15.5852 5.64763 15.5795 5.63727 15.5701C5.60808 15.5428 5.57888 15.5155 5.55157 15.4873C5.75687 15.5174 5.96216 15.5438 6.16745 15.5682V15.5682Z" fill="#F1ECE2"/>
<path d="M9.39659 12.1055C9.24874 12.1055 9.10089 12.1074 8.95399 12.1102C8.7082 12.4914 8.44264 12.8584 8.15354 13.2085C8.09233 13.2819 8.03112 13.3544 7.96802 13.4259C7.80887 13.6066 7.64408 13.7808 7.46986 13.9474C7.31825 14.0932 7.16098 14.2325 6.99618 14.3634C6.86811 14.4659 6.73627 14.5638 6.59878 14.6542C6.34546 14.8217 6.08084 14.9657 5.79551 15.0711C5.65048 15.1238 5.50264 15.1671 5.35102 15.1925C5.34255 15.1944 5.33407 15.1972 5.32654 15.2001C5.32654 15.2029 5.32748 15.2057 5.32842 15.2076C5.32842 15.2095 5.32842 15.2104 5.3303 15.2123C5.34161 15.2292 5.35196 15.2452 5.36326 15.2612C5.38587 15.2932 5.40941 15.3252 5.43389 15.3563C5.47062 15.4024 5.51017 15.4466 5.55066 15.4899C5.75596 15.5201 5.96125 15.5464 6.16654 15.5709C6.22116 15.5624 6.27578 15.5521 6.3304 15.5389C6.45564 15.5088 6.57806 15.4702 6.69672 15.4241C6.75605 15.4005 6.81537 15.3761 6.87376 15.3497C6.93215 15.3234 6.98959 15.2942 7.04609 15.265C7.07058 15.2518 7.09506 15.2386 7.11955 15.2255C7.28999 15.1314 7.45385 15.0269 7.61017 14.9139C7.76744 14.801 7.91811 14.6786 8.06408 14.5506C8.08479 14.5318 8.10551 14.5139 8.12623 14.4951C8.1413 14.481 8.15636 14.4669 8.17237 14.4528C8.26654 14.3671 8.35789 14.2786 8.44735 14.1883C8.48219 14.1535 8.5161 14.1177 8.55094 14.0819C8.663 13.9643 8.77318 13.8438 8.87959 13.7205C8.94363 13.6462 9.00578 13.5718 9.06793 13.4956C9.07547 13.4862 9.083 13.4768 9.09054 13.4683C9.13291 13.4156 9.17435 13.3629 9.21578 13.3092C9.34574 13.1408 9.47193 12.9685 9.59246 12.7935C9.65744 12.6984 9.72148 12.6034 9.78457 12.5064C9.81942 12.4518 9.85426 12.3972 9.88816 12.3426C9.93525 12.2674 9.98139 12.1921 10.0275 12.1158C9.81659 12.1111 9.60659 12.1083 9.39565 12.1083L9.39659 12.1055Z" fill="#F1ECE2"/>
<path d="M3.77361 15.9711C3.76702 15.972 3.76137 15.9711 3.75854 15.9636C3.76608 15.9617 3.77173 15.9636 3.77361 15.9711Z" fill="#C18B00"/>
<path d="M8.14505 12.1357C8.03958 12.1404 7.93411 12.146 7.82864 12.1526C7.71281 12.3164 7.59321 12.4773 7.46891 12.6345C7.34648 12.7889 7.22124 12.9404 7.0894 13.0872C7.015 13.171 6.93873 13.2529 6.86245 13.3348C6.80783 13.3922 6.75227 13.4496 6.69577 13.5051C6.46882 13.7263 6.23151 13.9362 5.9763 14.1244C5.93393 14.1555 5.89155 14.1865 5.84729 14.2166C5.70415 14.3164 5.55536 14.4086 5.40186 14.4915C5.29074 14.5517 5.17585 14.6053 5.05908 14.6543C5.05908 14.6599 5.05908 14.6656 5.06097 14.6712C5.07697 14.7164 5.09487 14.7606 5.1137 14.8039C5.13253 14.8482 5.15231 14.8905 5.17303 14.9338C5.21446 15.0195 5.26061 15.1023 5.3124 15.1832C5.31617 15.1898 5.32182 15.1936 5.32653 15.1983C5.335 15.1955 5.34254 15.1926 5.35101 15.1908C5.50357 15.1653 5.65141 15.122 5.7955 15.0693C6.08083 14.9649 6.34639 14.8199 6.59877 14.6524C6.73626 14.5611 6.8681 14.4642 6.99617 14.3616C7.16003 14.2308 7.31729 14.0915 7.46985 13.9456C7.64406 13.779 7.80886 13.6049 7.96801 13.4242C8.0311 13.3526 8.09232 13.2802 8.15353 13.2068C8.44263 12.8576 8.70819 12.4896 8.95398 12.1084C8.68465 12.1131 8.41438 12.1216 8.14505 12.1348V12.1357Z" fill="#FDBF41"/>
<path d="M13.4468 8.08056C13.4553 8.08056 13.4647 8.08056 13.4591 8.06738C13.4628 8.06738 13.4675 8.06832 13.4713 8.06926C13.4685 8.06926 13.4666 8.06927 13.4657 8.07115C13.4619 8.07397 13.4619 8.07962 13.4628 8.08526C13.4572 8.08526 13.4525 8.08527 13.4468 8.08432C13.444 8.08432 13.4402 8.08432 13.4374 8.08432C13.4308 8.08432 13.4242 8.08338 13.4176 8.08244C13.4026 8.08056 13.3875 8.07774 13.3724 8.07397C13.3979 8.07209 13.4223 8.0815 13.4468 8.08244V8.08056Z" fill="#E7AA24"/>
<path d="M5.75591 13.1871C5.76626 13.189 5.77757 13.1909 5.78792 13.1928C5.58075 13.3923 5.36416 13.5796 5.1325 13.7509C5.04774 13.813 4.96393 13.8761 4.87259 13.9288C4.85564 13.8554 4.8481 13.781 4.83963 13.7076C4.81043 13.4704 4.80008 13.2332 4.79913 12.9951C4.85658 13.0092 4.91402 13.0224 4.97241 13.0356C5.14097 13.0742 5.31048 13.1081 5.48093 13.1401C5.57227 13.157 5.66456 13.173 5.75591 13.1881V13.1871Z" fill="#F1ECE2"/>
<path d="M6.70232 12.2502C6.67783 12.253 6.65335 12.2559 6.62887 12.2578C6.38496 12.5674 6.12411 12.8629 5.84254 13.1406C5.82465 13.1585 5.80676 13.1754 5.78792 13.1933C5.7964 13.1942 5.80487 13.1961 5.81241 13.198C5.80393 13.1971 5.79546 13.1952 5.78698 13.1942C5.57981 13.3938 5.36321 13.5811 5.13155 13.7523C5.0468 13.8145 4.96299 13.8775 4.87164 13.9302C4.87164 13.9406 4.87259 13.95 4.87447 13.9603C4.87447 13.9632 4.87447 13.966 4.87447 13.9688C4.87635 13.9801 4.87918 13.9914 4.88106 14.0027C4.88294 14.0121 4.88389 14.0206 4.88577 14.03C4.89048 14.0526 4.89424 14.0761 4.89895 14.0987C4.92532 14.2295 4.9564 14.3585 4.99595 14.4855C5.01384 14.5429 5.02797 14.6013 5.05622 14.654C5.17299 14.6051 5.28788 14.5514 5.399 14.4912C5.55344 14.4083 5.70129 14.3161 5.84443 14.2163C5.88774 14.1862 5.93106 14.1561 5.97344 14.1241C6.22864 13.9359 6.46595 13.7269 6.6929 13.5048C6.7494 13.4493 6.80497 13.3919 6.85958 13.3345C6.9368 13.2535 7.01214 13.1707 7.08653 13.0869C7.21837 12.9401 7.34362 12.7886 7.46604 12.6342C7.59035 12.477 7.70994 12.3161 7.82577 12.1523C7.45003 12.1749 7.07429 12.2069 6.70044 12.2483L6.70232 12.2502Z" fill="#FF1100"/>
<path d="M5.81241 13.1971C5.80394 13.1962 5.79546 13.1943 5.78699 13.1934C5.79546 13.1943 5.80394 13.1962 5.81147 13.1971H5.81241Z" fill="#F1ECE2"/>
<path d="M5.78794 13.1922C5.77758 13.1903 5.76722 13.1884 5.75592 13.1865L5.78794 13.1922Z" fill="#FF1100"/>
<path d="M5.48096 13.1396C5.5723 13.1566 5.66459 13.1726 5.75593 13.1876C5.66459 13.1726 5.5723 13.1566 5.48096 13.1396Z" fill="#FF1100"/>
<path d="M6.46784 12.2804C6.52151 12.2691 6.57519 12.2635 6.62887 12.2578C6.38497 12.5675 6.12411 12.863 5.84254 13.1406C5.82465 13.1585 5.80676 13.1755 5.78792 13.1933L5.75591 13.1877C5.66456 13.1726 5.57227 13.1566 5.48093 13.1397C5.31048 13.1086 5.14097 13.0738 4.97241 13.0352C4.91496 13.022 4.85752 13.0079 4.79913 12.9948C4.79913 12.9053 4.80008 12.815 4.8029 12.7246C4.80478 12.671 4.80667 12.6183 4.80949 12.5646C5.00537 12.5176 5.20218 12.4771 5.40088 12.4395C5.73896 12.3755 6.07891 12.3237 6.41981 12.2813C6.42546 12.2813 6.43111 12.2795 6.43582 12.2795C6.44241 12.2795 6.44806 12.2776 6.45465 12.2785C6.45842 12.2785 6.46219 12.2785 6.46595 12.2804H6.46784Z" fill="#FDBF41"/>
<path d="M12.4976 7.9502C12.6953 7.97467 12.8922 7.9982 13.0899 8.02267C13.089 8.02455 13.0871 8.02643 13.0852 8.02831C12.9628 8.01325 12.8394 7.99914 12.717 7.98314C12.6812 7.97843 12.6454 7.97561 12.6096 7.97184C12.5739 7.96808 12.5381 7.96431 12.5032 7.95678C12.5014 7.9549 12.4995 7.95208 12.4966 7.9502H12.4976Z" fill="#007FFF"/>
<path d="M11.5305 8.56322C11.538 8.53499 11.5446 8.50675 11.5521 8.47852C11.5446 8.50675 11.538 8.53499 11.5305 8.56322Z" fill="#F1ECE2"/>
<path d="M17.2014 12.5259C17.2014 12.2549 17.2014 11.9838 17.2014 11.7118C17.1835 11.6365 17.1609 11.5622 17.1185 11.4963C17.0507 11.389 16.9697 11.2939 16.869 11.2158C16.7635 11.1339 16.6552 11.0568 16.5384 10.9918C16.3783 10.9024 16.2117 10.8262 16.045 10.7509C16.0148 10.7377 15.9847 10.7311 15.9546 10.7189C15.577 10.5711 15.188 10.4601 14.7944 10.365C14.542 10.3038 14.2887 10.2511 14.0335 10.2031C13.7472 10.1495 13.46 10.1034 13.1718 10.0638C12.9731 10.0365 12.7744 10.0121 12.5748 9.98947C12.4863 9.98006 12.3978 9.96971 12.3083 9.96124C12.0569 9.93677 11.8064 9.91418 11.5549 9.8963C11.4061 9.885 11.2583 9.87559 11.1095 9.86806C10.9833 9.86147 10.8571 9.85489 10.7309 9.84924C10.5322 9.83983 10.3335 9.83324 10.1348 9.82853C10.1207 9.82853 10.1056 9.82853 10.0915 9.82759C9.77793 9.821 9.4634 9.81912 9.14981 9.821C9.1451 9.821 9.13945 9.821 9.13474 9.821C8.81174 9.82383 8.48873 9.83136 8.16573 9.84453C8.14595 9.84453 8.12712 9.84642 8.10828 9.84736C7.72595 9.86336 7.34456 9.88783 6.96411 9.91983C6.40474 9.96689 5.84725 10.0309 5.29164 10.1184C5.27846 10.1203 5.26527 10.1222 5.25209 10.125C5.23043 10.2003 5.2116 10.2765 5.18429 10.3499C5.16545 10.4252 5.14662 10.5005 5.12778 10.5758C5.07693 10.7754 5.03079 10.9768 4.9903 11.1782L5.07505 11.1641C5.11178 11.1575 5.14944 11.1518 5.18617 11.1452C5.24079 11.1358 5.29635 11.1274 5.35097 11.1189C5.54967 11.0878 5.74931 11.0605 5.94895 11.0351C6.14859 11.0097 6.34823 10.9881 6.54882 10.9674C6.68254 10.9542 6.81626 10.9419 6.94999 10.9307C7.15245 10.9137 7.35492 10.8996 7.55833 10.8864C7.74949 10.8751 7.93972 10.8648 8.13088 10.8572C8.17985 10.8554 8.22882 10.8525 8.27779 10.8507C8.3503 10.8478 8.42375 10.8459 8.49721 10.8431C8.54429 10.8422 8.59138 10.8403 8.63846 10.8394C8.8108 10.8356 8.98219 10.8328 9.15452 10.8309C9.2195 10.8309 9.28353 10.8309 9.34851 10.8299C9.45963 10.8299 9.57075 10.8299 9.68093 10.8309C9.72142 10.8309 9.76098 10.8309 9.80147 10.8318C9.84479 10.8318 9.88811 10.8328 9.93142 10.8337C10.0491 10.8356 10.1659 10.8384 10.2836 10.8422C10.4013 10.8459 10.5181 10.8497 10.6358 10.8544C10.6556 10.8544 10.6744 10.8563 10.6942 10.8572C10.8204 10.8629 10.9456 10.8685 11.0718 10.8761C11.1688 10.8817 11.2649 10.8874 11.3619 10.8939C11.5069 10.9034 11.6519 10.9137 11.7969 10.9259C11.9307 10.9372 12.0634 10.9495 12.1972 10.9627C12.2019 10.9627 12.2066 10.9627 12.2113 10.9636C12.3073 10.973 12.4025 10.9824 12.4985 10.9918C12.652 11.0069 12.8046 11.0257 12.9581 11.0455C13.1106 11.0652 13.2632 11.0878 13.4157 11.1104C13.4788 11.1198 13.5429 11.1292 13.606 11.1396C13.7952 11.1697 13.9855 11.2045 14.1738 11.2412C14.2849 11.2629 14.3951 11.2855 14.5062 11.3099C14.6164 11.3344 14.7266 11.3589 14.8368 11.3862C15.0035 11.4276 15.1701 11.4709 15.334 11.5198C15.5534 11.5848 15.77 11.6563 15.9828 11.741C16.0365 11.7617 16.0892 11.7843 16.142 11.8069C16.222 11.8417 16.3011 11.8794 16.3793 11.9179C16.3981 11.9274 16.4179 11.9368 16.4367 11.9471C16.4518 11.9547 16.4669 11.9622 16.4819 11.9697C16.5017 11.9791 16.5215 11.9895 16.5413 12.0008C16.5657 12.0139 16.5902 12.0281 16.6138 12.0441C16.7023 12.1052 16.7927 12.1627 16.8746 12.2323C16.8935 12.2483 16.9123 12.2652 16.9302 12.2822C16.9518 12.3001 16.9716 12.3189 16.9914 12.3387C17.0234 12.3707 17.0535 12.4055 17.0799 12.4422C17.0931 12.4601 17.1053 12.4779 17.1157 12.4977C17.1251 12.5137 17.1345 12.5307 17.143 12.5476C17.1515 12.5645 17.159 12.5824 17.1665 12.6003C17.1741 12.6182 17.1807 12.6361 17.1863 12.6549C17.1901 12.6681 17.1948 12.6812 17.1986 12.6944C17.1986 12.6944 17.1986 12.6944 17.1986 12.6963V12.6944C17.2089 12.6398 17.2023 12.5843 17.2033 12.5288L17.2014 12.5259Z" fill="#F1ECE2"/>
<path d="M17.2042 11.6039C17.2042 11.3987 17.2042 11.1926 17.2042 10.9874C17.2042 10.8923 17.2033 10.7973 17.2023 10.7031C17.1863 10.6495 17.175 10.5949 17.1496 10.5431C17.0875 10.4151 16.9952 10.3116 16.8878 10.2203C16.771 10.1196 16.6411 10.0359 16.5055 9.9615C16.3087 9.85326 16.1043 9.76103 15.8943 9.68291C15.6504 9.59256 15.4027 9.51256 15.1523 9.44479C14.9601 9.39303 14.768 9.34503 14.574 9.30079C14.3537 9.25091 14.1314 9.20668 13.9092 9.16809C13.6775 9.12762 13.4468 9.08903 13.2133 9.05703C13.1031 9.04197 12.9929 9.02691 12.8827 9.01374C12.636 8.98174 12.3883 8.95444 12.1407 8.93279C12.0945 8.92903 12.0493 8.9215 12.0032 8.91868C11.8158 8.90456 11.6284 8.89044 11.4419 8.87726C11.4156 8.87538 11.3883 8.8735 11.3619 8.87162C11.2366 8.86221 11.1123 8.85374 10.9871 8.84715C10.8242 8.83868 10.6622 8.83303 10.4993 8.82738C10.4974 8.82738 10.4965 8.82738 10.4946 8.82738C10.3251 8.82173 10.1546 8.81515 9.98511 8.81232C9.83538 8.8095 9.68565 8.80856 9.53592 8.80762C9.47 8.80762 9.40408 8.80762 9.33816 8.80762C9.07543 8.80762 8.81363 8.81138 8.5509 8.81891C8.54713 8.81891 8.54336 8.81891 8.5396 8.81891C8.23166 8.82832 7.92372 8.84056 7.61672 8.86032C7.38036 8.87538 7.14399 8.88856 6.90762 8.90832C6.81251 8.91679 6.71645 8.92809 6.62134 8.9375C6.28892 8.97044 5.95744 9.00903 5.62596 9.05609C5.62219 9.05609 5.61842 9.05703 5.61466 9.05797C5.48282 9.39962 5.36322 9.74691 5.25869 10.0999C5.25587 10.1083 5.25398 10.1177 5.25116 10.1262C5.26434 10.1243 5.27753 10.1215 5.29071 10.1196C5.84538 10.0321 6.40287 9.96809 6.96318 9.92103C7.34457 9.88903 7.72596 9.8655 8.10735 9.84856C8.12619 9.84856 8.14596 9.84668 8.1648 9.84573C8.4878 9.83256 8.81081 9.82503 9.13381 9.82221C9.13852 9.82221 9.14417 9.82221 9.14888 9.82221C9.46341 9.81938 9.777 9.82221 10.0906 9.82879C10.1047 9.82879 10.1188 9.82879 10.1339 9.82973C10.3326 9.83444 10.5313 9.84103 10.73 9.85044C10.8562 9.85609 10.9824 9.86268 11.1086 9.86926C11.2574 9.87773 11.4052 9.88715 11.554 9.8975C11.8054 9.91538 12.0569 9.93797 12.3074 9.96244C12.3959 9.97091 12.4844 9.98032 12.5739 9.99068C12.7735 10.0133 12.9722 10.0377 13.1709 10.065C13.4591 10.1046 13.7463 10.1507 14.0326 10.2043C14.2878 10.2523 14.5411 10.3041 14.7935 10.3662C15.1871 10.4622 15.576 10.5733 15.9536 10.7201C15.9838 10.7314 16.0139 10.7389 16.044 10.7521C16.2107 10.8274 16.3774 10.9027 16.5375 10.993C16.6543 11.058 16.7616 11.1351 16.868 11.217C16.9688 11.2951 17.0498 11.3911 17.1176 11.4975C17.16 11.5643 17.1835 11.6377 17.2005 11.713C17.2071 11.6773 17.2033 11.6415 17.2033 11.6057L17.2042 11.6039Z" fill="#FDBF41"/>
<path d="M11.377 3.83802C11.5135 4.05166 11.6124 4.28225 11.6877 4.52413C11.7113 4.59943 11.732 4.67472 11.7508 4.75002C11.7819 4.87613 11.8064 5.00413 11.8262 5.13308C11.8318 5.17072 11.8375 5.20837 11.8422 5.24602C11.8516 5.32131 11.8601 5.39755 11.8666 5.47378C11.8695 5.51143 11.8732 5.55002 11.8751 5.58766C11.8893 5.79472 11.8949 6.00178 11.8893 6.20884C11.8836 6.42625 11.8704 6.64272 11.8488 6.85919C11.8271 7.07472 11.797 7.28837 11.7612 7.50108C11.7395 7.62908 11.716 7.75613 11.6906 7.88319C11.4853 7.86719 11.28 7.85308 11.0747 7.84272C10.9758 7.83802 10.8769 7.83331 10.778 7.82766C10.8449 7.5406 10.9014 7.25072 10.9457 6.95896C10.9946 6.63519 11.0285 6.31049 11.0417 5.98484C11.0521 5.70719 11.0511 5.42955 11.0285 5.1519C11.0097 4.92037 10.9786 4.69166 10.9287 4.46484C10.8732 4.20978 10.794 3.96225 10.681 3.72602C10.6368 3.6319 10.584 3.54249 10.5313 3.45402C10.5746 3.4399 10.6198 3.43896 10.6631 3.43425C10.6867 3.43143 10.7093 3.42955 10.7328 3.4286C10.7526 3.42766 10.7724 3.42672 10.7922 3.42578C10.8242 3.42578 10.8562 3.42578 10.8882 3.42578C10.9108 3.42578 10.9334 3.42766 10.956 3.4286C10.973 3.4286 10.9909 3.43049 11.0078 3.43143C11.0106 3.43143 11.0135 3.43143 11.0163 3.43237C11.0219 3.43331 11.0266 3.43519 11.0314 3.43708C11.0361 3.43896 11.0408 3.44178 11.0455 3.4446C11.0521 3.44837 11.0587 3.45402 11.0643 3.45966C11.0794 3.47378 11.0945 3.4879 11.1086 3.50202C11.1378 3.53119 11.166 3.56037 11.1933 3.59143C11.2611 3.6686 11.3223 3.75049 11.3779 3.83708L11.377 3.83802Z" fill="#F1ECE2"/>
<path d="M10.9268 4.46572C10.9768 4.69255 11.0078 4.92125 11.0267 5.15278C11.0493 5.43043 11.0511 5.70808 11.0398 5.98572C11.0276 6.31231 10.9928 6.63702 10.9438 6.95984C10.8995 7.25255 10.843 7.54149 10.7762 7.82855C10.7008 7.82478 10.6264 7.82102 10.5511 7.8182C10.3797 7.81161 10.2083 7.80784 10.0369 7.80408C9.97289 7.80314 9.90886 7.80125 9.84576 7.80031C9.90792 7.56502 9.96348 7.32784 10.0106 7.08878C10.0463 6.90996 10.0774 6.7302 10.1047 6.54949C10.1226 6.42902 10.1386 6.30761 10.1518 6.1862C10.1659 6.05914 10.1772 5.93208 10.1857 5.80408C10.1942 5.66761 10.1998 5.53114 10.2027 5.39467C10.2055 5.21208 10.1998 5.02949 10.1867 4.8469C10.1782 4.72643 10.1659 4.6069 10.1509 4.48643C10.1302 4.32267 10.1 4.15984 10.0614 3.99984C10.0303 3.8709 9.99455 3.74384 9.94747 3.61961C9.98043 3.5989 10.0181 3.58855 10.0539 3.57537C10.1273 3.54808 10.2017 3.52455 10.2761 3.50384C10.3515 3.48314 10.4277 3.4662 10.505 3.45302C10.5106 3.45208 10.5153 3.45114 10.521 3.4502C10.5238 3.4502 10.5276 3.4502 10.5304 3.45114C10.5831 3.54055 10.6359 3.62996 10.6801 3.72314C10.7931 3.95937 10.8722 4.2069 10.9278 4.46196L10.9268 4.46572Z" fill="#FDBF41"/>
<path d="M13.0814 4.04547C13.0814 4.04547 13.0796 4.04369 13.0796 4.0428C13.0796 4.0428 13.0796 4.04191 13.0796 4.04102L13.0822 4.0428V4.04547H13.0814Z" fill="#3180F4"/>
<path d="M17.2005 13.6687C17.2005 13.6556 17.2024 13.6433 17.2024 13.6301C17.2024 13.4184 17.2024 13.2057 17.2024 12.9939C17.2024 12.9026 17.2005 12.8104 17.2005 12.7191C17.2005 12.7134 17.2033 12.7078 17.2024 12.7021C17.2024 12.7021 17.1986 12.6956 17.1977 12.6927C17.1939 12.6796 17.1892 12.6664 17.1854 12.6532C17.1798 12.6344 17.1732 12.6165 17.1656 12.5986C17.1581 12.5807 17.1506 12.5628 17.1421 12.5459C17.1336 12.529 17.1242 12.512 17.1148 12.496C17.1035 12.4772 17.0912 12.4584 17.079 12.4405C17.0526 12.4038 17.0234 12.3699 16.9905 12.337C16.9707 12.3172 16.9509 12.2984 16.9293 12.2805C16.9114 12.2626 16.8935 12.2466 16.8737 12.2306C16.7918 12.161 16.7014 12.1036 16.6129 12.0424C16.5893 12.0264 16.5658 12.0123 16.5403 11.9991C16.5206 11.9887 16.5017 11.9784 16.481 11.968C16.4659 11.9605 16.4509 11.953 16.4358 11.9454C16.417 11.936 16.3972 11.9266 16.3784 11.9163C16.3002 11.8777 16.2211 11.84 16.1411 11.8052C16.0883 11.7826 16.0356 11.761 15.9819 11.7393C15.7691 11.6546 15.5525 11.5821 15.3331 11.5181C15.1683 11.4692 15.0025 11.4259 14.8359 11.3845C14.7257 11.3572 14.6164 11.3318 14.5053 11.3083C14.3951 11.2847 14.284 11.2612 14.1729 11.2396C13.9846 11.2019 13.7943 11.168 13.605 11.1379C13.542 11.1276 13.4789 11.1181 13.4148 11.1087C13.2623 11.0861 13.1097 11.0636 12.9572 11.0438C12.8046 11.0231 12.6511 11.0052 12.4976 10.9901C12.4015 10.9807 12.3064 10.9713 12.2104 10.9619C12.2057 10.9619 12.201 10.9619 12.1963 10.961C12.0625 10.9478 11.9298 10.9356 11.796 10.9243C11.651 10.913 11.506 10.9026 11.361 10.8923C11.264 10.8857 11.1679 10.88 11.0709 10.8744C10.9447 10.8678 10.8195 10.8612 10.6933 10.8556C10.6735 10.8556 10.6547 10.8537 10.6349 10.8527C10.5172 10.848 10.4004 10.8433 10.2827 10.8405C10.165 10.8367 10.0482 10.8339 9.93051 10.832C9.88719 10.832 9.84387 10.8311 9.80056 10.8301C9.76006 10.8301 9.72051 10.8301 9.68002 10.8292C9.5689 10.8292 9.45777 10.8283 9.34759 10.8283C9.28262 10.8283 9.21764 10.8283 9.1536 10.8292C8.98127 10.8301 8.80988 10.833 8.63755 10.8377C8.59046 10.8386 8.54338 10.8396 8.49629 10.8414C8.42284 10.8433 8.35033 10.8461 8.27688 10.849C8.22791 10.8508 8.17894 10.8527 8.12997 10.8556C7.9388 10.864 7.74858 10.8734 7.55741 10.8847C7.35495 10.897 7.15154 10.912 6.94907 10.929C6.81535 10.9403 6.68163 10.9525 6.5479 10.9657C6.34732 10.9854 6.14768 11.008 5.94804 11.0334C5.7484 11.0588 5.54875 11.0861 5.35005 11.1172C5.29449 11.1257 5.23987 11.1351 5.18526 11.1436C5.14853 11.1492 5.11086 11.1558 5.07413 11.1624L4.98938 11.1765C5.02987 10.9741 5.07602 10.7737 5.12687 10.5741C5.1457 10.4988 5.16454 10.4236 5.18337 10.3483C5.21068 10.2748 5.22952 10.1986 5.25118 10.1233C5.254 10.1148 5.25588 10.1054 5.25871 10.097C5.36324 9.74496 5.48283 9.39767 5.61467 9.05508C5.69848 8.83767 5.78795 8.62308 5.88212 8.41038C5.94521 8.26732 6.01113 8.12614 6.07893 7.98496C6.304 7.52096 6.55261 7.07014 6.82947 6.63249C7.0875 6.22308 7.36907 5.83061 7.67701 5.45696C7.6836 5.44943 7.68831 5.44096 7.69396 5.43249C7.78625 5.32614 7.87759 5.21885 7.9727 5.11532C8.28158 4.77367 8.61306 4.45838 8.98127 4.18073C9.07168 4.11296 9.16585 4.04802 9.25813 3.98214C9.26661 3.97649 9.27697 3.97555 9.28733 3.97461C9.29203 3.96143 9.30428 3.95579 9.31464 3.94826C9.50486 3.82685 9.70168 3.71861 9.90979 3.63202C9.91733 3.6292 9.92392 3.62543 9.93239 3.62261C9.93428 3.62261 9.9371 3.62167 9.93993 3.62073C9.94275 3.62073 9.94464 3.62073 9.94746 3.62073C9.98042 3.60002 10.0181 3.58967 10.0539 3.57649C10.1273 3.5492 10.2017 3.52567 10.2761 3.50496C10.3515 3.48426 10.4277 3.46732 10.505 3.45414C10.5106 3.4532 10.5153 3.45226 10.521 3.45132C10.5238 3.45132 10.5276 3.45132 10.5304 3.45226C10.5737 3.43814 10.6189 3.4372 10.6622 3.43249C10.6858 3.42967 10.7084 3.42779 10.7319 3.42685C10.7517 3.42591 10.7715 3.42496 10.7912 3.42402C10.8232 3.42402 10.8553 3.42402 10.8873 3.42402C10.9099 3.42402 10.9325 3.42591 10.9551 3.42685C10.972 3.42685 10.9899 3.42873 11.0069 3.42967C11.0097 3.42967 11.0125 3.42967 11.0154 3.43061C11.021 3.43155 11.0257 3.43343 11.0304 3.43532C11.0351 3.4372 11.0398 3.44002 11.0445 3.44285C11.0511 3.44661 11.0577 3.45226 11.0634 3.45791C11.0785 3.47202 11.0935 3.48614 11.1076 3.50026C11.1368 3.52943 11.1651 3.55861 11.1924 3.58967C11.2602 3.66685 11.3214 3.74873 11.377 3.83532C11.5135 4.04896 11.6124 4.27955 11.6877 4.52143C11.7113 4.59673 11.732 4.67202 11.7508 4.74732C11.7819 4.87343 11.8064 5.00143 11.8262 5.13038C11.8318 5.16802 11.8375 5.20567 11.8422 5.24332C11.8516 5.31861 11.8601 5.39485 11.8667 5.47108C11.8695 5.50873 11.8732 5.54732 11.8751 5.58496C11.8893 5.79202 11.8949 5.99908 11.8893 6.20614C11.8836 6.42355 11.8704 6.64002 11.8488 6.85649C11.8271 7.07202 11.797 7.28567 11.7612 7.49838C11.7395 7.62638 11.716 7.75343 11.6906 7.88049C11.7235 7.88332 11.7565 7.8852 11.7904 7.88802C12.0286 7.90779 12.2669 7.93132 12.5042 7.95391C12.5023 7.95202 12.5004 7.9492 12.4976 7.94732C12.6954 7.97179 12.8922 7.99532 13.0899 8.01979C13.089 8.02167 13.0871 8.02355 13.0852 8.02543C13.0975 8.02732 13.1088 8.0292 13.121 8.03014C13.1606 7.83532 13.1963 7.63955 13.2265 7.44285C13.2538 7.26685 13.2764 7.08991 13.2952 6.91202C13.3131 6.74638 13.3282 6.57979 13.3357 6.4132C13.3395 6.3332 13.3442 6.25226 13.3489 6.17226C13.3489 6.16191 13.3442 6.14779 13.3602 6.14308C13.3602 5.99343 13.3602 5.84379 13.3593 5.69414C13.3508 5.69132 13.3508 5.68379 13.3498 5.67626C13.348 5.64614 13.3442 5.61602 13.3433 5.58591C13.3376 5.36849 13.3169 5.15296 13.2877 4.93743C13.2557 4.69932 13.2076 4.46402 13.1417 4.23343C13.1257 4.17602 13.1116 4.11673 13.0862 4.06214L13.0805 4.04238C13.0805 4.04238 13.0786 4.04049 13.0786 4.03955C13.0786 4.03955 13.0786 4.03861 13.0786 4.03767C13.0767 4.03108 13.0758 4.02355 13.0739 4.01696C12.9779 3.7412 12.8536 3.47955 12.6812 3.24143C12.5155 3.01273 12.3159 2.81979 12.0701 2.67767C11.9778 2.62402 11.878 2.58638 11.7828 2.53838C11.7744 2.53461 11.7631 2.53461 11.7537 2.53273C11.7452 2.52143 11.732 2.51861 11.7207 2.51391C11.4975 2.41508 11.2743 2.31626 11.0502 2.21743C11.021 2.2052 10.9956 2.18543 10.9626 2.18167C10.957 2.17979 10.9523 2.17791 10.9466 2.17602C10.9089 2.16379 10.8694 2.15532 10.8327 2.13743C10.8298 2.13649 10.8261 2.13555 10.8232 2.13367C10.8214 2.13367 10.8195 2.13273 10.8185 2.13179H10.8176C10.8176 2.13179 10.811 2.13273 10.8082 2.12896C10.7366 2.11108 10.6641 2.09696 10.5916 2.08661C10.5389 2.07908 10.4861 2.07343 10.4334 2.07061C10.4155 2.06967 10.3976 2.06873 10.3806 2.06873C10.3279 2.06779 10.2752 2.06873 10.2224 2.07061C10.1528 2.07343 10.0831 2.08002 10.0143 2.08943C9.89284 2.10638 9.77325 2.13179 9.65459 2.16473C9.63764 2.16943 9.62069 2.17414 9.60374 2.17979C9.38055 2.24567 9.16679 2.33602 8.9615 2.44143C8.89275 2.4772 8.82495 2.51391 8.75809 2.55249C8.69688 2.58732 8.63661 2.62402 8.57634 2.66167C8.55656 2.67391 8.53679 2.68708 8.51701 2.69932C8.49723 2.71249 8.47746 2.72473 8.45862 2.73791C8.41907 2.76426 8.38046 2.79061 8.3428 2.81885C8.32396 2.83296 8.30513 2.84614 8.28535 2.86026C8.28535 2.8612 8.28535 2.86308 8.28535 2.86402C8.28535 2.86496 8.28441 2.86591 8.28347 2.86685C8.28253 2.86779 8.2797 2.86873 8.27688 2.86873V2.87155C8.27688 2.87155 8.27593 2.87438 8.27499 2.87532C8.27499 2.87532 8.27311 2.87532 8.27123 2.87532C8.27123 2.87532 8.27028 2.87532 8.26934 2.87532C8.18553 2.93367 8.1036 2.99579 8.02356 3.05979C7.98777 3.08802 7.95293 3.1172 7.91809 3.14638C7.91244 3.15108 7.90679 3.15579 7.90208 3.16049C7.86629 3.19061 7.83051 3.22167 7.79566 3.25273C7.79566 3.25273 7.79566 3.25461 7.79566 3.25555C7.79566 3.25743 7.79472 3.25932 7.79284 3.2612C7.79284 3.2612 7.79284 3.2612 7.79096 3.2612C7.79001 3.2612 7.78907 3.2612 7.78719 3.2612C7.78625 3.26308 7.78436 3.26496 7.78342 3.26685C7.78154 3.26873 7.77966 3.27061 7.77777 3.27249C7.77495 3.27438 7.77118 3.27626 7.76741 3.2772C7.76741 3.28191 7.76647 3.28379 7.76459 3.28567C7.76176 3.28755 7.75611 3.28567 7.75235 3.28661C7.73916 3.30073 7.72504 3.31391 7.71185 3.32802C7.71185 3.32896 7.70997 3.32991 7.70903 3.33085C7.70903 3.33085 7.70903 3.33179 7.70903 3.33273C7.70903 3.33461 7.70809 3.33555 7.70714 3.33743C7.70714 3.33743 7.70432 3.33932 7.70149 3.33838C7.68925 3.34779 7.67701 3.3572 7.66477 3.36755C7.66382 3.36755 7.66288 3.36943 7.66194 3.37038C7.61768 3.41179 7.57436 3.4532 7.53104 3.49461C7.52822 3.49743 7.52539 3.50026 7.52257 3.50308C7.50938 3.51626 7.49526 3.52943 7.48113 3.54167C7.44629 3.57367 7.41051 3.60473 7.37755 3.63861C7.35965 3.65649 7.34176 3.67532 7.32387 3.6932C7.22028 3.79767 7.11858 3.90308 7.0197 4.01226C6.89351 4.15155 6.77109 4.29273 6.65243 4.43767C6.63548 4.45838 6.61853 4.47908 6.60158 4.49979C6.59876 4.50261 6.59593 4.50638 6.59405 4.51014C6.59028 4.51485 6.58746 4.52049 6.58369 4.5252C6.57898 4.53179 6.57521 4.53932 6.5705 4.54496C6.56674 4.54967 6.56391 4.55438 6.56015 4.55908C6.5592 4.56002 6.55826 4.56191 6.55638 4.56285C6.55073 4.56849 6.54508 4.57414 6.53849 4.57885C6.53849 4.57979 6.53849 4.58073 6.53755 4.58167C6.53755 4.58261 6.53754 4.58355 6.5366 4.58449C6.5366 4.58449 6.53566 4.58543 6.53472 4.58638C6.53472 4.58638 6.53284 4.58732 6.53095 4.58826C6.52813 4.60238 6.51683 4.60896 6.50741 4.61838C6.50741 4.61838 6.50647 4.61932 6.50553 4.62026C6.5027 4.62308 6.50082 4.62591 6.49799 4.62873C6.49799 4.63061 6.49611 4.63155 6.49611 4.63343C6.49611 4.63532 6.49423 4.6372 6.49423 4.63908C6.49423 4.63908 6.49423 4.64096 6.49423 4.64191C6.49423 4.64473 6.49328 4.64567 6.4914 4.64755H6.48858L6.48669 4.64943C6.46503 4.67673 6.44243 4.70402 6.42077 4.73132C6.41983 4.7332 6.41889 4.73414 6.41701 4.73602C6.41701 4.73979 6.41701 4.74261 6.41701 4.74543C6.41701 4.74732 6.41606 4.7492 6.41418 4.75108V4.75296C6.41418 4.75296 6.40947 4.75673 6.40759 4.75767C6.40571 4.75955 6.40194 4.76049 6.39911 4.76143C6.39535 4.7652 6.39252 4.76896 6.38876 4.77273C6.38781 4.77367 6.38593 4.77555 6.38499 4.77649C6.38216 4.77932 6.37934 4.78308 6.37651 4.78591C6.32001 4.8612 6.26445 4.93649 6.20795 5.01179C6.20795 5.01367 6.20701 5.01555 6.20512 5.01743H6.20418C6.20418 5.01743 6.20136 5.02026 6.20041 5.02026C6.1618 5.07485 6.12225 5.12849 6.08364 5.18402C6.07611 5.19532 6.06858 5.20567 6.06104 5.21696C6.0036 5.30073 5.95086 5.38638 5.89248 5.47014C5.86423 5.51155 5.83692 5.55391 5.80866 5.59626C5.78136 5.63861 5.7531 5.68096 5.72297 5.72143C5.67494 5.78732 5.63351 5.85885 5.59113 5.92943C5.57324 5.95955 5.5544 5.98967 5.53651 6.01979C5.3331 6.35767 5.13535 6.69932 4.96678 7.05602C4.95736 7.07673 4.94606 7.09649 4.93382 7.11532C4.92252 7.13508 4.91028 7.15391 4.90086 7.17461C4.84342 7.29038 4.78691 7.40614 4.73324 7.52285C4.71252 7.56614 4.69274 7.61038 4.67297 7.65367C4.6466 7.71108 4.62117 7.76849 4.59575 7.82591C4.56373 7.89932 4.53171 7.97179 4.49969 8.04614C4.48651 8.0772 4.47333 8.10826 4.46014 8.13932C4.44319 8.17791 4.42718 8.21649 4.41117 8.25602C4.35467 8.39343 4.30005 8.53179 4.24732 8.67108C4.23225 8.71155 4.21624 8.75296 4.20117 8.79343C4.16445 8.89226 4.1296 8.99202 4.09476 9.09085C4.08628 9.11438 4.07781 9.13791 4.06933 9.16238C4.06274 9.1812 4.05709 9.20002 4.0505 9.2179C4.03449 9.26496 4.01848 9.31296 4.00436 9.36002C3.98646 9.41838 3.96857 9.47579 3.95068 9.53414C3.9375 9.57555 3.92525 9.61696 3.91113 9.65838C3.88099 9.75061 3.84521 9.84285 3.83391 9.94073C3.83391 9.94543 3.82732 9.95014 3.82449 9.95485C3.80942 9.99532 3.80095 10.0367 3.79059 10.0791C3.78588 10.0988 3.77929 10.1186 3.77364 10.1384C3.76799 10.1581 3.7614 10.1779 3.75575 10.1977C3.73315 10.2833 3.71054 10.369 3.68983 10.4546C3.67099 10.5318 3.65216 10.6099 3.63427 10.688C3.61449 10.7756 3.59566 10.8631 3.57776 10.9516C3.56175 11.0287 3.54669 11.105 3.53256 11.1831C3.52126 11.2443 3.50996 11.3054 3.4996 11.3666C3.49019 11.4203 3.48171 11.4748 3.47323 11.5285C3.46193 11.5972 3.45158 11.6659 3.44216 11.7346C3.43368 11.7967 3.42521 11.8579 3.41767 11.92C3.39696 12.0894 3.38001 12.2598 3.36682 12.4311C3.36305 12.48 3.36023 12.529 3.3574 12.5779C3.35458 12.6268 3.35175 12.6758 3.34987 12.7247C3.3461 12.8226 3.34328 12.9205 3.34045 13.0184C3.34045 13.041 3.34045 13.0626 3.34045 13.0852C3.34045 13.0918 3.34045 13.0984 3.34045 13.1059C3.34045 13.2311 3.34516 13.3563 3.34893 13.4805C3.34893 13.4861 3.34893 13.4918 3.34893 13.4974C3.34893 13.52 3.35081 13.5417 3.3527 13.5643C3.3574 13.6546 3.36494 13.745 3.37436 13.8344C3.38095 13.8956 3.38754 13.9567 3.39601 14.0179C3.39696 14.0264 3.39884 14.0358 3.39978 14.0443C3.41673 14.1676 3.43557 14.2908 3.46005 14.4141C3.50525 14.6428 3.56552 14.8678 3.64745 15.0861C3.64839 15.0899 3.65028 15.0937 3.65216 15.0974C3.71337 15.2593 3.78494 15.4165 3.87252 15.5661C4.0166 15.8127 4.1927 16.0301 4.41682 16.2043C4.44319 16.225 4.4705 16.2447 4.49875 16.2645C4.52606 16.2833 4.55431 16.2993 4.58256 16.3163C4.58727 16.3191 4.59292 16.3219 4.59857 16.3247C4.60234 16.3266 4.60705 16.3285 4.61081 16.3304C4.61741 16.3341 4.624 16.3379 4.62871 16.3445C4.63059 16.3464 4.63153 16.3492 4.63342 16.352C4.64095 16.3501 4.64754 16.352 4.65131 16.3596C4.65884 16.3596 4.66449 16.3614 4.66826 16.368C4.67014 16.368 4.67203 16.368 4.67297 16.368C4.67297 16.368 4.68144 16.3708 4.68427 16.3756C4.68427 16.3756 4.68521 16.3756 4.68615 16.3756C4.68615 16.3756 4.68803 16.3756 4.68898 16.3756C4.68898 16.3756 4.69086 16.3756 4.6918 16.3756H4.69369C4.69369 16.3756 4.69557 16.3765 4.69651 16.3774H4.69745C4.69745 16.3774 4.69934 16.3803 4.70028 16.3812C4.70969 16.3916 4.72288 16.3944 4.73418 16.3991C4.98185 16.5092 5.22952 16.6184 5.47718 16.7276C5.59961 16.7821 5.72109 16.8386 5.85104 16.8744C5.98006 16.9101 6.11189 16.9337 6.24656 16.9393C6.26916 16.9393 6.29082 16.9393 6.31342 16.9393C6.38028 16.9393 6.44714 16.9393 6.514 16.9393C6.57898 16.9374 6.64302 16.929 6.70705 16.9196C6.96696 16.881 7.21746 16.8038 7.45853 16.7003C7.90019 16.5101 8.29948 16.2513 8.67428 15.9511C8.7562 15.8852 8.83719 15.8174 8.91629 15.7487C9.1941 15.7534 9.4719 15.7553 9.7497 15.7525C10.0143 15.7497 10.2799 15.745 10.5445 15.7346C10.5577 15.7271 10.5709 15.7271 10.585 15.7327H10.5972C10.6132 15.7252 10.6293 15.7261 10.6462 15.7308H10.6584C10.6679 15.7252 10.6782 15.7243 10.6876 15.7261H10.6895C10.6895 15.7261 10.6961 15.728 10.6989 15.729H10.7112C10.7178 15.7252 10.7244 15.7233 10.731 15.7233C10.7376 15.7233 10.7451 15.7243 10.7517 15.7271C10.7554 15.7271 10.7592 15.7271 10.7639 15.7271C10.7686 15.7243 10.7724 15.7233 10.7771 15.7224C10.7856 15.7205 10.795 15.7224 10.8044 15.7252C10.8082 15.7252 10.8119 15.7252 10.8157 15.7252C10.8157 15.7252 10.8167 15.7252 10.8176 15.7252C10.8308 15.7186 10.844 15.7186 10.8571 15.7233C10.8609 15.7233 10.8647 15.7233 10.8684 15.7233C10.8816 15.7148 10.8958 15.7158 10.9089 15.7205H10.9202C10.9334 15.712 10.9476 15.713 10.9617 15.7186C10.9654 15.7186 10.9692 15.7186 10.973 15.7186C10.9758 15.7167 10.9786 15.7158 10.9805 15.7148C10.9852 15.713 10.989 15.713 10.9937 15.713C10.9975 15.713 11.0022 15.7139 11.0059 15.7158C11.0662 15.713 11.1265 15.7111 11.1867 15.7073C11.6491 15.68 12.1115 15.6433 12.572 15.5925C13.2717 15.5153 13.9676 15.4099 14.6541 15.2537C15.1221 15.1473 15.5836 15.0193 16.0299 14.8396C16.2691 14.7426 16.5017 14.6325 16.7164 14.4876C16.8464 14.4 16.966 14.3021 17.062 14.177C17.1223 14.097 17.1713 14.0113 17.1911 13.9116C17.1986 13.904 17.2014 13.8937 17.2024 13.8843C17.2071 13.8127 17.2099 13.7412 17.2024 13.6697L17.2005 13.6687ZM10.9871 12.1534C10.8581 12.1459 10.73 12.1384 10.601 12.1327C10.73 12.1384 10.8581 12.1459 10.9871 12.1534ZM8.12903 14.4923C8.10831 14.5111 8.08759 14.529 8.06688 14.5478C7.92091 14.6758 7.77024 14.7981 7.61297 14.9111C7.45571 15.024 7.29279 15.1285 7.12234 15.2226C7.09786 15.2358 7.07338 15.249 7.04889 15.2621C6.99239 15.2923 6.93495 15.3205 6.87656 15.3468C6.81817 15.3732 6.75979 15.3986 6.69952 15.4212C6.57992 15.4673 6.45844 15.5059 6.33319 15.536C6.27858 15.5492 6.22396 15.5596 6.16934 15.568C6.1505 15.5708 6.13073 15.5746 6.11189 15.5765C6.0375 15.5868 5.9631 15.5925 5.88871 15.5944C5.86328 15.5944 5.8388 15.5944 5.81337 15.5944C5.78795 15.5944 5.76346 15.5934 5.73804 15.5925C5.72674 15.5925 5.71638 15.5906 5.70602 15.5897C5.69566 15.5887 5.68436 15.5868 5.674 15.5859C5.66082 15.585 5.64952 15.5793 5.63916 15.5699C5.60996 15.5426 5.58077 15.5153 5.55346 15.4871C5.51203 15.4447 5.47342 15.3996 5.43669 15.3534C5.41221 15.3224 5.38866 15.2904 5.36606 15.2584C5.35476 15.2424 5.34346 15.2254 5.3331 15.2094C5.33216 15.2085 5.33216 15.2066 5.33122 15.2047C5.33122 15.2019 5.33028 15.1991 5.32934 15.1972C5.32463 15.1925 5.31898 15.1887 5.31521 15.1831C5.26436 15.1012 5.21822 15.0174 5.17584 14.9327C5.15512 14.8894 5.13535 14.8471 5.11651 14.8028C5.09768 14.7586 5.07978 14.7144 5.06378 14.6701C5.06189 14.6645 5.06189 14.6588 5.06189 14.6532C5.03364 14.5996 5.01857 14.5412 5.00162 14.4847C4.96207 14.3577 4.931 14.2278 4.90463 14.0979C4.89992 14.0744 4.89521 14.0518 4.89144 14.0292C4.88956 14.0198 4.88862 14.0113 4.88673 14.0019C4.88485 13.9906 4.88203 13.9793 4.88014 13.968C4.88014 13.9652 4.88014 13.9624 4.88014 13.9596C4.8792 13.9492 4.87826 13.9398 4.87732 13.9294C4.86037 13.856 4.85283 13.7817 4.84436 13.7083C4.81517 13.4711 4.80481 13.2339 4.80386 12.9958C4.80386 12.9064 4.80481 12.816 4.80763 12.7257C4.80951 12.672 4.8114 12.6193 4.81422 12.5657C5.0101 12.5186 5.20691 12.4781 5.40561 12.4405C5.74369 12.3765 6.08364 12.3247 6.42454 12.2824C6.43019 12.2824 6.43584 12.2805 6.44055 12.2805C6.44714 12.2805 6.45279 12.2786 6.45938 12.2796C6.46315 12.2796 6.46692 12.2796 6.47068 12.2814C6.52436 12.2701 6.57804 12.2645 6.63172 12.2588C6.6562 12.256 6.68068 12.2541 6.70517 12.2513C7.07997 12.2099 7.45477 12.1779 7.83051 12.1553C7.93598 12.1487 8.04145 12.1431 8.14692 12.1384C8.41625 12.1252 8.68652 12.1167 8.95584 12.112C9.10369 12.1092 9.25154 12.1073 9.39845 12.1073C9.60939 12.1073 9.81939 12.1101 10.0303 12.1148C9.98513 12.1911 9.93804 12.2664 9.89096 12.3417C9.85706 12.3963 9.82221 12.4508 9.78737 12.5054C9.72428 12.6024 9.66024 12.6974 9.59526 12.7925C9.47472 12.9676 9.34854 13.1398 9.21858 13.3083C9.17715 13.3619 9.13571 13.4146 9.09333 13.4673C9.0858 13.4767 9.07827 13.4861 9.07073 13.4946C9.00952 13.5708 8.94643 13.6461 8.88239 13.7196C8.77598 13.8428 8.66674 13.9633 8.55374 14.081C8.51984 14.1167 8.48499 14.1525 8.45015 14.1873C8.36069 14.2777 8.2684 14.3652 8.17517 14.4518C8.20436 14.4527 8.23262 14.4546 8.26181 14.4556C8.23262 14.4546 8.20436 14.4527 8.17517 14.4518C8.1601 14.4659 8.14504 14.48 8.12903 14.4941V14.4923ZM8.63001 14.4687C8.73925 14.4725 8.84849 14.4753 8.95773 14.4772C8.84849 14.4753 8.73925 14.4725 8.63001 14.4687ZM15.8378 13.3083C15.8378 13.3083 15.8303 13.3158 15.8218 13.3224C15.8115 13.3308 15.8011 13.3384 15.7907 13.3459C15.7804 13.3534 15.7691 13.361 15.7587 13.3685C15.738 13.3826 15.7173 13.3967 15.6966 13.4099L15.689 13.4146C15.6721 13.4259 15.6542 13.4363 15.6363 13.4466C15.6099 13.4626 15.5845 13.4777 15.5572 13.4918C15.3755 13.5925 15.1852 13.6744 14.9903 13.7459C14.8067 13.8137 14.6202 13.872 14.4328 13.9247C14.1635 14 13.8904 14.0621 13.6163 14.1167C13.3489 14.1704 13.0815 14.2156 12.8121 14.2551C12.5428 14.2946 12.2725 14.3266 12.0023 14.3548C11.9137 14.3643 11.8252 14.3727 11.7358 14.3812C11.5578 14.3972 11.3798 14.4113 11.2018 14.4236C11.1124 14.4292 11.0238 14.4348 10.9344 14.4405C10.7347 14.4518 10.5351 14.4603 10.3354 14.4668C10.2997 14.4678 10.2629 14.4697 10.2262 14.4706C10.1932 14.4716 10.1593 14.4725 10.1264 14.4734C10.2083 14.3727 10.2902 14.272 10.3646 14.1657C10.375 14.1525 10.3863 14.1393 10.3967 14.1252C10.5567 13.9097 10.7102 13.6904 10.8581 13.4664C10.8666 13.4541 10.9071 13.3911 10.9193 13.3723C11.0125 13.2283 11.1039 13.0824 11.1924 12.9346C11.3374 12.6927 11.4749 12.4471 11.6067 12.1986C11.8572 12.2203 12.1077 12.2457 12.3582 12.2767C12.3771 12.2786 12.395 12.2824 12.4138 12.2852C12.5259 12.2937 12.637 12.3106 12.7472 12.3266C12.8893 12.3473 13.0315 12.3699 13.1737 12.3944C13.3649 12.4264 13.5561 12.4621 13.7463 12.5036C13.8489 12.5261 13.9516 12.5487 14.0542 12.5713C14.0552 12.5713 14.0561 12.5713 14.058 12.5713C14.0589 12.5713 14.0599 12.5713 14.0608 12.5713C14.0674 12.5723 14.075 12.5723 14.0815 12.5732C14.091 12.5732 14.0994 12.576 14.106 12.5845C14.3255 12.641 14.5439 12.6993 14.7586 12.7708C14.7784 12.7774 14.801 12.7793 14.8161 12.7963C14.8716 12.8057 14.9234 12.8292 14.9752 12.849C15.0214 12.8659 15.0675 12.8838 15.1137 12.9017C15.2436 12.9534 15.3717 13.0108 15.496 13.0758C15.545 13.1012 15.593 13.1285 15.6401 13.1577C15.7032 13.1963 15.7644 13.2358 15.8218 13.2819C15.8388 13.2951 15.8435 13.3007 15.8369 13.3083H15.8378Z" fill="#007FFF"/>
<path d="M17.2052 9.73682C17.1995 9.61823 17.1543 9.51376 17.0856 9.41871C16.9886 9.28318 16.8633 9.17776 16.7268 9.08459C16.4951 8.92647 16.2418 8.80976 15.9829 8.70529C15.8388 8.64788 15.6919 8.59518 15.545 8.54812C15.3199 8.47565 15.092 8.41353 14.8622 8.358C14.575 8.28741 14.2868 8.22624 13.9959 8.17353C13.8188 8.14153 13.6418 8.11047 13.4638 8.08412C13.4581 8.08412 13.4534 8.08412 13.4478 8.08318C13.445 8.08318 13.4412 8.08318 13.4384 8.08318C13.4318 8.08318 13.4252 8.08223 13.4186 8.08129C13.4035 8.07941 13.3885 8.07659 13.3734 8.07282C13.3207 8.06435 13.2679 8.05588 13.2152 8.04741C13.1841 8.04365 13.154 8.03894 13.1229 8.03423C13.1107 8.03235 13.0994 8.03047 13.0871 8.02953C12.9647 8.01447 12.8413 8.00035 12.7189 7.98435C12.6831 7.97965 12.6473 7.97682 12.6115 7.97306C12.5758 7.96929 12.54 7.96553 12.5051 7.958C12.2669 7.93635 12.0296 7.91188 11.7913 7.89212C11.7584 7.88929 11.7245 7.88647 11.6915 7.88459C11.4862 7.86859 11.2809 7.85447 11.0756 7.84412C10.9767 7.83941 10.8779 7.83471 10.779 7.82906C10.7037 7.82529 10.6293 7.82153 10.5539 7.81871C10.3825 7.81212 10.2111 7.80835 10.0398 7.80459C9.97571 7.80365 9.91168 7.80176 9.84858 7.80082C9.74123 7.79894 9.84858 7.80082 9.84858 7.80082C9.84858 7.80082 9.9663 7.32835 10.0134 7.08929C10.0492 6.91047 10.0802 6.73071 10.1076 6.55C10.1254 6.42953 10.1415 6.30812 10.1546 6.18671C10.1688 6.05965 10.1801 5.93259 10.1885 5.80459C10.197 5.66812 10.2027 5.53165 10.2055 5.39518C10.2083 5.21259 10.2027 5.03 10.1895 4.84741C10.181 4.72694 10.1688 4.60741 10.1537 4.48694C10.133 4.32318 10.1028 4.16035 10.0642 4.00035C10.0332 3.87141 9.99737 3.74435 9.95029 3.62012C9.94746 3.62012 9.94558 3.62012 9.94276 3.62012C9.93993 3.62012 9.93805 3.62012 9.93522 3.622C9.92769 3.62482 9.92015 3.62859 9.91262 3.63141C9.7045 3.71894 9.50769 3.82718 9.31746 3.94765C9.3071 3.95423 9.29486 3.95988 9.29015 3.974C9.33536 4.262 9.35701 4.55094 9.35984 4.84271C9.36361 5.25965 9.33253 5.67376 9.27603 6.086C9.23271 6.39659 9.17621 6.70529 9.10652 7.01023C9.04625 7.27565 8.97657 7.53823 8.89935 7.79894C8.71195 7.80082 8.52549 7.80647 8.33809 7.81306C8.08948 7.82153 7.84087 7.83282 7.59226 7.84882C7.37284 7.86294 7.15342 7.87706 6.93495 7.89588C6.65055 7.92035 6.36616 7.94859 6.08365 7.98341C6.01584 8.12365 5.94992 8.26576 5.88683 8.40882C5.79266 8.62153 5.7032 8.83706 5.61938 9.05353C5.62315 9.05353 5.62692 9.05259 5.63069 9.05165C5.96122 9.00459 6.2927 8.966 6.62607 8.93306C6.72118 8.92365 6.81629 8.91235 6.91235 8.90388C7.14777 8.88412 7.38508 8.87094 7.62145 8.85588C7.92845 8.83612 8.23638 8.82388 8.54432 8.81447C8.54809 8.81447 8.55186 8.81447 8.55562 8.81447C8.81836 8.80694 9.08015 8.80318 9.34289 8.80318C9.40881 8.80318 9.47473 8.80318 9.54065 8.80318C9.69038 8.80318 9.84011 8.80506 9.98984 8.80788C10.1593 8.81071 10.3298 8.81729 10.4993 8.82294C10.5002 8.82294 10.5021 8.82294 10.504 8.82294C10.6669 8.82859 10.8289 8.83424 10.9918 8.84271C11.1171 8.84835 11.2423 8.85776 11.3666 8.86718C11.393 8.86906 11.4203 8.87094 11.4467 8.87282C11.6341 8.886 11.8215 8.90012 12.0079 8.91424C12.0541 8.918 12.0993 8.92459 12.1454 8.92835C12.3931 8.95 12.6407 8.97823 12.8875 9.00929C12.9976 9.02341 13.1078 9.03753 13.218 9.05259C13.4506 9.08459 13.6823 9.12318 13.9139 9.16365C14.1362 9.20223 14.3584 9.24647 14.5788 9.29635C14.7728 9.34059 14.9649 9.38859 15.157 9.44035C15.4084 9.50812 15.6551 9.58812 15.899 9.67847C16.11 9.75659 16.3134 9.84882 16.5102 9.95706C16.6458 10.0314 16.7748 10.1152 16.8925 10.2159C16.999 10.3081 17.0922 10.4107 17.1543 10.5387C17.1788 10.5895 17.1901 10.6451 17.2071 10.6987C17.2071 10.5924 17.209 10.486 17.209 10.3796C17.209 10.2215 17.209 10.0634 17.209 9.90529C17.209 9.84788 17.2108 9.79047 17.209 9.73306L17.2052 9.73682Z" fill="#FF1100"/>
<path d="M10.9476 2.1806C10.9099 2.16836 10.8703 2.15989 10.8336 2.14201C10.8336 2.13731 10.8336 2.13166 10.8346 2.12695C10.8798 2.14107 10.9231 2.15989 10.9636 2.18625C10.9579 2.18436 10.9532 2.18248 10.9476 2.1806V2.1806Z" fill="#404A5A"/>
<path d="M10.8148 2.13379C10.8148 2.13379 10.8176 2.13567 10.8195 2.13661H10.8186C10.8186 2.13661 10.812 2.13755 10.8091 2.13379C10.811 2.13379 10.8129 2.13379 10.8148 2.13379Z" fill="#404A5A"/>
<path d="M6.20608 5.01465C6.20608 5.01465 6.20514 5.01841 6.20326 5.0203H6.20231C6.20231 5.0203 6.19949 5.02312 6.19855 5.02312V5.02124C6.19855 5.02124 6.20043 5.01653 6.20231 5.01559C6.20231 5.01559 6.2042 5.01559 6.20514 5.01465H6.20608Z" fill="#404A5A"/>
<path d="M6.41043 4.75526C6.41043 4.75526 6.40666 4.75902 6.40478 4.75996C6.40289 4.76185 6.39913 4.76279 6.3963 4.76373C6.3963 4.76185 6.3963 4.76091 6.3963 4.75902C6.3963 4.75808 6.3963 4.7562 6.3963 4.75526C6.3963 4.75526 6.39818 4.75055 6.40007 4.74867C6.40195 4.74679 6.40383 4.7449 6.40572 4.74302C6.4076 4.74114 6.41043 4.7402 6.41325 4.73926C6.41325 4.74302 6.41325 4.74585 6.41325 4.74867C6.41325 4.75055 6.41231 4.75243 6.41043 4.75432V4.7562V4.75526Z" fill="#404A5A"/>
<path d="M6.4886 4.65011H6.48577L6.48389 4.65199C6.48389 4.65199 6.4886 4.6454 6.49142 4.64258C6.49142 4.64258 6.49142 4.64446 6.49142 4.6454C6.49142 4.64823 6.49048 4.64917 6.4886 4.65105V4.65011Z" fill="#215CB5"/>
<path d="M6.5281 4.5896C6.5281 4.5896 6.52999 4.58489 6.53187 4.58395C6.53281 4.58395 6.53375 4.58395 6.53469 4.58301C6.53469 4.58395 6.53469 4.58489 6.53375 4.58583C6.53375 4.58677 6.53375 4.58771 6.53281 4.58866C6.53281 4.58866 6.53187 4.5896 6.53093 4.59054C6.53093 4.59054 6.52904 4.59148 6.52716 4.59242C6.52716 4.59242 6.52716 4.59054 6.52716 4.5896H6.5281Z" fill="#215CB5"/>
<path d="M10.0473 1.78273C10.0567 1.77896 10.0633 1.78273 10.068 1.79026C10.0595 1.79214 10.0511 1.79402 10.0473 1.78273Z" fill="#FEC35E"/>
<path d="M7.69775 3.34151C7.69775 3.34151 7.7034 3.33681 7.70623 3.33398C7.70623 3.33398 7.70623 3.33493 7.70623 3.33587C7.70623 3.33775 7.70529 3.33869 7.70435 3.34057C7.70435 3.34057 7.70152 3.34245 7.6987 3.34151H7.69775Z" fill="#404A5A"/>
<path d="M7.75614 3.2831C7.75614 3.2831 7.76179 3.28121 7.76556 3.28027C7.76556 3.28498 7.76461 3.28686 7.76273 3.28874C7.75991 3.29063 7.75426 3.28874 7.75049 3.28969C7.75237 3.28686 7.75426 3.28498 7.75708 3.2831H7.75614Z" fill="#404A5A"/>
<path d="M7.79284 3.25865C7.79284 3.25865 7.7919 3.26241 7.79001 3.26429C7.79001 3.26429 7.79001 3.26429 7.78813 3.26429C7.78719 3.26429 7.78625 3.26429 7.78436 3.26429C7.78719 3.26147 7.79001 3.25771 7.7919 3.25488C7.7919 3.25488 7.7919 3.25677 7.7919 3.25771L7.79284 3.25865Z" fill="#404A5A"/>
<path d="M8.28442 2.86998C8.28442 2.86998 8.28347 2.87186 8.28253 2.8728C8.28159 2.87374 8.27877 2.87468 8.27594 2.87468C8.27877 2.87186 8.28159 2.86903 8.28442 2.86621C8.28442 2.86715 8.28442 2.86903 8.28442 2.86998V2.86998Z" fill="#404A5A"/>
<path d="M8.27597 2.875V2.87688C8.27597 2.87688 8.27502 2.87971 8.27408 2.88065C8.27314 2.88159 8.2722 2.88065 8.27032 2.88065C8.27032 2.88065 8.26937 2.88065 8.26843 2.88065C8.27126 2.87876 8.27408 2.87782 8.27691 2.87594L8.27597 2.875Z" fill="#404A5A"/>
<path d="M10.8317 2.12349C10.5869 2.01431 10.3411 1.90608 10.0962 1.79596C10.0868 1.79125 10.0765 1.79596 10.068 1.78937C10.0595 1.79125 10.051 1.79313 10.0473 1.78184C10.0369 1.78655 10.0275 1.78184 10.0181 1.77902C9.80336 1.71408 9.58395 1.69431 9.36076 1.70655C9.06507 1.72161 8.78067 1.79408 8.50569 1.90043C8.41906 1.93337 8.3343 1.97008 8.25049 2.00961C8.22977 2.01996 8.20906 2.02937 8.18834 2.03972C8.16385 2.05196 8.14031 2.06419 8.11583 2.07643C8.08381 2.09243 8.05179 2.10937 8.01977 2.12725C7.85215 2.21855 7.69112 2.32019 7.53385 2.42937C7.50089 2.45196 7.46888 2.47549 7.43592 2.49808L7.41708 2.51219C7.33986 2.56866 7.26453 2.62608 7.18919 2.68537C7.00273 2.83313 6.82381 2.99125 6.65147 3.15596C6.1712 3.61431 5.74461 4.11972 5.3538 4.65619C5.34345 4.67031 5.33403 4.68443 5.32367 4.69855C5.32367 4.69855 5.32367 4.70231 5.32179 4.70325C5.32085 4.70419 5.31896 4.70514 5.31708 4.70514C5.28223 4.75502 5.24739 4.8049 5.21255 4.85478C5.15416 4.93761 5.09672 5.02137 5.04022 5.10608C4.98654 5.18608 4.9338 5.26796 4.88107 5.3489C4.83963 5.41384 4.79914 5.47878 4.75865 5.54372C4.72286 5.60208 4.68708 5.66043 4.65223 5.71878C4.60232 5.80161 4.55335 5.88537 4.50533 5.96913C4.48084 6.01149 4.4573 6.0529 4.43376 6.09525C4.43093 6.09996 4.42811 6.10466 4.42434 6.10937C4.42434 6.11502 4.42246 6.11972 4.42057 6.12349C4.41869 6.12631 4.41681 6.13008 4.41492 6.1329C4.39232 6.17243 4.37066 6.2129 4.349 6.25243C4.26708 6.40302 4.18609 6.55455 4.10887 6.70702C4.07591 6.77196 4.04389 6.83596 4.01187 6.9009C3.84048 7.25196 3.68134 7.60772 3.53537 7.96914C3.45721 8.16114 3.38376 8.35408 3.31313 8.5489C3.2764 8.65243 3.23968 8.75596 3.20389 8.85949C3.13891 9.05149 3.07959 9.24537 3.0212 9.43925C2.99766 9.51925 2.97411 9.59925 2.95151 9.67925C2.95151 9.68113 2.95057 9.68302 2.94963 9.6849C2.91479 9.81102 2.88183 9.93713 2.85075 10.0642C2.8225 10.1781 2.79519 10.2929 2.76976 10.4077C2.7481 10.5056 2.72833 10.6044 2.70855 10.7033C2.70384 10.7268 2.69914 10.7503 2.69537 10.7738C2.69349 10.7833 2.6916 10.7927 2.68972 10.8021C2.68972 10.8058 2.68878 10.8096 2.68784 10.8124C2.68407 10.8313 2.6803 10.8501 2.67654 10.8689C2.64828 11.0233 2.62286 11.1776 2.6012 11.3329C2.57954 11.4825 2.56071 11.6331 2.54564 11.7837C2.54187 11.8176 2.53905 11.8515 2.53622 11.8844C2.53622 11.8873 2.53622 11.8891 2.53622 11.892C2.5334 11.9174 2.53245 11.9362 2.53057 11.9541C2.52398 12.0378 2.51739 12.1216 2.51268 12.2054C2.50797 12.2891 2.5042 12.3738 2.50138 12.4576C2.50138 12.4689 2.50138 12.4793 2.50044 12.4905C2.49573 12.6524 2.49479 12.8143 2.49949 12.9753C2.5042 13.1277 2.51268 13.2802 2.5268 13.4317C2.54093 13.5833 2.55976 13.7348 2.58613 13.8854C2.59837 13.9588 2.61344 14.0322 2.62851 14.1047C2.68124 14.3503 2.75187 14.5913 2.84887 14.8237C2.85546 14.8397 2.86205 14.8557 2.86958 14.8727C2.87618 14.8887 2.88371 14.9047 2.89124 14.9207C2.90819 14.9583 2.92609 14.996 2.94398 15.0327C2.97506 15.0938 3.00707 15.1541 3.04192 15.2124C3.13703 15.3724 3.24909 15.5221 3.38187 15.6567C3.41672 15.6924 3.4525 15.7263 3.49017 15.7583C3.55986 15.8195 3.63425 15.875 3.71335 15.9249C3.72842 15.9343 3.74537 15.94 3.75667 15.9541C3.75856 15.956 3.7595 15.9588 3.76044 15.9607C3.76797 15.9588 3.77362 15.9607 3.77551 15.9682C3.80658 15.9757 3.83107 15.9964 3.85932 16.0087C4.00999 16.0755 4.16066 16.1423 4.31039 16.2091C4.39609 16.2468 4.48273 16.2844 4.56842 16.3221L4.57972 16.3127C4.55147 16.2957 4.52322 16.2788 4.49591 16.2609C4.46766 16.2411 4.44035 16.2214 4.41398 16.2007C4.18986 16.0265 4.01376 15.8091 3.86968 15.5625C3.7821 15.4129 3.71053 15.2557 3.64932 15.0938C3.64743 15.0901 3.64649 15.0863 3.64461 15.0825C3.56268 14.8642 3.50241 14.6393 3.45721 14.4105C3.43272 14.2882 3.41389 14.1649 3.39694 14.0407C3.396 14.0322 3.39411 14.0228 3.39317 14.0143C3.3847 13.9531 3.37811 13.892 3.37151 13.8308C3.3621 13.7404 3.35456 13.651 3.34985 13.5607C3.34891 13.5381 3.34703 13.5164 3.34609 13.4938C3.34609 13.4882 3.34609 13.4825 3.34609 13.4769C3.34138 13.3517 3.33667 13.2275 3.33761 13.1023C3.33761 13.0957 3.33761 13.0882 3.33761 13.0816C3.33761 13.059 3.33761 13.0374 3.33761 13.0148C3.34044 12.9169 3.34326 12.819 3.34703 12.7211C3.34891 12.6722 3.35174 12.6233 3.35456 12.5743C3.35739 12.5254 3.36021 12.4764 3.36398 12.4275C3.37716 12.2571 3.39411 12.0868 3.41483 11.9164C3.42237 11.8543 3.43084 11.7931 3.43932 11.731C3.44873 11.6623 3.45909 11.5936 3.47039 11.5249C3.47887 11.4703 3.48829 11.4167 3.49676 11.363C3.50712 11.3018 3.51842 11.2407 3.52972 11.1795C3.54385 11.1023 3.55986 11.0251 3.57492 10.948C3.59281 10.8604 3.61165 10.772 3.63142 10.6844C3.64932 10.6063 3.66815 10.5291 3.68699 10.451C3.7077 10.3654 3.7303 10.2797 3.7529 10.1941C3.75855 10.1743 3.76421 10.1545 3.7708 10.1348C3.77645 10.115 3.78304 10.0953 3.78775 10.0755C3.79811 10.0341 3.80658 9.99172 3.82165 9.95125C3.82542 9.94655 3.83012 9.94278 3.83107 9.93713C3.84331 9.83925 3.87815 9.74796 3.90829 9.65478C3.92147 9.61337 3.93465 9.57196 3.94784 9.53055C3.96573 9.47219 3.98362 9.41478 4.00152 9.35643C4.01658 9.30843 4.03165 9.26137 4.04766 9.21431C4.05425 9.19549 4.0599 9.17666 4.06649 9.15878C4.07497 9.13525 4.08344 9.11078 4.09192 9.08725C4.1277 8.98843 4.16255 8.88866 4.19833 8.78984C4.2134 8.74937 4.22847 8.70796 4.24448 8.66749C4.29721 8.52819 4.35183 8.38984 4.40833 8.25243C4.42434 8.2129 4.44035 8.17431 4.4573 8.13572C4.47048 8.10466 4.48367 8.07361 4.49685 8.04255C4.52887 7.96913 4.56089 7.89572 4.59291 7.82231C4.61833 7.7649 4.64376 7.70749 4.67013 7.65008C4.6899 7.60584 4.70968 7.56255 4.7304 7.51925C4.78501 7.40255 4.84058 7.28584 4.89802 7.17102C4.90838 7.15125 4.91968 7.13149 4.93098 7.11172C4.94228 7.09196 4.95358 7.07313 4.96394 7.05243C5.1325 6.69572 5.33026 6.35408 5.53367 6.01619C5.55156 5.98608 5.5704 5.95596 5.58829 5.92584C5.63067 5.85525 5.67116 5.78372 5.72013 5.71784C5.75026 5.67737 5.77757 5.63502 5.80582 5.59266C5.83313 5.55031 5.86044 5.50796 5.88963 5.46655C5.94708 5.38278 6.00076 5.29713 6.0582 5.21337C6.06573 5.20302 6.07327 5.19172 6.0808 5.18043C6.11941 5.12584 6.15896 5.07125 6.19757 5.01666V5.01478C6.19757 5.01478 6.19946 5.01008 6.20134 5.00913C6.20134 5.00913 6.20322 5.00913 6.20416 5.00819C6.25973 4.9329 6.31623 4.85761 6.37273 4.78231C6.37556 4.77855 6.37838 4.77572 6.38121 4.7729C6.38215 4.77196 6.38403 4.77008 6.38497 4.76913C6.38874 4.76537 6.39156 4.76161 6.39533 4.75784C6.39533 4.75596 6.39533 4.75502 6.39533 4.75313C6.39533 4.75219 6.39533 4.75031 6.39533 4.74937C6.39533 4.74937 6.39721 4.74466 6.3991 4.74278C6.40098 4.7409 6.40286 4.73902 6.40475 4.73713C6.40663 4.73525 6.40946 4.73431 6.41228 4.73337C6.41322 4.73243 6.41511 4.73055 6.41605 4.72866C6.43771 4.70137 6.46031 4.67408 6.48197 4.64678C6.48479 4.64396 6.48668 4.64019 6.4895 4.63737C6.4895 4.63549 6.49044 4.63361 6.49138 4.63172C6.49138 4.62984 6.49327 4.6289 6.49327 4.62702C6.49515 4.62419 6.49798 4.62137 6.5008 4.61855C6.5008 4.61855 6.50174 4.61761 6.50269 4.61666C6.5121 4.60819 6.52434 4.60066 6.52623 4.58655C6.52623 4.58655 6.52623 4.58466 6.52623 4.58372C6.52623 4.5809 6.52811 4.57902 6.52999 4.57808C6.53094 4.57808 6.53188 4.57808 6.53282 4.57714C6.53941 4.57243 6.54506 4.56678 6.55071 4.56113C6.55165 4.56019 6.5526 4.55831 6.55448 4.55737C6.55825 4.55266 6.56201 4.54796 6.56484 4.54325C6.56955 4.53666 6.57426 4.53008 6.57802 4.52349C6.58179 4.51878 6.58461 4.51314 6.58838 4.50843C6.59121 4.50466 6.59309 4.50184 6.59591 4.49808C6.61286 4.47737 6.62982 4.45666 6.64677 4.43596C6.76542 4.29102 6.88784 4.1489 7.01403 4.01055C7.11291 3.90137 7.21461 3.79596 7.3182 3.69149C7.33609 3.67361 7.35399 3.65478 7.37188 3.6369C7.40578 3.60302 7.44062 3.57196 7.47547 3.53996C7.48959 3.52772 7.50278 3.51455 7.5169 3.50137C7.51973 3.49855 7.52255 3.49572 7.52538 3.4929C7.5687 3.45149 7.61296 3.41008 7.65628 3.36866C7.65628 3.36866 7.65816 3.36678 7.6591 3.36584C7.6704 3.35549 7.68358 3.34608 7.69583 3.33666C7.69865 3.33384 7.70148 3.33196 7.7043 3.32913C7.7043 3.32913 7.70619 3.32725 7.70713 3.32631C7.72031 3.31219 7.73444 3.29902 7.74762 3.2849C7.7495 3.28208 7.75139 3.28019 7.75421 3.27831C7.75704 3.27643 7.75986 3.27643 7.76363 3.27549C7.7674 3.27549 7.77116 3.27361 7.77399 3.27078C7.77587 3.2689 7.77775 3.26702 7.77964 3.26513C7.78152 3.26325 7.78246 3.26137 7.78341 3.25949C7.78623 3.25666 7.78906 3.2529 7.79094 3.25008C7.82578 3.21902 7.86157 3.18796 7.89735 3.15784C7.903 3.15313 7.90771 3.14843 7.91336 3.14372C7.9482 3.11455 7.98305 3.08537 8.01883 3.05713C8.09888 2.99313 8.18081 2.93102 8.26462 2.87266C8.26744 2.87078 8.27027 2.86984 8.27309 2.86796C8.27309 2.86796 8.27874 2.86137 8.28157 2.85855C8.3004 2.84443 8.31924 2.83031 8.33901 2.81713C8.37762 2.78984 8.41623 2.76255 8.45484 2.73619C8.47462 2.72302 8.49439 2.70984 8.51323 2.69761C8.533 2.68443 8.55278 2.67219 8.57255 2.65996C8.63282 2.62231 8.69309 2.58561 8.7543 2.55078C8.82117 2.51219 8.88897 2.47455 8.95771 2.43972C9.16395 2.33337 9.37677 2.24396 9.59996 2.17808C9.61691 2.17337 9.63386 2.16866 9.65081 2.16302C9.76946 2.13008 9.88906 2.10466 10.0105 2.08772C10.0793 2.07831 10.149 2.07172 10.2187 2.0689C10.2714 2.06608 10.3241 2.06608 10.3769 2.06702C10.3948 2.06702 10.4117 2.06796 10.4296 2.0689C10.4823 2.07172 10.5351 2.07737 10.5878 2.0849C10.6603 2.09525 10.7328 2.10843 10.8044 2.12725C10.8063 2.12725 10.8082 2.12725 10.81 2.12725C10.8119 2.12725 10.8129 2.12913 10.8148 2.13008C10.8166 2.13008 10.8176 2.13102 10.8195 2.13196C10.8223 2.1329 10.8261 2.13384 10.8289 2.13572C10.8289 2.13102 10.8289 2.12537 10.8298 2.12066C10.8289 2.11972 10.8279 2.11878 10.8261 2.11784L10.8317 2.12349Z" fill="#F1ECE2"/>
<path d="M10.0473 1.78304C10.0435 1.76798 10.0294 1.76609 10.0181 1.76139C9.80714 1.66727 9.59526 1.57409 9.38337 1.48092C9.32687 1.45645 9.27225 1.42727 9.21387 1.40751C9.20727 1.41127 9.20068 1.41127 9.19315 1.40845C9.04813 1.36045 8.89745 1.33692 8.7449 1.32751C8.60552 1.31904 8.46615 1.32751 8.32772 1.34633C8.21377 1.36233 8.10171 1.38586 7.99059 1.41504C7.77494 1.47245 7.56776 1.55151 7.36812 1.65033C7.2909 1.68798 7.21651 1.73127 7.14117 1.77174C7.11575 1.78492 7.08938 1.79715 7.06489 1.81127C6.84736 1.94021 6.63736 2.07951 6.43772 2.2348C6.38781 2.27339 6.33601 2.31104 6.28987 2.35339C6.25973 2.38068 6.23054 2.40798 6.19758 2.43151C6.19099 2.43621 6.18534 2.43998 6.17781 2.44468C6.17216 2.44939 6.16651 2.45409 6.1618 2.4588C6.15991 2.46633 6.15709 2.47198 6.15332 2.47574C6.15144 2.47762 6.14861 2.47857 6.14579 2.47951C6.14391 2.47951 6.14296 2.47951 6.14108 2.47951H6.14014C6.14014 2.47951 6.13731 2.47951 6.13543 2.47857C6.13355 2.47857 6.1326 2.48045 6.13166 2.48139C6.11471 2.49362 6.10435 2.51527 6.08929 2.52751C6.08646 2.52939 6.08458 2.53127 6.08175 2.53221C6.04032 2.55386 6.01489 2.59339 5.97816 2.61974C5.94238 2.64515 5.91319 2.67998 5.88023 2.71009C5.71825 2.8588 5.56476 3.01692 5.41314 3.17692C5.367 3.22586 5.32462 3.27857 5.28036 3.32939C5.25493 3.35857 5.22574 3.38398 5.20032 3.41315C5.13157 3.49221 5.06471 3.57221 4.99691 3.65221C4.947 3.71151 4.89897 3.77174 4.85377 3.8348C4.81798 3.88468 4.77561 3.92892 4.73794 3.97786C4.62211 4.12562 4.51287 4.27809 4.40363 4.43057C4.29534 4.58115 4.19646 4.73645 4.09381 4.8908C4.00152 5.02915 3.91677 5.17221 3.82919 5.31339C3.79717 5.36609 3.76798 5.42068 3.73596 5.47245C3.67946 5.5628 3.62767 5.65504 3.5787 5.74915C3.54762 5.78586 3.52973 5.83009 3.50619 5.87151C3.45722 5.95715 3.41108 6.04468 3.3687 6.1341C3.35551 6.16233 3.33574 6.18774 3.32161 6.21598C3.28206 6.29598 3.24251 6.37598 3.20202 6.45504C3.09937 6.65362 3.00897 6.8588 2.91574 7.0621C2.81403 7.28233 2.72457 7.50727 2.63511 7.73315C2.57484 7.88562 2.51363 8.03904 2.4656 8.19621C2.45807 8.22162 2.443 8.24515 2.43358 8.27057C2.38744 8.40609 2.34036 8.54162 2.2961 8.67809C2.25466 8.80327 2.21605 8.92939 2.17932 9.05645C2.14354 9.17786 2.10964 9.30021 2.07668 9.42257C2.01264 9.65974 1.95426 9.8988 1.90435 10.1388C1.89116 10.2028 1.87892 10.2668 1.86574 10.3308C1.82336 10.5482 1.78569 10.7675 1.75461 10.9868C1.72542 11.1957 1.70188 11.4056 1.68305 11.6155C1.68116 11.6353 1.68022 11.6541 1.67834 11.6739C1.67834 11.6917 1.67834 11.7096 1.67834 11.7275C1.67834 11.7096 1.67834 11.6917 1.67834 11.6739C1.66892 11.7887 1.66233 11.9044 1.65762 12.0202C1.65197 12.1529 1.65103 12.2847 1.65009 12.4174C1.65009 12.4804 1.65668 12.5435 1.65574 12.6066C1.65574 12.7035 1.66327 12.7995 1.66892 12.8955C1.6708 12.9313 1.67269 12.9661 1.67645 13.0019C1.67645 13.0084 1.67739 13.0141 1.67834 13.0207C1.68964 13.1129 1.69717 13.2061 1.71035 13.2983C1.7226 13.3877 1.73484 13.4772 1.75179 13.5666C1.77533 13.6899 1.79793 13.8141 1.83654 13.9346C1.84879 13.9722 1.85538 14.0117 1.86574 14.0503C1.88834 14.135 1.91565 14.2179 1.94578 14.2997C1.9891 14.4174 2.03807 14.5322 2.09269 14.6452C2.17556 14.8183 2.2782 14.9802 2.39874 15.1299C2.51269 15.272 2.64264 15.3972 2.79237 15.5026C2.79897 15.5063 2.80462 15.511 2.81121 15.5148C2.82157 15.5223 2.83287 15.5289 2.84417 15.5355C2.84982 15.5393 2.85641 15.543 2.863 15.5468C2.88372 15.56 2.90444 15.5732 2.92421 15.5873C2.92986 15.5929 2.93646 15.5967 2.94211 15.6014C2.94211 15.6023 2.94305 15.6033 2.94399 15.6042C2.94776 15.6089 2.95435 15.6099 2.96 15.6117C3.21708 15.7256 3.47511 15.8395 3.73314 15.9534C3.7435 15.9581 3.75291 15.9647 3.7661 15.9619C3.76516 15.959 3.76327 15.9572 3.76233 15.9553C3.75103 15.9412 3.73408 15.9355 3.71901 15.9261C3.63991 15.8762 3.56551 15.8197 3.49583 15.7595C3.45816 15.7275 3.42238 15.6936 3.38753 15.6579C3.25475 15.5233 3.14269 15.3736 3.04758 15.2136C3.01273 15.1553 2.97977 15.095 2.94964 15.0339C2.93081 14.9972 2.91385 14.9604 2.89596 14.9228C2.88843 14.9068 2.88184 14.8908 2.8743 14.8748C2.86771 14.8588 2.86018 14.8428 2.85359 14.8259C2.75659 14.5934 2.68596 14.3524 2.63323 14.1068C2.61722 14.0343 2.60309 13.9609 2.59085 13.8875C2.56448 13.7369 2.54565 13.5854 2.53152 13.4339C2.5174 13.2823 2.50892 13.1299 2.50421 12.9774C2.4995 12.8155 2.50045 12.6536 2.50515 12.4927C2.50515 12.4814 2.50515 12.471 2.5061 12.4597C2.50892 12.376 2.51269 12.2913 2.5174 12.2075C2.52211 12.1237 2.5287 12.04 2.53529 11.9562C2.53717 11.9383 2.53906 11.9195 2.54094 11.8941C2.54094 11.8913 2.54094 11.8894 2.54094 11.8866C2.54376 11.8527 2.54753 11.8188 2.55036 11.7859C2.56637 11.6353 2.5852 11.4856 2.60592 11.335C2.62852 11.1797 2.653 11.0254 2.68125 10.871C2.68502 10.8522 2.68879 10.8334 2.69255 10.8146C2.69255 10.8108 2.6935 10.807 2.69444 10.8042C2.69632 10.7948 2.6982 10.7854 2.70009 10.776C2.7048 10.7524 2.70856 10.7289 2.71327 10.7054C2.73305 10.6066 2.75282 10.5087 2.77448 10.4099C2.79991 10.295 2.82722 10.1802 2.85547 10.0663C2.88654 9.93927 2.9195 9.81315 2.95435 9.68704C2.95435 9.68515 2.95435 9.68327 2.95623 9.68139C2.97883 9.60139 3.00143 9.52139 3.02592 9.44139C3.0843 9.24657 3.14363 9.05362 3.20861 8.86162C3.24345 8.75809 3.28018 8.65457 3.31785 8.55104C3.38847 8.35621 3.46193 8.16327 3.54009 7.97127C3.68605 7.60986 3.8452 7.25409 4.01659 6.90304C4.04861 6.83809 4.08063 6.77315 4.11359 6.70915C4.19081 6.55668 4.27085 6.40515 4.35372 6.25457C4.37538 6.21409 4.39798 6.17457 4.41964 6.13504C4.42153 6.13221 4.42341 6.12845 4.42529 6.12562C4.42812 6.12092 4.43 6.11715 4.42906 6.11151C4.43188 6.1068 4.43565 6.10209 4.43848 6.09739C4.46202 6.05504 4.4865 6.01362 4.51005 5.97127C4.55807 5.88751 4.60704 5.80374 4.65695 5.72092C4.69179 5.66257 4.72758 5.60421 4.76336 5.54586C4.80386 5.48092 4.84435 5.41598 4.88579 5.35104C4.93758 5.26915 4.99126 5.18821 5.04493 5.10821C5.10144 5.02351 5.15888 4.94068 5.21727 4.85692C5.25211 4.80704 5.28695 4.75715 5.3218 4.70727C5.3218 4.70633 5.3218 4.70539 5.3218 4.70445C5.3218 4.70445 5.3218 4.70351 5.32274 4.70257C5.32368 4.70162 5.32556 4.70068 5.32745 4.70068C5.3378 4.68657 5.34722 4.67245 5.35758 4.65833C5.74839 4.12186 6.17498 3.61645 6.65525 3.15809C6.82758 2.99339 7.00651 2.83527 7.19296 2.68751C7.26736 2.62821 7.34364 2.5708 7.42086 2.51433L7.43969 2.50021C7.47171 2.47668 7.50467 2.45409 7.53763 2.43151C7.69489 2.32233 7.85687 2.22068 8.02355 2.12939C8.05557 2.11245 8.08759 2.09551 8.1196 2.07857C8.14409 2.06633 8.16763 2.05409 8.19212 2.04186C8.21283 2.03151 8.23355 2.02209 8.25427 2.01174C8.33808 1.97221 8.42283 1.93551 8.50947 1.90257C8.78539 1.79621 9.06884 1.72374 9.36454 1.70868C9.58772 1.69645 9.80714 1.71621 10.0218 1.78115C10.0313 1.78398 10.0407 1.78868 10.051 1.78398L10.0473 1.78304ZM1.67269 12.7308C1.67269 12.7308 1.67269 12.7402 1.67269 12.7449C1.67269 12.7402 1.67269 12.7355 1.67269 12.7308Z" fill="#FDBF41"/>
<path d="M5.31707 4.7011C5.31707 4.7011 5.31989 4.69922 5.32178 4.69922C5.32178 4.7011 5.32178 4.70298 5.31989 4.70392C5.31895 4.70487 5.31707 4.70581 5.31519 4.70581C5.31519 4.70487 5.31519 4.70392 5.31519 4.70298C5.31519 4.70298 5.31519 4.70204 5.31613 4.7011H5.31707Z" fill="#C18B00"/>
<path d="M6.13923 2.46463C6.13923 2.46463 6.14582 2.45898 6.15053 2.45898C6.15336 2.45898 6.15712 2.45898 6.16089 2.45993C6.15901 2.46745 6.15618 2.4731 6.15241 2.47687C6.15053 2.47875 6.14771 2.47969 6.14488 2.48063C6.143 2.48063 6.14206 2.48063 6.14017 2.48063H6.13923C6.13923 2.48063 6.1364 2.48063 6.13452 2.47969C6.13546 2.47404 6.13735 2.46934 6.14017 2.46557L6.13923 2.46463Z" fill="#C18B00"/>
<path d="M9.16773 1.3882C8.97656 1.30255 8.78351 1.21973 8.59235 1.1322C8.37387 1.03243 8.14692 0.971255 7.90679 0.959961C7.84652 0.959961 7.78531 0.959961 7.72504 0.959961C7.7015 0.959961 7.67795 0.959961 7.65441 0.959961C7.53387 0.966549 7.41428 0.984432 7.29562 1.00984C6.94625 1.0842 6.62136 1.22067 6.30965 1.39196C5.99607 1.5642 5.70414 1.77031 5.42728 1.9962C5.39149 2.02537 5.35382 2.05173 5.32369 2.08561C5.32086 2.08655 5.31898 2.08843 5.3171 2.09126V2.09408H5.31333C5.3058 2.10067 5.29732 2.10631 5.28979 2.1129C4.98279 2.37549 4.69745 2.66067 4.42813 2.9609C4.10795 3.31855 3.81225 3.69596 3.53633 4.08843C3.12481 4.6729 2.76037 5.28655 2.43642 5.92278C2.21794 6.35196 2.0183 6.78961 1.83844 7.23761C1.65104 7.70443 1.48059 8.1769 1.34216 8.66067C1.32709 8.71431 1.30826 8.76702 1.29225 8.82067C1.17924 9.21973 1.0813 9.62161 1.00503 10.0291C0.940049 10.3745 0.887313 10.7209 0.853412 11.071C0.827986 11.3251 0.811035 11.5793 0.811035 11.8343C0.811035 11.9501 0.811035 12.0658 0.811977 12.1825C0.81386 12.1985 0.81386 12.2145 0.814802 12.2305C0.814802 12.255 0.814802 12.2795 0.81386 12.304C0.814802 12.4451 0.827044 12.5854 0.840228 12.7256C0.862829 12.9543 0.897672 13.1821 0.947582 13.4061C1.01068 13.6875 1.09731 13.9604 1.22162 14.2221C1.3544 14.5016 1.52202 14.7557 1.74897 14.9684C1.88081 15.0927 2.02678 15.1971 2.19063 15.2734C2.3366 15.3421 2.48445 15.4061 2.63135 15.471C2.73211 15.5153 2.83194 15.5633 2.93552 15.6037C2.92987 15.599 2.92328 15.5943 2.91763 15.5896C2.89785 15.5745 2.87714 15.5614 2.85642 15.5482C2.84983 15.5444 2.84418 15.5407 2.83759 15.5369C2.82629 15.5303 2.81593 15.5237 2.80463 15.5162C2.79803 15.5124 2.79238 15.5077 2.78579 15.504C2.63606 15.3985 2.50611 15.2734 2.39216 15.1313C2.27162 14.9816 2.16897 14.8197 2.0861 14.6465C2.03243 14.5336 1.98252 14.4188 1.9392 14.3011C1.9279 14.2908 1.9166 14.2795 1.90624 14.2691C1.91754 14.2804 1.9279 14.2908 1.9392 14.3011C1.90906 14.2193 1.88175 14.1364 1.85915 14.0517C1.84879 14.0131 1.8422 13.9736 1.82996 13.936C1.79135 13.8155 1.76969 13.6913 1.74521 13.568C1.72826 13.4795 1.71601 13.3891 1.70377 13.2997C1.69059 13.2075 1.68305 13.1143 1.67175 13.0221C1.67175 13.0155 1.67081 13.0098 1.66987 13.0033C1.66987 13.1218 1.66987 13.2404 1.66987 13.3581C1.66987 13.2395 1.66987 13.1209 1.66987 13.0033C1.6661 12.9684 1.66516 12.9327 1.66234 12.8969C1.65763 12.8009 1.64915 12.7049 1.64915 12.608C1.64915 12.5449 1.64256 12.4818 1.6435 12.4188C1.64444 12.2861 1.64539 12.1543 1.65104 12.0216C1.65575 11.9058 1.66234 11.791 1.67175 11.6753C1.67364 11.6555 1.67458 11.6367 1.67646 11.6169C1.6953 11.407 1.71884 11.1971 1.74803 10.9882C1.77817 10.768 1.81678 10.5496 1.85915 10.3322C1.8714 10.2682 1.88458 10.2042 1.89776 10.1402C1.94767 9.89926 2.00606 9.66114 2.0701 9.42396C2.10306 9.30161 2.13696 9.17926 2.17274 9.05784C2.20947 8.93078 2.24902 8.80467 2.28951 8.67949C2.33377 8.54302 2.38086 8.40749 2.427 8.27196C2.43548 8.24655 2.45054 8.22302 2.45902 8.19761C2.50799 8.04043 2.56826 7.88702 2.62853 7.73455C2.71799 7.50961 2.80745 7.28373 2.90916 7.06349C3.00238 6.8602 3.09279 6.65502 3.19543 6.45643C3.23593 6.37737 3.27642 6.29737 3.31503 6.21737C3.32916 6.18914 3.34893 6.16467 3.36212 6.13549C3.40449 6.04608 3.45064 5.95855 3.4996 5.8729C3.52315 5.83149 3.54104 5.78726 3.57212 5.75055C3.62108 5.65643 3.67288 5.5642 3.72938 5.47384C3.76234 5.42208 3.79059 5.36655 3.82261 5.31478C3.91019 5.17361 3.99494 5.03055 4.08723 4.8922C4.18988 4.73784 4.28875 4.58255 4.39705 4.43196C4.50629 4.27949 4.61647 4.12702 4.73136 3.97926C4.76902 3.93126 4.8114 3.88702 4.84719 3.8362C4.89239 3.77314 4.93947 3.71196 4.99032 3.65361C5.05813 3.57361 5.12499 3.49361 5.19373 3.41455C5.21916 3.38537 5.24741 3.35996 5.27378 3.33078C5.31804 3.27996 5.36041 3.22726 5.40656 3.17831C5.55817 3.01831 5.71167 2.8602 5.87364 2.71149C5.9066 2.68137 5.9358 2.64749 5.97158 2.62114C6.00831 2.59478 6.03373 2.55526 6.07517 2.53361C6.07799 2.53173 6.08082 2.53078 6.0827 2.5289C6.09871 2.51667 6.10813 2.49502 6.12508 2.48278C6.12602 2.48184 6.12791 2.4809 6.12885 2.47996C6.12979 2.47431 6.13167 2.46961 6.1345 2.46584C6.13732 2.46208 6.14109 2.4602 6.1458 2.4602C6.14862 2.4602 6.15239 2.4602 6.15616 2.46114C6.16181 2.45643 6.16746 2.45173 6.17217 2.44702C6.1797 2.44231 6.18535 2.43761 6.19194 2.43384C6.2249 2.41031 6.25409 2.38302 6.28423 2.35573C6.33131 2.31337 6.38217 2.27573 6.43208 2.23714C6.63172 2.08184 6.84266 1.94255 7.05925 1.81361C7.08374 1.79855 7.1101 1.78726 7.13553 1.77408C7.21087 1.73361 7.28526 1.69031 7.36248 1.65267C7.56212 1.55384 7.7693 1.47478 7.98495 1.41737C8.09607 1.3882 8.20813 1.36467 8.32208 1.34867C8.46051 1.32984 8.59988 1.32231 8.73926 1.32984C8.89087 1.33926 9.04154 1.36278 9.18751 1.41078C9.19504 1.41267 9.20163 1.41361 9.20822 1.40984C9.19598 1.39667 9.17715 1.39667 9.16208 1.38914L9.16773 1.3882Z" fill="#FF1100"/>
<path d="M6.14468 2.40892C6.14468 2.40892 6.14201 2.40714 6.14111 2.40625C6.14201 2.40625 6.14379 2.40803 6.14468 2.40892Z" fill="#FF1100"/>
<path d="M6.11847 2.39258C6.12412 2.3954 6.12883 2.39823 6.13354 2.40105C6.12883 2.39823 6.12318 2.3954 6.11847 2.39258Z" fill="#FF1100"/>
<path d="M7.90678 0.959607H7.72503C7.70149 0.959607 7.67794 0.959607 7.6544 0.959607C7.65346 0.956784 7.65158 0.95396 7.65063 0.950195C7.73727 0.950195 7.82391 0.950195 7.9096 0.950195C7.9096 0.953019 7.90772 0.955842 7.90678 0.959607V0.959607Z" fill="#FEC35E"/>
<path d="M5.31416 2.09439H5.31238V2.09082H5.31595V2.0935H5.31416V2.09439Z" fill="#C18B00"/>
<path opacity="0.48" d="M15.8313 13.3146C15.8557 13.2958 15.8557 13.2939 15.8313 13.2742C15.7738 13.228 15.7126 13.1876 15.6495 13.1499C15.4395 13.0229 15.2154 12.9259 14.9847 12.8412C14.9319 12.8224 14.8811 12.7989 14.8255 12.7885C14.8104 12.7716 14.7878 12.7697 14.7681 12.7631C14.5534 12.6916 14.3349 12.6332 14.1155 12.5768C14.0976 12.5749 14.0797 12.5711 14.0637 12.5626C13.961 12.54 13.8584 12.5175 13.7557 12.4958C13.5655 12.4544 13.3753 12.4186 13.1832 12.3866C13.041 12.3631 12.8988 12.3405 12.7566 12.3198C12.6455 12.3038 12.5343 12.2869 12.4223 12.2784C12.4034 12.2756 12.3856 12.2718 12.3667 12.2699C11.975 12.2219 11.5823 12.1852 11.1877 12.1589C10.9306 12.141 10.6726 12.1278 10.4155 12.1175C10.0784 12.1043 9.74219 12.0986 9.40506 12.0986C8.98694 12.0986 8.56976 12.109 8.15259 12.1288C7.67043 12.1523 7.19016 12.189 6.71084 12.2426C6.63267 12.2511 6.55357 12.2568 6.47541 12.2728C6.4594 12.269 6.44433 12.2728 6.42832 12.2746C6.08648 12.317 5.74653 12.3688 5.40846 12.4328C5.20882 12.4704 5.01012 12.5118 4.81236 12.5589L4.80859 12.5655C4.80859 12.5655 4.75774 13.2996 4.87074 14.0168C5.06568 14.0629 5.26155 14.1043 5.45743 14.141C5.63258 14.1739 5.80868 14.205 5.98572 14.2304C6.23339 14.2662 6.482 14.3019 6.73155 14.3283C6.97357 14.3537 7.21559 14.38 7.45855 14.397C7.60263 14.4073 7.74577 14.4196 7.88985 14.428C8.10268 14.4403 8.3155 14.4506 8.52833 14.4582C8.72232 14.4648 8.91725 14.4704 9.11124 14.4732C9.42201 14.477 9.73277 14.476 10.0445 14.4695C10.3439 14.4629 10.6434 14.4516 10.9419 14.4346C11.2988 14.4149 11.6538 14.3866 12.0098 14.3499C12.5513 14.2935 13.0899 14.2191 13.6239 14.1118C14.09 14.0186 14.5515 13.9048 14.9988 13.74C15.1937 13.6685 15.3839 13.5876 15.5657 13.4859C15.658 13.4351 15.7465 13.3796 15.8303 13.3146H15.8313Z" fill="url(#paint0_linear_400_3121)"/>
<defs>
<linearGradient id="paint0_linear_400_3121" x1="10.3446" y1="12.3741" x2="10.276" y2="14.151" gradientUnits="userSpaceOnUse">
<stop offset="0.16" stop-color="#191919"/>
<stop offset="0.97" stop-color="#191919" stop-opacity="0"/>
</linearGradient>
</defs>
</svg>
