<svg width="21" height="14" fill="none" xmlns="http://www.w3.org/2000/svg"><path d="M4.596 3.267c3.26-3.193 8.547-3.193 11.808 0l.393.384a.403.403 0 0 1 0 .578l-1.343 1.315a.212.212 0 0 1-.295 0l-.54-.53c-2.275-2.226-5.963-2.226-8.238 0l-.578.567a.212.212 0 0 1-.295 0L4.165 4.267a.403.403 0 0 1 0-.578l.43-.422ZM19.18 5.985l1.195 1.17a.403.403 0 0 1 0 .578l-5.387 5.275a.424.424 0 0 1-.59 0l-3.824-3.744a.106.106 0 0 0-.148 0l-3.823 3.744a.424.424 0 0 1-.59 0L.624 7.733a.403.403 0 0 1 0-.578l1.194-1.17a.424.424 0 0 1 .59 0L6.235 9.73c.04.04.106.04.147 0l3.824-3.744a.424.424 0 0 1 .59 0L14.62 9.73c.04.04.107.04.147 0l3.824-3.744a.424.424 0 0 1 .59 0Z" fill="#3B99FC"/></svg>