<svg width="11" height="11" viewBox="0 0 11 11" fill="none" xmlns="http://www.w3.org/2000/svg">
<path className='svg-path' fill-rule="evenodd" clip-rule="evenodd" d="M5.78696 0.830324C6.01466 0.391831 6.22683 0.402526 6.42865 0.787544C6.39501 1.20465 6.43641 1.59234 6.51145 1.96666C7.96818 3.4185 6.93061 4.94788 7.56713 6.52271C8.93072 6.53876 8.82204 5.35696 9.55429 5.2821C9.63709 6.57084 8.88673 7.56547 7.62923 7.68846C7.9449 9.06544 8.8712 10.3301 10.3202 9.51997C10.5298 9.53067 10.5582 9.64029 10.4754 9.80874C8.91519 11.4237 6.36914 9.97184 5.77661 7.89167C4.34833 9.97451 2.00928 9.92906 0.537015 7.93445C0.487854 7.74996 0.529253 7.63766 0.754361 7.66707C2.04033 9.08683 4.43631 8.60823 4.95897 6.60827C5.07023 4.865 4.92016 3.4693 5.89046 1.96666C5.95514 1.54154 5.90339 1.16989 5.78696 0.830324Z" fill="#0E9F6E"/>
</svg>
