<svg width="22" height="20" viewBox="0 0 22 20" fill="none" xmlns="http://www.w3.org/2000/svg">
<path d="M4.47742 1.12512L20.9057 12.4111L16.8126 18.4059L0.384277 7.11999L4.47742 1.12512Z" fill="url(#paint0_linear_2285_20564)"/>
<path d="M20.9089 12.4063C19.5035 14.4647 14.6866 13.6068 10.1501 10.4903C5.61351 7.37375 3.07518 3.17871 4.48055 1.12039C5.88591 -0.937926 10.7028 -0.0800739 15.2394 3.03646C19.7759 6.15299 22.3143 10.348 20.9089 12.4063Z" fill="url(#paint1_linear_2285_20564)"/>
<path d="M16.8157 18.4013C15.4103 20.4595 10.5935 19.6017 6.05692 16.4851C1.52037 13.3686 -1.01795 9.17357 0.387412 7.11526C1.79278 5.05695 6.60966 5.9148 11.1462 9.03133C15.6828 12.1479 18.2211 16.3429 16.8157 18.4013Z" fill="url(#paint2_linear_2285_20564)"/>
<path fill-rule="evenodd" clip-rule="evenodd" d="M20.277 12.0479C19.0744 13.8092 14.6891 12.8941 10.4821 10.0039C6.27511 7.11383 3.83955 3.34308 5.04213 1.58176C6.24472 -0.179561 10.6301 0.735524 14.8371 3.62565C19.0441 6.51578 21.4796 10.2866 20.277 12.0479ZM16.4389 9.40428C15.8446 10.2746 13.6764 9.8216 11.5961 8.39244C9.51583 6.96326 8.31109 5.09917 8.90534 4.22884C9.49959 3.35851 11.6677 3.81152 13.748 5.24067C15.8284 6.66981 17.0331 8.53388 16.4389 9.40428Z" fill="white"/>
<path d="M4.09755 3.23465C4.07429 3.14368 3.98193 3.08885 3.89124 3.11218C3.80055 3.13551 3.74589 3.22816 3.76915 3.31912C3.82006 3.51823 3.87983 3.719 3.94822 3.92101C3.97832 4.00993 4.07459 4.05753 4.16324 4.02733C4.25188 3.99713 4.29934 3.90057 4.26924 3.81165C4.2035 3.61748 4.14621 3.425 4.09755 3.23465Z" fill="white"/>
<path d="M4.75984 4.53797C4.72191 4.45211 4.62179 4.41334 4.53619 4.45138C4.4506 4.48943 4.41196 4.58986 4.44987 4.67571C5.43835 6.91374 7.42646 9.24721 10.1243 11.1005C10.2015 11.1536 10.307 11.1338 10.3599 11.0563C10.4128 10.9789 10.3931 10.873 10.3159 10.8199C7.65914 8.99484 5.718 6.70736 4.75984 4.53797Z" fill="white"/>
<path d="M15.2692 13.3228C15.1792 13.2974 15.0856 13.35 15.0602 13.4404C15.0349 13.5309 15.0873 13.6247 15.1775 13.6501C15.4858 13.7371 15.7911 13.8124 16.0925 13.876C16.1842 13.8954 16.2741 13.8366 16.2933 13.7447C16.3126 13.6528 16.2539 13.5626 16.1624 13.5433C15.8685 13.4813 15.5705 13.4078 15.2692 13.3228Z" fill="white"/>
<path d="M16.8536 13.6692C16.7611 13.655 16.6746 13.7189 16.6605 13.8117C16.6464 13.9045 16.71 13.9912 16.8026 14.0053C17.5493 14.1193 18.2672 14.1576 18.9399 14.1181C19.0334 14.1126 19.1047 14.0322 19.0993 13.9384C19.0938 13.8447 19.0136 13.7731 18.9202 13.7786C18.2739 13.8166 17.5799 13.78 16.8536 13.6692Z" fill="white"/>
<defs>
<linearGradient id="paint0_linear_2285_20564" x1="5.77592" y1="0.102989" x2="9.04902" y2="11.3424" gradientUnits="userSpaceOnUse">
<stop stop-color="#03B8FF"/>
<stop offset="1" stop-color="#FA52A0"/>
</linearGradient>
<linearGradient id="paint1_linear_2285_20564" x1="5.77587" y1="0.102933" x2="9.04896" y2="11.3423" gradientUnits="userSpaceOnUse">
<stop stop-color="#03B8FF"/>
<stop offset="1" stop-color="#FA52A0"/>
</linearGradient>
<linearGradient id="paint2_linear_2285_20564" x1="5.77587" y1="0.102943" x2="9.04896" y2="11.3423" gradientUnits="userSpaceOnUse">
<stop stop-color="#03B8FF"/>
<stop offset="1" stop-color="#FA52A0"/>
</linearGradient>
</defs>
</svg>
