<svg width="19" height="20" viewBox="0 0 19 20" fill="none" xmlns="http://www.w3.org/2000/svg">
<path d="M0.593592 0C1.71612 1.2818 2.83865 2.56359 3.96118 3.852C4.93149 4.96862 5.90181 6.08523 6.87213 7.20185C7.18289 7.56524 7.18923 8.00793 6.89116 8.3845C6.59943 8.75458 6.19988 8.9065 5.76229 8.98583C4.99492 9.12458 4.90613 9.26992 4.80465 10.076C4.73489 10.6046 4.56366 11.1133 4.41779 11.6287C4.35438 11.8468 4.23388 12.0515 4.15143 12.263C3.89141 12.9568 4.01825 13.4919 4.56366 13.9743C4.80465 14.1857 5.07736 14.3641 5.31201 14.5821C5.83839 15.0578 5.8701 15.7516 5.38178 16.2603C4.74123 16.9342 3.91044 17.1655 3.02891 17.3638C2.71181 16.7096 2.34398 16.0819 2.10298 15.4146C1.79857 14.5557 1.93175 13.7232 2.52155 13.003C2.66742 12.8246 2.79425 12.633 2.93378 12.4612C3.61871 11.6353 3.98654 10.6838 4.11973 9.60025C4.16412 9.25008 4.37974 8.91308 4.56366 8.60258C4.69684 8.37133 4.7666 8.19293 4.62708 7.94186C4.11973 6.97721 3.61237 6.01255 3.10501 5.0479C3.0733 4.98183 3.03525 4.91576 3.05428 4.81665C3.32698 5.25933 3.60603 5.70202 3.87873 6.13809C4.24656 6.71953 4.60171 7.30096 4.98222 7.86918C5.30567 8.36475 5.83839 8.444 6.3077 8.09383C6.54869 7.91543 6.56772 7.704 6.34575 7.41988C5.84473 6.76578 5.33738 6.11827 4.83003 5.47077C3.40308 3.667 1.97614 1.85002 0.555542 0.033036C0.568225 0.0198216 0.580909 0.0132144 0.593592 0ZM3.31429 14.7605C3.32698 14.3905 3.09233 14.1527 2.85768 14.2121C2.78791 14.2319 2.68644 14.3244 2.68644 14.3905C2.67376 14.5491 2.69913 14.7077 2.72449 14.8662C2.7562 15.0843 2.92109 15.1437 3.0733 15.0512C3.1938 14.9852 3.2699 14.8266 3.31429 14.7605Z" fill="white"/>
<path d="M11.058 8.30518C11.9396 9.01216 12.9796 8.99891 13.969 9.19058C14.6983 9.33591 15.4022 9.53408 16.0301 9.98341C17.4571 11.0009 17.4571 13.0029 16.8356 13.994C16.6643 12.7848 15.7764 12.3554 14.8886 11.9325C14.1466 11.5823 13.3855 11.2784 12.6626 10.8886C12.263 10.6772 11.8888 10.3864 11.5654 10.0627C11.1087 9.60683 10.9819 9.00558 11.058 8.30518Z" fill="white"/>
<path d="M15.1103 7.28801C15.5859 7.85623 15.9601 8.5037 16.0996 9.30979C15.5098 8.44429 14.6156 8.49712 13.7658 8.41787C13.3789 8.38479 12.9857 8.35837 12.5989 8.29891C11.6349 8.14695 10.8548 7.66462 10.2587 6.86515C9.92252 6.41586 9.58011 5.96657 9.23761 5.51729C8.57802 4.65834 7.79794 3.96459 6.71985 3.74655C7.60769 3.73334 8.34969 4.10994 8.99661 4.70459C9.16152 4.85656 9.34544 5.00853 9.46594 5.19353C9.66886 5.51729 9.93519 5.53049 10.2587 5.47764C11.508 5.29264 12.6939 5.51068 13.8102 6.15158C14.0702 6.30354 14.2351 6.48854 14.2097 6.79247C14.178 7.15587 14.1019 7.51926 14.0765 7.88927C14.0702 8.04124 14.1082 8.24606 14.2034 8.33195C14.2731 8.39145 14.5459 8.35179 14.6029 8.25927C14.7932 7.96195 14.9327 7.63159 15.1103 7.28801Z" fill="white"/>
<path d="M14.8315 18.4406C15.3643 17.3967 15.0789 16.5047 14.5525 15.6524C14.229 15.1238 13.893 14.6018 13.5758 14.0732C13.2397 13.5117 13.0114 12.917 13.0748 12.2365C13.0875 12.0845 13.1319 11.9392 13.17 11.7277C14.248 12.4677 15.5165 12.8377 16.2205 14.0204C17.083 15.4806 16.4043 17.7402 14.8315 18.4406Z" fill="white"/>
<path d="M8.4133 17.4761C8.76846 17.0929 9.21238 17.0995 9.51046 17.4167C9.78955 17.714 9.74513 18.3351 9.42171 18.6456C9.08555 18.9694 8.52113 18.9958 8.09621 18.7117C7.98205 18.6324 7.86788 18.5465 7.77913 18.4408C7.15762 17.7074 6.44098 17.159 5.41992 17.1392C5.45798 17.0599 5.46432 17.0136 5.48969 16.9939C6.46635 16.1481 7.53813 15.5667 8.85096 15.6063C10.1954 15.6525 11.0325 16.4388 11.2228 17.8264C11.2672 18.1765 11.318 18.5267 11.413 18.857C11.635 19.597 12.0853 19.8614 12.8273 19.7226C12.9478 19.7028 13.0683 19.6697 13.2269 19.6367C12.396 20.2776 11.4448 20.0464 10.9438 19.1081C10.7662 18.7712 10.6267 18.4144 10.4681 18.0642C10.2525 17.5951 9.9798 17.192 9.5168 16.9542C9.03488 16.7097 8.47671 16.7824 8.16596 17.1325C7.94405 17.3903 7.89963 17.7734 8.05821 18.084C8.21038 18.3747 8.6543 18.6126 8.93971 18.5531C9.21238 18.4936 9.40271 18.3284 9.46613 18.0444C9.5168 17.8131 9.50413 17.5819 9.28855 17.4233C9.04121 17.2449 8.81921 17.2383 8.4133 17.4761Z" fill="white"/>
<path d="M8.47034 7.67087C8.24842 7.60479 8.01375 7.58497 7.82984 7.47926C6.98002 7.00354 6.60584 6.17764 6.42193 5.24602C6.3585 4.92887 6.36484 4.59852 6.33948 4.22852C6.94196 4.32102 7.39225 4.53244 7.62692 5.07423C7.74109 5.33192 7.79175 5.61602 7.88059 5.88692C8.0645 6.44853 8.25475 7.01015 8.47034 7.67087Z" fill="white"/>
<path d="M12.2882 11.3579C13.0619 12.4085 12.7004 13.8092 11.5462 14.3113C11.2037 14.4633 10.8168 14.536 10.4427 14.5822C9.71334 14.6747 8.97767 14.7276 8.21667 14.7607C8.60351 14.6219 8.98401 14.4633 9.37726 14.3576C9.80851 14.2452 10.2461 14.1858 10.6837 14.0999C12.0408 13.8224 12.6116 12.904 12.3008 11.5032C12.3008 11.4768 12.3008 11.4438 12.2882 11.3579Z" fill="white"/>
<path d="M7.48729 10.5915C7.10045 10.5716 6.94824 10.4593 6.91653 10.1554C6.87214 9.72589 7.11947 9.26997 7.46829 9.20389C7.65854 9.17089 7.86779 9.18414 8.05812 9.23697C8.34346 9.31622 8.57179 9.6598 8.55912 9.92414C8.54645 10.2479 8.30546 10.3602 8.06446 10.4527C7.88687 10.5187 7.68387 10.5452 7.48729 10.5915ZM7.82346 9.19072C7.56337 9.26997 7.32245 9.31622 7.34146 9.5673C7.35412 9.68622 7.58245 9.83822 7.73462 9.87789C7.96929 9.9373 8.24837 9.71264 8.17862 9.56072C8.11512 9.40872 7.94396 9.30964 7.82346 9.19072Z" fill="white"/>
<path d="M13.3729 5.21947C13.5885 5.29876 13.8105 5.37143 14.0198 5.46393C14.2418 5.56304 14.3559 5.51679 14.3623 5.2459C14.3686 4.99483 14.4066 4.75036 14.4827 4.49268C14.3305 5.44412 14.8823 6.03877 15.4848 6.60038C15.4658 6.6202 15.4467 6.64002 15.4277 6.65984C15.2438 6.5277 15.0599 6.38894 14.7935 6.19733C14.7301 6.70609 14.6794 7.13556 14.6286 7.56503C14.5969 7.57163 14.5715 7.57824 14.5398 7.58485C14.711 6.48805 14.4574 5.63573 13.3094 5.29876C13.3222 5.26572 13.3475 5.23929 13.3729 5.21947Z" fill="white"/>
</svg>
