<svg width="21" height="19" viewBox="0 0 21 19" fill="none" xmlns="http://www.w3.org/2000/svg">
<path fill-rule="evenodd" clip-rule="evenodd" d="M14.8597 0.938779C15.9856 0.731889 20.1973 -0.0414838 20.3852 1.27656C20.5773 2.62627 18.8416 4.48757 17.0257 5.32427C16.93 5.36826 16.8452 5.42877 16.7601 5.48965C16.6893 5.54031 16.6186 5.59098 16.5412 5.63215C16.2555 5.7852 16.0852 6.16696 16.1271 6.51143V11.3339C14.695 10.3431 12.5903 9.72666 10.2047 9.72666C7.81913 9.72666 5.71434 10.3431 4.2823 11.3339V6.51143C4.32417 6.16696 4.15352 5.7852 3.86782 5.63215C3.79211 5.58952 3.71924 5.54204 3.64967 5.49C3.56452 5.42913 3.47937 5.36826 3.38332 5.32427C1.5674 4.48757 -0.167935 2.62627 0.0238244 1.27656C0.211714 -0.0414838 4.42445 0.731889 5.54968 0.938779C5.63905 0.954964 5.70906 0.967983 5.75621 0.975723C5.78858 0.981353 5.81919 0.953908 5.81251 0.92189C5.74777 0.603111 5.70097 -0.258929 6.32199 -0.445411C6.71888 -0.565041 6.98066 -0.344781 7.13583 -0.12241C7.2055 -0.0224835 7.41379 0.408536 7.54292 0.707963C7.61259 0.869464 7.77515 1.10556 7.95318 1.10133C8.68236 0.875187 9.44125 0.759319 10.2047 0.757575C10.9562 0.757575 11.7078 0.872278 12.4558 1.10133C12.6342 1.10556 12.7964 0.869112 12.8665 0.707611C12.9956 0.408536 13.2039 -0.0224835 13.2732 -0.12241C13.4287 -0.344781 13.6905 -0.565041 14.0874 -0.445411C14.7081 -0.258929 14.6613 0.603111 14.5965 0.92189C14.5902 0.953557 14.6204 0.981353 14.6528 0.975723C14.7 0.967983 14.7703 0.954964 14.8597 0.938427V0.938779ZM9.31028 6.27709C9.33139 6.15535 9.13154 5.84572 8.50876 5.42561C8.06903 5.13343 7.58732 4.91002 7.08024 4.76307C6.9616 4.72614 6.83784 4.70833 6.71361 4.71029C6.48736 4.71873 6.27027 4.79474 6.08027 4.92914C5.82658 5.10225 5.65101 5.33377 5.59788 5.63285C5.54334 5.93192 5.62814 6.20883 5.80653 6.45724C5.93812 6.64724 6.11546 6.79185 6.32516 6.87595C6.44022 6.92169 6.56442 6.94209 6.68827 6.94983C7.2157 6.98185 7.7484 6.93471 8.26105 6.80804C8.9922 6.62261 9.28741 6.39883 9.31028 6.27709ZM14.0839 6.87595C14.2944 6.79072 14.475 6.64502 14.6029 6.45724C14.7809 6.20883 14.8657 5.93228 14.8115 5.6332C14.7587 5.33413 14.5828 5.10225 14.3288 4.92914C14.1436 4.79576 13.9234 4.71966 13.6954 4.71029C13.5712 4.70833 13.4474 4.72614 13.3288 4.76307C12.8217 4.90989 12.34 5.13318 11.9003 5.42526C11.2775 5.84572 11.0783 6.155 11.0987 6.27709C11.122 6.39883 11.4168 6.62261 12.1483 6.80804C12.6606 6.93471 13.1933 6.98185 13.7211 6.94983C13.8446 6.94209 13.9692 6.92169 14.0839 6.87595Z" fill="white"/>
<path fill-rule="evenodd" clip-rule="evenodd" d="M3.14941 14.5249C3.14941 12.3181 6.308 10.5289 10.2048 10.5289C14.1012 10.5289 17.2601 12.3181 17.2601 14.5249C17.2601 16.7317 14.1015 18.5209 10.2048 18.5209C6.308 18.5209 3.14941 16.7321 3.14941 14.5249ZM5.59127 14.2762C5.69929 14.9334 6.26155 15.223 6.86498 14.9334C7.15237 14.802 7.3984 14.5945 7.5765 14.3335C7.75459 14.0724 7.85798 13.7677 7.8755 13.4521C7.87269 13.1133 7.69043 13.2435 7.46524 13.4039C7.16441 13.6186 6.78687 13.8881 6.6595 13.1643C6.43783 11.899 5.4734 13.5725 5.59163 14.2762H5.59127ZM13.5439 14.9334C14.1476 15.223 14.7099 14.9334 14.8176 14.2762C14.9358 13.5725 13.9714 11.899 13.7493 13.1643C13.6227 13.8881 13.2448 13.6186 12.9436 13.4036C12.7188 13.2431 12.5365 13.1133 12.534 13.4521C12.5514 13.7676 12.6546 14.0724 12.8326 14.3334C13.0106 14.5945 13.2565 14.802 13.5439 14.9334Z" fill="white"/>
</svg>
