<svg width="14" height="11" viewBox="0 0 14 11" fill="none" xmlns="http://www.w3.org/2000/svg">
<path className='svg-path' d="M2.75928 5.04545H5.35928C5.55928 4.5 6.10928 4.13636 6.75928 4.13636C7.40928 4.13636 7.95928 4.5 8.15928 5.04545H10.7593C12.1593 5.04545 13.2593 6.04545 13.2593 7.31818C13.2593 8.59091 12.1593 9.59091 10.7593 9.59091H5.15928C4.95928 10.1364 4.40928 10.5 3.75928 10.5C2.90928 10.5 2.25928 9.90909 2.25928 9.13636C2.25928 8.36364 2.90928 7.77273 3.75928 7.77273C4.40928 7.77273 4.95928 8.13636 5.15928 8.68182H10.7593C11.6093 8.68182 12.2593 8.09091 12.2593 7.31818C12.2593 6.54545 11.6093 5.95455 10.7593 5.95455H8.15928C7.95928 6.5 7.40928 6.86364 6.75928 6.86364C6.10928 6.86364 5.55928 6.5 5.35928 5.95455H2.75928C1.35928 5.95455 0.259277 4.95455 0.259277 3.68182C0.259277 2.40909 1.35928 1.40909 2.75928 1.40909H8.35928C8.55928 0.863636 9.10928 0.5 9.75928 0.5C10.6093 0.5 11.2593 1.09091 11.2593 1.86364C11.2593 2.63636 10.6093 3.22727 9.75928 3.22727C9.10928 3.22727 8.55928 2.86364 8.35928 2.31818H2.75928C1.90928 2.31818 1.25928 2.90909 1.25928 3.68182C1.25928 4.45455 1.90928 5.04545 2.75928 5.04545ZM3.75928 8.68182C3.45928 8.68182 3.25928 8.86364 3.25928 9.13636C3.25928 9.40909 3.45928 9.59091 3.75928 9.59091C4.05928 9.59091 4.25928 9.40909 4.25928 9.13636C4.25928 8.86364 4.05928 8.68182 3.75928 8.68182ZM6.75928 5.95455C7.05928 5.95455 7.25928 5.77273 7.25928 5.5C7.25928 5.22727 7.05928 5.04545 6.75928 5.04545C6.45928 5.04545 6.25928 5.22727 6.25928 5.5C6.25928 5.77273 6.45928 5.95455 6.75928 5.95455ZM9.75928 2.31818C10.0593 2.31818 10.2593 2.13636 10.2593 1.86364C10.2593 1.59091 10.0593 1.40909 9.75928 1.40909C9.45928 1.40909 9.25928 1.59091 9.25928 1.86364C9.25928 2.13636 9.45928 2.31818 9.75928 2.31818Z" fill="#0E9F6E"/>
</svg>
