<svg width="10" height="11" viewBox="0 0 10 11" fill="none" xmlns="http://www.w3.org/2000/svg">
<path d="M7.58357 0.5L7.14483 1.01136L8.84359 2.51136V7.26137C8.8323 7.50001 8.62983 7.69318 8.38232 7.68183C8.15733 7.67047 7.97733 7.48866 7.9661 7.26137V4.06818C7.9661 3.5 7.51606 3.04545 6.95359 3.04545H6.70608V1.60227C6.70608 1.03409 6.25605 0.579545 5.69356 0.579545H1.53105C0.968556 0.579545 0.518555 1.03409 0.518555 1.60227V10.0454C0.518555 10.2954 0.721055 10.5 0.968556 10.5H6.25605C6.50356 10.5 6.70608 10.2954 6.70608 10.0454V3.72727H6.95359C7.14483 3.72727 7.29107 3.875 7.29107 4.06818V7.26137C7.31359 7.88635 7.81985 8.36362 8.43859 8.35227C9.02359 8.32956 9.49609 7.85229 9.51855 7.26137V2.20455L7.58357 0.5ZM5.56982 4.93182H1.65481V1.82955H5.56982V4.93182Z" fill="#0E9F6E"/>
</svg>
