<svg width="10" height="11" viewBox="0 0 10 11" fill="none" xmlns="http://www.w3.org/2000/svg">
<path fill-rule="evenodd" clip-rule="evenodd" d="M4.20953 0.5C1.88467 0.5 0 2.40309 0 4.75066C0 7.09824 1.88467 9.00133 4.20953 9.00133C6.53439 9.00133 8.41906 7.09824 8.41906 4.75066C8.41906 3.62332 7.97556 2.54214 7.18612 1.74499C6.39668 0.947837 5.32597 0.5 4.20953 0.5ZM7.76964 8.27181C7.97799 8.06367 8.31579 8.06367 8.52413 8.27181L9.84374 9.59013C10.0521 9.79828 10.0521 10.1357 9.84374 10.3439C9.63539 10.552 9.29759 10.552 9.08924 10.3439L7.76964 9.02557C7.56129 8.81742 7.56129 8.47996 7.76964 8.27181ZM5.92521 3.63729C6.10826 3.82035 6.10826 4.11715 5.92521 4.30021L3.73771 6.48771C3.55465 6.67076 3.25785 6.67076 3.07479 6.48771L2.13729 5.55021C1.95424 5.36715 1.95424 5.07035 2.13729 4.88729C2.32035 4.70424 2.61715 4.70424 2.80021 4.88729L3.40625 5.49334L5.26229 3.63729C5.44535 3.45424 5.74215 3.45424 5.92521 3.63729Z" fill="#0E9F6E"/>
</svg>
