<svg width="9" height="13" viewBox="0 0 9 13" fill="none" xmlns="http://www.w3.org/2000/svg">
<path opacity="0.8" fill-rule="evenodd" clip-rule="evenodd" d="M4.05196 2.49891e-10C4.42319 -1.00133e-05 4.72415 0.300928 4.72416 0.672164L4.05198 0.672182L3.37979 0.6722C3.37978 0.300964 3.68072 1.00138e-05 4.05196 2.49891e-10ZM4.7242 10.1365L4.72416 0.672164L4.05198 0.672182L3.37979 0.6722L3.37984 10.1366L1.16956 7.70533C0.919837 7.43064 0.494716 7.41039 0.220026 7.66012C-0.0546654 7.90984 -0.074907 8.33496 0.174815 8.60965L3.5546 12.3274C3.682 12.4675 3.86259 12.5474 4.05198 12.5474C4.24136 12.5474 4.42195 12.4675 4.54935 12.3274L7.92914 8.60965C8.17886 8.33496 8.15862 7.90984 7.88393 7.66012C7.60924 7.41039 7.18412 7.43064 6.93439 7.70533L4.7242 10.1365Z" fill="#8780BF"/>
</svg>
