<svg width="24" height="24" viewBox="0 0 24 24" fill="none" xmlns="http://www.w3.org/2000/svg">
<g id="Action / done_all_24px">
<path id="icon/action/done_all_24px" fill-rule="evenodd" clip-rule="evenodd" d="M21.505 5.99439L11.625 15.8744L8.14498 12.4044C7.95815 12.2171 7.7045 12.1119 7.43998 12.1119C7.17546 12.1119 6.92181 12.2171 6.73498 12.4044C6.34498 12.7944 6.34498 13.4244 6.73498 13.8144L10.915 17.9944C11.305 18.3844 11.935 18.3844 12.325 17.9944L22.915 7.41439C23.305 7.02439 23.305 6.39439 22.915 6.00439H22.905C22.525 5.60439 21.895 5.60439 21.505 5.99439ZM17.265 6.00439C17.0781 5.81713 16.8245 5.7119 16.56 5.7119C16.2955 5.7119 16.0418 5.81713 15.855 6.00439L10.215 11.6444L11.625 13.0544L17.265 7.40439C17.645 7.02439 17.645 6.38439 17.265 6.00439ZM5.26498 18.0044L1.08498 13.8244C0.69498 13.4344 0.69498 12.7944 1.08498 12.4044C1.27181 12.2171 1.52546 12.1119 1.78998 12.1119C2.0545 12.1119 2.30815 12.2171 2.49498 12.4044L7.37498 17.3044L6.67498 18.0044C6.28498 18.3944 5.65498 18.3944 5.26498 18.0044Z" fill="#057A55"/>
</g>
</svg>
