<svg width="9" height="12" viewBox="0 0 9 12" fill="none" xmlns="http://www.w3.org/2000/svg">
    <path d="M7.875 4.49997H7.5V2.99997C7.5 1.34543 6.15454 -3.05176e-05 4.5 -3.05176e-05C2.84546 -3.05176e-05 1.5 1.34543 1.5 2.99997V4.49997H1.125C0.505005 4.49997 0 5.00443 0 5.62497V10.875C0 11.4955 0.505005 12 1.125 12H7.875C8.495 12 9 11.4955 9 10.875V5.62497C9 5.00443 8.495 4.49997 7.875 4.49997ZM2.50003 2.99997C2.50003 1.89694 3.39697 1 4.5 1C5.60303 1 6.49997 1.89694 6.49997 2.99997V4.49997H2.50003V2.99997Z" fill="#F02E51"/>
</svg>